%TF.GenerationSoftware,KiCad,Pcbnew,10.0.3*%
%TF.CreationDate,2026-08-08T18:09:28-05:00*%
%TF.ProjectId,ecdl-laser-bboard,6563646c-2d6c-4617-9365-722d62626f61,rev?*%
%TF.SameCoordinates,Original*%
%TF.FileFunction,Legend,Bot*%
%TF.FilePolarity,Positive*%
%FSLAX46Y46*%
G04 Gerber Fmt 4.6, Leading zero omitted, Abs format (unit mm)*
G04 Created by KiCad (PCBNEW 10.0.3) date 2026-08-08 18:09:28*
%MOMM*%
%LPD*%
G01*
G04 APERTURE LIST*
G04 Aperture macros list*
%AMRoundRect*
0 Rectangle with rounded corners*
0 $1 Rounding radius*
0 $2 $3 $4 $5 $6 $7 $8 $9 X,Y pos of 4 corners*
0 Add a 4 corners polygon primitive as box body*
4,1,4,$2,$3,$4,$5,$6,$7,$8,$9,$2,$3,0*
0 Add four circle primitives for the rounded corners*
1,1,$1+$1,$2,$3*
1,1,$1+$1,$4,$5*
1,1,$1+$1,$6,$7*
1,1,$1+$1,$8,$9*
0 Add four rect primitives between the rounded corners*
20,1,$1+$1,$2,$3,$4,$5,0*
20,1,$1+$1,$4,$5,$6,$7,0*
20,1,$1+$1,$6,$7,$8,$9,0*
20,1,$1+$1,$8,$9,$2,$3,0*%
G04 Aperture macros list end*
%ADD10C,0.508000*%
%ADD11C,1.397000*%
%ADD12C,4.216000*%
%ADD13RoundRect,0.102000X1.225000X-1.225000X1.225000X1.225000X-1.225000X1.225000X-1.225000X-1.225000X0*%
%ADD14C,2.654000*%
%ADD15R,1.650000X1.650000*%
%ADD16C,1.650000*%
%ADD17C,1.803400*%
%ADD18C,2.006600*%
%ADD19C,3.200000*%
%ADD20C,2.108200*%
%ADD21RoundRect,0.102000X0.704000X0.704000X-0.704000X0.704000X-0.704000X-0.704000X0.704000X-0.704000X0*%
%ADD22C,1.612000*%
%ADD23C,4.420000*%
%ADD24R,2.100000X2.100000*%
%ADD25C,2.100000*%
%ADD26C,1.550000*%
%ADD27O,1.574800X3.505200*%
%ADD28O,3.505200X1.574800*%
%ADD29R,1.800000X1.800000*%
%ADD30C,1.800000*%
G04 APERTURE END LIST*
%TO.C,J10*%
D10*
X262781095Y-92535000D02*
G75*
G02*
X262019095Y-92535000I-381000J0D01*
G01*
X262019095Y-92535000D02*
G75*
G02*
X262781095Y-92535000I381000J0D01*
G01*
%TO.C,J8*%
X262767100Y-64405000D02*
G75*
G02*
X262005100Y-64405000I-381000J0D01*
G01*
X262005100Y-64405000D02*
G75*
G02*
X262767100Y-64405000I381000J0D01*
G01*
%TO.C,J9*%
X262764275Y-78435000D02*
G75*
G02*
X262002275Y-78435000I-381000J0D01*
G01*
X262002275Y-78435000D02*
G75*
G02*
X262764275Y-78435000I381000J0D01*
G01*
%TO.C,J11*%
X262774631Y-106575000D02*
G75*
G02*
X262012631Y-106575000I-381000J0D01*
G01*
X262012631Y-106575000D02*
G75*
G02*
X262774631Y-106575000I381000J0D01*
G01*
%TO.C,J3*%
X115404010Y-69109400D02*
G75*
G02*
X114642010Y-69109400I-381000J0D01*
G01*
X114642010Y-69109400D02*
G75*
G02*
X115404010Y-69109400I381000J0D01*
G01*
%TD*%
%LPC*%
D11*
%TO.C,J2*%
X233294696Y-44739971D03*
X236034695Y-44739971D03*
X238774698Y-44739971D03*
X241514697Y-44739971D03*
X244254697Y-44739971D03*
X234664696Y-41899971D03*
X237404695Y-41899971D03*
X240144697Y-41899971D03*
X242884697Y-41899971D03*
D12*
X226280000Y-43320001D03*
X251270000Y-43320001D03*
%TD*%
D13*
%TO.C,S1*%
X102797155Y-76675001D03*
D14*
X107497155Y-76675001D03*
X112197155Y-76675001D03*
%TD*%
D15*
%TO.C,J13*%
X191450000Y-70464620D03*
D16*
X188910000Y-70464620D03*
X191450000Y-67924620D03*
X188910000Y-67924620D03*
X191450000Y-65384620D03*
X188910000Y-65384620D03*
%TD*%
D17*
%TO.C,J10*%
X256138995Y-92535000D03*
D18*
X252963995Y-89360000D03*
X259313995Y-89360000D03*
X252963995Y-95710000D03*
X259313995Y-95710000D03*
%TD*%
D19*
%TO.C,REF\u002A\u002A*%
X261225000Y-135076895D03*
%TD*%
%TO.C,REF\u002A\u002A*%
X104712111Y-37698105D03*
%TD*%
D20*
%TO.C,J7*%
X167569394Y-64790000D03*
X165029394Y-67330000D03*
X170109394Y-67330000D03*
X170109394Y-62250000D03*
X165029394Y-62250000D03*
%TD*%
D21*
%TO.C,J1*%
X130724620Y-44500000D03*
D22*
X133464620Y-44500000D03*
X136204620Y-44500000D03*
X138944620Y-44500000D03*
X141684620Y-44500000D03*
X144424620Y-44500000D03*
X147164620Y-44500000D03*
X149904620Y-44500000D03*
X132094620Y-41660000D03*
X134834620Y-41660000D03*
X137574620Y-41660000D03*
X140314620Y-41660000D03*
X143054620Y-41660000D03*
X145794620Y-41660000D03*
X148534620Y-41660000D03*
D23*
X156974620Y-43080000D03*
X123654620Y-43080000D03*
%TD*%
D17*
%TO.C,J8*%
X256125000Y-64405000D03*
D18*
X252950000Y-61230000D03*
X259300000Y-61230000D03*
X252950000Y-67580000D03*
X259300000Y-67580000D03*
%TD*%
D17*
%TO.C,J9*%
X256122175Y-78435000D03*
D18*
X252947175Y-75260000D03*
X259297175Y-75260000D03*
X252947175Y-81610000D03*
X259297175Y-81610000D03*
%TD*%
D24*
%TO.C,J5*%
X112615423Y-111172711D03*
D25*
X112615423Y-116252711D03*
X112615423Y-121332711D03*
X112615423Y-126412711D03*
%TD*%
D24*
%TO.C,J4*%
X213055000Y-45600000D03*
D25*
X207975000Y-45600000D03*
X202895000Y-45600000D03*
X197815000Y-45600000D03*
X192735000Y-45600000D03*
X187655000Y-45600000D03*
X182575000Y-45600000D03*
X177495000Y-45600000D03*
X172415000Y-45600000D03*
X167335000Y-45600000D03*
%TD*%
D26*
%TO.C,J12*%
X236200000Y-122829916D03*
X238740000Y-122829916D03*
X236200000Y-125369916D03*
X238740000Y-125369916D03*
X236200000Y-127909916D03*
X238740000Y-127909916D03*
X236200000Y-130449916D03*
X238740000Y-130449916D03*
X236200000Y-132989916D03*
X238740000Y-132989916D03*
X236200000Y-135529916D03*
X238740000Y-135529916D03*
%TD*%
D17*
%TO.C,J11*%
X256132531Y-106575000D03*
D18*
X252957531Y-103400000D03*
X259307531Y-103400000D03*
X252957531Y-109750000D03*
X259307531Y-109750000D03*
%TD*%
D19*
%TO.C,REF\u002A\u002A*%
X261187111Y-37850000D03*
%TD*%
%TO.C,REF\u002A\u002A*%
X104750000Y-134925000D03*
%TD*%
D27*
%TO.C,J3*%
X114950000Y-63750000D03*
X108700000Y-63750000D03*
D28*
X111824998Y-68550001D03*
%TD*%
D29*
%TO.C,J2 LDTC (CONTROL)*%
X184255000Y-128682663D03*
D30*
X188065000Y-128682663D03*
X191875000Y-128682663D03*
X195685000Y-128682663D03*
X199495000Y-128682663D03*
X203305000Y-128682663D03*
X207115000Y-128682663D03*
X210925000Y-128682663D03*
X214735000Y-128682663D03*
X218545000Y-128682663D03*
X222355000Y-128682663D03*
X226165000Y-128682663D03*
%TD*%
%LPD*%
M02*
