M48
; DRILL file KiCad 10.0.3 date 2026-08-08T18:09:32
; FORMAT={-:-/ absolute / metric / decimal}
; #@! TF.CreationDate,2026-08-08T18:09:32-05:00
; #@! TF.GenerationSoftware,Kicad,Pcbnew,10.0.3
; #@! TF.FileFunction,Plated,1,4,PTH
FMAT,2
METRIC
; #@! TA.AperFunction,Plated,PTH,ViaDrill
T1C0.250
; #@! TA.AperFunction,Plated,PTH,ViaDrill
T2C0.300
; #@! TA.AperFunction,Plated,PTH,ComponentDrill
T3C0.813
; #@! TA.AperFunction,Plated,PTH,ComponentDrill
T4C0.889
; #@! TA.AperFunction,Plated,PTH,ComponentDrill
T5C0.900
; #@! TA.AperFunction,Plated,PTH,ComponentDrill
T6C1.020
; #@! TA.AperFunction,Plated,PTH,ComponentDrill
T7C1.100
; #@! TA.AperFunction,Plated,PTH,ComponentDrill
T8C1.200
; #@! TA.AperFunction,Plated,PTH,ComponentDrill
T9C1.295
; #@! TA.AperFunction,Plated,PTH,ComponentDrill
T10C1.400
; #@! TA.AperFunction,Plated,PTH,ComponentDrill
T11C1.499
; #@! TA.AperFunction,Plated,PTH,ComponentDrill
T12C1.600
; #@! TA.AperFunction,Plated,PTH,ComponentDrill
T13C1.850
; #@! TA.AperFunction,Plated,PTH,ComponentDrill
T14C3.200
; #@! TA.AperFunction,Plated,PTH,ComponentDrill
T15C3.200
%
G90
G05
T1
X133.563Y-100.533
X133.7Y-119.38
X230.02Y-93.44
X231.43Y-93.58
X232.256Y-93.637
X233.15Y-93.3
T2
X103.58Y-56.09
X103.58Y-58.09
X104.35Y-93.34
X104.44Y-94.98
X104.6Y-47.73
X104.6Y-84.02
X104.66Y-50.17
X105.26Y-94.98
X105.518Y-43.82
X105.52Y-41.67
X105.58Y-56.09
X105.58Y-58.09
X106.13Y-94.98
X106.94Y-93.3
X107.468Y-43.84
X107.47Y-41.69
X107.58Y-56.09
X107.58Y-58.09
X108.2Y-94.91
X108.23Y-94.2
X108.24Y-91.88
X108.25Y-92.67
X108.29Y-96.71
X109.13Y-100.21
X109.45Y-37.278
X109.45Y-39.278
X109.45Y-96.04
X109.468Y-43.84
X109.47Y-35.328
X109.47Y-41.69
X109.58Y-56.09
X109.58Y-58.09
X109.86Y-82.57
X110.074Y-137.672
X110.08Y-132.372
X110.082Y-134.192
X110.2Y-100.22
X110.45Y-82.93
X111.03Y-51.31
X111.03Y-53.31
X111.32Y-100.22
X111.58Y-56.09
X111.58Y-58.09
X111.6Y-37.28
X111.6Y-39.28
X111.62Y-35.33
X111.72Y-43.558
X111.72Y-45.558
X111.74Y-41.608
X112.074Y-137.672
X112.08Y-132.372
X112.082Y-134.192
X112.14Y-84.6
X113.03Y-51.31
X113.03Y-53.31
X113.68Y-56.15
X113.68Y-58.15
X113.87Y-43.56
X113.87Y-45.56
X113.89Y-41.61
X114.13Y-37.278
X114.13Y-39.278
X114.15Y-35.328
X114.164Y-137.674
X114.17Y-132.374
X114.172Y-134.194
X115.01Y-79.68
X115.03Y-51.31
X115.03Y-53.31
X115.06Y-76.2
X115.68Y-56.15
X115.68Y-58.15
X116.01Y-76.24
X116.05Y-79.68
X116.164Y-137.674
X116.17Y-132.374
X116.172Y-134.194
X116.28Y-37.28
X116.28Y-39.28
X116.3Y-35.33
X116.36Y-43.558
X116.36Y-45.558
X116.38Y-41.608
X116.46Y-81.55
X116.92Y-76.24
X117.1Y-79.71
X117.36Y-80.55
X117.4Y-107.34
X117.4Y-109.34
X117.68Y-56.15
X117.68Y-58.15
X117.98Y-85.74
X117.98Y-87.74
X117.98Y-89.74
X118.46Y-37.293
X118.46Y-39.293
X118.48Y-35.343
X118.5Y-137.674
X118.51Y-43.56
X118.51Y-45.56
X118.53Y-41.61
X118.86Y-119.21
X118.88Y-117.56
X118.88Y-120.03
X118.9Y-118.24
X119.4Y-107.34
X119.4Y-109.34
X119.7Y-119.22
X119.72Y-117.57
X119.72Y-120.04
X119.74Y-118.25
X119.98Y-85.74
X119.98Y-87.74
X119.98Y-89.74
X120.5Y-137.674
X121.19Y-61.52
X121.19Y-63.52
X121.19Y-65.52
X121.19Y-67.52
X121.19Y-69.52
X121.4Y-107.34
X121.4Y-109.34
X122.56Y-137.681
X123.19Y-61.52
X123.19Y-63.52
X123.19Y-65.52
X123.19Y-67.52
X123.19Y-69.52
X123.538Y-49.51
X123.54Y-47.36
X123.638Y-53.81
X123.64Y-51.66
X124.56Y-137.681
X125.488Y-49.53
X125.49Y-47.38
X125.588Y-53.83
X125.59Y-51.68
X125.85Y-64.55
X125.85Y-66.55
X125.85Y-68.55
X127.47Y-98.09
X127.488Y-49.53
X127.49Y-47.38
X127.51Y-116.82
X127.54Y-137.649
X127.588Y-53.83
X127.59Y-51.68
X127.85Y-64.55
X127.85Y-66.55
X127.85Y-68.55
X128.18Y-59.511
X128.2Y-57.561
X129.54Y-137.649
X130.18Y-59.511
X130.18Y-61.511
X130.2Y-57.561
X130.74Y-113.7
X130.85Y-94.889
X131.02Y-118.48
X131.079Y-116.8
X131.093Y-97.884
X131.17Y-115.0
X131.2Y-99.54
X131.279Y-96.43
X131.28Y-95.59
X131.6Y-137.656
X131.68Y-74.7
X131.68Y-76.2
X131.68Y-77.7
X131.69Y-94.89
X131.71Y-79.03
X131.71Y-80.53
X131.71Y-82.03
X132.29Y-111.19
X132.29Y-112.96
X132.291Y-110.35
X132.291Y-112.12
X132.33Y-59.513
X132.33Y-61.513
X132.349Y-92.39
X132.349Y-94.16
X132.35Y-57.563
X132.35Y-91.55
X132.35Y-93.32
X133.04Y-112.96
X133.041Y-112.12
X133.05Y-111.17
X133.051Y-110.33
X133.099Y-94.16
X133.1Y-93.32
X133.109Y-92.37
X133.11Y-91.53
X133.12Y-116.54
X133.129Y-117.28
X133.13Y-97.737
X133.139Y-98.477
X133.27Y-74.63
X133.27Y-76.13
X133.274Y-77.72
X134.02Y-116.557
X134.029Y-117.297
X134.03Y-97.753
X134.039Y-98.493
X134.26Y-123.09
X134.27Y-103.92
X134.28Y-114.51
X134.33Y-59.513
X134.33Y-61.513
X134.35Y-57.563
X134.36Y-95.51
X134.554Y-137.676
X134.56Y-132.376
X134.562Y-134.196
X134.77Y-74.63
X134.77Y-76.13
X134.774Y-77.72
X134.78Y-79.11
X134.94Y-116.533
X134.949Y-117.273
X134.95Y-97.73
X134.959Y-98.47
X135.37Y-69.03
X135.37Y-70.53
X135.374Y-72.12
X136.27Y-74.63
X136.27Y-76.13
X136.274Y-77.72
X136.28Y-79.11
X136.33Y-59.513
X136.33Y-61.513
X136.35Y-57.563
X136.554Y-137.676
X136.56Y-132.376
X136.562Y-134.196
X136.65Y-69.06
X136.65Y-70.56
X136.65Y-72.06
X136.87Y-118.297
X136.91Y-99.41
X137.77Y-74.63
X137.77Y-76.13
X137.774Y-77.72
X137.78Y-79.11
X138.33Y-59.513
X138.33Y-61.513
X138.35Y-57.563
X138.614Y-137.683
X138.62Y-132.383
X138.622Y-134.203
X139.27Y-74.63
X139.27Y-76.13
X139.274Y-77.72
X139.78Y-100.7
X140.43Y-63.37
X140.43Y-65.37
X140.47Y-59.51
X140.47Y-61.51
X140.49Y-57.56
X140.54Y-78.98
X140.54Y-80.48
X140.54Y-81.98
X140.55Y-74.66
X140.55Y-76.16
X140.55Y-77.66
X140.614Y-137.683
X140.62Y-132.383
X140.622Y-134.203
X140.93Y-118.61
X142.43Y-63.37
X142.43Y-65.37
X142.47Y-59.51
X142.47Y-61.51
X142.49Y-57.56
X142.774Y-137.682
X142.78Y-132.382
X142.782Y-134.202
X143.91Y-98.546
X143.96Y-100.646
X143.96Y-102.646
X144.43Y-63.37
X144.43Y-65.37
X144.47Y-59.51
X144.47Y-61.51
X144.49Y-57.56
X144.52Y-127.24
X144.53Y-126.09
X144.774Y-137.682
X144.78Y-132.382
X144.782Y-134.202
X145.91Y-98.546
X145.96Y-100.646
X145.96Y-102.646
X146.43Y-63.37
X146.43Y-65.37
X146.47Y-59.51
X146.47Y-61.51
X146.49Y-57.56
X146.772Y-135.862
X146.774Y-137.682
X146.78Y-132.382
X146.782Y-134.202
X147.61Y-120.19
X147.61Y-121.69
X147.61Y-123.19
X147.61Y-124.69
X148.08Y-127.44
X148.09Y-126.29
X148.43Y-63.37
X148.43Y-65.37
X148.47Y-59.51
X148.47Y-61.51
X148.49Y-57.56
X148.772Y-135.86
X148.774Y-137.68
X148.78Y-132.38
X148.782Y-134.2
X149.2Y-121.62
X149.2Y-123.12
X149.204Y-124.71
X149.75Y-66.83
X149.75Y-68.83
X149.75Y-70.83
X149.75Y-72.83
X149.75Y-74.83
X149.752Y-98.55
X149.8Y-76.93
X149.8Y-78.93
X149.8Y-82.93
X149.8Y-84.93
X149.802Y-100.65
X149.802Y-102.65
X150.7Y-121.62
X150.7Y-123.12
X150.704Y-124.71
X150.72Y-63.365
X150.72Y-65.365
X150.76Y-59.505
X150.76Y-61.505
X150.772Y-135.86
X150.774Y-137.68
X150.78Y-57.555
X150.78Y-132.38
X150.782Y-134.2
X151.75Y-66.83
X151.75Y-68.83
X151.75Y-70.83
X151.75Y-72.83
X151.75Y-74.83
X151.752Y-98.55
X151.8Y-76.93
X151.8Y-78.93
X151.8Y-82.93
X151.8Y-84.93
X151.802Y-100.65
X151.802Y-102.65
X151.92Y-127.41
X151.93Y-126.26
X152.2Y-121.62
X152.2Y-123.12
X152.204Y-124.71
X152.772Y-135.86
X152.774Y-137.68
X152.78Y-132.38
X152.782Y-134.2
X153.67Y-66.839
X153.67Y-68.839
X153.67Y-70.839
X153.67Y-72.839
X153.67Y-74.839
X153.672Y-98.559
X153.679Y-86.19
X153.679Y-88.19
X153.679Y-90.19
X153.679Y-92.19
X153.7Y-121.62
X153.7Y-123.12
X153.704Y-124.71
X153.72Y-76.939
X153.72Y-78.939
X153.722Y-100.659
X153.722Y-102.659
X153.729Y-94.29
X153.729Y-96.29
X154.772Y-135.86
X154.774Y-137.68
X154.78Y-132.38
X154.782Y-134.2
X155.2Y-121.62
X155.2Y-123.12
X155.204Y-124.71
X155.8Y-127.44
X155.81Y-126.29
X156.48Y-118.65
X156.48Y-120.15
X156.48Y-121.65
X156.48Y-123.15
X156.48Y-124.65
X156.872Y-135.81
X156.874Y-137.63
X156.88Y-132.33
X156.882Y-134.15
X158.58Y-61.75
X158.58Y-63.75
X158.64Y-57.4
X158.64Y-59.4
X158.72Y-66.11
X158.72Y-68.11
X158.86Y-70.33
X158.86Y-72.33
X158.872Y-135.81
X158.874Y-137.63
X158.88Y-132.33
X158.882Y-134.15
X158.91Y-74.83
X158.91Y-76.83
X160.58Y-61.75
X160.58Y-63.75
X160.64Y-57.4
X160.64Y-59.4
X160.72Y-66.11
X160.72Y-68.11
X160.86Y-70.33
X160.86Y-72.33
X160.91Y-74.83
X160.91Y-76.83
X161.91Y-85.1
X161.93Y-83.28
X162.58Y-61.75
X162.58Y-63.75
X162.64Y-57.4
X162.64Y-59.4
X162.72Y-66.11
X162.72Y-68.11
X162.86Y-70.33
X162.86Y-72.33
X162.91Y-74.83
X162.91Y-76.83
X163.63Y-87.84
X163.632Y-90.058
X163.632Y-92.058
X163.69Y-93.72
X163.692Y-95.938
X163.692Y-97.938
X164.75Y-78.91
X165.58Y-73.19
X165.58Y-75.19
X165.688Y-122.592
X165.689Y-116.51
X165.69Y-124.81
X165.691Y-118.728
X165.691Y-120.728
X165.692Y-129.01
X165.692Y-131.01
X165.79Y-87.838
X165.792Y-90.055
X165.792Y-92.055
X165.85Y-93.718
X165.852Y-95.935
X165.852Y-97.935
X167.58Y-73.19
X167.58Y-75.19
X167.688Y-122.592
X167.689Y-116.51
X167.69Y-124.81
X167.69Y-126.81
X167.691Y-118.728
X167.691Y-120.728
X167.692Y-129.01
X167.692Y-131.01
X169.29Y-97.84
X169.292Y-100.058
X169.292Y-102.058
X169.33Y-91.42
X169.332Y-93.638
X169.332Y-95.638
X169.338Y-103.77
X169.34Y-105.93
X169.58Y-73.19
X169.58Y-75.19
X169.67Y-79.75
X169.688Y-122.592
X169.689Y-116.51
X169.69Y-124.81
X169.69Y-126.81
X169.691Y-118.728
X169.691Y-120.728
X169.692Y-129.01
X169.692Y-131.01
X171.45Y-97.838
X171.452Y-100.055
X171.452Y-102.055
X171.49Y-91.418
X171.492Y-93.635
X171.492Y-95.635
X171.555Y-103.768
X171.558Y-105.928
X171.688Y-122.592
X171.689Y-116.59
X171.69Y-73.19
X171.69Y-75.19
X171.69Y-124.81
X171.69Y-126.81
X171.692Y-118.808
X171.692Y-120.808
X171.692Y-129.01
X171.692Y-131.01
X172.59Y-66.57
X172.82Y-83.18
X173.555Y-103.768
X173.558Y-105.928
X173.69Y-73.19
X173.69Y-75.19
X173.75Y-95.6
X173.752Y-97.818
X173.752Y-99.818
X173.848Y-122.59
X173.849Y-116.588
X173.85Y-124.808
X173.85Y-126.808
X173.852Y-118.805
X173.852Y-120.805
X173.852Y-129.008
X173.852Y-131.008
X173.98Y-66.83
X173.98Y-68.83
X175.08Y-90.18
X175.69Y-73.19
X175.69Y-75.19
X175.77Y-103.74
X175.772Y-105.958
X175.772Y-107.958
X175.848Y-122.59
X175.85Y-124.808
X175.85Y-126.808
X175.852Y-129.008
X175.852Y-131.008
X175.91Y-95.598
X175.912Y-97.815
X175.912Y-99.815
X175.98Y-66.83
X175.98Y-68.83
X177.85Y-124.808
X177.85Y-126.808
X177.852Y-129.008
X177.852Y-131.008
X177.93Y-103.738
X177.932Y-105.955
X177.932Y-107.955
X177.98Y-66.83
X177.98Y-68.83
X178.18Y-71.95
X178.18Y-73.95
X178.18Y-75.95
X180.18Y-71.95
X180.18Y-73.95
X180.18Y-75.95
X180.29Y-67.55
X181.55Y-113.55
X181.552Y-115.768
X181.552Y-117.768
X182.71Y-101.71
X182.71Y-103.71
X183.08Y-106.48
X183.08Y-108.48
X183.71Y-113.548
X183.712Y-115.765
X183.712Y-117.765
X184.71Y-101.71
X184.71Y-103.71
X185.08Y-106.48
X185.08Y-108.48
X185.35Y-95.87
X186.26Y-64.81
X186.38Y-74.82
X186.38Y-76.82
X186.42Y-113.5
X186.422Y-115.718
X186.422Y-117.718
X186.51Y-83.54
X186.51Y-85.54
X187.08Y-106.48
X187.08Y-108.48
X188.38Y-74.82
X188.38Y-76.82
X188.51Y-83.54
X188.51Y-85.54
X188.58Y-113.498
X188.582Y-115.715
X188.582Y-117.715
X190.38Y-74.82
X190.38Y-76.82
X190.51Y-83.54
X190.51Y-85.54
X190.66Y-86.95
X190.66Y-88.95
X191.13Y-113.53
X191.132Y-115.748
X191.132Y-117.748
X191.14Y-50.4
X191.14Y-52.4
X191.14Y-54.4
X191.14Y-56.4
X191.14Y-58.4
X191.405Y-94.42
X191.46Y-72.56
X192.66Y-86.95
X192.66Y-88.95
X193.14Y-50.4
X193.14Y-52.4
X193.14Y-54.4
X193.14Y-56.4
X193.14Y-58.4
X193.29Y-113.528
X193.292Y-115.745
X193.292Y-117.745
X193.78Y-76.57
X193.78Y-78.57
X193.83Y-72.7
X193.83Y-74.7
X194.04Y-67.89
X194.13Y-95.12
X194.66Y-86.95
X194.66Y-88.95
X194.9Y-98.28
X195.14Y-50.4
X195.14Y-52.4
X195.14Y-54.4
X195.14Y-56.4
X195.14Y-58.4
X195.77Y-94.39
X195.78Y-76.57
X195.78Y-78.57
X195.83Y-72.7
X195.83Y-74.7
X197.14Y-50.4
X197.14Y-52.4
X197.14Y-54.4
X197.14Y-56.4
X197.14Y-58.4
X197.78Y-76.57
X197.78Y-78.57
X197.83Y-72.7
X197.83Y-74.7
X199.14Y-50.4
X199.14Y-52.4
X199.14Y-54.4
X199.14Y-56.4
X199.14Y-58.4
X200.5Y-108.99
X200.5Y-110.99
X201.0Y-85.97
X201.09Y-98.28
X201.848Y-60.92
X201.85Y-50.4
X201.85Y-52.4
X201.85Y-54.4
X201.85Y-56.4
X201.85Y-58.4
X202.5Y-108.99
X202.5Y-110.99
X203.848Y-60.92
X203.85Y-50.4
X203.85Y-52.4
X203.85Y-54.4
X203.85Y-56.4
X203.85Y-58.4
X204.5Y-108.99
X204.5Y-110.99
X205.02Y-99.37
X205.02Y-101.37
X205.02Y-103.37
X205.848Y-60.92
X205.85Y-50.4
X205.85Y-52.4
X205.85Y-54.4
X205.85Y-56.4
X205.85Y-58.4
X207.02Y-99.37
X207.02Y-101.37
X207.02Y-103.37
X207.848Y-60.92
X207.85Y-50.4
X207.85Y-52.4
X207.85Y-54.4
X207.85Y-56.4
X207.85Y-58.4
X209.848Y-60.92
X209.85Y-50.4
X209.85Y-52.4
X209.85Y-54.4
X209.85Y-56.4
X209.85Y-58.4
X211.78Y-93.55
X211.78Y-95.55
X212.29Y-50.402
X212.29Y-52.402
X212.29Y-54.402
X212.29Y-56.402
X212.29Y-58.402
X213.78Y-93.55
X213.78Y-95.55
X214.279Y-60.49
X214.279Y-62.49
X214.279Y-64.49
X214.279Y-66.49
X214.279Y-68.49
X214.281Y-70.69
X214.281Y-72.69
X214.29Y-50.402
X214.29Y-52.402
X214.29Y-54.402
X214.29Y-56.402
X214.29Y-58.402
X215.72Y-87.65
X215.72Y-89.65
X215.78Y-93.55
X215.78Y-95.55
X216.279Y-60.49
X216.279Y-62.49
X216.279Y-64.49
X216.279Y-66.49
X216.279Y-68.49
X216.281Y-70.69
X216.281Y-72.69
X216.29Y-50.402
X216.29Y-52.402
X216.29Y-54.402
X216.29Y-56.402
X216.29Y-58.402
X217.22Y-83.24
X217.72Y-87.65
X217.72Y-89.65
X218.279Y-60.49
X218.279Y-62.49
X218.279Y-64.49
X218.279Y-66.49
X218.279Y-68.49
X218.281Y-70.69
X218.281Y-72.69
X218.29Y-50.402
X218.29Y-52.402
X218.29Y-54.402
X218.29Y-56.402
X218.29Y-58.402
X219.72Y-87.65
X219.72Y-89.65
X219.88Y-98.42
X220.279Y-60.49
X220.279Y-62.49
X220.279Y-64.49
X220.279Y-66.49
X220.279Y-68.49
X220.281Y-70.69
X220.281Y-72.69
X220.29Y-50.402
X220.29Y-52.402
X220.29Y-54.402
X220.29Y-56.402
X220.29Y-58.402
X221.87Y-100.29
X222.439Y-60.488
X222.439Y-62.488
X222.439Y-64.488
X222.439Y-66.488
X222.439Y-68.488
X222.441Y-70.688
X222.441Y-72.688
X222.45Y-50.399
X222.45Y-52.399
X222.45Y-54.399
X222.45Y-56.399
X222.45Y-58.399
X224.439Y-60.488
X224.439Y-62.488
X224.439Y-64.488
X224.439Y-66.488
X224.439Y-68.488
X224.441Y-70.688
X224.441Y-72.688
X224.45Y-50.399
X224.45Y-52.399
X224.45Y-54.399
X224.45Y-56.399
X224.45Y-58.399
X225.85Y-82.6
X226.2Y-105.72
X226.202Y-107.938
X226.202Y-109.938
X226.439Y-60.488
X226.439Y-62.488
X226.439Y-64.488
X226.439Y-66.488
X226.439Y-68.488
X226.441Y-70.688
X226.441Y-72.688
X226.45Y-50.399
X226.45Y-52.399
X226.45Y-54.399
X226.45Y-56.399
X226.45Y-58.399
X227.1Y-96.79
X227.15Y-90.61
X228.12Y-93.37
X228.36Y-105.718
X228.362Y-107.935
X228.362Y-109.935
X228.439Y-60.488
X228.439Y-62.488
X228.439Y-64.488
X228.439Y-66.488
X228.439Y-68.488
X228.441Y-70.688
X228.441Y-72.688
X228.45Y-50.399
X228.45Y-52.399
X228.45Y-54.399
X228.45Y-56.399
X228.45Y-58.399
X228.675Y-85.12
X230.01Y-103.49
X230.05Y-87.77
X230.15Y-79.98
X230.39Y-105.76
X230.392Y-107.978
X230.392Y-109.978
X230.439Y-60.488
X230.439Y-62.488
X230.439Y-64.488
X230.439Y-66.488
X230.439Y-68.488
X230.441Y-70.688
X230.441Y-72.688
X230.45Y-50.399
X230.45Y-52.399
X230.45Y-54.399
X230.45Y-56.399
X230.45Y-58.399
X230.58Y-85.198
X231.37Y-87.81
X231.38Y-100.07
X232.0Y-85.09
X232.55Y-105.758
X232.552Y-107.975
X232.552Y-109.975
X232.609Y-60.491
X232.609Y-62.491
X232.609Y-64.491
X232.609Y-66.491
X232.609Y-68.491
X232.611Y-70.691
X232.611Y-72.691
X232.62Y-50.403
X232.62Y-52.403
X232.62Y-54.403
X232.62Y-56.403
X232.62Y-58.403
X233.18Y-94.49
X233.345Y-96.32
X233.57Y-83.4
X233.93Y-134.99
X234.25Y-87.28
X234.29Y-97.2
X234.44Y-125.15
X234.739Y-60.497
X234.739Y-62.497
X234.739Y-64.497
X234.739Y-66.497
X234.739Y-68.497
X234.741Y-70.697
X234.741Y-72.697
X234.75Y-50.408
X234.75Y-52.408
X234.75Y-54.408
X234.75Y-56.408
X234.75Y-58.408
X235.03Y-105.76
X235.032Y-107.978
X235.032Y-109.978
X235.91Y-95.22
X236.9Y-82.62
X237.16Y-96.31
X237.17Y-50.405
X237.17Y-52.405
X237.17Y-54.405
X237.17Y-56.405
X237.19Y-105.758
X237.192Y-107.975
X237.192Y-109.975
X238.15Y-74.49
X238.15Y-76.49
X238.25Y-70.56
X238.25Y-72.56
X239.17Y-50.405
X239.17Y-52.405
X239.17Y-54.405
X239.17Y-56.405
X239.418Y-107.99
X239.42Y-110.15
X239.438Y-112.02
X239.44Y-114.18
X239.69Y-87.25
X239.69Y-89.25
X239.86Y-101.77
X239.86Y-103.77
X239.88Y-80.24
X239.88Y-82.24
X240.15Y-74.49
X240.15Y-76.49
X240.25Y-70.56
X240.25Y-72.56
X240.87Y-66.9
X240.87Y-68.9
X241.17Y-50.405
X241.17Y-52.405
X241.17Y-54.405
X241.17Y-56.405
X241.34Y-92.95
X241.34Y-94.95
X241.34Y-96.95
X241.635Y-107.988
X241.638Y-110.148
X241.655Y-112.018
X241.658Y-114.178
X241.69Y-87.25
X241.69Y-89.25
X241.86Y-101.77
X241.86Y-103.77
X241.88Y-80.24
X241.88Y-82.24
X242.15Y-74.49
X242.15Y-76.49
X242.25Y-70.56
X242.25Y-72.56
X242.87Y-66.9
X242.87Y-68.9
X243.17Y-50.405
X243.17Y-52.405
X243.17Y-54.405
X243.17Y-56.405
X243.34Y-92.95
X243.34Y-94.95
X243.34Y-96.95
X243.635Y-107.988
X243.638Y-110.148
X243.655Y-112.018
X243.658Y-114.178
X243.69Y-87.25
X243.69Y-89.25
X243.86Y-101.77
X243.86Y-103.77
X243.88Y-80.24
X243.88Y-82.24
X244.87Y-66.9
X244.87Y-68.9
X245.17Y-50.405
X245.17Y-52.405
X245.17Y-54.405
X245.56Y-64.41
X245.69Y-92.55
X245.77Y-78.46
X247.2Y-124.66
X247.26Y-130.7
X247.34Y-50.408
X247.34Y-52.408
X247.34Y-54.408
X247.38Y-127.72
X249.47Y-50.414
X249.47Y-52.414
X249.47Y-54.414
X250.79Y-130.05
X251.45Y-50.414
X251.45Y-52.414
X251.45Y-54.414
X251.998Y-113.49
X252.0Y-115.65
X252.098Y-117.7
X252.1Y-119.86
X252.168Y-121.89
X252.17Y-124.05
X253.62Y-50.417
X253.62Y-52.417
X253.62Y-54.417
X254.215Y-113.488
X254.218Y-115.648
X254.315Y-117.698
X254.318Y-119.858
X254.385Y-121.888
X254.388Y-124.048
X255.75Y-50.423
X255.75Y-52.423
X255.75Y-54.423
X255.754Y-43.99
X255.755Y-43.35
X255.77Y-42.7
X256.215Y-113.488
X256.218Y-115.648
X256.315Y-117.698
X256.318Y-119.858
X256.385Y-121.888
X256.388Y-124.048
X257.95Y-50.424
X257.95Y-52.424
X257.95Y-54.424
X258.35Y-113.6
X258.352Y-115.76
X258.45Y-117.81
X258.452Y-119.97
X258.52Y-122.0
X258.522Y-124.16
X260.08Y-50.429
X260.08Y-52.429
X260.08Y-54.429
X260.35Y-113.6
X260.352Y-115.76
X260.45Y-117.81
X260.452Y-119.97
X260.52Y-122.0
X260.522Y-124.16
T4
X233.295Y-44.74
X234.665Y-41.9
X236.035Y-44.74
X237.405Y-41.9
X238.775Y-44.74
X240.145Y-41.9
X241.515Y-44.74
X242.885Y-41.9
X244.255Y-44.74
T5
X130.725Y-44.5
X132.095Y-41.66
X133.465Y-44.5
X134.835Y-41.66
X136.205Y-44.5
X137.575Y-41.66
X138.945Y-44.5
X140.315Y-41.66
X141.685Y-44.5
X143.055Y-41.66
X144.425Y-44.5
X145.795Y-41.66
X147.165Y-44.5
X148.535Y-41.66
X149.905Y-44.5
T6
X236.2Y-122.83
X236.2Y-125.37
X236.2Y-127.91
X236.2Y-130.45
X236.2Y-132.99
X236.2Y-135.53
X238.74Y-122.83
X238.74Y-125.37
X238.74Y-127.91
X238.74Y-130.45
X238.74Y-132.99
X238.74Y-135.53
T7
X188.91Y-65.385
X188.91Y-67.925
X188.91Y-70.465
X191.45Y-65.385
X191.45Y-67.925
X191.45Y-70.465
T8
X184.255Y-128.683
X188.065Y-128.683
X191.875Y-128.683
X195.685Y-128.683
X199.495Y-128.683
X203.305Y-128.683
X207.115Y-128.683
X210.925Y-128.683
X214.735Y-128.683
X218.545Y-128.683
X222.355Y-128.683
X226.165Y-128.683
T9
X256.122Y-78.435
X256.125Y-64.405
X256.133Y-106.575
X256.139Y-92.535
T10
X112.615Y-111.173
X112.615Y-116.253
X112.615Y-121.333
X112.615Y-126.413
X167.335Y-45.6
X172.415Y-45.6
X177.495Y-45.6
X182.575Y-45.6
X187.655Y-45.6
X192.735Y-45.6
X197.815Y-45.6
X202.895Y-45.6
X207.975Y-45.6
X213.055Y-45.6
T11
X252.947Y-75.26
X252.947Y-81.61
X252.95Y-61.23
X252.95Y-67.58
X252.958Y-103.4
X252.958Y-109.75
X252.964Y-89.36
X252.964Y-95.71
X259.297Y-75.26
X259.297Y-81.61
X259.3Y-61.23
X259.3Y-67.58
X259.308Y-103.4
X259.308Y-109.75
X259.314Y-89.36
X259.314Y-95.71
T12
X165.029Y-62.25
X165.029Y-67.33
X167.569Y-64.79
X170.109Y-62.25
X170.109Y-67.33
T13
X102.797Y-76.675
X107.497Y-76.675
X112.197Y-76.675
T14
X123.655Y-43.08
X156.975Y-43.08
T15
X226.28Y-43.32
X251.27Y-43.32
T3
G00X108.7Y-62.645
M15
G01X108.7Y-64.855
M16
G05
G00X110.733Y-68.55
M15
G01X112.917Y-68.55
M16
G05
G00X114.95Y-62.645
M15
G01X114.95Y-64.855
M16
G05
M30
