%TF.GenerationSoftware,KiCad,Pcbnew,10.0.3*%
%TF.CreationDate,2026-08-08T18:09:28-05:00*%
%TF.ProjectId,ecdl-laser-bboard,6563646c-2d6c-4617-9365-722d62626f61,rev?*%
%TF.SameCoordinates,Original*%
%TF.FileFunction,Paste,Top*%
%TF.FilePolarity,Positive*%
%FSLAX46Y46*%
G04 Gerber Fmt 4.6, Leading zero omitted, Abs format (unit mm)*
G04 Created by KiCad (PCBNEW 10.0.3) date 2026-08-08 18:09:28*
%MOMM*%
%LPD*%
G01*
G04 APERTURE LIST*
G04 Aperture macros list*
%AMRoundRect*
0 Rectangle with rounded corners*
0 $1 Rounding radius*
0 $2 $3 $4 $5 $6 $7 $8 $9 X,Y pos of 4 corners*
0 Add a 4 corners polygon primitive as box body*
4,1,4,$2,$3,$4,$5,$6,$7,$8,$9,$2,$3,0*
0 Add four circle primitives for the rounded corners*
1,1,$1+$1,$2,$3*
1,1,$1+$1,$4,$5*
1,1,$1+$1,$6,$7*
1,1,$1+$1,$8,$9*
0 Add four rect primitives between the rounded corners*
20,1,$1+$1,$2,$3,$4,$5,0*
20,1,$1+$1,$4,$5,$6,$7,0*
20,1,$1+$1,$6,$7,$8,$9,0*
20,1,$1+$1,$8,$9,$2,$3,0*%
G04 Aperture macros list end*
%ADD10C,0.010000*%
%ADD11RoundRect,0.200000X-0.275000X0.200000X-0.275000X-0.200000X0.275000X-0.200000X0.275000X0.200000X0*%
%ADD12RoundRect,0.200000X-0.200000X-0.275000X0.200000X-0.275000X0.200000X0.275000X-0.200000X0.275000X0*%
%ADD13RoundRect,0.200000X0.200000X0.275000X-0.200000X0.275000X-0.200000X-0.275000X0.200000X-0.275000X0*%
%ADD14RoundRect,0.225000X0.225000X0.250000X-0.225000X0.250000X-0.225000X-0.250000X0.225000X-0.250000X0*%
%ADD15RoundRect,0.250000X-0.262500X-0.450000X0.262500X-0.450000X0.262500X0.450000X-0.262500X0.450000X0*%
%ADD16RoundRect,0.250000X-0.325000X-1.100000X0.325000X-1.100000X0.325000X1.100000X-0.325000X1.100000X0*%
%ADD17RoundRect,0.250000X1.100000X-0.325000X1.100000X0.325000X-1.100000X0.325000X-1.100000X-0.325000X0*%
%ADD18RoundRect,0.140000X-0.140000X-0.170000X0.140000X-0.170000X0.140000X0.170000X-0.140000X0.170000X0*%
%ADD19RoundRect,0.200000X0.275000X-0.200000X0.275000X0.200000X-0.275000X0.200000X-0.275000X-0.200000X0*%
%ADD20RoundRect,0.225000X-0.225000X-0.250000X0.225000X-0.250000X0.225000X0.250000X-0.225000X0.250000X0*%
%ADD21RoundRect,0.250000X-0.650000X1.450000X-0.650000X-1.450000X0.650000X-1.450000X0.650000X1.450000X0*%
%ADD22RoundRect,0.140000X0.170000X-0.140000X0.170000X0.140000X-0.170000X0.140000X-0.170000X-0.140000X0*%
%ADD23R,3.800000X2.030000*%
%ADD24R,5.500000X1.430000*%
%ADD25RoundRect,0.250000X-1.100000X0.325000X-1.100000X-0.325000X1.100000X-0.325000X1.100000X0.325000X0*%
%ADD26RoundRect,0.250000X-1.000000X-0.900000X1.000000X-0.900000X1.000000X0.900000X-1.000000X0.900000X0*%
%ADD27RoundRect,0.150000X0.150000X-0.587500X0.150000X0.587500X-0.150000X0.587500X-0.150000X-0.587500X0*%
%ADD28RoundRect,0.225000X0.250000X-0.225000X0.250000X0.225000X-0.250000X0.225000X-0.250000X-0.225000X0*%
%ADD29RoundRect,0.225000X-0.250000X0.225000X-0.250000X-0.225000X0.250000X-0.225000X0.250000X0.225000X0*%
%ADD30RoundRect,0.250000X-1.450000X-0.650000X1.450000X-0.650000X1.450000X0.650000X-1.450000X0.650000X0*%
%ADD31R,1.430000X5.500000*%
%ADD32RoundRect,0.250000X1.450000X0.650000X-1.450000X0.650000X-1.450000X-0.650000X1.450000X-0.650000X0*%
%ADD33RoundRect,0.250000X0.325000X1.100000X-0.325000X1.100000X-0.325000X-1.100000X0.325000X-1.100000X0*%
%ADD34RoundRect,0.250000X0.262500X0.450000X-0.262500X0.450000X-0.262500X-0.450000X0.262500X-0.450000X0*%
%ADD35R,0.558800X0.304800*%
%ADD36RoundRect,0.250000X0.650000X-1.450000X0.650000X1.450000X-0.650000X1.450000X-0.650000X-1.450000X0*%
%ADD37RoundRect,0.046250X-0.078750X0.253750X-0.078750X-0.253750X0.078750X-0.253750X0.078750X0.253750X0*%
%ADD38RoundRect,0.125000X-0.125000X-0.125000X0.125000X-0.125000X0.125000X0.125000X-0.125000X0.125000X0*%
%ADD39RoundRect,0.218750X-0.218750X-0.256250X0.218750X-0.256250X0.218750X0.256250X-0.218750X0.256250X0*%
%ADD40RoundRect,0.250000X-0.450000X0.262500X-0.450000X-0.262500X0.450000X-0.262500X0.450000X0.262500X0*%
%ADD41R,0.450000X1.475000*%
%ADD42RoundRect,0.140000X-0.170000X0.140000X-0.170000X-0.140000X0.170000X-0.140000X0.170000X0.140000X0*%
%ADD43R,1.400000X0.450000*%
%ADD44R,0.228600X0.812800*%
%ADD45R,0.812800X0.228600*%
%ADD46R,2.641600X1.651000*%
%ADD47R,0.381000X0.381000*%
%ADD48R,1.400000X0.300000*%
%ADD49R,2.950000X2.020000*%
%ADD50R,1.475000X0.450000*%
%ADD51RoundRect,0.250000X-1.000000X-0.650000X1.000000X-0.650000X1.000000X0.650000X-1.000000X0.650000X0*%
G04 APERTURE END LIST*
D10*
%TO.C,U3*%
X111524635Y-81913339D02*
X112484635Y-81913339D01*
X112487635Y-81913339D01*
X112489635Y-81913339D01*
X112492635Y-81914339D01*
X112494635Y-81914339D01*
X112497635Y-81915339D01*
X112499635Y-81915339D01*
X112502635Y-81916339D01*
X112504635Y-81917339D01*
X112507635Y-81918339D01*
X112509635Y-81920339D01*
X112511635Y-81921339D01*
X112513635Y-81923339D01*
X112515635Y-81924339D01*
X112517635Y-81926339D01*
X112519635Y-81928339D01*
X112521635Y-81930339D01*
X112523635Y-81932339D01*
X112524635Y-81934339D01*
X112526635Y-81936339D01*
X112527635Y-81938339D01*
X112529635Y-81940339D01*
X112530635Y-81943339D01*
X112531635Y-81945339D01*
X112532635Y-81948339D01*
X112532635Y-81950339D01*
X112533635Y-81953339D01*
X112533635Y-81955339D01*
X112534635Y-81958339D01*
X112534635Y-81960339D01*
X112534635Y-81963339D01*
X112534635Y-82143339D01*
X112534635Y-82146339D01*
X112534635Y-82148339D01*
X112533635Y-82151339D01*
X112533635Y-82153339D01*
X112532635Y-82156339D01*
X112532635Y-82158339D01*
X112531635Y-82161339D01*
X112530635Y-82163339D01*
X112529635Y-82166339D01*
X112527635Y-82168339D01*
X112526635Y-82170339D01*
X112524635Y-82172339D01*
X112523635Y-82174339D01*
X112521635Y-82176339D01*
X112519635Y-82178339D01*
X112517635Y-82180339D01*
X112515635Y-82182339D01*
X112513635Y-82183339D01*
X112511635Y-82185339D01*
X112509635Y-82186339D01*
X112507635Y-82188339D01*
X112504635Y-82189339D01*
X112502635Y-82190339D01*
X112499635Y-82191339D01*
X112497635Y-82191339D01*
X112494635Y-82192339D01*
X112492635Y-82192339D01*
X112489635Y-82193339D01*
X112487635Y-82193339D01*
X112484635Y-82193339D01*
X111524635Y-82193339D01*
X111521635Y-82193339D01*
X111519635Y-82193339D01*
X111516635Y-82192339D01*
X111514635Y-82192339D01*
X111511635Y-82191339D01*
X111509635Y-82191339D01*
X111506635Y-82190339D01*
X111504635Y-82189339D01*
X111501635Y-82188339D01*
X111499635Y-82186339D01*
X111497635Y-82185339D01*
X111495635Y-82183339D01*
X111493635Y-82182339D01*
X111491635Y-82180339D01*
X111489635Y-82178339D01*
X111487635Y-82176339D01*
X111485635Y-82174339D01*
X111484635Y-82172339D01*
X111482635Y-82170339D01*
X111481635Y-82168339D01*
X111479635Y-82166339D01*
X111478635Y-82163339D01*
X111477635Y-82161339D01*
X111476635Y-82158339D01*
X111476635Y-82156339D01*
X111475635Y-82153339D01*
X111475635Y-82151339D01*
X111474635Y-82148339D01*
X111474635Y-82146339D01*
X111474635Y-82143339D01*
X111474635Y-81963339D01*
X111474635Y-81960339D01*
X111474635Y-81958339D01*
X111475635Y-81955339D01*
X111475635Y-81953339D01*
X111476635Y-81950339D01*
X111476635Y-81948339D01*
X111477635Y-81945339D01*
X111478635Y-81943339D01*
X111479635Y-81940339D01*
X111481635Y-81938339D01*
X111482635Y-81936339D01*
X111484635Y-81934339D01*
X111485635Y-81932339D01*
X111487635Y-81930339D01*
X111489635Y-81928339D01*
X111491635Y-81926339D01*
X111493635Y-81924339D01*
X111495635Y-81923339D01*
X111497635Y-81921339D01*
X111499635Y-81920339D01*
X111501635Y-81918339D01*
X111504635Y-81917339D01*
X111506635Y-81916339D01*
X111509635Y-81915339D01*
X111511635Y-81915339D01*
X111514635Y-81914339D01*
X111516635Y-81914339D01*
X111519635Y-81913339D01*
X111521635Y-81913339D01*
X111524635Y-81913339D01*
G36*
X112492635Y-81914339D02*
G01*
X112494635Y-81914339D01*
X112497635Y-81915339D01*
X112499635Y-81915339D01*
X112502635Y-81916339D01*
X112504635Y-81917339D01*
X112507635Y-81918339D01*
X112509635Y-81920339D01*
X112511635Y-81921339D01*
X112513635Y-81923339D01*
X112515635Y-81924339D01*
X112517635Y-81926339D01*
X112519635Y-81928339D01*
X112521635Y-81930339D01*
X112523635Y-81932339D01*
X112524635Y-81934339D01*
X112526635Y-81936339D01*
X112527635Y-81938339D01*
X112529635Y-81940339D01*
X112530635Y-81943339D01*
X112531635Y-81945339D01*
X112532635Y-81948339D01*
X112532635Y-81950339D01*
X112533635Y-81953339D01*
X112533635Y-81955339D01*
X112534635Y-81958339D01*
X112534635Y-81960339D01*
X112534635Y-81963339D01*
X112534635Y-82143339D01*
X112534635Y-82146339D01*
X112534635Y-82148339D01*
X112533635Y-82151339D01*
X112533635Y-82153339D01*
X112532635Y-82156339D01*
X112532635Y-82158339D01*
X112531635Y-82161339D01*
X112530635Y-82163339D01*
X112529635Y-82166339D01*
X112527635Y-82168339D01*
X112526635Y-82170339D01*
X112524635Y-82172339D01*
X112523635Y-82174339D01*
X112521635Y-82176339D01*
X112519635Y-82178339D01*
X112517635Y-82180339D01*
X112515635Y-82182339D01*
X112513635Y-82183339D01*
X112511635Y-82185339D01*
X112509635Y-82186339D01*
X112507635Y-82188339D01*
X112504635Y-82189339D01*
X112502635Y-82190339D01*
X112499635Y-82191339D01*
X112497635Y-82191339D01*
X112494635Y-82192339D01*
X112492635Y-82192339D01*
X112489635Y-82193339D01*
X112487635Y-82193339D01*
X112484635Y-82193339D01*
X111524635Y-82193339D01*
X111521635Y-82193339D01*
X111519635Y-82193339D01*
X111516635Y-82192339D01*
X111514635Y-82192339D01*
X111511635Y-82191339D01*
X111509635Y-82191339D01*
X111506635Y-82190339D01*
X111504635Y-82189339D01*
X111501635Y-82188339D01*
X111499635Y-82186339D01*
X111497635Y-82185339D01*
X111495635Y-82183339D01*
X111493635Y-82182339D01*
X111491635Y-82180339D01*
X111489635Y-82178339D01*
X111487635Y-82176339D01*
X111485635Y-82174339D01*
X111484635Y-82172339D01*
X111482635Y-82170339D01*
X111481635Y-82168339D01*
X111479635Y-82166339D01*
X111478635Y-82163339D01*
X111477635Y-82161339D01*
X111476635Y-82158339D01*
X111476635Y-82156339D01*
X111475635Y-82153339D01*
X111475635Y-82151339D01*
X111474635Y-82148339D01*
X111474635Y-82146339D01*
X111474635Y-82143339D01*
X111474635Y-81963339D01*
X111474635Y-81960339D01*
X111474635Y-81958339D01*
X111475635Y-81955339D01*
X111475635Y-81953339D01*
X111476635Y-81950339D01*
X111476635Y-81948339D01*
X111477635Y-81945339D01*
X111478635Y-81943339D01*
X111479635Y-81940339D01*
X111481635Y-81938339D01*
X111482635Y-81936339D01*
X111484635Y-81934339D01*
X111485635Y-81932339D01*
X111487635Y-81930339D01*
X111489635Y-81928339D01*
X111491635Y-81926339D01*
X111493635Y-81924339D01*
X111495635Y-81923339D01*
X111497635Y-81921339D01*
X111499635Y-81920339D01*
X111501635Y-81918339D01*
X111504635Y-81917339D01*
X111506635Y-81916339D01*
X111509635Y-81915339D01*
X111511635Y-81915339D01*
X111514635Y-81914339D01*
X111516635Y-81914339D01*
X111519635Y-81913339D01*
X111521635Y-81913339D01*
X111524635Y-81913339D01*
X112484635Y-81913339D01*
X112487635Y-81913339D01*
X112489635Y-81913339D01*
X112492635Y-81914339D01*
G37*
X112484635Y-82693339D02*
X111524635Y-82693339D01*
X111521635Y-82693339D01*
X111519635Y-82693339D01*
X111516635Y-82692339D01*
X111514635Y-82692339D01*
X111511635Y-82691339D01*
X111509635Y-82691339D01*
X111506635Y-82690339D01*
X111504635Y-82689339D01*
X111501635Y-82688339D01*
X111499635Y-82686339D01*
X111497635Y-82685339D01*
X111495635Y-82683339D01*
X111493635Y-82682339D01*
X111491635Y-82680339D01*
X111489635Y-82678339D01*
X111487635Y-82676339D01*
X111485635Y-82674339D01*
X111484635Y-82672339D01*
X111482635Y-82670339D01*
X111481635Y-82668339D01*
X111479635Y-82666339D01*
X111478635Y-82663339D01*
X111477635Y-82661339D01*
X111476635Y-82658339D01*
X111476635Y-82656339D01*
X111475635Y-82653339D01*
X111475635Y-82651339D01*
X111474635Y-82648339D01*
X111474635Y-82646339D01*
X111474635Y-82643339D01*
X111474635Y-82463339D01*
X111474635Y-82460339D01*
X111474635Y-82458339D01*
X111475635Y-82455339D01*
X111475635Y-82453339D01*
X111476635Y-82450339D01*
X111476635Y-82448339D01*
X111477635Y-82445339D01*
X111478635Y-82443339D01*
X111479635Y-82440339D01*
X111481635Y-82438339D01*
X111482635Y-82436339D01*
X111484635Y-82434339D01*
X111485635Y-82432339D01*
X111487635Y-82430339D01*
X111489635Y-82428339D01*
X111491635Y-82426339D01*
X111493635Y-82424339D01*
X111495635Y-82423339D01*
X111497635Y-82421339D01*
X111499635Y-82420339D01*
X111501635Y-82418339D01*
X111504635Y-82417339D01*
X111506635Y-82416339D01*
X111509635Y-82415339D01*
X111511635Y-82415339D01*
X111514635Y-82414339D01*
X111516635Y-82414339D01*
X111519635Y-82413339D01*
X111521635Y-82413339D01*
X111524635Y-82413339D01*
X112484635Y-82413339D01*
X112487635Y-82413339D01*
X112489635Y-82413339D01*
X112492635Y-82414339D01*
X112494635Y-82414339D01*
X112497635Y-82415339D01*
X112499635Y-82415339D01*
X112502635Y-82416339D01*
X112504635Y-82417339D01*
X112507635Y-82418339D01*
X112509635Y-82420339D01*
X112511635Y-82421339D01*
X112513635Y-82423339D01*
X112515635Y-82424339D01*
X112517635Y-82426339D01*
X112519635Y-82428339D01*
X112521635Y-82430339D01*
X112523635Y-82432339D01*
X112524635Y-82434339D01*
X112526635Y-82436339D01*
X112527635Y-82438339D01*
X112529635Y-82440339D01*
X112530635Y-82443339D01*
X112531635Y-82445339D01*
X112532635Y-82448339D01*
X112532635Y-82450339D01*
X112533635Y-82453339D01*
X112533635Y-82455339D01*
X112534635Y-82458339D01*
X112534635Y-82460339D01*
X112534635Y-82463339D01*
X112534635Y-82643339D01*
X112534635Y-82646339D01*
X112534635Y-82648339D01*
X112533635Y-82651339D01*
X112533635Y-82653339D01*
X112532635Y-82656339D01*
X112532635Y-82658339D01*
X112531635Y-82661339D01*
X112530635Y-82663339D01*
X112529635Y-82666339D01*
X112527635Y-82668339D01*
X112526635Y-82670339D01*
X112524635Y-82672339D01*
X112523635Y-82674339D01*
X112521635Y-82676339D01*
X112519635Y-82678339D01*
X112517635Y-82680339D01*
X112515635Y-82682339D01*
X112513635Y-82683339D01*
X112511635Y-82685339D01*
X112509635Y-82686339D01*
X112507635Y-82688339D01*
X112504635Y-82689339D01*
X112502635Y-82690339D01*
X112499635Y-82691339D01*
X112497635Y-82691339D01*
X112494635Y-82692339D01*
X112492635Y-82692339D01*
X112489635Y-82693339D01*
X112487635Y-82693339D01*
X112484635Y-82693339D01*
G36*
X112492635Y-82414339D02*
G01*
X112494635Y-82414339D01*
X112497635Y-82415339D01*
X112499635Y-82415339D01*
X112502635Y-82416339D01*
X112504635Y-82417339D01*
X112507635Y-82418339D01*
X112509635Y-82420339D01*
X112511635Y-82421339D01*
X112513635Y-82423339D01*
X112515635Y-82424339D01*
X112517635Y-82426339D01*
X112519635Y-82428339D01*
X112521635Y-82430339D01*
X112523635Y-82432339D01*
X112524635Y-82434339D01*
X112526635Y-82436339D01*
X112527635Y-82438339D01*
X112529635Y-82440339D01*
X112530635Y-82443339D01*
X112531635Y-82445339D01*
X112532635Y-82448339D01*
X112532635Y-82450339D01*
X112533635Y-82453339D01*
X112533635Y-82455339D01*
X112534635Y-82458339D01*
X112534635Y-82460339D01*
X112534635Y-82463339D01*
X112534635Y-82643339D01*
X112534635Y-82646339D01*
X112534635Y-82648339D01*
X112533635Y-82651339D01*
X112533635Y-82653339D01*
X112532635Y-82656339D01*
X112532635Y-82658339D01*
X112531635Y-82661339D01*
X112530635Y-82663339D01*
X112529635Y-82666339D01*
X112527635Y-82668339D01*
X112526635Y-82670339D01*
X112524635Y-82672339D01*
X112523635Y-82674339D01*
X112521635Y-82676339D01*
X112519635Y-82678339D01*
X112517635Y-82680339D01*
X112515635Y-82682339D01*
X112513635Y-82683339D01*
X112511635Y-82685339D01*
X112509635Y-82686339D01*
X112507635Y-82688339D01*
X112504635Y-82689339D01*
X112502635Y-82690339D01*
X112499635Y-82691339D01*
X112497635Y-82691339D01*
X112494635Y-82692339D01*
X112492635Y-82692339D01*
X112489635Y-82693339D01*
X112487635Y-82693339D01*
X112484635Y-82693339D01*
X111524635Y-82693339D01*
X111521635Y-82693339D01*
X111519635Y-82693339D01*
X111516635Y-82692339D01*
X111514635Y-82692339D01*
X111511635Y-82691339D01*
X111509635Y-82691339D01*
X111506635Y-82690339D01*
X111504635Y-82689339D01*
X111501635Y-82688339D01*
X111499635Y-82686339D01*
X111497635Y-82685339D01*
X111495635Y-82683339D01*
X111493635Y-82682339D01*
X111491635Y-82680339D01*
X111489635Y-82678339D01*
X111487635Y-82676339D01*
X111485635Y-82674339D01*
X111484635Y-82672339D01*
X111482635Y-82670339D01*
X111481635Y-82668339D01*
X111479635Y-82666339D01*
X111478635Y-82663339D01*
X111477635Y-82661339D01*
X111476635Y-82658339D01*
X111476635Y-82656339D01*
X111475635Y-82653339D01*
X111475635Y-82651339D01*
X111474635Y-82648339D01*
X111474635Y-82646339D01*
X111474635Y-82643339D01*
X111474635Y-82463339D01*
X111474635Y-82460339D01*
X111474635Y-82458339D01*
X111475635Y-82455339D01*
X111475635Y-82453339D01*
X111476635Y-82450339D01*
X111476635Y-82448339D01*
X111477635Y-82445339D01*
X111478635Y-82443339D01*
X111479635Y-82440339D01*
X111481635Y-82438339D01*
X111482635Y-82436339D01*
X111484635Y-82434339D01*
X111485635Y-82432339D01*
X111487635Y-82430339D01*
X111489635Y-82428339D01*
X111491635Y-82426339D01*
X111493635Y-82424339D01*
X111495635Y-82423339D01*
X111497635Y-82421339D01*
X111499635Y-82420339D01*
X111501635Y-82418339D01*
X111504635Y-82417339D01*
X111506635Y-82416339D01*
X111509635Y-82415339D01*
X111511635Y-82415339D01*
X111514635Y-82414339D01*
X111516635Y-82414339D01*
X111519635Y-82413339D01*
X111521635Y-82413339D01*
X111524635Y-82413339D01*
X112484635Y-82413339D01*
X112487635Y-82413339D01*
X112489635Y-82413339D01*
X112492635Y-82414339D01*
G37*
X112784635Y-81913339D02*
X113744635Y-81913339D01*
X113747635Y-81913339D01*
X113749635Y-81913339D01*
X113752635Y-81914339D01*
X113754635Y-81914339D01*
X113757635Y-81915339D01*
X113759635Y-81915339D01*
X113762635Y-81916339D01*
X113764635Y-81917339D01*
X113767635Y-81918339D01*
X113769635Y-81920339D01*
X113771635Y-81921339D01*
X113773635Y-81923339D01*
X113775635Y-81924339D01*
X113777635Y-81926339D01*
X113779635Y-81928339D01*
X113781635Y-81930339D01*
X113783635Y-81932339D01*
X113784635Y-81934339D01*
X113786635Y-81936339D01*
X113787635Y-81938339D01*
X113789635Y-81940339D01*
X113790635Y-81943339D01*
X113791635Y-81945339D01*
X113792635Y-81948339D01*
X113792635Y-81950339D01*
X113793635Y-81953339D01*
X113793635Y-81955339D01*
X113794635Y-81958339D01*
X113794635Y-81960339D01*
X113794635Y-81963339D01*
X113794635Y-82143339D01*
X113794635Y-82146339D01*
X113794635Y-82148339D01*
X113793635Y-82151339D01*
X113793635Y-82153339D01*
X113792635Y-82156339D01*
X113792635Y-82158339D01*
X113791635Y-82161339D01*
X113790635Y-82163339D01*
X113789635Y-82166339D01*
X113787635Y-82168339D01*
X113786635Y-82170339D01*
X113784635Y-82172339D01*
X113783635Y-82174339D01*
X113781635Y-82176339D01*
X113779635Y-82178339D01*
X113777635Y-82180339D01*
X113775635Y-82182339D01*
X113773635Y-82183339D01*
X113771635Y-82185339D01*
X113769635Y-82186339D01*
X113767635Y-82188339D01*
X113764635Y-82189339D01*
X113762635Y-82190339D01*
X113759635Y-82191339D01*
X113757635Y-82191339D01*
X113754635Y-82192339D01*
X113752635Y-82192339D01*
X113749635Y-82193339D01*
X113747635Y-82193339D01*
X113744635Y-82193339D01*
X112784635Y-82193339D01*
X112781635Y-82193339D01*
X112779635Y-82193339D01*
X112776635Y-82192339D01*
X112774635Y-82192339D01*
X112771635Y-82191339D01*
X112769635Y-82191339D01*
X112766635Y-82190339D01*
X112764635Y-82189339D01*
X112761635Y-82188339D01*
X112759635Y-82186339D01*
X112757635Y-82185339D01*
X112755635Y-82183339D01*
X112753635Y-82182339D01*
X112751635Y-82180339D01*
X112749635Y-82178339D01*
X112747635Y-82176339D01*
X112745635Y-82174339D01*
X112744635Y-82172339D01*
X112742635Y-82170339D01*
X112741635Y-82168339D01*
X112739635Y-82166339D01*
X112738635Y-82163339D01*
X112737635Y-82161339D01*
X112736635Y-82158339D01*
X112736635Y-82156339D01*
X112735635Y-82153339D01*
X112735635Y-82151339D01*
X112734635Y-82148339D01*
X112734635Y-82146339D01*
X112734635Y-82143339D01*
X112734635Y-81963339D01*
X112734635Y-81960339D01*
X112734635Y-81958339D01*
X112735635Y-81955339D01*
X112735635Y-81953339D01*
X112736635Y-81950339D01*
X112736635Y-81948339D01*
X112737635Y-81945339D01*
X112738635Y-81943339D01*
X112739635Y-81940339D01*
X112741635Y-81938339D01*
X112742635Y-81936339D01*
X112744635Y-81934339D01*
X112745635Y-81932339D01*
X112747635Y-81930339D01*
X112749635Y-81928339D01*
X112751635Y-81926339D01*
X112753635Y-81924339D01*
X112755635Y-81923339D01*
X112757635Y-81921339D01*
X112759635Y-81920339D01*
X112761635Y-81918339D01*
X112764635Y-81917339D01*
X112766635Y-81916339D01*
X112769635Y-81915339D01*
X112771635Y-81915339D01*
X112774635Y-81914339D01*
X112776635Y-81914339D01*
X112779635Y-81913339D01*
X112781635Y-81913339D01*
X112784635Y-81913339D01*
G36*
X113752635Y-81914339D02*
G01*
X113754635Y-81914339D01*
X113757635Y-81915339D01*
X113759635Y-81915339D01*
X113762635Y-81916339D01*
X113764635Y-81917339D01*
X113767635Y-81918339D01*
X113769635Y-81920339D01*
X113771635Y-81921339D01*
X113773635Y-81923339D01*
X113775635Y-81924339D01*
X113777635Y-81926339D01*
X113779635Y-81928339D01*
X113781635Y-81930339D01*
X113783635Y-81932339D01*
X113784635Y-81934339D01*
X113786635Y-81936339D01*
X113787635Y-81938339D01*
X113789635Y-81940339D01*
X113790635Y-81943339D01*
X113791635Y-81945339D01*
X113792635Y-81948339D01*
X113792635Y-81950339D01*
X113793635Y-81953339D01*
X113793635Y-81955339D01*
X113794635Y-81958339D01*
X113794635Y-81960339D01*
X113794635Y-81963339D01*
X113794635Y-82143339D01*
X113794635Y-82146339D01*
X113794635Y-82148339D01*
X113793635Y-82151339D01*
X113793635Y-82153339D01*
X113792635Y-82156339D01*
X113792635Y-82158339D01*
X113791635Y-82161339D01*
X113790635Y-82163339D01*
X113789635Y-82166339D01*
X113787635Y-82168339D01*
X113786635Y-82170339D01*
X113784635Y-82172339D01*
X113783635Y-82174339D01*
X113781635Y-82176339D01*
X113779635Y-82178339D01*
X113777635Y-82180339D01*
X113775635Y-82182339D01*
X113773635Y-82183339D01*
X113771635Y-82185339D01*
X113769635Y-82186339D01*
X113767635Y-82188339D01*
X113764635Y-82189339D01*
X113762635Y-82190339D01*
X113759635Y-82191339D01*
X113757635Y-82191339D01*
X113754635Y-82192339D01*
X113752635Y-82192339D01*
X113749635Y-82193339D01*
X113747635Y-82193339D01*
X113744635Y-82193339D01*
X112784635Y-82193339D01*
X112781635Y-82193339D01*
X112779635Y-82193339D01*
X112776635Y-82192339D01*
X112774635Y-82192339D01*
X112771635Y-82191339D01*
X112769635Y-82191339D01*
X112766635Y-82190339D01*
X112764635Y-82189339D01*
X112761635Y-82188339D01*
X112759635Y-82186339D01*
X112757635Y-82185339D01*
X112755635Y-82183339D01*
X112753635Y-82182339D01*
X112751635Y-82180339D01*
X112749635Y-82178339D01*
X112747635Y-82176339D01*
X112745635Y-82174339D01*
X112744635Y-82172339D01*
X112742635Y-82170339D01*
X112741635Y-82168339D01*
X112739635Y-82166339D01*
X112738635Y-82163339D01*
X112737635Y-82161339D01*
X112736635Y-82158339D01*
X112736635Y-82156339D01*
X112735635Y-82153339D01*
X112735635Y-82151339D01*
X112734635Y-82148339D01*
X112734635Y-82146339D01*
X112734635Y-82143339D01*
X112734635Y-81963339D01*
X112734635Y-81960339D01*
X112734635Y-81958339D01*
X112735635Y-81955339D01*
X112735635Y-81953339D01*
X112736635Y-81950339D01*
X112736635Y-81948339D01*
X112737635Y-81945339D01*
X112738635Y-81943339D01*
X112739635Y-81940339D01*
X112741635Y-81938339D01*
X112742635Y-81936339D01*
X112744635Y-81934339D01*
X112745635Y-81932339D01*
X112747635Y-81930339D01*
X112749635Y-81928339D01*
X112751635Y-81926339D01*
X112753635Y-81924339D01*
X112755635Y-81923339D01*
X112757635Y-81921339D01*
X112759635Y-81920339D01*
X112761635Y-81918339D01*
X112764635Y-81917339D01*
X112766635Y-81916339D01*
X112769635Y-81915339D01*
X112771635Y-81915339D01*
X112774635Y-81914339D01*
X112776635Y-81914339D01*
X112779635Y-81913339D01*
X112781635Y-81913339D01*
X112784635Y-81913339D01*
X113744635Y-81913339D01*
X113747635Y-81913339D01*
X113749635Y-81913339D01*
X113752635Y-81914339D01*
G37*
X113744635Y-82693339D02*
X112784635Y-82693339D01*
X112781635Y-82693339D01*
X112779635Y-82693339D01*
X112776635Y-82692339D01*
X112774635Y-82692339D01*
X112771635Y-82691339D01*
X112769635Y-82691339D01*
X112766635Y-82690339D01*
X112764635Y-82689339D01*
X112761635Y-82688339D01*
X112759635Y-82686339D01*
X112757635Y-82685339D01*
X112755635Y-82683339D01*
X112753635Y-82682339D01*
X112751635Y-82680339D01*
X112749635Y-82678339D01*
X112747635Y-82676339D01*
X112745635Y-82674339D01*
X112744635Y-82672339D01*
X112742635Y-82670339D01*
X112741635Y-82668339D01*
X112739635Y-82666339D01*
X112738635Y-82663339D01*
X112737635Y-82661339D01*
X112736635Y-82658339D01*
X112736635Y-82656339D01*
X112735635Y-82653339D01*
X112735635Y-82651339D01*
X112734635Y-82648339D01*
X112734635Y-82646339D01*
X112734635Y-82643339D01*
X112734635Y-82463339D01*
X112734635Y-82460339D01*
X112734635Y-82458339D01*
X112735635Y-82455339D01*
X112735635Y-82453339D01*
X112736635Y-82450339D01*
X112736635Y-82448339D01*
X112737635Y-82445339D01*
X112738635Y-82443339D01*
X112739635Y-82440339D01*
X112741635Y-82438339D01*
X112742635Y-82436339D01*
X112744635Y-82434339D01*
X112745635Y-82432339D01*
X112747635Y-82430339D01*
X112749635Y-82428339D01*
X112751635Y-82426339D01*
X112753635Y-82424339D01*
X112755635Y-82423339D01*
X112757635Y-82421339D01*
X112759635Y-82420339D01*
X112761635Y-82418339D01*
X112764635Y-82417339D01*
X112766635Y-82416339D01*
X112769635Y-82415339D01*
X112771635Y-82415339D01*
X112774635Y-82414339D01*
X112776635Y-82414339D01*
X112779635Y-82413339D01*
X112781635Y-82413339D01*
X112784635Y-82413339D01*
X113744635Y-82413339D01*
X113747635Y-82413339D01*
X113749635Y-82413339D01*
X113752635Y-82414339D01*
X113754635Y-82414339D01*
X113757635Y-82415339D01*
X113759635Y-82415339D01*
X113762635Y-82416339D01*
X113764635Y-82417339D01*
X113767635Y-82418339D01*
X113769635Y-82420339D01*
X113771635Y-82421339D01*
X113773635Y-82423339D01*
X113775635Y-82424339D01*
X113777635Y-82426339D01*
X113779635Y-82428339D01*
X113781635Y-82430339D01*
X113783635Y-82432339D01*
X113784635Y-82434339D01*
X113786635Y-82436339D01*
X113787635Y-82438339D01*
X113789635Y-82440339D01*
X113790635Y-82443339D01*
X113791635Y-82445339D01*
X113792635Y-82448339D01*
X113792635Y-82450339D01*
X113793635Y-82453339D01*
X113793635Y-82455339D01*
X113794635Y-82458339D01*
X113794635Y-82460339D01*
X113794635Y-82463339D01*
X113794635Y-82643339D01*
X113794635Y-82646339D01*
X113794635Y-82648339D01*
X113793635Y-82651339D01*
X113793635Y-82653339D01*
X113792635Y-82656339D01*
X113792635Y-82658339D01*
X113791635Y-82661339D01*
X113790635Y-82663339D01*
X113789635Y-82666339D01*
X113787635Y-82668339D01*
X113786635Y-82670339D01*
X113784635Y-82672339D01*
X113783635Y-82674339D01*
X113781635Y-82676339D01*
X113779635Y-82678339D01*
X113777635Y-82680339D01*
X113775635Y-82682339D01*
X113773635Y-82683339D01*
X113771635Y-82685339D01*
X113769635Y-82686339D01*
X113767635Y-82688339D01*
X113764635Y-82689339D01*
X113762635Y-82690339D01*
X113759635Y-82691339D01*
X113757635Y-82691339D01*
X113754635Y-82692339D01*
X113752635Y-82692339D01*
X113749635Y-82693339D01*
X113747635Y-82693339D01*
X113744635Y-82693339D01*
G36*
X113752635Y-82414339D02*
G01*
X113754635Y-82414339D01*
X113757635Y-82415339D01*
X113759635Y-82415339D01*
X113762635Y-82416339D01*
X113764635Y-82417339D01*
X113767635Y-82418339D01*
X113769635Y-82420339D01*
X113771635Y-82421339D01*
X113773635Y-82423339D01*
X113775635Y-82424339D01*
X113777635Y-82426339D01*
X113779635Y-82428339D01*
X113781635Y-82430339D01*
X113783635Y-82432339D01*
X113784635Y-82434339D01*
X113786635Y-82436339D01*
X113787635Y-82438339D01*
X113789635Y-82440339D01*
X113790635Y-82443339D01*
X113791635Y-82445339D01*
X113792635Y-82448339D01*
X113792635Y-82450339D01*
X113793635Y-82453339D01*
X113793635Y-82455339D01*
X113794635Y-82458339D01*
X113794635Y-82460339D01*
X113794635Y-82463339D01*
X113794635Y-82643339D01*
X113794635Y-82646339D01*
X113794635Y-82648339D01*
X113793635Y-82651339D01*
X113793635Y-82653339D01*
X113792635Y-82656339D01*
X113792635Y-82658339D01*
X113791635Y-82661339D01*
X113790635Y-82663339D01*
X113789635Y-82666339D01*
X113787635Y-82668339D01*
X113786635Y-82670339D01*
X113784635Y-82672339D01*
X113783635Y-82674339D01*
X113781635Y-82676339D01*
X113779635Y-82678339D01*
X113777635Y-82680339D01*
X113775635Y-82682339D01*
X113773635Y-82683339D01*
X113771635Y-82685339D01*
X113769635Y-82686339D01*
X113767635Y-82688339D01*
X113764635Y-82689339D01*
X113762635Y-82690339D01*
X113759635Y-82691339D01*
X113757635Y-82691339D01*
X113754635Y-82692339D01*
X113752635Y-82692339D01*
X113749635Y-82693339D01*
X113747635Y-82693339D01*
X113744635Y-82693339D01*
X112784635Y-82693339D01*
X112781635Y-82693339D01*
X112779635Y-82693339D01*
X112776635Y-82692339D01*
X112774635Y-82692339D01*
X112771635Y-82691339D01*
X112769635Y-82691339D01*
X112766635Y-82690339D01*
X112764635Y-82689339D01*
X112761635Y-82688339D01*
X112759635Y-82686339D01*
X112757635Y-82685339D01*
X112755635Y-82683339D01*
X112753635Y-82682339D01*
X112751635Y-82680339D01*
X112749635Y-82678339D01*
X112747635Y-82676339D01*
X112745635Y-82674339D01*
X112744635Y-82672339D01*
X112742635Y-82670339D01*
X112741635Y-82668339D01*
X112739635Y-82666339D01*
X112738635Y-82663339D01*
X112737635Y-82661339D01*
X112736635Y-82658339D01*
X112736635Y-82656339D01*
X112735635Y-82653339D01*
X112735635Y-82651339D01*
X112734635Y-82648339D01*
X112734635Y-82646339D01*
X112734635Y-82643339D01*
X112734635Y-82463339D01*
X112734635Y-82460339D01*
X112734635Y-82458339D01*
X112735635Y-82455339D01*
X112735635Y-82453339D01*
X112736635Y-82450339D01*
X112736635Y-82448339D01*
X112737635Y-82445339D01*
X112738635Y-82443339D01*
X112739635Y-82440339D01*
X112741635Y-82438339D01*
X112742635Y-82436339D01*
X112744635Y-82434339D01*
X112745635Y-82432339D01*
X112747635Y-82430339D01*
X112749635Y-82428339D01*
X112751635Y-82426339D01*
X112753635Y-82424339D01*
X112755635Y-82423339D01*
X112757635Y-82421339D01*
X112759635Y-82420339D01*
X112761635Y-82418339D01*
X112764635Y-82417339D01*
X112766635Y-82416339D01*
X112769635Y-82415339D01*
X112771635Y-82415339D01*
X112774635Y-82414339D01*
X112776635Y-82414339D01*
X112779635Y-82413339D01*
X112781635Y-82413339D01*
X112784635Y-82413339D01*
X113744635Y-82413339D01*
X113747635Y-82413339D01*
X113749635Y-82413339D01*
X113752635Y-82414339D01*
G37*
X111809635Y-81478339D02*
X111809635Y-81153339D01*
X111809635Y-81150339D01*
X111809635Y-81148339D01*
X111810635Y-81145339D01*
X111810635Y-81143339D01*
X111811635Y-81140339D01*
X111811635Y-81138339D01*
X111812635Y-81135339D01*
X111813635Y-81133339D01*
X111814635Y-81130339D01*
X111816635Y-81128339D01*
X111817635Y-81126339D01*
X111819635Y-81124339D01*
X111820635Y-81122339D01*
X111822635Y-81120339D01*
X111824635Y-81118339D01*
X111826635Y-81116339D01*
X111828635Y-81114339D01*
X111830635Y-81113339D01*
X111832635Y-81111339D01*
X111834635Y-81110339D01*
X111836635Y-81108339D01*
X111839635Y-81107339D01*
X111841635Y-81106339D01*
X111844635Y-81105339D01*
X111846635Y-81105339D01*
X111849635Y-81104339D01*
X111851635Y-81104339D01*
X111854635Y-81103339D01*
X111856635Y-81103339D01*
X111859635Y-81103339D01*
X112034635Y-81103339D01*
X112037635Y-81103339D01*
X112039635Y-81103339D01*
X112042635Y-81104339D01*
X112044635Y-81104339D01*
X112047635Y-81105339D01*
X112049635Y-81105339D01*
X112052635Y-81106339D01*
X112054635Y-81107339D01*
X112057635Y-81108339D01*
X112059635Y-81110339D01*
X112061635Y-81111339D01*
X112063635Y-81113339D01*
X112065635Y-81114339D01*
X112067635Y-81116339D01*
X112069635Y-81118339D01*
X112071635Y-81120339D01*
X112073635Y-81122339D01*
X112074635Y-81124339D01*
X112076635Y-81126339D01*
X112077635Y-81128339D01*
X112079635Y-81130339D01*
X112080635Y-81133339D01*
X112081635Y-81135339D01*
X112082635Y-81138339D01*
X112082635Y-81140339D01*
X112083635Y-81143339D01*
X112083635Y-81145339D01*
X112084635Y-81148339D01*
X112084635Y-81150339D01*
X112084635Y-81153339D01*
X112084635Y-81653339D01*
X112084635Y-81656339D01*
X112084635Y-81658339D01*
X112083635Y-81661339D01*
X112083635Y-81663339D01*
X112082635Y-81666339D01*
X112082635Y-81668339D01*
X112081635Y-81671339D01*
X112080635Y-81673339D01*
X112079635Y-81676339D01*
X112077635Y-81678339D01*
X112076635Y-81680339D01*
X112074635Y-81682339D01*
X112073635Y-81684339D01*
X112071635Y-81686339D01*
X112069635Y-81688339D01*
X112067635Y-81690339D01*
X112065635Y-81692339D01*
X112063635Y-81693339D01*
X112061635Y-81695339D01*
X112059635Y-81696339D01*
X112057635Y-81698339D01*
X112054635Y-81699339D01*
X112052635Y-81700339D01*
X112049635Y-81701339D01*
X112047635Y-81701339D01*
X112044635Y-81702339D01*
X112042635Y-81702339D01*
X112039635Y-81703339D01*
X112037635Y-81703339D01*
X112034635Y-81703339D01*
X111484635Y-81703339D01*
X111481635Y-81703339D01*
X111479635Y-81703339D01*
X111476635Y-81702339D01*
X111474635Y-81702339D01*
X111471635Y-81701339D01*
X111469635Y-81701339D01*
X111466635Y-81700339D01*
X111464635Y-81699339D01*
X111461635Y-81698339D01*
X111459635Y-81696339D01*
X111457635Y-81695339D01*
X111455635Y-81693339D01*
X111453635Y-81692339D01*
X111451635Y-81690339D01*
X111449635Y-81688339D01*
X111447635Y-81686339D01*
X111445635Y-81684339D01*
X111444635Y-81682339D01*
X111442635Y-81680339D01*
X111441635Y-81678339D01*
X111439635Y-81676339D01*
X111438635Y-81673339D01*
X111437635Y-81671339D01*
X111436635Y-81668339D01*
X111436635Y-81666339D01*
X111435635Y-81663339D01*
X111435635Y-81661339D01*
X111434635Y-81658339D01*
X111434635Y-81656339D01*
X111434635Y-81653339D01*
X111434635Y-81528339D01*
X111434635Y-81525339D01*
X111434635Y-81523339D01*
X111435635Y-81520339D01*
X111435635Y-81518339D01*
X111436635Y-81515339D01*
X111436635Y-81513339D01*
X111437635Y-81510339D01*
X111438635Y-81508339D01*
X111439635Y-81505339D01*
X111441635Y-81503339D01*
X111442635Y-81501339D01*
X111444635Y-81499339D01*
X111445635Y-81497339D01*
X111447635Y-81495339D01*
X111449635Y-81493339D01*
X111451635Y-81491339D01*
X111453635Y-81489339D01*
X111455635Y-81488339D01*
X111457635Y-81486339D01*
X111459635Y-81485339D01*
X111461635Y-81483339D01*
X111464635Y-81482339D01*
X111466635Y-81481339D01*
X111469635Y-81480339D01*
X111471635Y-81480339D01*
X111474635Y-81479339D01*
X111476635Y-81479339D01*
X111479635Y-81478339D01*
X111481635Y-81478339D01*
X111484635Y-81478339D01*
X111809635Y-81478339D01*
G36*
X112042635Y-81104339D02*
G01*
X112044635Y-81104339D01*
X112047635Y-81105339D01*
X112049635Y-81105339D01*
X112052635Y-81106339D01*
X112054635Y-81107339D01*
X112057635Y-81108339D01*
X112059635Y-81110339D01*
X112061635Y-81111339D01*
X112063635Y-81113339D01*
X112065635Y-81114339D01*
X112067635Y-81116339D01*
X112069635Y-81118339D01*
X112071635Y-81120339D01*
X112073635Y-81122339D01*
X112074635Y-81124339D01*
X112076635Y-81126339D01*
X112077635Y-81128339D01*
X112079635Y-81130339D01*
X112080635Y-81133339D01*
X112081635Y-81135339D01*
X112082635Y-81138339D01*
X112082635Y-81140339D01*
X112083635Y-81143339D01*
X112083635Y-81145339D01*
X112084635Y-81148339D01*
X112084635Y-81150339D01*
X112084635Y-81153339D01*
X112084635Y-81653339D01*
X112084635Y-81656339D01*
X112084635Y-81658339D01*
X112083635Y-81661339D01*
X112083635Y-81663339D01*
X112082635Y-81666339D01*
X112082635Y-81668339D01*
X112081635Y-81671339D01*
X112080635Y-81673339D01*
X112079635Y-81676339D01*
X112077635Y-81678339D01*
X112076635Y-81680339D01*
X112074635Y-81682339D01*
X112073635Y-81684339D01*
X112071635Y-81686339D01*
X112069635Y-81688339D01*
X112067635Y-81690339D01*
X112065635Y-81692339D01*
X112063635Y-81693339D01*
X112061635Y-81695339D01*
X112059635Y-81696339D01*
X112057635Y-81698339D01*
X112054635Y-81699339D01*
X112052635Y-81700339D01*
X112049635Y-81701339D01*
X112047635Y-81701339D01*
X112044635Y-81702339D01*
X112042635Y-81702339D01*
X112039635Y-81703339D01*
X112037635Y-81703339D01*
X112034635Y-81703339D01*
X111484635Y-81703339D01*
X111481635Y-81703339D01*
X111479635Y-81703339D01*
X111476635Y-81702339D01*
X111474635Y-81702339D01*
X111471635Y-81701339D01*
X111469635Y-81701339D01*
X111466635Y-81700339D01*
X111464635Y-81699339D01*
X111461635Y-81698339D01*
X111459635Y-81696339D01*
X111457635Y-81695339D01*
X111455635Y-81693339D01*
X111453635Y-81692339D01*
X111451635Y-81690339D01*
X111449635Y-81688339D01*
X111447635Y-81686339D01*
X111445635Y-81684339D01*
X111444635Y-81682339D01*
X111442635Y-81680339D01*
X111441635Y-81678339D01*
X111439635Y-81676339D01*
X111438635Y-81673339D01*
X111437635Y-81671339D01*
X111436635Y-81668339D01*
X111436635Y-81666339D01*
X111435635Y-81663339D01*
X111435635Y-81661339D01*
X111434635Y-81658339D01*
X111434635Y-81656339D01*
X111434635Y-81653339D01*
X111434635Y-81528339D01*
X111434635Y-81525339D01*
X111434635Y-81523339D01*
X111435635Y-81520339D01*
X111435635Y-81518339D01*
X111436635Y-81515339D01*
X111436635Y-81513339D01*
X111437635Y-81510339D01*
X111438635Y-81508339D01*
X111439635Y-81505339D01*
X111441635Y-81503339D01*
X111442635Y-81501339D01*
X111444635Y-81499339D01*
X111445635Y-81497339D01*
X111447635Y-81495339D01*
X111449635Y-81493339D01*
X111451635Y-81491339D01*
X111453635Y-81489339D01*
X111455635Y-81488339D01*
X111457635Y-81486339D01*
X111459635Y-81485339D01*
X111461635Y-81483339D01*
X111464635Y-81482339D01*
X111466635Y-81481339D01*
X111469635Y-81480339D01*
X111471635Y-81480339D01*
X111474635Y-81479339D01*
X111476635Y-81479339D01*
X111479635Y-81478339D01*
X111481635Y-81478339D01*
X111484635Y-81478339D01*
X111809635Y-81478339D01*
X111809635Y-81153339D01*
X111809635Y-81150339D01*
X111809635Y-81148339D01*
X111810635Y-81145339D01*
X111810635Y-81143339D01*
X111811635Y-81140339D01*
X111811635Y-81138339D01*
X111812635Y-81135339D01*
X111813635Y-81133339D01*
X111814635Y-81130339D01*
X111816635Y-81128339D01*
X111817635Y-81126339D01*
X111819635Y-81124339D01*
X111820635Y-81122339D01*
X111822635Y-81120339D01*
X111824635Y-81118339D01*
X111826635Y-81116339D01*
X111828635Y-81114339D01*
X111830635Y-81113339D01*
X111832635Y-81111339D01*
X111834635Y-81110339D01*
X111836635Y-81108339D01*
X111839635Y-81107339D01*
X111841635Y-81106339D01*
X111844635Y-81105339D01*
X111846635Y-81105339D01*
X111849635Y-81104339D01*
X111851635Y-81104339D01*
X111854635Y-81103339D01*
X111856635Y-81103339D01*
X111859635Y-81103339D01*
X112034635Y-81103339D01*
X112037635Y-81103339D01*
X112039635Y-81103339D01*
X112042635Y-81104339D01*
G37*
X111809635Y-83128339D02*
X111809635Y-83453339D01*
X111809635Y-83456339D01*
X111809635Y-83458339D01*
X111810635Y-83461339D01*
X111810635Y-83463339D01*
X111811635Y-83466339D01*
X111811635Y-83468339D01*
X111812635Y-83471339D01*
X111813635Y-83473339D01*
X111814635Y-83476339D01*
X111816635Y-83478339D01*
X111817635Y-83480339D01*
X111819635Y-83482339D01*
X111820635Y-83484339D01*
X111822635Y-83486339D01*
X111824635Y-83488339D01*
X111826635Y-83490339D01*
X111828635Y-83492339D01*
X111830635Y-83493339D01*
X111832635Y-83495339D01*
X111834635Y-83496339D01*
X111836635Y-83498339D01*
X111839635Y-83499339D01*
X111841635Y-83500339D01*
X111844635Y-83501339D01*
X111846635Y-83501339D01*
X111849635Y-83502339D01*
X111851635Y-83502339D01*
X111854635Y-83503339D01*
X111856635Y-83503339D01*
X111859635Y-83503339D01*
X112034635Y-83503339D01*
X112037635Y-83503339D01*
X112039635Y-83503339D01*
X112042635Y-83502339D01*
X112044635Y-83502339D01*
X112047635Y-83501339D01*
X112049635Y-83501339D01*
X112052635Y-83500339D01*
X112054635Y-83499339D01*
X112057635Y-83498339D01*
X112059635Y-83496339D01*
X112061635Y-83495339D01*
X112063635Y-83493339D01*
X112065635Y-83492339D01*
X112067635Y-83490339D01*
X112069635Y-83488339D01*
X112071635Y-83486339D01*
X112073635Y-83484339D01*
X112074635Y-83482339D01*
X112076635Y-83480339D01*
X112077635Y-83478339D01*
X112079635Y-83476339D01*
X112080635Y-83473339D01*
X112081635Y-83471339D01*
X112082635Y-83468339D01*
X112082635Y-83466339D01*
X112083635Y-83463339D01*
X112083635Y-83461339D01*
X112084635Y-83458339D01*
X112084635Y-83456339D01*
X112084635Y-83453339D01*
X112084635Y-82953339D01*
X112084635Y-82950339D01*
X112084635Y-82948339D01*
X112083635Y-82945339D01*
X112083635Y-82943339D01*
X112082635Y-82940339D01*
X112082635Y-82938339D01*
X112081635Y-82935339D01*
X112080635Y-82933339D01*
X112079635Y-82930339D01*
X112077635Y-82928339D01*
X112076635Y-82926339D01*
X112074635Y-82924339D01*
X112073635Y-82922339D01*
X112071635Y-82920339D01*
X112069635Y-82918339D01*
X112067635Y-82916339D01*
X112065635Y-82914339D01*
X112063635Y-82913339D01*
X112061635Y-82911339D01*
X112059635Y-82910339D01*
X112057635Y-82908339D01*
X112054635Y-82907339D01*
X112052635Y-82906339D01*
X112049635Y-82905339D01*
X112047635Y-82905339D01*
X112044635Y-82904339D01*
X112042635Y-82904339D01*
X112039635Y-82903339D01*
X112037635Y-82903339D01*
X112034635Y-82903339D01*
X111484635Y-82903339D01*
X111481635Y-82903339D01*
X111479635Y-82903339D01*
X111476635Y-82904339D01*
X111474635Y-82904339D01*
X111471635Y-82905339D01*
X111469635Y-82905339D01*
X111466635Y-82906339D01*
X111464635Y-82907339D01*
X111461635Y-82908339D01*
X111459635Y-82910339D01*
X111457635Y-82911339D01*
X111455635Y-82913339D01*
X111453635Y-82914339D01*
X111451635Y-82916339D01*
X111449635Y-82918339D01*
X111447635Y-82920339D01*
X111445635Y-82922339D01*
X111444635Y-82924339D01*
X111442635Y-82926339D01*
X111441635Y-82928339D01*
X111439635Y-82930339D01*
X111438635Y-82933339D01*
X111437635Y-82935339D01*
X111436635Y-82938339D01*
X111436635Y-82940339D01*
X111435635Y-82943339D01*
X111435635Y-82945339D01*
X111434635Y-82948339D01*
X111434635Y-82950339D01*
X111434635Y-82953339D01*
X111434635Y-83078339D01*
X111434635Y-83081339D01*
X111434635Y-83083339D01*
X111435635Y-83086339D01*
X111435635Y-83088339D01*
X111436635Y-83091339D01*
X111436635Y-83093339D01*
X111437635Y-83096339D01*
X111438635Y-83098339D01*
X111439635Y-83101339D01*
X111441635Y-83103339D01*
X111442635Y-83105339D01*
X111444635Y-83107339D01*
X111445635Y-83109339D01*
X111447635Y-83111339D01*
X111449635Y-83113339D01*
X111451635Y-83115339D01*
X111453635Y-83117339D01*
X111455635Y-83118339D01*
X111457635Y-83120339D01*
X111459635Y-83121339D01*
X111461635Y-83123339D01*
X111464635Y-83124339D01*
X111466635Y-83125339D01*
X111469635Y-83126339D01*
X111471635Y-83126339D01*
X111474635Y-83127339D01*
X111476635Y-83127339D01*
X111479635Y-83128339D01*
X111481635Y-83128339D01*
X111484635Y-83128339D01*
X111809635Y-83128339D01*
G36*
X112042635Y-82904339D02*
G01*
X112044635Y-82904339D01*
X112047635Y-82905339D01*
X112049635Y-82905339D01*
X112052635Y-82906339D01*
X112054635Y-82907339D01*
X112057635Y-82908339D01*
X112059635Y-82910339D01*
X112061635Y-82911339D01*
X112063635Y-82913339D01*
X112065635Y-82914339D01*
X112067635Y-82916339D01*
X112069635Y-82918339D01*
X112071635Y-82920339D01*
X112073635Y-82922339D01*
X112074635Y-82924339D01*
X112076635Y-82926339D01*
X112077635Y-82928339D01*
X112079635Y-82930339D01*
X112080635Y-82933339D01*
X112081635Y-82935339D01*
X112082635Y-82938339D01*
X112082635Y-82940339D01*
X112083635Y-82943339D01*
X112083635Y-82945339D01*
X112084635Y-82948339D01*
X112084635Y-82950339D01*
X112084635Y-82953339D01*
X112084635Y-83453339D01*
X112084635Y-83456339D01*
X112084635Y-83458339D01*
X112083635Y-83461339D01*
X112083635Y-83463339D01*
X112082635Y-83466339D01*
X112082635Y-83468339D01*
X112081635Y-83471339D01*
X112080635Y-83473339D01*
X112079635Y-83476339D01*
X112077635Y-83478339D01*
X112076635Y-83480339D01*
X112074635Y-83482339D01*
X112073635Y-83484339D01*
X112071635Y-83486339D01*
X112069635Y-83488339D01*
X112067635Y-83490339D01*
X112065635Y-83492339D01*
X112063635Y-83493339D01*
X112061635Y-83495339D01*
X112059635Y-83496339D01*
X112057635Y-83498339D01*
X112054635Y-83499339D01*
X112052635Y-83500339D01*
X112049635Y-83501339D01*
X112047635Y-83501339D01*
X112044635Y-83502339D01*
X112042635Y-83502339D01*
X112039635Y-83503339D01*
X112037635Y-83503339D01*
X112034635Y-83503339D01*
X111859635Y-83503339D01*
X111856635Y-83503339D01*
X111854635Y-83503339D01*
X111851635Y-83502339D01*
X111849635Y-83502339D01*
X111846635Y-83501339D01*
X111844635Y-83501339D01*
X111841635Y-83500339D01*
X111839635Y-83499339D01*
X111836635Y-83498339D01*
X111834635Y-83496339D01*
X111832635Y-83495339D01*
X111830635Y-83493339D01*
X111828635Y-83492339D01*
X111826635Y-83490339D01*
X111824635Y-83488339D01*
X111822635Y-83486339D01*
X111820635Y-83484339D01*
X111819635Y-83482339D01*
X111817635Y-83480339D01*
X111816635Y-83478339D01*
X111814635Y-83476339D01*
X111813635Y-83473339D01*
X111812635Y-83471339D01*
X111811635Y-83468339D01*
X111811635Y-83466339D01*
X111810635Y-83463339D01*
X111810635Y-83461339D01*
X111809635Y-83458339D01*
X111809635Y-83456339D01*
X111809635Y-83453339D01*
X111809635Y-83128339D01*
X111484635Y-83128339D01*
X111481635Y-83128339D01*
X111479635Y-83128339D01*
X111476635Y-83127339D01*
X111474635Y-83127339D01*
X111471635Y-83126339D01*
X111469635Y-83126339D01*
X111466635Y-83125339D01*
X111464635Y-83124339D01*
X111461635Y-83123339D01*
X111459635Y-83121339D01*
X111457635Y-83120339D01*
X111455635Y-83118339D01*
X111453635Y-83117339D01*
X111451635Y-83115339D01*
X111449635Y-83113339D01*
X111447635Y-83111339D01*
X111445635Y-83109339D01*
X111444635Y-83107339D01*
X111442635Y-83105339D01*
X111441635Y-83103339D01*
X111439635Y-83101339D01*
X111438635Y-83098339D01*
X111437635Y-83096339D01*
X111436635Y-83093339D01*
X111436635Y-83091339D01*
X111435635Y-83088339D01*
X111435635Y-83086339D01*
X111434635Y-83083339D01*
X111434635Y-83081339D01*
X111434635Y-83078339D01*
X111434635Y-82953339D01*
X111434635Y-82950339D01*
X111434635Y-82948339D01*
X111435635Y-82945339D01*
X111435635Y-82943339D01*
X111436635Y-82940339D01*
X111436635Y-82938339D01*
X111437635Y-82935339D01*
X111438635Y-82933339D01*
X111439635Y-82930339D01*
X111441635Y-82928339D01*
X111442635Y-82926339D01*
X111444635Y-82924339D01*
X111445635Y-82922339D01*
X111447635Y-82920339D01*
X111449635Y-82918339D01*
X111451635Y-82916339D01*
X111453635Y-82914339D01*
X111455635Y-82913339D01*
X111457635Y-82911339D01*
X111459635Y-82910339D01*
X111461635Y-82908339D01*
X111464635Y-82907339D01*
X111466635Y-82906339D01*
X111469635Y-82905339D01*
X111471635Y-82905339D01*
X111474635Y-82904339D01*
X111476635Y-82904339D01*
X111479635Y-82903339D01*
X111481635Y-82903339D01*
X111484635Y-82903339D01*
X112034635Y-82903339D01*
X112037635Y-82903339D01*
X112039635Y-82903339D01*
X112042635Y-82904339D01*
G37*
X113459635Y-81478339D02*
X113459635Y-81153339D01*
X113459635Y-81150339D01*
X113459635Y-81148339D01*
X113458635Y-81145339D01*
X113458635Y-81143339D01*
X113457635Y-81140339D01*
X113457635Y-81138339D01*
X113456635Y-81135339D01*
X113455635Y-81133339D01*
X113454635Y-81130339D01*
X113452635Y-81128339D01*
X113451635Y-81126339D01*
X113449635Y-81124339D01*
X113448635Y-81122339D01*
X113446635Y-81120339D01*
X113444635Y-81118339D01*
X113442635Y-81116339D01*
X113440635Y-81114339D01*
X113438635Y-81113339D01*
X113436635Y-81111339D01*
X113434635Y-81110339D01*
X113432635Y-81108339D01*
X113429635Y-81107339D01*
X113427635Y-81106339D01*
X113424635Y-81105339D01*
X113422635Y-81105339D01*
X113419635Y-81104339D01*
X113417635Y-81104339D01*
X113414635Y-81103339D01*
X113412635Y-81103339D01*
X113409635Y-81103339D01*
X113234635Y-81103339D01*
X113231635Y-81103339D01*
X113229635Y-81103339D01*
X113226635Y-81104339D01*
X113224635Y-81104339D01*
X113221635Y-81105339D01*
X113219635Y-81105339D01*
X113216635Y-81106339D01*
X113214635Y-81107339D01*
X113211635Y-81108339D01*
X113209635Y-81110339D01*
X113207635Y-81111339D01*
X113205635Y-81113339D01*
X113203635Y-81114339D01*
X113201635Y-81116339D01*
X113199635Y-81118339D01*
X113197635Y-81120339D01*
X113195635Y-81122339D01*
X113194635Y-81124339D01*
X113192635Y-81126339D01*
X113191635Y-81128339D01*
X113189635Y-81130339D01*
X113188635Y-81133339D01*
X113187635Y-81135339D01*
X113186635Y-81138339D01*
X113186635Y-81140339D01*
X113185635Y-81143339D01*
X113185635Y-81145339D01*
X113184635Y-81148339D01*
X113184635Y-81150339D01*
X113184635Y-81153339D01*
X113184635Y-81653339D01*
X113184635Y-81656339D01*
X113184635Y-81658339D01*
X113185635Y-81661339D01*
X113185635Y-81663339D01*
X113186635Y-81666339D01*
X113186635Y-81668339D01*
X113187635Y-81671339D01*
X113188635Y-81673339D01*
X113189635Y-81676339D01*
X113191635Y-81678339D01*
X113192635Y-81680339D01*
X113194635Y-81682339D01*
X113195635Y-81684339D01*
X113197635Y-81686339D01*
X113199635Y-81688339D01*
X113201635Y-81690339D01*
X113203635Y-81692339D01*
X113205635Y-81693339D01*
X113207635Y-81695339D01*
X113209635Y-81696339D01*
X113211635Y-81698339D01*
X113214635Y-81699339D01*
X113216635Y-81700339D01*
X113219635Y-81701339D01*
X113221635Y-81701339D01*
X113224635Y-81702339D01*
X113226635Y-81702339D01*
X113229635Y-81703339D01*
X113231635Y-81703339D01*
X113234635Y-81703339D01*
X113784635Y-81703339D01*
X113787635Y-81703339D01*
X113789635Y-81703339D01*
X113792635Y-81702339D01*
X113794635Y-81702339D01*
X113797635Y-81701339D01*
X113799635Y-81701339D01*
X113802635Y-81700339D01*
X113804635Y-81699339D01*
X113807635Y-81698339D01*
X113809635Y-81696339D01*
X113811635Y-81695339D01*
X113813635Y-81693339D01*
X113815635Y-81692339D01*
X113817635Y-81690339D01*
X113819635Y-81688339D01*
X113821635Y-81686339D01*
X113823635Y-81684339D01*
X113824635Y-81682339D01*
X113826635Y-81680339D01*
X113827635Y-81678339D01*
X113829635Y-81676339D01*
X113830635Y-81673339D01*
X113831635Y-81671339D01*
X113832635Y-81668339D01*
X113832635Y-81666339D01*
X113833635Y-81663339D01*
X113833635Y-81661339D01*
X113834635Y-81658339D01*
X113834635Y-81656339D01*
X113834635Y-81653339D01*
X113834635Y-81528339D01*
X113834635Y-81525339D01*
X113834635Y-81523339D01*
X113833635Y-81520339D01*
X113833635Y-81518339D01*
X113832635Y-81515339D01*
X113832635Y-81513339D01*
X113831635Y-81510339D01*
X113830635Y-81508339D01*
X113829635Y-81505339D01*
X113827635Y-81503339D01*
X113826635Y-81501339D01*
X113824635Y-81499339D01*
X113823635Y-81497339D01*
X113821635Y-81495339D01*
X113819635Y-81493339D01*
X113817635Y-81491339D01*
X113815635Y-81489339D01*
X113813635Y-81488339D01*
X113811635Y-81486339D01*
X113809635Y-81485339D01*
X113807635Y-81483339D01*
X113804635Y-81482339D01*
X113802635Y-81481339D01*
X113799635Y-81480339D01*
X113797635Y-81480339D01*
X113794635Y-81479339D01*
X113792635Y-81479339D01*
X113789635Y-81478339D01*
X113787635Y-81478339D01*
X113784635Y-81478339D01*
X113459635Y-81478339D01*
G36*
X113417635Y-81104339D02*
G01*
X113419635Y-81104339D01*
X113422635Y-81105339D01*
X113424635Y-81105339D01*
X113427635Y-81106339D01*
X113429635Y-81107339D01*
X113432635Y-81108339D01*
X113434635Y-81110339D01*
X113436635Y-81111339D01*
X113438635Y-81113339D01*
X113440635Y-81114339D01*
X113442635Y-81116339D01*
X113444635Y-81118339D01*
X113446635Y-81120339D01*
X113448635Y-81122339D01*
X113449635Y-81124339D01*
X113451635Y-81126339D01*
X113452635Y-81128339D01*
X113454635Y-81130339D01*
X113455635Y-81133339D01*
X113456635Y-81135339D01*
X113457635Y-81138339D01*
X113457635Y-81140339D01*
X113458635Y-81143339D01*
X113458635Y-81145339D01*
X113459635Y-81148339D01*
X113459635Y-81150339D01*
X113459635Y-81153339D01*
X113459635Y-81478339D01*
X113784635Y-81478339D01*
X113787635Y-81478339D01*
X113789635Y-81478339D01*
X113792635Y-81479339D01*
X113794635Y-81479339D01*
X113797635Y-81480339D01*
X113799635Y-81480339D01*
X113802635Y-81481339D01*
X113804635Y-81482339D01*
X113807635Y-81483339D01*
X113809635Y-81485339D01*
X113811635Y-81486339D01*
X113813635Y-81488339D01*
X113815635Y-81489339D01*
X113817635Y-81491339D01*
X113819635Y-81493339D01*
X113821635Y-81495339D01*
X113823635Y-81497339D01*
X113824635Y-81499339D01*
X113826635Y-81501339D01*
X113827635Y-81503339D01*
X113829635Y-81505339D01*
X113830635Y-81508339D01*
X113831635Y-81510339D01*
X113832635Y-81513339D01*
X113832635Y-81515339D01*
X113833635Y-81518339D01*
X113833635Y-81520339D01*
X113834635Y-81523339D01*
X113834635Y-81525339D01*
X113834635Y-81528339D01*
X113834635Y-81653339D01*
X113834635Y-81656339D01*
X113834635Y-81658339D01*
X113833635Y-81661339D01*
X113833635Y-81663339D01*
X113832635Y-81666339D01*
X113832635Y-81668339D01*
X113831635Y-81671339D01*
X113830635Y-81673339D01*
X113829635Y-81676339D01*
X113827635Y-81678339D01*
X113826635Y-81680339D01*
X113824635Y-81682339D01*
X113823635Y-81684339D01*
X113821635Y-81686339D01*
X113819635Y-81688339D01*
X113817635Y-81690339D01*
X113815635Y-81692339D01*
X113813635Y-81693339D01*
X113811635Y-81695339D01*
X113809635Y-81696339D01*
X113807635Y-81698339D01*
X113804635Y-81699339D01*
X113802635Y-81700339D01*
X113799635Y-81701339D01*
X113797635Y-81701339D01*
X113794635Y-81702339D01*
X113792635Y-81702339D01*
X113789635Y-81703339D01*
X113787635Y-81703339D01*
X113784635Y-81703339D01*
X113234635Y-81703339D01*
X113231635Y-81703339D01*
X113229635Y-81703339D01*
X113226635Y-81702339D01*
X113224635Y-81702339D01*
X113221635Y-81701339D01*
X113219635Y-81701339D01*
X113216635Y-81700339D01*
X113214635Y-81699339D01*
X113211635Y-81698339D01*
X113209635Y-81696339D01*
X113207635Y-81695339D01*
X113205635Y-81693339D01*
X113203635Y-81692339D01*
X113201635Y-81690339D01*
X113199635Y-81688339D01*
X113197635Y-81686339D01*
X113195635Y-81684339D01*
X113194635Y-81682339D01*
X113192635Y-81680339D01*
X113191635Y-81678339D01*
X113189635Y-81676339D01*
X113188635Y-81673339D01*
X113187635Y-81671339D01*
X113186635Y-81668339D01*
X113186635Y-81666339D01*
X113185635Y-81663339D01*
X113185635Y-81661339D01*
X113184635Y-81658339D01*
X113184635Y-81656339D01*
X113184635Y-81653339D01*
X113184635Y-81153339D01*
X113184635Y-81150339D01*
X113184635Y-81148339D01*
X113185635Y-81145339D01*
X113185635Y-81143339D01*
X113186635Y-81140339D01*
X113186635Y-81138339D01*
X113187635Y-81135339D01*
X113188635Y-81133339D01*
X113189635Y-81130339D01*
X113191635Y-81128339D01*
X113192635Y-81126339D01*
X113194635Y-81124339D01*
X113195635Y-81122339D01*
X113197635Y-81120339D01*
X113199635Y-81118339D01*
X113201635Y-81116339D01*
X113203635Y-81114339D01*
X113205635Y-81113339D01*
X113207635Y-81111339D01*
X113209635Y-81110339D01*
X113211635Y-81108339D01*
X113214635Y-81107339D01*
X113216635Y-81106339D01*
X113219635Y-81105339D01*
X113221635Y-81105339D01*
X113224635Y-81104339D01*
X113226635Y-81104339D01*
X113229635Y-81103339D01*
X113231635Y-81103339D01*
X113234635Y-81103339D01*
X113409635Y-81103339D01*
X113412635Y-81103339D01*
X113414635Y-81103339D01*
X113417635Y-81104339D01*
G37*
X113459635Y-83128339D02*
X113459635Y-83453339D01*
X113459635Y-83456339D01*
X113459635Y-83458339D01*
X113458635Y-83461339D01*
X113458635Y-83463339D01*
X113457635Y-83466339D01*
X113457635Y-83468339D01*
X113456635Y-83471339D01*
X113455635Y-83473339D01*
X113454635Y-83476339D01*
X113452635Y-83478339D01*
X113451635Y-83480339D01*
X113449635Y-83482339D01*
X113448635Y-83484339D01*
X113446635Y-83486339D01*
X113444635Y-83488339D01*
X113442635Y-83490339D01*
X113440635Y-83492339D01*
X113438635Y-83493339D01*
X113436635Y-83495339D01*
X113434635Y-83496339D01*
X113432635Y-83498339D01*
X113429635Y-83499339D01*
X113427635Y-83500339D01*
X113424635Y-83501339D01*
X113422635Y-83501339D01*
X113419635Y-83502339D01*
X113417635Y-83502339D01*
X113414635Y-83503339D01*
X113412635Y-83503339D01*
X113409635Y-83503339D01*
X113234635Y-83503339D01*
X113231635Y-83503339D01*
X113229635Y-83503339D01*
X113226635Y-83502339D01*
X113224635Y-83502339D01*
X113221635Y-83501339D01*
X113219635Y-83501339D01*
X113216635Y-83500339D01*
X113214635Y-83499339D01*
X113211635Y-83498339D01*
X113209635Y-83496339D01*
X113207635Y-83495339D01*
X113205635Y-83493339D01*
X113203635Y-83492339D01*
X113201635Y-83490339D01*
X113199635Y-83488339D01*
X113197635Y-83486339D01*
X113195635Y-83484339D01*
X113194635Y-83482339D01*
X113192635Y-83480339D01*
X113191635Y-83478339D01*
X113189635Y-83476339D01*
X113188635Y-83473339D01*
X113187635Y-83471339D01*
X113186635Y-83468339D01*
X113186635Y-83466339D01*
X113185635Y-83463339D01*
X113185635Y-83461339D01*
X113184635Y-83458339D01*
X113184635Y-83456339D01*
X113184635Y-83453339D01*
X113184635Y-82953339D01*
X113184635Y-82950339D01*
X113184635Y-82948339D01*
X113185635Y-82945339D01*
X113185635Y-82943339D01*
X113186635Y-82940339D01*
X113186635Y-82938339D01*
X113187635Y-82935339D01*
X113188635Y-82933339D01*
X113189635Y-82930339D01*
X113191635Y-82928339D01*
X113192635Y-82926339D01*
X113194635Y-82924339D01*
X113195635Y-82922339D01*
X113197635Y-82920339D01*
X113199635Y-82918339D01*
X113201635Y-82916339D01*
X113203635Y-82914339D01*
X113205635Y-82913339D01*
X113207635Y-82911339D01*
X113209635Y-82910339D01*
X113211635Y-82908339D01*
X113214635Y-82907339D01*
X113216635Y-82906339D01*
X113219635Y-82905339D01*
X113221635Y-82905339D01*
X113224635Y-82904339D01*
X113226635Y-82904339D01*
X113229635Y-82903339D01*
X113231635Y-82903339D01*
X113234635Y-82903339D01*
X113784635Y-82903339D01*
X113787635Y-82903339D01*
X113789635Y-82903339D01*
X113792635Y-82904339D01*
X113794635Y-82904339D01*
X113797635Y-82905339D01*
X113799635Y-82905339D01*
X113802635Y-82906339D01*
X113804635Y-82907339D01*
X113807635Y-82908339D01*
X113809635Y-82910339D01*
X113811635Y-82911339D01*
X113813635Y-82913339D01*
X113815635Y-82914339D01*
X113817635Y-82916339D01*
X113819635Y-82918339D01*
X113821635Y-82920339D01*
X113823635Y-82922339D01*
X113824635Y-82924339D01*
X113826635Y-82926339D01*
X113827635Y-82928339D01*
X113829635Y-82930339D01*
X113830635Y-82933339D01*
X113831635Y-82935339D01*
X113832635Y-82938339D01*
X113832635Y-82940339D01*
X113833635Y-82943339D01*
X113833635Y-82945339D01*
X113834635Y-82948339D01*
X113834635Y-82950339D01*
X113834635Y-82953339D01*
X113834635Y-83078339D01*
X113834635Y-83081339D01*
X113834635Y-83083339D01*
X113833635Y-83086339D01*
X113833635Y-83088339D01*
X113832635Y-83091339D01*
X113832635Y-83093339D01*
X113831635Y-83096339D01*
X113830635Y-83098339D01*
X113829635Y-83101339D01*
X113827635Y-83103339D01*
X113826635Y-83105339D01*
X113824635Y-83107339D01*
X113823635Y-83109339D01*
X113821635Y-83111339D01*
X113819635Y-83113339D01*
X113817635Y-83115339D01*
X113815635Y-83117339D01*
X113813635Y-83118339D01*
X113811635Y-83120339D01*
X113809635Y-83121339D01*
X113807635Y-83123339D01*
X113804635Y-83124339D01*
X113802635Y-83125339D01*
X113799635Y-83126339D01*
X113797635Y-83126339D01*
X113794635Y-83127339D01*
X113792635Y-83127339D01*
X113789635Y-83128339D01*
X113787635Y-83128339D01*
X113784635Y-83128339D01*
X113459635Y-83128339D01*
G36*
X113792635Y-82904339D02*
G01*
X113794635Y-82904339D01*
X113797635Y-82905339D01*
X113799635Y-82905339D01*
X113802635Y-82906339D01*
X113804635Y-82907339D01*
X113807635Y-82908339D01*
X113809635Y-82910339D01*
X113811635Y-82911339D01*
X113813635Y-82913339D01*
X113815635Y-82914339D01*
X113817635Y-82916339D01*
X113819635Y-82918339D01*
X113821635Y-82920339D01*
X113823635Y-82922339D01*
X113824635Y-82924339D01*
X113826635Y-82926339D01*
X113827635Y-82928339D01*
X113829635Y-82930339D01*
X113830635Y-82933339D01*
X113831635Y-82935339D01*
X113832635Y-82938339D01*
X113832635Y-82940339D01*
X113833635Y-82943339D01*
X113833635Y-82945339D01*
X113834635Y-82948339D01*
X113834635Y-82950339D01*
X113834635Y-82953339D01*
X113834635Y-83078339D01*
X113834635Y-83081339D01*
X113834635Y-83083339D01*
X113833635Y-83086339D01*
X113833635Y-83088339D01*
X113832635Y-83091339D01*
X113832635Y-83093339D01*
X113831635Y-83096339D01*
X113830635Y-83098339D01*
X113829635Y-83101339D01*
X113827635Y-83103339D01*
X113826635Y-83105339D01*
X113824635Y-83107339D01*
X113823635Y-83109339D01*
X113821635Y-83111339D01*
X113819635Y-83113339D01*
X113817635Y-83115339D01*
X113815635Y-83117339D01*
X113813635Y-83118339D01*
X113811635Y-83120339D01*
X113809635Y-83121339D01*
X113807635Y-83123339D01*
X113804635Y-83124339D01*
X113802635Y-83125339D01*
X113799635Y-83126339D01*
X113797635Y-83126339D01*
X113794635Y-83127339D01*
X113792635Y-83127339D01*
X113789635Y-83128339D01*
X113787635Y-83128339D01*
X113784635Y-83128339D01*
X113459635Y-83128339D01*
X113459635Y-83453339D01*
X113459635Y-83456339D01*
X113459635Y-83458339D01*
X113458635Y-83461339D01*
X113458635Y-83463339D01*
X113457635Y-83466339D01*
X113457635Y-83468339D01*
X113456635Y-83471339D01*
X113455635Y-83473339D01*
X113454635Y-83476339D01*
X113452635Y-83478339D01*
X113451635Y-83480339D01*
X113449635Y-83482339D01*
X113448635Y-83484339D01*
X113446635Y-83486339D01*
X113444635Y-83488339D01*
X113442635Y-83490339D01*
X113440635Y-83492339D01*
X113438635Y-83493339D01*
X113436635Y-83495339D01*
X113434635Y-83496339D01*
X113432635Y-83498339D01*
X113429635Y-83499339D01*
X113427635Y-83500339D01*
X113424635Y-83501339D01*
X113422635Y-83501339D01*
X113419635Y-83502339D01*
X113417635Y-83502339D01*
X113414635Y-83503339D01*
X113412635Y-83503339D01*
X113409635Y-83503339D01*
X113234635Y-83503339D01*
X113231635Y-83503339D01*
X113229635Y-83503339D01*
X113226635Y-83502339D01*
X113224635Y-83502339D01*
X113221635Y-83501339D01*
X113219635Y-83501339D01*
X113216635Y-83500339D01*
X113214635Y-83499339D01*
X113211635Y-83498339D01*
X113209635Y-83496339D01*
X113207635Y-83495339D01*
X113205635Y-83493339D01*
X113203635Y-83492339D01*
X113201635Y-83490339D01*
X113199635Y-83488339D01*
X113197635Y-83486339D01*
X113195635Y-83484339D01*
X113194635Y-83482339D01*
X113192635Y-83480339D01*
X113191635Y-83478339D01*
X113189635Y-83476339D01*
X113188635Y-83473339D01*
X113187635Y-83471339D01*
X113186635Y-83468339D01*
X113186635Y-83466339D01*
X113185635Y-83463339D01*
X113185635Y-83461339D01*
X113184635Y-83458339D01*
X113184635Y-83456339D01*
X113184635Y-83453339D01*
X113184635Y-82953339D01*
X113184635Y-82950339D01*
X113184635Y-82948339D01*
X113185635Y-82945339D01*
X113185635Y-82943339D01*
X113186635Y-82940339D01*
X113186635Y-82938339D01*
X113187635Y-82935339D01*
X113188635Y-82933339D01*
X113189635Y-82930339D01*
X113191635Y-82928339D01*
X113192635Y-82926339D01*
X113194635Y-82924339D01*
X113195635Y-82922339D01*
X113197635Y-82920339D01*
X113199635Y-82918339D01*
X113201635Y-82916339D01*
X113203635Y-82914339D01*
X113205635Y-82913339D01*
X113207635Y-82911339D01*
X113209635Y-82910339D01*
X113211635Y-82908339D01*
X113214635Y-82907339D01*
X113216635Y-82906339D01*
X113219635Y-82905339D01*
X113221635Y-82905339D01*
X113224635Y-82904339D01*
X113226635Y-82904339D01*
X113229635Y-82903339D01*
X113231635Y-82903339D01*
X113234635Y-82903339D01*
X113784635Y-82903339D01*
X113787635Y-82903339D01*
X113789635Y-82903339D01*
X113792635Y-82904339D01*
G37*
%TD*%
D11*
%TO.C,R76*%
X244500648Y-118780000D03*
X244500648Y-120430000D03*
%TD*%
D12*
%TO.C,R3*%
X128492664Y-98100000D03*
X130142664Y-98100000D03*
%TD*%
D13*
%TO.C,R13*%
X129779767Y-120275000D03*
X128129767Y-120275000D03*
%TD*%
D14*
%TO.C,C47*%
X210643031Y-88674307D03*
X209093031Y-88674307D03*
%TD*%
D15*
%TO.C,R24*%
X256825000Y-43330000D03*
X258650000Y-43330000D03*
%TD*%
D14*
%TO.C,C38*%
X174088232Y-88000000D03*
X172538232Y-88000000D03*
%TD*%
D16*
%TO.C,C11*%
X142191677Y-76819513D03*
X145141677Y-76819513D03*
%TD*%
D13*
%TO.C,R41*%
X177250000Y-64799358D03*
X175600000Y-64799358D03*
%TD*%
D12*
%TO.C,R15*%
X138093086Y-118600000D03*
X139743086Y-118600000D03*
%TD*%
D17*
%TO.C,C13*%
X132975000Y-72850000D03*
X132975000Y-69900000D03*
%TD*%
D18*
%TO.C,C65*%
X244418813Y-123240000D03*
X245378813Y-123240000D03*
%TD*%
D19*
%TO.C,R38*%
X167375000Y-82454506D03*
X167375000Y-80804506D03*
%TD*%
D20*
%TO.C,C37*%
X109326339Y-94600000D03*
X110876339Y-94600000D03*
%TD*%
D17*
%TO.C,C50*%
X201925000Y-84983185D03*
X201925000Y-82033185D03*
%TD*%
D19*
%TO.C,R72*%
X214725000Y-114900000D03*
X214725000Y-113250000D03*
%TD*%
D21*
%TO.C,LD EN*%
X255570000Y-131680000D03*
%TD*%
D22*
%TO.C,C68*%
X246180000Y-120427498D03*
X246180000Y-119467498D03*
%TD*%
D12*
%TO.C,R36*%
X163139374Y-83275000D03*
X164789374Y-83275000D03*
%TD*%
D23*
%TO.C,LDTC COM*%
X247387433Y-100125000D03*
%TD*%
D11*
%TO.C,R48*%
X193600000Y-108871729D03*
X193600000Y-110521729D03*
%TD*%
D24*
%TO.C,L4*%
X152175000Y-115925000D03*
X152175000Y-119965000D03*
%TD*%
D11*
%TO.C,R8*%
X136250000Y-101394205D03*
X136250000Y-103044205D03*
%TD*%
D18*
%TO.C,C59*%
X244455736Y-129360000D03*
X245415736Y-129360000D03*
%TD*%
D14*
%TO.C,C19*%
X131169324Y-112575000D03*
X129619324Y-112575000D03*
%TD*%
D13*
%TO.C,R11*%
X130127568Y-114918258D03*
X128477568Y-114918258D03*
%TD*%
D16*
%TO.C,C10*%
X142200000Y-80386097D03*
X145150000Y-80386097D03*
%TD*%
D25*
%TO.C,C33*%
X105461291Y-96100000D03*
X105461291Y-99050000D03*
%TD*%
D26*
%TO.C,D3*%
X116025000Y-77950001D03*
X120325000Y-77950001D03*
%TD*%
D14*
%TO.C,C1*%
X131172431Y-93725000D03*
X129622431Y-93725000D03*
%TD*%
%TO.C,C18*%
X129715839Y-122125000D03*
X128165839Y-122125000D03*
%TD*%
D15*
%TO.C,R10*%
X101666350Y-45598123D03*
X103491350Y-45598123D03*
%TD*%
D14*
%TO.C,C39*%
X174093948Y-90200000D03*
X172543948Y-90200000D03*
%TD*%
D11*
%TO.C,R47*%
X196299999Y-108875000D03*
X196299999Y-110525000D03*
%TD*%
D27*
%TO.C,Q1*%
X249840000Y-133360000D03*
X251740000Y-133360000D03*
X250790000Y-131485000D03*
%TD*%
D28*
%TO.C,C35*%
X106925000Y-92269336D03*
X106925000Y-90719336D03*
%TD*%
D14*
%TO.C,C4*%
X129727930Y-103220889D03*
X128177930Y-103220889D03*
%TD*%
D13*
%TO.C,R61*%
X208810000Y-111029993D03*
X207160000Y-111029993D03*
%TD*%
%TO.C,R64*%
X246090000Y-127710000D03*
X244440000Y-127710000D03*
%TD*%
D28*
%TO.C,C57*%
X232430000Y-84076877D03*
X232430000Y-82526877D03*
%TD*%
D19*
%TO.C,R6*%
X134240000Y-103053724D03*
X134240000Y-101403724D03*
%TD*%
D29*
%TO.C,C56*%
X235800000Y-85672525D03*
X235800000Y-87222525D03*
%TD*%
D11*
%TO.C,R4*%
X132570502Y-101400000D03*
X132570502Y-103050000D03*
%TD*%
D29*
%TO.C,C70*%
X232320000Y-94521855D03*
X232320000Y-96071855D03*
%TD*%
D13*
%TO.C,R80*%
X248691234Y-92540000D03*
X247041234Y-92540000D03*
%TD*%
D25*
%TO.C,C27*%
X146250000Y-126350654D03*
X146250000Y-129300654D03*
%TD*%
D13*
%TO.C,R58*%
X246087498Y-130750000D03*
X244437498Y-130750000D03*
%TD*%
D11*
%TO.C,R16*%
X138192872Y-120425000D03*
X138192872Y-122075000D03*
%TD*%
%TO.C,R51*%
X202950000Y-99875000D03*
X202950000Y-101525000D03*
%TD*%
D13*
%TO.C,R67*%
X220210000Y-111020105D03*
X218560000Y-111020105D03*
%TD*%
D30*
%TO.C,+12V*%
X110747299Y-101975000D03*
%TD*%
D25*
%TO.C,C24*%
X157625000Y-126300000D03*
X157625000Y-129250000D03*
%TD*%
D14*
%TO.C,C20*%
X132574846Y-123975000D03*
X131024846Y-123975000D03*
%TD*%
D31*
%TO.C,L1*%
X139625000Y-92825000D03*
X143665000Y-92825000D03*
%TD*%
D15*
%TO.C,R27*%
X117548235Y-121371117D03*
X119373235Y-121371117D03*
%TD*%
D28*
%TO.C,C58*%
X230660000Y-84070000D03*
X230660000Y-82520000D03*
%TD*%
D29*
%TO.C,C32*%
X110875000Y-85771895D03*
X110875000Y-87321895D03*
%TD*%
D32*
%TO.C,BUFF BIAS*%
X200350000Y-91500000D03*
%TD*%
D11*
%TO.C,R23*%
X113325000Y-85723295D03*
X113325000Y-87373295D03*
%TD*%
D18*
%TO.C,C62*%
X244421663Y-126260000D03*
X245381663Y-126260000D03*
%TD*%
D11*
%TO.C,R68*%
X225845647Y-96800000D03*
X225845647Y-98450000D03*
%TD*%
D15*
%TO.C,R19*%
X101687412Y-52573123D03*
X103512412Y-52573123D03*
%TD*%
D33*
%TO.C,C9*%
X130111866Y-73175000D03*
X127161866Y-73175000D03*
%TD*%
D16*
%TO.C,C23*%
X157633883Y-123350000D03*
X160583883Y-123350000D03*
%TD*%
D20*
%TO.C,C34*%
X109325000Y-92242741D03*
X110875000Y-92242741D03*
%TD*%
D11*
%TO.C,R14*%
X132575796Y-120425000D03*
X132575796Y-122075000D03*
%TD*%
D14*
%TO.C,C42*%
X184246785Y-95875000D03*
X182696785Y-95875000D03*
%TD*%
D17*
%TO.C,C14*%
X139175000Y-72836082D03*
X139175000Y-69886082D03*
%TD*%
D32*
%TO.C,BUFF MOD*%
X179872823Y-100950000D03*
%TD*%
%TO.C,CURRENT MOD TP*%
X184681370Y-61100000D03*
%TD*%
D34*
%TO.C,R1*%
X221462500Y-40050000D03*
X219637500Y-40050000D03*
%TD*%
D13*
%TO.C,R5*%
X129783346Y-101270889D03*
X128133346Y-101270889D03*
%TD*%
D35*
%TO.C,CR1*%
X172543941Y-64815000D03*
X172543941Y-65450000D03*
%TD*%
D36*
%TO.C,+5V*%
X136100000Y-66175000D03*
%TD*%
D34*
%TO.C,R32*%
X198762500Y-94388254D03*
X196937500Y-94388254D03*
%TD*%
D19*
%TO.C,R44*%
X180294590Y-61800000D03*
X180294590Y-60150000D03*
%TD*%
D12*
%TO.C,R21*%
X106650000Y-81602575D03*
X108300000Y-81602575D03*
%TD*%
D16*
%TO.C,C5*%
X147409115Y-95325000D03*
X150359115Y-95325000D03*
%TD*%
D37*
%TO.C,U3*%
X112859635Y-81403339D03*
X112409635Y-81403339D03*
X112409635Y-83203339D03*
X112859635Y-83203339D03*
%TD*%
D13*
%TO.C,R65*%
X228774059Y-94886252D03*
X227124059Y-94886252D03*
%TD*%
D12*
%TO.C,R43*%
X183400000Y-64791277D03*
X185050000Y-64791277D03*
%TD*%
D22*
%TO.C,C60*%
X227143380Y-86360000D03*
X227143380Y-85400000D03*
%TD*%
D13*
%TO.C,R79*%
X248693110Y-78440000D03*
X247043110Y-78440000D03*
%TD*%
D38*
%TO.C,D5*%
X250525000Y-136273759D03*
X252725000Y-136273759D03*
%TD*%
D20*
%TO.C,C51*%
X198625000Y-98280000D03*
X200175000Y-98280000D03*
%TD*%
D13*
%TO.C,R22*%
X108291549Y-84175000D03*
X106641549Y-84175000D03*
%TD*%
D19*
%TO.C,R17*%
X134260395Y-122075000D03*
X134260395Y-120425000D03*
%TD*%
D12*
%TO.C,R56*%
X234350000Y-83392565D03*
X236000000Y-83392565D03*
%TD*%
D16*
%TO.C,C22*%
X157625000Y-119613294D03*
X160575000Y-119613294D03*
%TD*%
%TO.C,C12*%
X142200000Y-73172963D03*
X145150000Y-73172963D03*
%TD*%
D12*
%TO.C,R7*%
X138100000Y-99575000D03*
X139750000Y-99575000D03*
%TD*%
D11*
%TO.C,R9*%
X138200000Y-101408088D03*
X138200000Y-103058088D03*
%TD*%
D17*
%TO.C,C15*%
X147950000Y-107250022D03*
X147950000Y-104300022D03*
%TD*%
D13*
%TO.C,R54*%
X212590000Y-111031664D03*
X210940000Y-111031664D03*
%TD*%
D19*
%TO.C,R53*%
X210940000Y-114899979D03*
X210940000Y-113249979D03*
%TD*%
D39*
%TO.C,D2*%
X101698389Y-50273123D03*
X103273389Y-50273123D03*
%TD*%
D14*
%TO.C,C43*%
X184250000Y-97675000D03*
X182700000Y-97675000D03*
%TD*%
D13*
%TO.C,R81*%
X248674933Y-106570000D03*
X247024933Y-106570000D03*
%TD*%
D19*
%TO.C,R39*%
X164725000Y-81575000D03*
X164725000Y-79925000D03*
%TD*%
D16*
%TO.C,C6*%
X147400000Y-90150000D03*
X150350000Y-90150000D03*
%TD*%
D12*
%TO.C,R49*%
X198775000Y-96425000D03*
X200425000Y-96425000D03*
%TD*%
%TO.C,R28*%
X245250000Y-132996396D03*
X246900000Y-132996396D03*
%TD*%
D40*
%TO.C,R45*%
X187850000Y-99825000D03*
X187850000Y-101650000D03*
%TD*%
D11*
%TO.C,R18*%
X136245676Y-120425000D03*
X136245676Y-122075000D03*
%TD*%
D25*
%TO.C,C26*%
X150025000Y-126341738D03*
X150025000Y-129291738D03*
%TD*%
D13*
%TO.C,R78*%
X248641884Y-64402932D03*
X246991884Y-64402932D03*
%TD*%
D14*
%TO.C,C16*%
X131166182Y-110750000D03*
X129616182Y-110750000D03*
%TD*%
D33*
%TO.C,C28*%
X146377804Y-123475000D03*
X143427804Y-123475000D03*
%TD*%
D41*
%TO.C,IC4*%
X232610000Y-86364000D03*
X231960000Y-86364000D03*
X231310000Y-86364000D03*
X230660000Y-86364000D03*
X230010000Y-86364000D03*
X229360000Y-86364000D03*
X228710000Y-86364000D03*
X228710000Y-92240000D03*
X229360000Y-92240000D03*
X230010000Y-92240000D03*
X230660000Y-92240000D03*
X231310000Y-92240000D03*
X231960000Y-92240000D03*
X232610000Y-92240000D03*
%TD*%
D11*
%TO.C,R40*%
X164723439Y-86825000D03*
X164723439Y-88475000D03*
%TD*%
D14*
%TO.C,C46*%
X210636066Y-90819419D03*
X209086066Y-90819419D03*
%TD*%
D19*
%TO.C,R63*%
X228790000Y-81610000D03*
X228790000Y-79960000D03*
%TD*%
D23*
%TO.C,LDTC COM*%
X247421495Y-71975000D03*
%TD*%
D29*
%TO.C,C61*%
X225569358Y-85670000D03*
X225569358Y-87220000D03*
%TD*%
D13*
%TO.C,R73*%
X216374824Y-111025000D03*
X214724824Y-111025000D03*
%TD*%
%TO.C,R59*%
X228785000Y-83390000D03*
X227135000Y-83390000D03*
%TD*%
D42*
%TO.C,C66*%
X234280000Y-92238496D03*
X234280000Y-93198496D03*
%TD*%
D11*
%TO.C,R34*%
X176575000Y-82425000D03*
X176575000Y-84075000D03*
%TD*%
D14*
%TO.C,C54*%
X194216709Y-102264286D03*
X192666709Y-102264286D03*
%TD*%
D42*
%TO.C,C63*%
X227142569Y-92240000D03*
X227142569Y-93200000D03*
%TD*%
D29*
%TO.C,C69*%
X230671711Y-94520000D03*
X230671711Y-96070000D03*
%TD*%
D28*
%TO.C,C67*%
X235910000Y-93201856D03*
X235910000Y-91651856D03*
%TD*%
D19*
%TO.C,R20*%
X104600000Y-83172794D03*
X104600000Y-81522794D03*
%TD*%
D29*
%TO.C,C44*%
X214825000Y-84375000D03*
X214825000Y-85925000D03*
%TD*%
D12*
%TO.C,R35*%
X163150000Y-85075000D03*
X164800000Y-85075000D03*
%TD*%
D11*
%TO.C,R42*%
X180300000Y-64805321D03*
X180300000Y-66455321D03*
%TD*%
D12*
%TO.C,R52*%
X196300000Y-102276474D03*
X197950000Y-102276474D03*
%TD*%
D33*
%TO.C,C7*%
X130100000Y-80380610D03*
X127150000Y-80380610D03*
%TD*%
D19*
%TO.C,R62*%
X225850000Y-81613144D03*
X225850000Y-79963144D03*
%TD*%
D30*
%TO.C,EXT T TEST*%
X226330000Y-114893330D03*
%TD*%
D14*
%TO.C,C41*%
X180042072Y-89975000D03*
X178492072Y-89975000D03*
%TD*%
D23*
%TO.C,LDTC COM*%
X247404464Y-85550000D03*
%TD*%
D30*
%TO.C,+5V*%
X142125000Y-126875000D03*
%TD*%
D11*
%TO.C,R77*%
X222350000Y-113259045D03*
X222350000Y-114909045D03*
%TD*%
D23*
%TO.C,LDTC COM*%
X247373415Y-58075000D03*
%TD*%
D13*
%TO.C,R2*%
X130130762Y-96075000D03*
X128480762Y-96075000D03*
%TD*%
D43*
%TO.C,IC3*%
X212100000Y-86325000D03*
X212100000Y-85675000D03*
X212100000Y-85025000D03*
X212100000Y-84375000D03*
X207700000Y-84375000D03*
X207700000Y-85025000D03*
X207700000Y-85675000D03*
X207700000Y-86325000D03*
%TD*%
D29*
%TO.C,C40*%
X167400000Y-86075000D03*
X167400000Y-87625000D03*
%TD*%
D19*
%TO.C,R75*%
X238170000Y-96327814D03*
X238170000Y-94677814D03*
%TD*%
D15*
%TO.C,R25*%
X169212500Y-135069881D03*
X171037500Y-135069881D03*
%TD*%
D14*
%TO.C,C2*%
X131200000Y-91975000D03*
X129650000Y-91975000D03*
%TD*%
D25*
%TO.C,C25*%
X153900000Y-126308198D03*
X153900000Y-129258198D03*
%TD*%
D29*
%TO.C,C31*%
X115800000Y-85775000D03*
X115800000Y-87325000D03*
%TD*%
%TO.C,C49*%
X205150000Y-83538529D03*
X205150000Y-85088529D03*
%TD*%
D33*
%TO.C,C8*%
X130091614Y-76825000D03*
X127141614Y-76825000D03*
%TD*%
D24*
%TO.C,L3*%
X136175000Y-84815000D03*
X136175000Y-80775000D03*
%TD*%
D19*
%TO.C,R37*%
X169675000Y-82450000D03*
X169675000Y-80800000D03*
%TD*%
D11*
%TO.C,R74*%
X235910000Y-96809339D03*
X235910000Y-98459339D03*
%TD*%
D16*
%TO.C,C17*%
X150333022Y-111225000D03*
X153283022Y-111225000D03*
%TD*%
D15*
%TO.C,R26*%
X117541735Y-116250000D03*
X119366735Y-116250000D03*
%TD*%
D12*
%TO.C,R12*%
X128479098Y-116818258D03*
X130129098Y-116818258D03*
%TD*%
D44*
%TO.C,U2*%
X135270236Y-115611100D03*
X134770237Y-115611100D03*
X134270236Y-115611100D03*
X133770236Y-115611100D03*
X133270235Y-115611100D03*
X132770236Y-115611100D03*
D45*
X132127936Y-116258099D03*
X132127936Y-116758100D03*
X132127936Y-117258100D03*
X132127936Y-117758101D03*
D44*
X132770236Y-118405100D03*
X133270235Y-118405100D03*
X133770236Y-118405100D03*
X134270236Y-118405100D03*
X134770237Y-118405100D03*
X135270236Y-118405100D03*
D45*
X135912536Y-117758101D03*
X135912536Y-117258100D03*
X135912536Y-116758100D03*
X135912536Y-116258099D03*
D46*
X134020236Y-117008100D03*
D47*
X135823636Y-115700000D03*
X132216836Y-115700000D03*
X135823636Y-118316200D03*
X132216836Y-118316200D03*
%TD*%
D12*
%TO.C,R50*%
X192550490Y-104125000D03*
X194200490Y-104125000D03*
%TD*%
D19*
%TO.C,R55*%
X236190000Y-81623158D03*
X236190000Y-79973158D03*
%TD*%
%TO.C,R31*%
X176650000Y-90400000D03*
X176650000Y-88750000D03*
%TD*%
D17*
%TO.C,C21*%
X145600000Y-120413512D03*
X145600000Y-117463512D03*
%TD*%
D14*
%TO.C,C3*%
X132571688Y-105075000D03*
X131021688Y-105075000D03*
%TD*%
D31*
%TO.C,L2*%
X139608022Y-111450000D03*
X143648022Y-111450000D03*
%TD*%
D19*
%TO.C,R57*%
X234370000Y-81612197D03*
X234370000Y-79962197D03*
%TD*%
D32*
%TO.C,TP4*%
X209950000Y-78250000D03*
%TD*%
D22*
%TO.C,C55*%
X234190000Y-86361210D03*
X234190000Y-85401210D03*
%TD*%
D19*
%TO.C,R71*%
X234260000Y-96325000D03*
X234260000Y-94675000D03*
%TD*%
D11*
%TO.C,R69*%
X228790000Y-96820000D03*
X228790000Y-98470000D03*
%TD*%
D34*
%TO.C,R46*%
X189450000Y-104125000D03*
X187625000Y-104125000D03*
%TD*%
D20*
%TO.C,C30*%
X117458145Y-83593703D03*
X119008145Y-83593703D03*
%TD*%
%TO.C,C29*%
X117465340Y-81618703D03*
X119015340Y-81618703D03*
%TD*%
D29*
%TO.C,C45*%
X217225000Y-84375276D03*
X217225000Y-85925276D03*
%TD*%
D14*
%TO.C,C48*%
X205175000Y-87091814D03*
X203625000Y-87091814D03*
%TD*%
D48*
%TO.C,IC1*%
X174075000Y-86075000D03*
X174075000Y-85575000D03*
X174075000Y-85075000D03*
X174075000Y-84575000D03*
X174075000Y-84075000D03*
X169675000Y-84075000D03*
X169675000Y-84575000D03*
X169675000Y-85075000D03*
X169675000Y-85575000D03*
X169675000Y-86075000D03*
%TD*%
D12*
%TO.C,R30*%
X178450000Y-85601460D03*
X180100000Y-85601460D03*
%TD*%
D30*
%TO.C,EXT LD SET*%
X186990000Y-110350000D03*
%TD*%
D19*
%TO.C,R60*%
X207150000Y-114891216D03*
X207150000Y-113241216D03*
%TD*%
D39*
%TO.C,D1*%
X101700116Y-47723123D03*
X103275116Y-47723123D03*
%TD*%
D44*
%TO.C,U1*%
X135272430Y-96725000D03*
X134772431Y-96725000D03*
X134272430Y-96725000D03*
X133772430Y-96725000D03*
X133272429Y-96725000D03*
X132772430Y-96725000D03*
D45*
X132130130Y-97371999D03*
X132130130Y-97872000D03*
X132130130Y-98372000D03*
X132130130Y-98872001D03*
D44*
X132772430Y-99519000D03*
X133272429Y-99519000D03*
X133772430Y-99519000D03*
X134272430Y-99519000D03*
X134772431Y-99519000D03*
X135272430Y-99519000D03*
D45*
X135914730Y-98872001D03*
X135914730Y-98372000D03*
X135914730Y-97872000D03*
X135914730Y-97371999D03*
D46*
X134022430Y-98122000D03*
D47*
X135825830Y-96813900D03*
X132219030Y-96813900D03*
X135825830Y-99430100D03*
X132219030Y-99430100D03*
%TD*%
D34*
%TO.C,R33*%
X190450000Y-94400000D03*
X188625000Y-94400000D03*
%TD*%
D20*
%TO.C,C52 *%
X199530000Y-112800000D03*
X201080000Y-112800000D03*
%TD*%
D49*
%TO.C,F1*%
X118019162Y-67675001D03*
X118019162Y-72675001D03*
%TD*%
D14*
%TO.C,C53*%
X180047566Y-87622506D03*
X178497566Y-87622506D03*
%TD*%
D11*
%TO.C,R29*%
X246877852Y-134900000D03*
X246877852Y-136550000D03*
%TD*%
D28*
%TO.C,C64*%
X225569358Y-93220000D03*
X225569358Y-91670000D03*
%TD*%
D30*
%TO.C,BUFF SUM*%
X200300000Y-106750000D03*
%TD*%
D19*
%TO.C,R66*%
X218550000Y-114903271D03*
X218550000Y-113253271D03*
%TD*%
D13*
%TO.C,R70*%
X246088067Y-124670000D03*
X244438067Y-124670000D03*
%TD*%
D50*
%TO.C,IC2*%
X190462000Y-96325000D03*
X190462000Y-96975000D03*
X190462000Y-97625000D03*
X190462000Y-98275000D03*
X190462000Y-98925000D03*
X190462000Y-99575000D03*
X190462000Y-100225000D03*
X196338000Y-100225000D03*
X196338000Y-99575000D03*
X196338000Y-98925000D03*
X196338000Y-98275000D03*
X196338000Y-97625000D03*
X196338000Y-96975000D03*
X196338000Y-96325000D03*
%TD*%
D51*
%TO.C,D4*%
X110159573Y-98125000D03*
X114159573Y-98125000D03*
%TD*%
D28*
%TO.C,C36*%
X104300000Y-92272043D03*
X104300000Y-90722043D03*
%TD*%
M02*
