%TF.GenerationSoftware,KiCad,Pcbnew,10.0.3*%
%TF.CreationDate,2026-08-08T18:09:28-05:00*%
%TF.ProjectId,ecdl-laser-bboard,6563646c-2d6c-4617-9365-722d62626f61,rev?*%
%TF.SameCoordinates,Original*%
%TF.FileFunction,Soldermask,Top*%
%TF.FilePolarity,Negative*%
%FSLAX46Y46*%
G04 Gerber Fmt 4.6, Leading zero omitted, Abs format (unit mm)*
G04 Created by KiCad (PCBNEW 10.0.3) date 2026-08-08 18:09:28*
%MOMM*%
%LPD*%
G01*
G04 APERTURE LIST*
G04 Aperture macros list*
%AMRoundRect*
0 Rectangle with rounded corners*
0 $1 Rounding radius*
0 $2 $3 $4 $5 $6 $7 $8 $9 X,Y pos of 4 corners*
0 Add a 4 corners polygon primitive as box body*
4,1,4,$2,$3,$4,$5,$6,$7,$8,$9,$2,$3,0*
0 Add four circle primitives for the rounded corners*
1,1,$1+$1,$2,$3*
1,1,$1+$1,$4,$5*
1,1,$1+$1,$6,$7*
1,1,$1+$1,$8,$9*
0 Add four rect primitives between the rounded corners*
20,1,$1+$1,$2,$3,$4,$5,0*
20,1,$1+$1,$4,$5,$6,$7,0*
20,1,$1+$1,$6,$7,$8,$9,0*
20,1,$1+$1,$8,$9,$2,$3,0*%
G04 Aperture macros list end*
%ADD10C,0.010000*%
%ADD11RoundRect,0.200000X-0.275000X0.200000X-0.275000X-0.200000X0.275000X-0.200000X0.275000X0.200000X0*%
%ADD12RoundRect,0.200000X-0.200000X-0.275000X0.200000X-0.275000X0.200000X0.275000X-0.200000X0.275000X0*%
%ADD13RoundRect,0.200000X0.200000X0.275000X-0.200000X0.275000X-0.200000X-0.275000X0.200000X-0.275000X0*%
%ADD14RoundRect,0.225000X0.225000X0.250000X-0.225000X0.250000X-0.225000X-0.250000X0.225000X-0.250000X0*%
%ADD15C,1.397000*%
%ADD16C,4.216000*%
%ADD17RoundRect,0.250000X-0.262500X-0.450000X0.262500X-0.450000X0.262500X0.450000X-0.262500X0.450000X0*%
%ADD18RoundRect,0.250000X-0.325000X-1.100000X0.325000X-1.100000X0.325000X1.100000X-0.325000X1.100000X0*%
%ADD19RoundRect,0.102000X1.225000X-1.225000X1.225000X1.225000X-1.225000X1.225000X-1.225000X-1.225000X0*%
%ADD20C,2.654000*%
%ADD21R,1.650000X1.650000*%
%ADD22C,1.650000*%
%ADD23RoundRect,0.250000X1.100000X-0.325000X1.100000X0.325000X-1.100000X0.325000X-1.100000X-0.325000X0*%
%ADD24RoundRect,0.140000X-0.140000X-0.170000X0.140000X-0.170000X0.140000X0.170000X-0.140000X0.170000X0*%
%ADD25RoundRect,0.200000X0.275000X-0.200000X0.275000X0.200000X-0.275000X0.200000X-0.275000X-0.200000X0*%
%ADD26RoundRect,0.225000X-0.225000X-0.250000X0.225000X-0.250000X0.225000X0.250000X-0.225000X0.250000X0*%
%ADD27RoundRect,0.250000X-0.650000X1.450000X-0.650000X-1.450000X0.650000X-1.450000X0.650000X1.450000X0*%
%ADD28RoundRect,0.140000X0.170000X-0.140000X0.170000X0.140000X-0.170000X0.140000X-0.170000X-0.140000X0*%
%ADD29C,1.803400*%
%ADD30C,2.006600*%
%ADD31R,3.800000X2.030000*%
%ADD32R,5.500000X1.430000*%
%ADD33RoundRect,0.250000X-1.100000X0.325000X-1.100000X-0.325000X1.100000X-0.325000X1.100000X0.325000X0*%
%ADD34RoundRect,0.250000X-1.000000X-0.900000X1.000000X-0.900000X1.000000X0.900000X-1.000000X0.900000X0*%
%ADD35C,3.200000*%
%ADD36RoundRect,0.150000X0.150000X-0.587500X0.150000X0.587500X-0.150000X0.587500X-0.150000X-0.587500X0*%
%ADD37RoundRect,0.225000X0.250000X-0.225000X0.250000X0.225000X-0.250000X0.225000X-0.250000X-0.225000X0*%
%ADD38RoundRect,0.225000X-0.250000X0.225000X-0.250000X-0.225000X0.250000X-0.225000X0.250000X0.225000X0*%
%ADD39RoundRect,0.250000X-1.450000X-0.650000X1.450000X-0.650000X1.450000X0.650000X-1.450000X0.650000X0*%
%ADD40R,1.430000X5.500000*%
%ADD41RoundRect,0.250000X1.450000X0.650000X-1.450000X0.650000X-1.450000X-0.650000X1.450000X-0.650000X0*%
%ADD42C,2.108200*%
%ADD43RoundRect,0.250000X0.325000X1.100000X-0.325000X1.100000X-0.325000X-1.100000X0.325000X-1.100000X0*%
%ADD44RoundRect,0.250000X0.262500X0.450000X-0.262500X0.450000X-0.262500X-0.450000X0.262500X-0.450000X0*%
%ADD45R,0.558800X0.304800*%
%ADD46RoundRect,0.250000X0.650000X-1.450000X0.650000X1.450000X-0.650000X1.450000X-0.650000X-1.450000X0*%
%ADD47RoundRect,0.102000X0.704000X0.704000X-0.704000X0.704000X-0.704000X-0.704000X0.704000X-0.704000X0*%
%ADD48C,1.612000*%
%ADD49C,4.420000*%
%ADD50RoundRect,0.125000X-0.125000X-0.125000X0.125000X-0.125000X0.125000X0.125000X-0.125000X0.125000X0*%
%ADD51RoundRect,0.218750X-0.218750X-0.256250X0.218750X-0.256250X0.218750X0.256250X-0.218750X0.256250X0*%
%ADD52RoundRect,0.250000X-0.450000X0.262500X-0.450000X-0.262500X0.450000X-0.262500X0.450000X0.262500X0*%
%ADD53R,2.100000X2.100000*%
%ADD54C,2.100000*%
%ADD55R,0.450000X1.475000*%
%ADD56RoundRect,0.140000X-0.170000X0.140000X-0.170000X-0.140000X0.170000X-0.140000X0.170000X0.140000X0*%
%ADD57R,1.400000X0.450000*%
%ADD58C,1.550000*%
%ADD59R,0.228600X0.812800*%
%ADD60R,0.812800X0.228600*%
%ADD61R,2.641600X1.651000*%
%ADD62R,0.381000X0.381000*%
%ADD63O,1.574800X3.505200*%
%ADD64O,3.505200X1.574800*%
%ADD65R,1.400000X0.300000*%
%ADD66R,1.800000X1.800000*%
%ADD67C,1.800000*%
%ADD68R,2.950000X2.020000*%
%ADD69R,1.475000X0.450000*%
%ADD70RoundRect,0.250000X-1.000000X-0.650000X1.000000X-0.650000X1.000000X0.650000X-1.000000X0.650000X0*%
%ADD71C,0.600000*%
G04 APERTURE END LIST*
D10*
%TO.C,U3*%
X111484635Y-82753339D02*
X113784635Y-82753339D01*
X113789635Y-82753339D01*
X113794635Y-82752339D01*
X113800635Y-82752339D01*
X113805635Y-82751339D01*
X113810635Y-82750339D01*
X113815635Y-82748339D01*
X113820635Y-82746339D01*
X113825635Y-82744339D01*
X113829635Y-82742339D01*
X113834635Y-82740339D01*
X113838635Y-82737339D01*
X113843635Y-82734339D01*
X113847635Y-82731339D01*
X113851635Y-82727339D01*
X113855635Y-82724339D01*
X113858635Y-82720339D01*
X113862635Y-82716339D01*
X113865635Y-82712339D01*
X113868635Y-82707339D01*
X113871635Y-82703339D01*
X113873635Y-82698339D01*
X113875635Y-82694339D01*
X113877635Y-82689339D01*
X113879635Y-82684339D01*
X113881635Y-82679339D01*
X113882635Y-82674339D01*
X113883635Y-82669339D01*
X113883635Y-82663339D01*
X113884635Y-82658339D01*
X113884635Y-82653339D01*
X113884635Y-82453339D01*
X113884635Y-82448339D01*
X113883635Y-82443339D01*
X113883635Y-82437339D01*
X113882635Y-82432339D01*
X113881635Y-82427339D01*
X113879635Y-82422339D01*
X113877635Y-82417339D01*
X113875635Y-82412339D01*
X113873635Y-82408339D01*
X113871635Y-82403339D01*
X113868635Y-82399339D01*
X113865635Y-82394339D01*
X113862635Y-82390339D01*
X113858635Y-82386339D01*
X113855635Y-82382339D01*
X113851635Y-82379339D01*
X113847635Y-82375339D01*
X113843635Y-82372339D01*
X113838635Y-82369339D01*
X113834635Y-82366339D01*
X113829635Y-82364339D01*
X113825635Y-82362339D01*
X113820635Y-82360339D01*
X113815635Y-82358339D01*
X113810635Y-82356339D01*
X113805635Y-82355339D01*
X113800635Y-82354339D01*
X113794635Y-82354339D01*
X113789635Y-82353339D01*
X113784635Y-82353339D01*
X111484635Y-82353339D01*
X111479635Y-82353339D01*
X111474635Y-82354339D01*
X111468635Y-82354339D01*
X111463635Y-82355339D01*
X111458635Y-82356339D01*
X111453635Y-82358339D01*
X111448635Y-82360339D01*
X111443635Y-82362339D01*
X111439635Y-82364339D01*
X111434635Y-82366339D01*
X111430635Y-82369339D01*
X111425635Y-82372339D01*
X111421635Y-82375339D01*
X111417635Y-82379339D01*
X111413635Y-82382339D01*
X111410635Y-82386339D01*
X111406635Y-82390339D01*
X111403635Y-82394339D01*
X111400635Y-82399339D01*
X111397635Y-82403339D01*
X111395635Y-82408339D01*
X111393635Y-82412339D01*
X111391635Y-82417339D01*
X111389635Y-82422339D01*
X111387635Y-82427339D01*
X111386635Y-82432339D01*
X111385635Y-82437339D01*
X111385635Y-82443339D01*
X111384635Y-82448339D01*
X111384635Y-82453339D01*
X111384635Y-82653339D01*
X111384635Y-82658339D01*
X111385635Y-82663339D01*
X111385635Y-82669339D01*
X111386635Y-82674339D01*
X111387635Y-82679339D01*
X111389635Y-82684339D01*
X111391635Y-82689339D01*
X111393635Y-82694339D01*
X111395635Y-82698339D01*
X111397635Y-82703339D01*
X111400635Y-82707339D01*
X111403635Y-82712339D01*
X111406635Y-82716339D01*
X111410635Y-82720339D01*
X111413635Y-82724339D01*
X111417635Y-82727339D01*
X111421635Y-82731339D01*
X111425635Y-82734339D01*
X111430635Y-82737339D01*
X111434635Y-82740339D01*
X111439635Y-82742339D01*
X111443635Y-82744339D01*
X111448635Y-82746339D01*
X111453635Y-82748339D01*
X111458635Y-82750339D01*
X111463635Y-82751339D01*
X111468635Y-82752339D01*
X111474635Y-82752339D01*
X111479635Y-82753339D01*
X111484635Y-82753339D01*
G36*
X113794635Y-82354339D02*
G01*
X113800635Y-82354339D01*
X113805635Y-82355339D01*
X113810635Y-82356339D01*
X113815635Y-82358339D01*
X113820635Y-82360339D01*
X113825635Y-82362339D01*
X113829635Y-82364339D01*
X113834635Y-82366339D01*
X113838635Y-82369339D01*
X113843635Y-82372339D01*
X113847635Y-82375339D01*
X113851635Y-82379339D01*
X113855635Y-82382339D01*
X113858635Y-82386339D01*
X113862635Y-82390339D01*
X113865635Y-82394339D01*
X113868635Y-82399339D01*
X113871635Y-82403339D01*
X113873635Y-82408339D01*
X113875635Y-82412339D01*
X113877635Y-82417339D01*
X113879635Y-82422339D01*
X113881635Y-82427339D01*
X113882635Y-82432339D01*
X113883635Y-82437339D01*
X113883635Y-82443339D01*
X113884635Y-82448339D01*
X113884635Y-82453339D01*
X113884635Y-82653339D01*
X113884635Y-82658339D01*
X113883635Y-82663339D01*
X113883635Y-82669339D01*
X113882635Y-82674339D01*
X113881635Y-82679339D01*
X113879635Y-82684339D01*
X113877635Y-82689339D01*
X113875635Y-82694339D01*
X113873635Y-82698339D01*
X113871635Y-82703339D01*
X113868635Y-82707339D01*
X113865635Y-82712339D01*
X113862635Y-82716339D01*
X113858635Y-82720339D01*
X113855635Y-82724339D01*
X113851635Y-82727339D01*
X113847635Y-82731339D01*
X113843635Y-82734339D01*
X113838635Y-82737339D01*
X113834635Y-82740339D01*
X113829635Y-82742339D01*
X113825635Y-82744339D01*
X113820635Y-82746339D01*
X113815635Y-82748339D01*
X113810635Y-82750339D01*
X113805635Y-82751339D01*
X113800635Y-82752339D01*
X113794635Y-82752339D01*
X113789635Y-82753339D01*
X113784635Y-82753339D01*
X111484635Y-82753339D01*
X111479635Y-82753339D01*
X111474635Y-82752339D01*
X111468635Y-82752339D01*
X111463635Y-82751339D01*
X111458635Y-82750339D01*
X111453635Y-82748339D01*
X111448635Y-82746339D01*
X111443635Y-82744339D01*
X111439635Y-82742339D01*
X111434635Y-82740339D01*
X111430635Y-82737339D01*
X111425635Y-82734339D01*
X111421635Y-82731339D01*
X111417635Y-82727339D01*
X111413635Y-82724339D01*
X111410635Y-82720339D01*
X111406635Y-82716339D01*
X111403635Y-82712339D01*
X111400635Y-82707339D01*
X111397635Y-82703339D01*
X111395635Y-82698339D01*
X111393635Y-82694339D01*
X111391635Y-82689339D01*
X111389635Y-82684339D01*
X111387635Y-82679339D01*
X111386635Y-82674339D01*
X111385635Y-82669339D01*
X111385635Y-82663339D01*
X111384635Y-82658339D01*
X111384635Y-82653339D01*
X111384635Y-82453339D01*
X111384635Y-82448339D01*
X111385635Y-82443339D01*
X111385635Y-82437339D01*
X111386635Y-82432339D01*
X111387635Y-82427339D01*
X111389635Y-82422339D01*
X111391635Y-82417339D01*
X111393635Y-82412339D01*
X111395635Y-82408339D01*
X111397635Y-82403339D01*
X111400635Y-82399339D01*
X111403635Y-82394339D01*
X111406635Y-82390339D01*
X111410635Y-82386339D01*
X111413635Y-82382339D01*
X111417635Y-82379339D01*
X111421635Y-82375339D01*
X111425635Y-82372339D01*
X111430635Y-82369339D01*
X111434635Y-82366339D01*
X111439635Y-82364339D01*
X111443635Y-82362339D01*
X111448635Y-82360339D01*
X111453635Y-82358339D01*
X111458635Y-82356339D01*
X111463635Y-82355339D01*
X111468635Y-82354339D01*
X111474635Y-82354339D01*
X111479635Y-82353339D01*
X111484635Y-82353339D01*
X113784635Y-82353339D01*
X113789635Y-82353339D01*
X113794635Y-82354339D01*
G37*
X112234635Y-81153339D02*
X112234635Y-81653339D01*
X112234635Y-81658339D01*
X112235635Y-81663339D01*
X112235635Y-81669339D01*
X112236635Y-81674339D01*
X112237635Y-81679339D01*
X112239635Y-81684339D01*
X112241635Y-81689339D01*
X112243635Y-81694339D01*
X112245635Y-81698339D01*
X112247635Y-81703339D01*
X112250635Y-81707339D01*
X112253635Y-81712339D01*
X112256635Y-81716339D01*
X112260635Y-81720339D01*
X112263635Y-81724339D01*
X112267635Y-81727339D01*
X112271635Y-81731339D01*
X112275635Y-81734339D01*
X112280635Y-81737339D01*
X112284635Y-81740339D01*
X112289635Y-81742339D01*
X112293635Y-81744339D01*
X112298635Y-81746339D01*
X112303635Y-81748339D01*
X112308635Y-81750339D01*
X112313635Y-81751339D01*
X112318635Y-81752339D01*
X112324635Y-81752339D01*
X112329635Y-81753339D01*
X112334635Y-81753339D01*
X112484635Y-81753339D01*
X112489635Y-81753339D01*
X112494635Y-81752339D01*
X112500635Y-81752339D01*
X112505635Y-81751339D01*
X112510635Y-81750339D01*
X112515635Y-81748339D01*
X112520635Y-81746339D01*
X112525635Y-81744339D01*
X112529635Y-81742339D01*
X112534635Y-81740339D01*
X112538635Y-81737339D01*
X112543635Y-81734339D01*
X112547635Y-81731339D01*
X112551635Y-81727339D01*
X112555635Y-81724339D01*
X112558635Y-81720339D01*
X112562635Y-81716339D01*
X112565635Y-81712339D01*
X112568635Y-81707339D01*
X112571635Y-81703339D01*
X112573635Y-81698339D01*
X112575635Y-81694339D01*
X112577635Y-81689339D01*
X112579635Y-81684339D01*
X112581635Y-81679339D01*
X112582635Y-81674339D01*
X112583635Y-81669339D01*
X112583635Y-81663339D01*
X112584635Y-81658339D01*
X112584635Y-81653339D01*
X112584635Y-81153339D01*
X112584635Y-81148339D01*
X112583635Y-81143339D01*
X112583635Y-81137339D01*
X112582635Y-81132339D01*
X112581635Y-81127339D01*
X112579635Y-81122339D01*
X112577635Y-81117339D01*
X112575635Y-81112339D01*
X112573635Y-81108339D01*
X112571635Y-81103339D01*
X112568635Y-81099339D01*
X112565635Y-81094339D01*
X112562635Y-81090339D01*
X112558635Y-81086339D01*
X112555635Y-81082339D01*
X112551635Y-81079339D01*
X112547635Y-81075339D01*
X112543635Y-81072339D01*
X112538635Y-81069339D01*
X112534635Y-81066339D01*
X112529635Y-81064339D01*
X112525635Y-81062339D01*
X112520635Y-81060339D01*
X112515635Y-81058339D01*
X112510635Y-81056339D01*
X112505635Y-81055339D01*
X112500635Y-81054339D01*
X112494635Y-81054339D01*
X112489635Y-81053339D01*
X112484635Y-81053339D01*
X112334635Y-81053339D01*
X112329635Y-81053339D01*
X112324635Y-81054339D01*
X112318635Y-81054339D01*
X112313635Y-81055339D01*
X112308635Y-81056339D01*
X112303635Y-81058339D01*
X112298635Y-81060339D01*
X112293635Y-81062339D01*
X112289635Y-81064339D01*
X112284635Y-81066339D01*
X112280635Y-81069339D01*
X112275635Y-81072339D01*
X112271635Y-81075339D01*
X112267635Y-81079339D01*
X112263635Y-81082339D01*
X112260635Y-81086339D01*
X112256635Y-81090339D01*
X112253635Y-81094339D01*
X112250635Y-81099339D01*
X112247635Y-81103339D01*
X112245635Y-81108339D01*
X112243635Y-81112339D01*
X112241635Y-81117339D01*
X112239635Y-81122339D01*
X112237635Y-81127339D01*
X112236635Y-81132339D01*
X112235635Y-81137339D01*
X112235635Y-81143339D01*
X112234635Y-81148339D01*
X112234635Y-81153339D01*
G36*
X112494635Y-81054339D02*
G01*
X112500635Y-81054339D01*
X112505635Y-81055339D01*
X112510635Y-81056339D01*
X112515635Y-81058339D01*
X112520635Y-81060339D01*
X112525635Y-81062339D01*
X112529635Y-81064339D01*
X112534635Y-81066339D01*
X112538635Y-81069339D01*
X112543635Y-81072339D01*
X112547635Y-81075339D01*
X112551635Y-81079339D01*
X112555635Y-81082339D01*
X112558635Y-81086339D01*
X112562635Y-81090339D01*
X112565635Y-81094339D01*
X112568635Y-81099339D01*
X112571635Y-81103339D01*
X112573635Y-81108339D01*
X112575635Y-81112339D01*
X112577635Y-81117339D01*
X112579635Y-81122339D01*
X112581635Y-81127339D01*
X112582635Y-81132339D01*
X112583635Y-81137339D01*
X112583635Y-81143339D01*
X112584635Y-81148339D01*
X112584635Y-81153339D01*
X112584635Y-81653339D01*
X112584635Y-81658339D01*
X112583635Y-81663339D01*
X112583635Y-81669339D01*
X112582635Y-81674339D01*
X112581635Y-81679339D01*
X112579635Y-81684339D01*
X112577635Y-81689339D01*
X112575635Y-81694339D01*
X112573635Y-81698339D01*
X112571635Y-81703339D01*
X112568635Y-81707339D01*
X112565635Y-81712339D01*
X112562635Y-81716339D01*
X112558635Y-81720339D01*
X112555635Y-81724339D01*
X112551635Y-81727339D01*
X112547635Y-81731339D01*
X112543635Y-81734339D01*
X112538635Y-81737339D01*
X112534635Y-81740339D01*
X112529635Y-81742339D01*
X112525635Y-81744339D01*
X112520635Y-81746339D01*
X112515635Y-81748339D01*
X112510635Y-81750339D01*
X112505635Y-81751339D01*
X112500635Y-81752339D01*
X112494635Y-81752339D01*
X112489635Y-81753339D01*
X112484635Y-81753339D01*
X112334635Y-81753339D01*
X112329635Y-81753339D01*
X112324635Y-81752339D01*
X112318635Y-81752339D01*
X112313635Y-81751339D01*
X112308635Y-81750339D01*
X112303635Y-81748339D01*
X112298635Y-81746339D01*
X112293635Y-81744339D01*
X112289635Y-81742339D01*
X112284635Y-81740339D01*
X112280635Y-81737339D01*
X112275635Y-81734339D01*
X112271635Y-81731339D01*
X112267635Y-81727339D01*
X112263635Y-81724339D01*
X112260635Y-81720339D01*
X112256635Y-81716339D01*
X112253635Y-81712339D01*
X112250635Y-81707339D01*
X112247635Y-81703339D01*
X112245635Y-81698339D01*
X112243635Y-81694339D01*
X112241635Y-81689339D01*
X112239635Y-81684339D01*
X112237635Y-81679339D01*
X112236635Y-81674339D01*
X112235635Y-81669339D01*
X112235635Y-81663339D01*
X112234635Y-81658339D01*
X112234635Y-81653339D01*
X112234635Y-81153339D01*
X112234635Y-81148339D01*
X112235635Y-81143339D01*
X112235635Y-81137339D01*
X112236635Y-81132339D01*
X112237635Y-81127339D01*
X112239635Y-81122339D01*
X112241635Y-81117339D01*
X112243635Y-81112339D01*
X112245635Y-81108339D01*
X112247635Y-81103339D01*
X112250635Y-81099339D01*
X112253635Y-81094339D01*
X112256635Y-81090339D01*
X112260635Y-81086339D01*
X112263635Y-81082339D01*
X112267635Y-81079339D01*
X112271635Y-81075339D01*
X112275635Y-81072339D01*
X112280635Y-81069339D01*
X112284635Y-81066339D01*
X112289635Y-81064339D01*
X112293635Y-81062339D01*
X112298635Y-81060339D01*
X112303635Y-81058339D01*
X112308635Y-81056339D01*
X112313635Y-81055339D01*
X112318635Y-81054339D01*
X112324635Y-81054339D01*
X112329635Y-81053339D01*
X112334635Y-81053339D01*
X112484635Y-81053339D01*
X112489635Y-81053339D01*
X112494635Y-81054339D01*
G37*
X112484635Y-82853339D02*
X112334635Y-82853339D01*
X112329635Y-82853339D01*
X112324635Y-82854339D01*
X112318635Y-82854339D01*
X112313635Y-82855339D01*
X112308635Y-82856339D01*
X112303635Y-82858339D01*
X112298635Y-82860339D01*
X112293635Y-82862339D01*
X112289635Y-82864339D01*
X112284635Y-82866339D01*
X112280635Y-82869339D01*
X112275635Y-82872339D01*
X112271635Y-82875339D01*
X112267635Y-82879339D01*
X112263635Y-82882339D01*
X112260635Y-82886339D01*
X112256635Y-82890339D01*
X112253635Y-82894339D01*
X112250635Y-82899339D01*
X112247635Y-82903339D01*
X112245635Y-82908339D01*
X112243635Y-82912339D01*
X112241635Y-82917339D01*
X112239635Y-82922339D01*
X112237635Y-82927339D01*
X112236635Y-82932339D01*
X112235635Y-82937339D01*
X112235635Y-82943339D01*
X112234635Y-82948339D01*
X112234635Y-82953339D01*
X112234635Y-83453339D01*
X112234635Y-83458339D01*
X112235635Y-83463339D01*
X112235635Y-83469339D01*
X112236635Y-83474339D01*
X112237635Y-83479339D01*
X112239635Y-83484339D01*
X112241635Y-83489339D01*
X112243635Y-83494339D01*
X112245635Y-83498339D01*
X112247635Y-83503339D01*
X112250635Y-83507339D01*
X112253635Y-83512339D01*
X112256635Y-83516339D01*
X112260635Y-83520339D01*
X112263635Y-83524339D01*
X112267635Y-83527339D01*
X112271635Y-83531339D01*
X112275635Y-83534339D01*
X112280635Y-83537339D01*
X112284635Y-83540339D01*
X112289635Y-83542339D01*
X112293635Y-83544339D01*
X112298635Y-83546339D01*
X112303635Y-83548339D01*
X112308635Y-83550339D01*
X112313635Y-83551339D01*
X112318635Y-83552339D01*
X112324635Y-83552339D01*
X112329635Y-83553339D01*
X112334635Y-83553339D01*
X112484635Y-83553339D01*
X112489635Y-83553339D01*
X112494635Y-83552339D01*
X112500635Y-83552339D01*
X112505635Y-83551339D01*
X112510635Y-83550339D01*
X112515635Y-83548339D01*
X112520635Y-83546339D01*
X112525635Y-83544339D01*
X112529635Y-83542339D01*
X112534635Y-83540339D01*
X112538635Y-83537339D01*
X112543635Y-83534339D01*
X112547635Y-83531339D01*
X112551635Y-83527339D01*
X112555635Y-83524339D01*
X112558635Y-83520339D01*
X112562635Y-83516339D01*
X112565635Y-83512339D01*
X112568635Y-83507339D01*
X112571635Y-83503339D01*
X112573635Y-83498339D01*
X112575635Y-83494339D01*
X112577635Y-83489339D01*
X112579635Y-83484339D01*
X112581635Y-83479339D01*
X112582635Y-83474339D01*
X112583635Y-83469339D01*
X112583635Y-83463339D01*
X112584635Y-83458339D01*
X112584635Y-83453339D01*
X112584635Y-82953339D01*
X112584635Y-82948339D01*
X112583635Y-82943339D01*
X112583635Y-82937339D01*
X112582635Y-82932339D01*
X112581635Y-82927339D01*
X112579635Y-82922339D01*
X112577635Y-82917339D01*
X112575635Y-82912339D01*
X112573635Y-82908339D01*
X112571635Y-82903339D01*
X112568635Y-82899339D01*
X112565635Y-82894339D01*
X112562635Y-82890339D01*
X112558635Y-82886339D01*
X112555635Y-82882339D01*
X112551635Y-82879339D01*
X112547635Y-82875339D01*
X112543635Y-82872339D01*
X112538635Y-82869339D01*
X112534635Y-82866339D01*
X112529635Y-82864339D01*
X112525635Y-82862339D01*
X112520635Y-82860339D01*
X112515635Y-82858339D01*
X112510635Y-82856339D01*
X112505635Y-82855339D01*
X112500635Y-82854339D01*
X112494635Y-82854339D01*
X112489635Y-82853339D01*
X112484635Y-82853339D01*
G36*
X112494635Y-82854339D02*
G01*
X112500635Y-82854339D01*
X112505635Y-82855339D01*
X112510635Y-82856339D01*
X112515635Y-82858339D01*
X112520635Y-82860339D01*
X112525635Y-82862339D01*
X112529635Y-82864339D01*
X112534635Y-82866339D01*
X112538635Y-82869339D01*
X112543635Y-82872339D01*
X112547635Y-82875339D01*
X112551635Y-82879339D01*
X112555635Y-82882339D01*
X112558635Y-82886339D01*
X112562635Y-82890339D01*
X112565635Y-82894339D01*
X112568635Y-82899339D01*
X112571635Y-82903339D01*
X112573635Y-82908339D01*
X112575635Y-82912339D01*
X112577635Y-82917339D01*
X112579635Y-82922339D01*
X112581635Y-82927339D01*
X112582635Y-82932339D01*
X112583635Y-82937339D01*
X112583635Y-82943339D01*
X112584635Y-82948339D01*
X112584635Y-82953339D01*
X112584635Y-83453339D01*
X112584635Y-83458339D01*
X112583635Y-83463339D01*
X112583635Y-83469339D01*
X112582635Y-83474339D01*
X112581635Y-83479339D01*
X112579635Y-83484339D01*
X112577635Y-83489339D01*
X112575635Y-83494339D01*
X112573635Y-83498339D01*
X112571635Y-83503339D01*
X112568635Y-83507339D01*
X112565635Y-83512339D01*
X112562635Y-83516339D01*
X112558635Y-83520339D01*
X112555635Y-83524339D01*
X112551635Y-83527339D01*
X112547635Y-83531339D01*
X112543635Y-83534339D01*
X112538635Y-83537339D01*
X112534635Y-83540339D01*
X112529635Y-83542339D01*
X112525635Y-83544339D01*
X112520635Y-83546339D01*
X112515635Y-83548339D01*
X112510635Y-83550339D01*
X112505635Y-83551339D01*
X112500635Y-83552339D01*
X112494635Y-83552339D01*
X112489635Y-83553339D01*
X112484635Y-83553339D01*
X112334635Y-83553339D01*
X112329635Y-83553339D01*
X112324635Y-83552339D01*
X112318635Y-83552339D01*
X112313635Y-83551339D01*
X112308635Y-83550339D01*
X112303635Y-83548339D01*
X112298635Y-83546339D01*
X112293635Y-83544339D01*
X112289635Y-83542339D01*
X112284635Y-83540339D01*
X112280635Y-83537339D01*
X112275635Y-83534339D01*
X112271635Y-83531339D01*
X112267635Y-83527339D01*
X112263635Y-83524339D01*
X112260635Y-83520339D01*
X112256635Y-83516339D01*
X112253635Y-83512339D01*
X112250635Y-83507339D01*
X112247635Y-83503339D01*
X112245635Y-83498339D01*
X112243635Y-83494339D01*
X112241635Y-83489339D01*
X112239635Y-83484339D01*
X112237635Y-83479339D01*
X112236635Y-83474339D01*
X112235635Y-83469339D01*
X112235635Y-83463339D01*
X112234635Y-83458339D01*
X112234635Y-83453339D01*
X112234635Y-82953339D01*
X112234635Y-82948339D01*
X112235635Y-82943339D01*
X112235635Y-82937339D01*
X112236635Y-82932339D01*
X112237635Y-82927339D01*
X112239635Y-82922339D01*
X112241635Y-82917339D01*
X112243635Y-82912339D01*
X112245635Y-82908339D01*
X112247635Y-82903339D01*
X112250635Y-82899339D01*
X112253635Y-82894339D01*
X112256635Y-82890339D01*
X112260635Y-82886339D01*
X112263635Y-82882339D01*
X112267635Y-82879339D01*
X112271635Y-82875339D01*
X112275635Y-82872339D01*
X112280635Y-82869339D01*
X112284635Y-82866339D01*
X112289635Y-82864339D01*
X112293635Y-82862339D01*
X112298635Y-82860339D01*
X112303635Y-82858339D01*
X112308635Y-82856339D01*
X112313635Y-82855339D01*
X112318635Y-82854339D01*
X112324635Y-82854339D01*
X112329635Y-82853339D01*
X112334635Y-82853339D01*
X112484635Y-82853339D01*
X112489635Y-82853339D01*
X112494635Y-82854339D01*
G37*
X112784635Y-81753339D02*
X112934635Y-81753339D01*
X112939635Y-81753339D01*
X112944635Y-81752339D01*
X112950635Y-81752339D01*
X112955635Y-81751339D01*
X112960635Y-81750339D01*
X112965635Y-81748339D01*
X112970635Y-81746339D01*
X112975635Y-81744339D01*
X112979635Y-81742339D01*
X112984635Y-81740339D01*
X112988635Y-81737339D01*
X112993635Y-81734339D01*
X112997635Y-81731339D01*
X113001635Y-81727339D01*
X113005635Y-81724339D01*
X113008635Y-81720339D01*
X113012635Y-81716339D01*
X113015635Y-81712339D01*
X113018635Y-81707339D01*
X113021635Y-81703339D01*
X113023635Y-81698339D01*
X113025635Y-81694339D01*
X113027635Y-81689339D01*
X113029635Y-81684339D01*
X113031635Y-81679339D01*
X113032635Y-81674339D01*
X113033635Y-81669339D01*
X113033635Y-81663339D01*
X113034635Y-81658339D01*
X113034635Y-81653339D01*
X113034635Y-81153339D01*
X113034635Y-81148339D01*
X113033635Y-81143339D01*
X113033635Y-81137339D01*
X113032635Y-81132339D01*
X113031635Y-81127339D01*
X113029635Y-81122339D01*
X113027635Y-81117339D01*
X113025635Y-81112339D01*
X113023635Y-81108339D01*
X113021635Y-81103339D01*
X113018635Y-81099339D01*
X113015635Y-81094339D01*
X113012635Y-81090339D01*
X113008635Y-81086339D01*
X113005635Y-81082339D01*
X113001635Y-81079339D01*
X112997635Y-81075339D01*
X112993635Y-81072339D01*
X112988635Y-81069339D01*
X112984635Y-81066339D01*
X112979635Y-81064339D01*
X112975635Y-81062339D01*
X112970635Y-81060339D01*
X112965635Y-81058339D01*
X112960635Y-81056339D01*
X112955635Y-81055339D01*
X112950635Y-81054339D01*
X112944635Y-81054339D01*
X112939635Y-81053339D01*
X112934635Y-81053339D01*
X112784635Y-81053339D01*
X112779635Y-81053339D01*
X112774635Y-81054339D01*
X112768635Y-81054339D01*
X112763635Y-81055339D01*
X112758635Y-81056339D01*
X112753635Y-81058339D01*
X112748635Y-81060339D01*
X112743635Y-81062339D01*
X112739635Y-81064339D01*
X112734635Y-81066339D01*
X112730635Y-81069339D01*
X112725635Y-81072339D01*
X112721635Y-81075339D01*
X112717635Y-81079339D01*
X112713635Y-81082339D01*
X112710635Y-81086339D01*
X112706635Y-81090339D01*
X112703635Y-81094339D01*
X112700635Y-81099339D01*
X112697635Y-81103339D01*
X112695635Y-81108339D01*
X112693635Y-81112339D01*
X112691635Y-81117339D01*
X112689635Y-81122339D01*
X112687635Y-81127339D01*
X112686635Y-81132339D01*
X112685635Y-81137339D01*
X112685635Y-81143339D01*
X112684635Y-81148339D01*
X112684635Y-81153339D01*
X112684635Y-81653339D01*
X112684635Y-81658339D01*
X112685635Y-81663339D01*
X112685635Y-81669339D01*
X112686635Y-81674339D01*
X112687635Y-81679339D01*
X112689635Y-81684339D01*
X112691635Y-81689339D01*
X112693635Y-81694339D01*
X112695635Y-81698339D01*
X112697635Y-81703339D01*
X112700635Y-81707339D01*
X112703635Y-81712339D01*
X112706635Y-81716339D01*
X112710635Y-81720339D01*
X112713635Y-81724339D01*
X112717635Y-81727339D01*
X112721635Y-81731339D01*
X112725635Y-81734339D01*
X112730635Y-81737339D01*
X112734635Y-81740339D01*
X112739635Y-81742339D01*
X112743635Y-81744339D01*
X112748635Y-81746339D01*
X112753635Y-81748339D01*
X112758635Y-81750339D01*
X112763635Y-81751339D01*
X112768635Y-81752339D01*
X112774635Y-81752339D01*
X112779635Y-81753339D01*
X112784635Y-81753339D01*
G36*
X112944635Y-81054339D02*
G01*
X112950635Y-81054339D01*
X112955635Y-81055339D01*
X112960635Y-81056339D01*
X112965635Y-81058339D01*
X112970635Y-81060339D01*
X112975635Y-81062339D01*
X112979635Y-81064339D01*
X112984635Y-81066339D01*
X112988635Y-81069339D01*
X112993635Y-81072339D01*
X112997635Y-81075339D01*
X113001635Y-81079339D01*
X113005635Y-81082339D01*
X113008635Y-81086339D01*
X113012635Y-81090339D01*
X113015635Y-81094339D01*
X113018635Y-81099339D01*
X113021635Y-81103339D01*
X113023635Y-81108339D01*
X113025635Y-81112339D01*
X113027635Y-81117339D01*
X113029635Y-81122339D01*
X113031635Y-81127339D01*
X113032635Y-81132339D01*
X113033635Y-81137339D01*
X113033635Y-81143339D01*
X113034635Y-81148339D01*
X113034635Y-81153339D01*
X113034635Y-81653339D01*
X113034635Y-81658339D01*
X113033635Y-81663339D01*
X113033635Y-81669339D01*
X113032635Y-81674339D01*
X113031635Y-81679339D01*
X113029635Y-81684339D01*
X113027635Y-81689339D01*
X113025635Y-81694339D01*
X113023635Y-81698339D01*
X113021635Y-81703339D01*
X113018635Y-81707339D01*
X113015635Y-81712339D01*
X113012635Y-81716339D01*
X113008635Y-81720339D01*
X113005635Y-81724339D01*
X113001635Y-81727339D01*
X112997635Y-81731339D01*
X112993635Y-81734339D01*
X112988635Y-81737339D01*
X112984635Y-81740339D01*
X112979635Y-81742339D01*
X112975635Y-81744339D01*
X112970635Y-81746339D01*
X112965635Y-81748339D01*
X112960635Y-81750339D01*
X112955635Y-81751339D01*
X112950635Y-81752339D01*
X112944635Y-81752339D01*
X112939635Y-81753339D01*
X112934635Y-81753339D01*
X112784635Y-81753339D01*
X112779635Y-81753339D01*
X112774635Y-81752339D01*
X112768635Y-81752339D01*
X112763635Y-81751339D01*
X112758635Y-81750339D01*
X112753635Y-81748339D01*
X112748635Y-81746339D01*
X112743635Y-81744339D01*
X112739635Y-81742339D01*
X112734635Y-81740339D01*
X112730635Y-81737339D01*
X112725635Y-81734339D01*
X112721635Y-81731339D01*
X112717635Y-81727339D01*
X112713635Y-81724339D01*
X112710635Y-81720339D01*
X112706635Y-81716339D01*
X112703635Y-81712339D01*
X112700635Y-81707339D01*
X112697635Y-81703339D01*
X112695635Y-81698339D01*
X112693635Y-81694339D01*
X112691635Y-81689339D01*
X112689635Y-81684339D01*
X112687635Y-81679339D01*
X112686635Y-81674339D01*
X112685635Y-81669339D01*
X112685635Y-81663339D01*
X112684635Y-81658339D01*
X112684635Y-81653339D01*
X112684635Y-81153339D01*
X112684635Y-81148339D01*
X112685635Y-81143339D01*
X112685635Y-81137339D01*
X112686635Y-81132339D01*
X112687635Y-81127339D01*
X112689635Y-81122339D01*
X112691635Y-81117339D01*
X112693635Y-81112339D01*
X112695635Y-81108339D01*
X112697635Y-81103339D01*
X112700635Y-81099339D01*
X112703635Y-81094339D01*
X112706635Y-81090339D01*
X112710635Y-81086339D01*
X112713635Y-81082339D01*
X112717635Y-81079339D01*
X112721635Y-81075339D01*
X112725635Y-81072339D01*
X112730635Y-81069339D01*
X112734635Y-81066339D01*
X112739635Y-81064339D01*
X112743635Y-81062339D01*
X112748635Y-81060339D01*
X112753635Y-81058339D01*
X112758635Y-81056339D01*
X112763635Y-81055339D01*
X112768635Y-81054339D01*
X112774635Y-81054339D01*
X112779635Y-81053339D01*
X112784635Y-81053339D01*
X112934635Y-81053339D01*
X112939635Y-81053339D01*
X112944635Y-81054339D01*
G37*
X113034635Y-83453339D02*
X113034635Y-82953339D01*
X113034635Y-82948339D01*
X113033635Y-82943339D01*
X113033635Y-82937339D01*
X113032635Y-82932339D01*
X113031635Y-82927339D01*
X113029635Y-82922339D01*
X113027635Y-82917339D01*
X113025635Y-82912339D01*
X113023635Y-82908339D01*
X113021635Y-82903339D01*
X113018635Y-82899339D01*
X113015635Y-82894339D01*
X113012635Y-82890339D01*
X113008635Y-82886339D01*
X113005635Y-82882339D01*
X113001635Y-82879339D01*
X112997635Y-82875339D01*
X112993635Y-82872339D01*
X112988635Y-82869339D01*
X112984635Y-82866339D01*
X112979635Y-82864339D01*
X112975635Y-82862339D01*
X112970635Y-82860339D01*
X112965635Y-82858339D01*
X112960635Y-82856339D01*
X112955635Y-82855339D01*
X112950635Y-82854339D01*
X112944635Y-82854339D01*
X112939635Y-82853339D01*
X112934635Y-82853339D01*
X112784635Y-82853339D01*
X112779635Y-82853339D01*
X112774635Y-82854339D01*
X112768635Y-82854339D01*
X112763635Y-82855339D01*
X112758635Y-82856339D01*
X112753635Y-82858339D01*
X112748635Y-82860339D01*
X112743635Y-82862339D01*
X112739635Y-82864339D01*
X112734635Y-82866339D01*
X112730635Y-82869339D01*
X112725635Y-82872339D01*
X112721635Y-82875339D01*
X112717635Y-82879339D01*
X112713635Y-82882339D01*
X112710635Y-82886339D01*
X112706635Y-82890339D01*
X112703635Y-82894339D01*
X112700635Y-82899339D01*
X112697635Y-82903339D01*
X112695635Y-82908339D01*
X112693635Y-82912339D01*
X112691635Y-82917339D01*
X112689635Y-82922339D01*
X112687635Y-82927339D01*
X112686635Y-82932339D01*
X112685635Y-82937339D01*
X112685635Y-82943339D01*
X112684635Y-82948339D01*
X112684635Y-82953339D01*
X112684635Y-83453339D01*
X112684635Y-83458339D01*
X112685635Y-83463339D01*
X112685635Y-83469339D01*
X112686635Y-83474339D01*
X112687635Y-83479339D01*
X112689635Y-83484339D01*
X112691635Y-83489339D01*
X112693635Y-83494339D01*
X112695635Y-83498339D01*
X112697635Y-83503339D01*
X112700635Y-83507339D01*
X112703635Y-83512339D01*
X112706635Y-83516339D01*
X112710635Y-83520339D01*
X112713635Y-83524339D01*
X112717635Y-83527339D01*
X112721635Y-83531339D01*
X112725635Y-83534339D01*
X112730635Y-83537339D01*
X112734635Y-83540339D01*
X112739635Y-83542339D01*
X112743635Y-83544339D01*
X112748635Y-83546339D01*
X112753635Y-83548339D01*
X112758635Y-83550339D01*
X112763635Y-83551339D01*
X112768635Y-83552339D01*
X112774635Y-83552339D01*
X112779635Y-83553339D01*
X112784635Y-83553339D01*
X112934635Y-83553339D01*
X112939635Y-83553339D01*
X112944635Y-83552339D01*
X112950635Y-83552339D01*
X112955635Y-83551339D01*
X112960635Y-83550339D01*
X112965635Y-83548339D01*
X112970635Y-83546339D01*
X112975635Y-83544339D01*
X112979635Y-83542339D01*
X112984635Y-83540339D01*
X112988635Y-83537339D01*
X112993635Y-83534339D01*
X112997635Y-83531339D01*
X113001635Y-83527339D01*
X113005635Y-83524339D01*
X113008635Y-83520339D01*
X113012635Y-83516339D01*
X113015635Y-83512339D01*
X113018635Y-83507339D01*
X113021635Y-83503339D01*
X113023635Y-83498339D01*
X113025635Y-83494339D01*
X113027635Y-83489339D01*
X113029635Y-83484339D01*
X113031635Y-83479339D01*
X113032635Y-83474339D01*
X113033635Y-83469339D01*
X113033635Y-83463339D01*
X113034635Y-83458339D01*
X113034635Y-83453339D01*
G36*
X112944635Y-82854339D02*
G01*
X112950635Y-82854339D01*
X112955635Y-82855339D01*
X112960635Y-82856339D01*
X112965635Y-82858339D01*
X112970635Y-82860339D01*
X112975635Y-82862339D01*
X112979635Y-82864339D01*
X112984635Y-82866339D01*
X112988635Y-82869339D01*
X112993635Y-82872339D01*
X112997635Y-82875339D01*
X113001635Y-82879339D01*
X113005635Y-82882339D01*
X113008635Y-82886339D01*
X113012635Y-82890339D01*
X113015635Y-82894339D01*
X113018635Y-82899339D01*
X113021635Y-82903339D01*
X113023635Y-82908339D01*
X113025635Y-82912339D01*
X113027635Y-82917339D01*
X113029635Y-82922339D01*
X113031635Y-82927339D01*
X113032635Y-82932339D01*
X113033635Y-82937339D01*
X113033635Y-82943339D01*
X113034635Y-82948339D01*
X113034635Y-82953339D01*
X113034635Y-83453339D01*
X113034635Y-83458339D01*
X113033635Y-83463339D01*
X113033635Y-83469339D01*
X113032635Y-83474339D01*
X113031635Y-83479339D01*
X113029635Y-83484339D01*
X113027635Y-83489339D01*
X113025635Y-83494339D01*
X113023635Y-83498339D01*
X113021635Y-83503339D01*
X113018635Y-83507339D01*
X113015635Y-83512339D01*
X113012635Y-83516339D01*
X113008635Y-83520339D01*
X113005635Y-83524339D01*
X113001635Y-83527339D01*
X112997635Y-83531339D01*
X112993635Y-83534339D01*
X112988635Y-83537339D01*
X112984635Y-83540339D01*
X112979635Y-83542339D01*
X112975635Y-83544339D01*
X112970635Y-83546339D01*
X112965635Y-83548339D01*
X112960635Y-83550339D01*
X112955635Y-83551339D01*
X112950635Y-83552339D01*
X112944635Y-83552339D01*
X112939635Y-83553339D01*
X112934635Y-83553339D01*
X112784635Y-83553339D01*
X112779635Y-83553339D01*
X112774635Y-83552339D01*
X112768635Y-83552339D01*
X112763635Y-83551339D01*
X112758635Y-83550339D01*
X112753635Y-83548339D01*
X112748635Y-83546339D01*
X112743635Y-83544339D01*
X112739635Y-83542339D01*
X112734635Y-83540339D01*
X112730635Y-83537339D01*
X112725635Y-83534339D01*
X112721635Y-83531339D01*
X112717635Y-83527339D01*
X112713635Y-83524339D01*
X112710635Y-83520339D01*
X112706635Y-83516339D01*
X112703635Y-83512339D01*
X112700635Y-83507339D01*
X112697635Y-83503339D01*
X112695635Y-83498339D01*
X112693635Y-83494339D01*
X112691635Y-83489339D01*
X112689635Y-83484339D01*
X112687635Y-83479339D01*
X112686635Y-83474339D01*
X112685635Y-83469339D01*
X112685635Y-83463339D01*
X112684635Y-83458339D01*
X112684635Y-83453339D01*
X112684635Y-82953339D01*
X112684635Y-82948339D01*
X112685635Y-82943339D01*
X112685635Y-82937339D01*
X112686635Y-82932339D01*
X112687635Y-82927339D01*
X112689635Y-82922339D01*
X112691635Y-82917339D01*
X112693635Y-82912339D01*
X112695635Y-82908339D01*
X112697635Y-82903339D01*
X112700635Y-82899339D01*
X112703635Y-82894339D01*
X112706635Y-82890339D01*
X112710635Y-82886339D01*
X112713635Y-82882339D01*
X112717635Y-82879339D01*
X112721635Y-82875339D01*
X112725635Y-82872339D01*
X112730635Y-82869339D01*
X112734635Y-82866339D01*
X112739635Y-82864339D01*
X112743635Y-82862339D01*
X112748635Y-82860339D01*
X112753635Y-82858339D01*
X112758635Y-82856339D01*
X112763635Y-82855339D01*
X112768635Y-82854339D01*
X112774635Y-82854339D01*
X112779635Y-82853339D01*
X112784635Y-82853339D01*
X112934635Y-82853339D01*
X112939635Y-82853339D01*
X112944635Y-82854339D01*
G37*
X113784635Y-81853339D02*
X111484635Y-81853339D01*
X111479635Y-81853339D01*
X111474635Y-81854339D01*
X111468635Y-81854339D01*
X111463635Y-81855339D01*
X111458635Y-81856339D01*
X111453635Y-81858339D01*
X111448635Y-81860339D01*
X111443635Y-81862339D01*
X111439635Y-81864339D01*
X111434635Y-81866339D01*
X111430635Y-81869339D01*
X111425635Y-81872339D01*
X111421635Y-81875339D01*
X111417635Y-81879339D01*
X111413635Y-81882339D01*
X111410635Y-81886339D01*
X111406635Y-81890339D01*
X111403635Y-81894339D01*
X111400635Y-81899339D01*
X111397635Y-81903339D01*
X111395635Y-81908339D01*
X111393635Y-81912339D01*
X111391635Y-81917339D01*
X111389635Y-81922339D01*
X111387635Y-81927339D01*
X111386635Y-81932339D01*
X111385635Y-81937339D01*
X111385635Y-81943339D01*
X111384635Y-81948339D01*
X111384635Y-81953339D01*
X111384635Y-82153339D01*
X111384635Y-82158339D01*
X111385635Y-82163339D01*
X111385635Y-82169339D01*
X111386635Y-82174339D01*
X111387635Y-82179339D01*
X111389635Y-82184339D01*
X111391635Y-82189339D01*
X111393635Y-82194339D01*
X111395635Y-82198339D01*
X111397635Y-82203339D01*
X111400635Y-82207339D01*
X111403635Y-82212339D01*
X111406635Y-82216339D01*
X111410635Y-82220339D01*
X111413635Y-82224339D01*
X111417635Y-82227339D01*
X111421635Y-82231339D01*
X111425635Y-82234339D01*
X111430635Y-82237339D01*
X111434635Y-82240339D01*
X111439635Y-82242339D01*
X111443635Y-82244339D01*
X111448635Y-82246339D01*
X111453635Y-82248339D01*
X111458635Y-82250339D01*
X111463635Y-82251339D01*
X111468635Y-82252339D01*
X111474635Y-82252339D01*
X111479635Y-82253339D01*
X111484635Y-82253339D01*
X113784635Y-82253339D01*
X113789635Y-82253339D01*
X113794635Y-82252339D01*
X113800635Y-82252339D01*
X113805635Y-82251339D01*
X113810635Y-82250339D01*
X113815635Y-82248339D01*
X113820635Y-82246339D01*
X113825635Y-82244339D01*
X113829635Y-82242339D01*
X113834635Y-82240339D01*
X113838635Y-82237339D01*
X113843635Y-82234339D01*
X113847635Y-82231339D01*
X113851635Y-82227339D01*
X113855635Y-82224339D01*
X113858635Y-82220339D01*
X113862635Y-82216339D01*
X113865635Y-82212339D01*
X113868635Y-82207339D01*
X113871635Y-82203339D01*
X113873635Y-82198339D01*
X113875635Y-82194339D01*
X113877635Y-82189339D01*
X113879635Y-82184339D01*
X113881635Y-82179339D01*
X113882635Y-82174339D01*
X113883635Y-82169339D01*
X113883635Y-82163339D01*
X113884635Y-82158339D01*
X113884635Y-82153339D01*
X113884635Y-81953339D01*
X113884635Y-81948339D01*
X113883635Y-81943339D01*
X113883635Y-81937339D01*
X113882635Y-81932339D01*
X113881635Y-81927339D01*
X113879635Y-81922339D01*
X113877635Y-81917339D01*
X113875635Y-81912339D01*
X113873635Y-81908339D01*
X113871635Y-81903339D01*
X113868635Y-81899339D01*
X113865635Y-81894339D01*
X113862635Y-81890339D01*
X113858635Y-81886339D01*
X113855635Y-81882339D01*
X113851635Y-81879339D01*
X113847635Y-81875339D01*
X113843635Y-81872339D01*
X113838635Y-81869339D01*
X113834635Y-81866339D01*
X113829635Y-81864339D01*
X113825635Y-81862339D01*
X113820635Y-81860339D01*
X113815635Y-81858339D01*
X113810635Y-81856339D01*
X113805635Y-81855339D01*
X113800635Y-81854339D01*
X113794635Y-81854339D01*
X113789635Y-81853339D01*
X113784635Y-81853339D01*
G36*
X113794635Y-81854339D02*
G01*
X113800635Y-81854339D01*
X113805635Y-81855339D01*
X113810635Y-81856339D01*
X113815635Y-81858339D01*
X113820635Y-81860339D01*
X113825635Y-81862339D01*
X113829635Y-81864339D01*
X113834635Y-81866339D01*
X113838635Y-81869339D01*
X113843635Y-81872339D01*
X113847635Y-81875339D01*
X113851635Y-81879339D01*
X113855635Y-81882339D01*
X113858635Y-81886339D01*
X113862635Y-81890339D01*
X113865635Y-81894339D01*
X113868635Y-81899339D01*
X113871635Y-81903339D01*
X113873635Y-81908339D01*
X113875635Y-81912339D01*
X113877635Y-81917339D01*
X113879635Y-81922339D01*
X113881635Y-81927339D01*
X113882635Y-81932339D01*
X113883635Y-81937339D01*
X113883635Y-81943339D01*
X113884635Y-81948339D01*
X113884635Y-81953339D01*
X113884635Y-82153339D01*
X113884635Y-82158339D01*
X113883635Y-82163339D01*
X113883635Y-82169339D01*
X113882635Y-82174339D01*
X113881635Y-82179339D01*
X113879635Y-82184339D01*
X113877635Y-82189339D01*
X113875635Y-82194339D01*
X113873635Y-82198339D01*
X113871635Y-82203339D01*
X113868635Y-82207339D01*
X113865635Y-82212339D01*
X113862635Y-82216339D01*
X113858635Y-82220339D01*
X113855635Y-82224339D01*
X113851635Y-82227339D01*
X113847635Y-82231339D01*
X113843635Y-82234339D01*
X113838635Y-82237339D01*
X113834635Y-82240339D01*
X113829635Y-82242339D01*
X113825635Y-82244339D01*
X113820635Y-82246339D01*
X113815635Y-82248339D01*
X113810635Y-82250339D01*
X113805635Y-82251339D01*
X113800635Y-82252339D01*
X113794635Y-82252339D01*
X113789635Y-82253339D01*
X113784635Y-82253339D01*
X111484635Y-82253339D01*
X111479635Y-82253339D01*
X111474635Y-82252339D01*
X111468635Y-82252339D01*
X111463635Y-82251339D01*
X111458635Y-82250339D01*
X111453635Y-82248339D01*
X111448635Y-82246339D01*
X111443635Y-82244339D01*
X111439635Y-82242339D01*
X111434635Y-82240339D01*
X111430635Y-82237339D01*
X111425635Y-82234339D01*
X111421635Y-82231339D01*
X111417635Y-82227339D01*
X111413635Y-82224339D01*
X111410635Y-82220339D01*
X111406635Y-82216339D01*
X111403635Y-82212339D01*
X111400635Y-82207339D01*
X111397635Y-82203339D01*
X111395635Y-82198339D01*
X111393635Y-82194339D01*
X111391635Y-82189339D01*
X111389635Y-82184339D01*
X111387635Y-82179339D01*
X111386635Y-82174339D01*
X111385635Y-82169339D01*
X111385635Y-82163339D01*
X111384635Y-82158339D01*
X111384635Y-82153339D01*
X111384635Y-81953339D01*
X111384635Y-81948339D01*
X111385635Y-81943339D01*
X111385635Y-81937339D01*
X111386635Y-81932339D01*
X111387635Y-81927339D01*
X111389635Y-81922339D01*
X111391635Y-81917339D01*
X111393635Y-81912339D01*
X111395635Y-81908339D01*
X111397635Y-81903339D01*
X111400635Y-81899339D01*
X111403635Y-81894339D01*
X111406635Y-81890339D01*
X111410635Y-81886339D01*
X111413635Y-81882339D01*
X111417635Y-81879339D01*
X111421635Y-81875339D01*
X111425635Y-81872339D01*
X111430635Y-81869339D01*
X111434635Y-81866339D01*
X111439635Y-81864339D01*
X111443635Y-81862339D01*
X111448635Y-81860339D01*
X111453635Y-81858339D01*
X111458635Y-81856339D01*
X111463635Y-81855339D01*
X111468635Y-81854339D01*
X111474635Y-81854339D01*
X111479635Y-81853339D01*
X111484635Y-81853339D01*
X113784635Y-81853339D01*
X113789635Y-81853339D01*
X113794635Y-81854339D01*
G37*
X111734635Y-81403339D02*
X111484635Y-81403339D01*
X111479635Y-81403339D01*
X111474635Y-81404339D01*
X111468635Y-81404339D01*
X111463635Y-81405339D01*
X111458635Y-81406339D01*
X111453635Y-81408339D01*
X111448635Y-81410339D01*
X111443635Y-81412339D01*
X111439635Y-81414339D01*
X111434635Y-81416339D01*
X111430635Y-81419339D01*
X111425635Y-81422339D01*
X111421635Y-81425339D01*
X111417635Y-81429339D01*
X111413635Y-81432339D01*
X111410635Y-81436339D01*
X111406635Y-81440339D01*
X111403635Y-81444339D01*
X111400635Y-81449339D01*
X111397635Y-81453339D01*
X111395635Y-81458339D01*
X111393635Y-81462339D01*
X111391635Y-81467339D01*
X111389635Y-81472339D01*
X111387635Y-81477339D01*
X111386635Y-81482339D01*
X111385635Y-81487339D01*
X111385635Y-81493339D01*
X111384635Y-81498339D01*
X111384635Y-81503339D01*
X111384635Y-81653339D01*
X111384635Y-81658339D01*
X111385635Y-81663339D01*
X111385635Y-81669339D01*
X111386635Y-81674339D01*
X111387635Y-81679339D01*
X111389635Y-81684339D01*
X111391635Y-81689339D01*
X111393635Y-81694339D01*
X111395635Y-81698339D01*
X111397635Y-81703339D01*
X111400635Y-81707339D01*
X111403635Y-81712339D01*
X111406635Y-81716339D01*
X111410635Y-81720339D01*
X111413635Y-81724339D01*
X111417635Y-81727339D01*
X111421635Y-81731339D01*
X111425635Y-81734339D01*
X111430635Y-81737339D01*
X111434635Y-81740339D01*
X111439635Y-81742339D01*
X111443635Y-81744339D01*
X111448635Y-81746339D01*
X111453635Y-81748339D01*
X111458635Y-81750339D01*
X111463635Y-81751339D01*
X111468635Y-81752339D01*
X111474635Y-81752339D01*
X111479635Y-81753339D01*
X111484635Y-81753339D01*
X112034635Y-81753339D01*
X112039635Y-81753339D01*
X112044635Y-81752339D01*
X112050635Y-81752339D01*
X112055635Y-81751339D01*
X112060635Y-81750339D01*
X112065635Y-81748339D01*
X112070635Y-81746339D01*
X112075635Y-81744339D01*
X112079635Y-81742339D01*
X112084635Y-81740339D01*
X112088635Y-81737339D01*
X112093635Y-81734339D01*
X112097635Y-81731339D01*
X112101635Y-81727339D01*
X112105635Y-81724339D01*
X112108635Y-81720339D01*
X112112635Y-81716339D01*
X112115635Y-81712339D01*
X112118635Y-81707339D01*
X112121635Y-81703339D01*
X112123635Y-81698339D01*
X112125635Y-81694339D01*
X112127635Y-81689339D01*
X112129635Y-81684339D01*
X112131635Y-81679339D01*
X112132635Y-81674339D01*
X112133635Y-81669339D01*
X112133635Y-81663339D01*
X112134635Y-81658339D01*
X112134635Y-81653339D01*
X112134635Y-81153339D01*
X112134635Y-81148339D01*
X112133635Y-81143339D01*
X112133635Y-81137339D01*
X112132635Y-81132339D01*
X112131635Y-81127339D01*
X112129635Y-81122339D01*
X112127635Y-81117339D01*
X112125635Y-81112339D01*
X112123635Y-81108339D01*
X112121635Y-81103339D01*
X112118635Y-81099339D01*
X112115635Y-81094339D01*
X112112635Y-81090339D01*
X112108635Y-81086339D01*
X112105635Y-81082339D01*
X112101635Y-81079339D01*
X112097635Y-81075339D01*
X112093635Y-81072339D01*
X112088635Y-81069339D01*
X112084635Y-81066339D01*
X112079635Y-81064339D01*
X112075635Y-81062339D01*
X112070635Y-81060339D01*
X112065635Y-81058339D01*
X112060635Y-81056339D01*
X112055635Y-81055339D01*
X112050635Y-81054339D01*
X112044635Y-81054339D01*
X112039635Y-81053339D01*
X112034635Y-81053339D01*
X111834635Y-81053339D01*
X111829635Y-81053339D01*
X111824635Y-81054339D01*
X111818635Y-81054339D01*
X111813635Y-81055339D01*
X111808635Y-81056339D01*
X111803635Y-81058339D01*
X111798635Y-81060339D01*
X111793635Y-81062339D01*
X111789635Y-81064339D01*
X111784635Y-81066339D01*
X111780635Y-81069339D01*
X111775635Y-81072339D01*
X111771635Y-81075339D01*
X111767635Y-81079339D01*
X111763635Y-81082339D01*
X111760635Y-81086339D01*
X111756635Y-81090339D01*
X111753635Y-81094339D01*
X111750635Y-81099339D01*
X111747635Y-81103339D01*
X111745635Y-81108339D01*
X111743635Y-81112339D01*
X111741635Y-81117339D01*
X111739635Y-81122339D01*
X111737635Y-81127339D01*
X111736635Y-81132339D01*
X111735635Y-81137339D01*
X111735635Y-81143339D01*
X111734635Y-81148339D01*
X111734635Y-81153339D01*
X111734635Y-81403339D01*
G36*
X112044635Y-81054339D02*
G01*
X112050635Y-81054339D01*
X112055635Y-81055339D01*
X112060635Y-81056339D01*
X112065635Y-81058339D01*
X112070635Y-81060339D01*
X112075635Y-81062339D01*
X112079635Y-81064339D01*
X112084635Y-81066339D01*
X112088635Y-81069339D01*
X112093635Y-81072339D01*
X112097635Y-81075339D01*
X112101635Y-81079339D01*
X112105635Y-81082339D01*
X112108635Y-81086339D01*
X112112635Y-81090339D01*
X112115635Y-81094339D01*
X112118635Y-81099339D01*
X112121635Y-81103339D01*
X112123635Y-81108339D01*
X112125635Y-81112339D01*
X112127635Y-81117339D01*
X112129635Y-81122339D01*
X112131635Y-81127339D01*
X112132635Y-81132339D01*
X112133635Y-81137339D01*
X112133635Y-81143339D01*
X112134635Y-81148339D01*
X112134635Y-81153339D01*
X112134635Y-81653339D01*
X112134635Y-81658339D01*
X112133635Y-81663339D01*
X112133635Y-81669339D01*
X112132635Y-81674339D01*
X112131635Y-81679339D01*
X112129635Y-81684339D01*
X112127635Y-81689339D01*
X112125635Y-81694339D01*
X112123635Y-81698339D01*
X112121635Y-81703339D01*
X112118635Y-81707339D01*
X112115635Y-81712339D01*
X112112635Y-81716339D01*
X112108635Y-81720339D01*
X112105635Y-81724339D01*
X112101635Y-81727339D01*
X112097635Y-81731339D01*
X112093635Y-81734339D01*
X112088635Y-81737339D01*
X112084635Y-81740339D01*
X112079635Y-81742339D01*
X112075635Y-81744339D01*
X112070635Y-81746339D01*
X112065635Y-81748339D01*
X112060635Y-81750339D01*
X112055635Y-81751339D01*
X112050635Y-81752339D01*
X112044635Y-81752339D01*
X112039635Y-81753339D01*
X112034635Y-81753339D01*
X111484635Y-81753339D01*
X111479635Y-81753339D01*
X111474635Y-81752339D01*
X111468635Y-81752339D01*
X111463635Y-81751339D01*
X111458635Y-81750339D01*
X111453635Y-81748339D01*
X111448635Y-81746339D01*
X111443635Y-81744339D01*
X111439635Y-81742339D01*
X111434635Y-81740339D01*
X111430635Y-81737339D01*
X111425635Y-81734339D01*
X111421635Y-81731339D01*
X111417635Y-81727339D01*
X111413635Y-81724339D01*
X111410635Y-81720339D01*
X111406635Y-81716339D01*
X111403635Y-81712339D01*
X111400635Y-81707339D01*
X111397635Y-81703339D01*
X111395635Y-81698339D01*
X111393635Y-81694339D01*
X111391635Y-81689339D01*
X111389635Y-81684339D01*
X111387635Y-81679339D01*
X111386635Y-81674339D01*
X111385635Y-81669339D01*
X111385635Y-81663339D01*
X111384635Y-81658339D01*
X111384635Y-81653339D01*
X111384635Y-81503339D01*
X111384635Y-81498339D01*
X111385635Y-81493339D01*
X111385635Y-81487339D01*
X111386635Y-81482339D01*
X111387635Y-81477339D01*
X111389635Y-81472339D01*
X111391635Y-81467339D01*
X111393635Y-81462339D01*
X111395635Y-81458339D01*
X111397635Y-81453339D01*
X111400635Y-81449339D01*
X111403635Y-81444339D01*
X111406635Y-81440339D01*
X111410635Y-81436339D01*
X111413635Y-81432339D01*
X111417635Y-81429339D01*
X111421635Y-81425339D01*
X111425635Y-81422339D01*
X111430635Y-81419339D01*
X111434635Y-81416339D01*
X111439635Y-81414339D01*
X111443635Y-81412339D01*
X111448635Y-81410339D01*
X111453635Y-81408339D01*
X111458635Y-81406339D01*
X111463635Y-81405339D01*
X111468635Y-81404339D01*
X111474635Y-81404339D01*
X111479635Y-81403339D01*
X111484635Y-81403339D01*
X111734635Y-81403339D01*
X111734635Y-81153339D01*
X111734635Y-81148339D01*
X111735635Y-81143339D01*
X111735635Y-81137339D01*
X111736635Y-81132339D01*
X111737635Y-81127339D01*
X111739635Y-81122339D01*
X111741635Y-81117339D01*
X111743635Y-81112339D01*
X111745635Y-81108339D01*
X111747635Y-81103339D01*
X111750635Y-81099339D01*
X111753635Y-81094339D01*
X111756635Y-81090339D01*
X111760635Y-81086339D01*
X111763635Y-81082339D01*
X111767635Y-81079339D01*
X111771635Y-81075339D01*
X111775635Y-81072339D01*
X111780635Y-81069339D01*
X111784635Y-81066339D01*
X111789635Y-81064339D01*
X111793635Y-81062339D01*
X111798635Y-81060339D01*
X111803635Y-81058339D01*
X111808635Y-81056339D01*
X111813635Y-81055339D01*
X111818635Y-81054339D01*
X111824635Y-81054339D01*
X111829635Y-81053339D01*
X111834635Y-81053339D01*
X112034635Y-81053339D01*
X112039635Y-81053339D01*
X112044635Y-81054339D01*
G37*
X111734635Y-83203339D02*
X111734635Y-83453339D01*
X111734635Y-83458339D01*
X111735635Y-83463339D01*
X111735635Y-83469339D01*
X111736635Y-83474339D01*
X111737635Y-83479339D01*
X111739635Y-83484339D01*
X111741635Y-83489339D01*
X111743635Y-83494339D01*
X111745635Y-83498339D01*
X111747635Y-83503339D01*
X111750635Y-83507339D01*
X111753635Y-83512339D01*
X111756635Y-83516339D01*
X111760635Y-83520339D01*
X111763635Y-83524339D01*
X111767635Y-83527339D01*
X111771635Y-83531339D01*
X111775635Y-83534339D01*
X111780635Y-83537339D01*
X111784635Y-83540339D01*
X111789635Y-83542339D01*
X111793635Y-83544339D01*
X111798635Y-83546339D01*
X111803635Y-83548339D01*
X111808635Y-83550339D01*
X111813635Y-83551339D01*
X111818635Y-83552339D01*
X111824635Y-83552339D01*
X111829635Y-83553339D01*
X111834635Y-83553339D01*
X112034635Y-83553339D01*
X112039635Y-83553339D01*
X112044635Y-83552339D01*
X112050635Y-83552339D01*
X112055635Y-83551339D01*
X112060635Y-83550339D01*
X112065635Y-83548339D01*
X112070635Y-83546339D01*
X112075635Y-83544339D01*
X112079635Y-83542339D01*
X112084635Y-83540339D01*
X112088635Y-83537339D01*
X112093635Y-83534339D01*
X112097635Y-83531339D01*
X112101635Y-83527339D01*
X112105635Y-83524339D01*
X112108635Y-83520339D01*
X112112635Y-83516339D01*
X112115635Y-83512339D01*
X112118635Y-83507339D01*
X112121635Y-83503339D01*
X112123635Y-83498339D01*
X112125635Y-83494339D01*
X112127635Y-83489339D01*
X112129635Y-83484339D01*
X112131635Y-83479339D01*
X112132635Y-83474339D01*
X112133635Y-83469339D01*
X112133635Y-83463339D01*
X112134635Y-83458339D01*
X112134635Y-83453339D01*
X112134635Y-82953339D01*
X112134635Y-82948339D01*
X112133635Y-82943339D01*
X112133635Y-82937339D01*
X112132635Y-82932339D01*
X112131635Y-82927339D01*
X112129635Y-82922339D01*
X112127635Y-82917339D01*
X112125635Y-82912339D01*
X112123635Y-82908339D01*
X112121635Y-82903339D01*
X112118635Y-82899339D01*
X112115635Y-82894339D01*
X112112635Y-82890339D01*
X112108635Y-82886339D01*
X112105635Y-82882339D01*
X112101635Y-82879339D01*
X112097635Y-82875339D01*
X112093635Y-82872339D01*
X112088635Y-82869339D01*
X112084635Y-82866339D01*
X112079635Y-82864339D01*
X112075635Y-82862339D01*
X112070635Y-82860339D01*
X112065635Y-82858339D01*
X112060635Y-82856339D01*
X112055635Y-82855339D01*
X112050635Y-82854339D01*
X112044635Y-82854339D01*
X112039635Y-82853339D01*
X112034635Y-82853339D01*
X111484635Y-82853339D01*
X111479635Y-82853339D01*
X111474635Y-82854339D01*
X111468635Y-82854339D01*
X111463635Y-82855339D01*
X111458635Y-82856339D01*
X111453635Y-82858339D01*
X111448635Y-82860339D01*
X111443635Y-82862339D01*
X111439635Y-82864339D01*
X111434635Y-82866339D01*
X111430635Y-82869339D01*
X111425635Y-82872339D01*
X111421635Y-82875339D01*
X111417635Y-82879339D01*
X111413635Y-82882339D01*
X111410635Y-82886339D01*
X111406635Y-82890339D01*
X111403635Y-82894339D01*
X111400635Y-82899339D01*
X111397635Y-82903339D01*
X111395635Y-82908339D01*
X111393635Y-82912339D01*
X111391635Y-82917339D01*
X111389635Y-82922339D01*
X111387635Y-82927339D01*
X111386635Y-82932339D01*
X111385635Y-82937339D01*
X111385635Y-82943339D01*
X111384635Y-82948339D01*
X111384635Y-82953339D01*
X111384635Y-83103339D01*
X111384635Y-83108339D01*
X111385635Y-83113339D01*
X111385635Y-83119339D01*
X111386635Y-83124339D01*
X111387635Y-83129339D01*
X111389635Y-83134339D01*
X111391635Y-83139339D01*
X111393635Y-83144339D01*
X111395635Y-83148339D01*
X111397635Y-83153339D01*
X111400635Y-83157339D01*
X111403635Y-83162339D01*
X111406635Y-83166339D01*
X111410635Y-83170339D01*
X111413635Y-83174339D01*
X111417635Y-83177339D01*
X111421635Y-83181339D01*
X111425635Y-83184339D01*
X111430635Y-83187339D01*
X111434635Y-83190339D01*
X111439635Y-83192339D01*
X111443635Y-83194339D01*
X111448635Y-83196339D01*
X111453635Y-83198339D01*
X111458635Y-83200339D01*
X111463635Y-83201339D01*
X111468635Y-83202339D01*
X111474635Y-83202339D01*
X111479635Y-83203339D01*
X111484635Y-83203339D01*
X111734635Y-83203339D01*
G36*
X112044635Y-82854339D02*
G01*
X112050635Y-82854339D01*
X112055635Y-82855339D01*
X112060635Y-82856339D01*
X112065635Y-82858339D01*
X112070635Y-82860339D01*
X112075635Y-82862339D01*
X112079635Y-82864339D01*
X112084635Y-82866339D01*
X112088635Y-82869339D01*
X112093635Y-82872339D01*
X112097635Y-82875339D01*
X112101635Y-82879339D01*
X112105635Y-82882339D01*
X112108635Y-82886339D01*
X112112635Y-82890339D01*
X112115635Y-82894339D01*
X112118635Y-82899339D01*
X112121635Y-82903339D01*
X112123635Y-82908339D01*
X112125635Y-82912339D01*
X112127635Y-82917339D01*
X112129635Y-82922339D01*
X112131635Y-82927339D01*
X112132635Y-82932339D01*
X112133635Y-82937339D01*
X112133635Y-82943339D01*
X112134635Y-82948339D01*
X112134635Y-82953339D01*
X112134635Y-83453339D01*
X112134635Y-83458339D01*
X112133635Y-83463339D01*
X112133635Y-83469339D01*
X112132635Y-83474339D01*
X112131635Y-83479339D01*
X112129635Y-83484339D01*
X112127635Y-83489339D01*
X112125635Y-83494339D01*
X112123635Y-83498339D01*
X112121635Y-83503339D01*
X112118635Y-83507339D01*
X112115635Y-83512339D01*
X112112635Y-83516339D01*
X112108635Y-83520339D01*
X112105635Y-83524339D01*
X112101635Y-83527339D01*
X112097635Y-83531339D01*
X112093635Y-83534339D01*
X112088635Y-83537339D01*
X112084635Y-83540339D01*
X112079635Y-83542339D01*
X112075635Y-83544339D01*
X112070635Y-83546339D01*
X112065635Y-83548339D01*
X112060635Y-83550339D01*
X112055635Y-83551339D01*
X112050635Y-83552339D01*
X112044635Y-83552339D01*
X112039635Y-83553339D01*
X112034635Y-83553339D01*
X111834635Y-83553339D01*
X111829635Y-83553339D01*
X111824635Y-83552339D01*
X111818635Y-83552339D01*
X111813635Y-83551339D01*
X111808635Y-83550339D01*
X111803635Y-83548339D01*
X111798635Y-83546339D01*
X111793635Y-83544339D01*
X111789635Y-83542339D01*
X111784635Y-83540339D01*
X111780635Y-83537339D01*
X111775635Y-83534339D01*
X111771635Y-83531339D01*
X111767635Y-83527339D01*
X111763635Y-83524339D01*
X111760635Y-83520339D01*
X111756635Y-83516339D01*
X111753635Y-83512339D01*
X111750635Y-83507339D01*
X111747635Y-83503339D01*
X111745635Y-83498339D01*
X111743635Y-83494339D01*
X111741635Y-83489339D01*
X111739635Y-83484339D01*
X111737635Y-83479339D01*
X111736635Y-83474339D01*
X111735635Y-83469339D01*
X111735635Y-83463339D01*
X111734635Y-83458339D01*
X111734635Y-83453339D01*
X111734635Y-83203339D01*
X111484635Y-83203339D01*
X111479635Y-83203339D01*
X111474635Y-83202339D01*
X111468635Y-83202339D01*
X111463635Y-83201339D01*
X111458635Y-83200339D01*
X111453635Y-83198339D01*
X111448635Y-83196339D01*
X111443635Y-83194339D01*
X111439635Y-83192339D01*
X111434635Y-83190339D01*
X111430635Y-83187339D01*
X111425635Y-83184339D01*
X111421635Y-83181339D01*
X111417635Y-83177339D01*
X111413635Y-83174339D01*
X111410635Y-83170339D01*
X111406635Y-83166339D01*
X111403635Y-83162339D01*
X111400635Y-83157339D01*
X111397635Y-83153339D01*
X111395635Y-83148339D01*
X111393635Y-83144339D01*
X111391635Y-83139339D01*
X111389635Y-83134339D01*
X111387635Y-83129339D01*
X111386635Y-83124339D01*
X111385635Y-83119339D01*
X111385635Y-83113339D01*
X111384635Y-83108339D01*
X111384635Y-83103339D01*
X111384635Y-82953339D01*
X111384635Y-82948339D01*
X111385635Y-82943339D01*
X111385635Y-82937339D01*
X111386635Y-82932339D01*
X111387635Y-82927339D01*
X111389635Y-82922339D01*
X111391635Y-82917339D01*
X111393635Y-82912339D01*
X111395635Y-82908339D01*
X111397635Y-82903339D01*
X111400635Y-82899339D01*
X111403635Y-82894339D01*
X111406635Y-82890339D01*
X111410635Y-82886339D01*
X111413635Y-82882339D01*
X111417635Y-82879339D01*
X111421635Y-82875339D01*
X111425635Y-82872339D01*
X111430635Y-82869339D01*
X111434635Y-82866339D01*
X111439635Y-82864339D01*
X111443635Y-82862339D01*
X111448635Y-82860339D01*
X111453635Y-82858339D01*
X111458635Y-82856339D01*
X111463635Y-82855339D01*
X111468635Y-82854339D01*
X111474635Y-82854339D01*
X111479635Y-82853339D01*
X111484635Y-82853339D01*
X112034635Y-82853339D01*
X112039635Y-82853339D01*
X112044635Y-82854339D01*
G37*
X113534635Y-81403339D02*
X113534635Y-81153339D01*
X113534635Y-81148339D01*
X113533635Y-81143339D01*
X113533635Y-81137339D01*
X113532635Y-81132339D01*
X113531635Y-81127339D01*
X113529635Y-81122339D01*
X113527635Y-81117339D01*
X113525635Y-81112339D01*
X113523635Y-81108339D01*
X113521635Y-81103339D01*
X113518635Y-81099339D01*
X113515635Y-81094339D01*
X113512635Y-81090339D01*
X113508635Y-81086339D01*
X113505635Y-81082339D01*
X113501635Y-81079339D01*
X113497635Y-81075339D01*
X113493635Y-81072339D01*
X113488635Y-81069339D01*
X113484635Y-81066339D01*
X113479635Y-81064339D01*
X113475635Y-81062339D01*
X113470635Y-81060339D01*
X113465635Y-81058339D01*
X113460635Y-81056339D01*
X113455635Y-81055339D01*
X113450635Y-81054339D01*
X113444635Y-81054339D01*
X113439635Y-81053339D01*
X113434635Y-81053339D01*
X113234635Y-81053339D01*
X113229635Y-81053339D01*
X113224635Y-81054339D01*
X113218635Y-81054339D01*
X113213635Y-81055339D01*
X113208635Y-81056339D01*
X113203635Y-81058339D01*
X113198635Y-81060339D01*
X113193635Y-81062339D01*
X113189635Y-81064339D01*
X113184635Y-81066339D01*
X113180635Y-81069339D01*
X113175635Y-81072339D01*
X113171635Y-81075339D01*
X113167635Y-81079339D01*
X113163635Y-81082339D01*
X113160635Y-81086339D01*
X113156635Y-81090339D01*
X113153635Y-81094339D01*
X113150635Y-81099339D01*
X113147635Y-81103339D01*
X113145635Y-81108339D01*
X113143635Y-81112339D01*
X113141635Y-81117339D01*
X113139635Y-81122339D01*
X113137635Y-81127339D01*
X113136635Y-81132339D01*
X113135635Y-81137339D01*
X113135635Y-81143339D01*
X113134635Y-81148339D01*
X113134635Y-81153339D01*
X113134635Y-81653339D01*
X113134635Y-81658339D01*
X113135635Y-81663339D01*
X113135635Y-81669339D01*
X113136635Y-81674339D01*
X113137635Y-81679339D01*
X113139635Y-81684339D01*
X113141635Y-81689339D01*
X113143635Y-81694339D01*
X113145635Y-81698339D01*
X113147635Y-81703339D01*
X113150635Y-81707339D01*
X113153635Y-81712339D01*
X113156635Y-81716339D01*
X113160635Y-81720339D01*
X113163635Y-81724339D01*
X113167635Y-81727339D01*
X113171635Y-81731339D01*
X113175635Y-81734339D01*
X113180635Y-81737339D01*
X113184635Y-81740339D01*
X113189635Y-81742339D01*
X113193635Y-81744339D01*
X113198635Y-81746339D01*
X113203635Y-81748339D01*
X113208635Y-81750339D01*
X113213635Y-81751339D01*
X113218635Y-81752339D01*
X113224635Y-81752339D01*
X113229635Y-81753339D01*
X113234635Y-81753339D01*
X113784635Y-81753339D01*
X113789635Y-81753339D01*
X113794635Y-81752339D01*
X113800635Y-81752339D01*
X113805635Y-81751339D01*
X113810635Y-81750339D01*
X113815635Y-81748339D01*
X113820635Y-81746339D01*
X113825635Y-81744339D01*
X113829635Y-81742339D01*
X113834635Y-81740339D01*
X113838635Y-81737339D01*
X113843635Y-81734339D01*
X113847635Y-81731339D01*
X113851635Y-81727339D01*
X113855635Y-81724339D01*
X113858635Y-81720339D01*
X113862635Y-81716339D01*
X113865635Y-81712339D01*
X113868635Y-81707339D01*
X113871635Y-81703339D01*
X113873635Y-81698339D01*
X113875635Y-81694339D01*
X113877635Y-81689339D01*
X113879635Y-81684339D01*
X113881635Y-81679339D01*
X113882635Y-81674339D01*
X113883635Y-81669339D01*
X113883635Y-81663339D01*
X113884635Y-81658339D01*
X113884635Y-81653339D01*
X113884635Y-81503339D01*
X113884635Y-81498339D01*
X113883635Y-81493339D01*
X113883635Y-81487339D01*
X113882635Y-81482339D01*
X113881635Y-81477339D01*
X113879635Y-81472339D01*
X113877635Y-81467339D01*
X113875635Y-81462339D01*
X113873635Y-81458339D01*
X113871635Y-81453339D01*
X113868635Y-81449339D01*
X113865635Y-81444339D01*
X113862635Y-81440339D01*
X113858635Y-81436339D01*
X113855635Y-81432339D01*
X113851635Y-81429339D01*
X113847635Y-81425339D01*
X113843635Y-81422339D01*
X113838635Y-81419339D01*
X113834635Y-81416339D01*
X113829635Y-81414339D01*
X113825635Y-81412339D01*
X113820635Y-81410339D01*
X113815635Y-81408339D01*
X113810635Y-81406339D01*
X113805635Y-81405339D01*
X113800635Y-81404339D01*
X113794635Y-81404339D01*
X113789635Y-81403339D01*
X113784635Y-81403339D01*
X113534635Y-81403339D01*
G36*
X113444635Y-81054339D02*
G01*
X113450635Y-81054339D01*
X113455635Y-81055339D01*
X113460635Y-81056339D01*
X113465635Y-81058339D01*
X113470635Y-81060339D01*
X113475635Y-81062339D01*
X113479635Y-81064339D01*
X113484635Y-81066339D01*
X113488635Y-81069339D01*
X113493635Y-81072339D01*
X113497635Y-81075339D01*
X113501635Y-81079339D01*
X113505635Y-81082339D01*
X113508635Y-81086339D01*
X113512635Y-81090339D01*
X113515635Y-81094339D01*
X113518635Y-81099339D01*
X113521635Y-81103339D01*
X113523635Y-81108339D01*
X113525635Y-81112339D01*
X113527635Y-81117339D01*
X113529635Y-81122339D01*
X113531635Y-81127339D01*
X113532635Y-81132339D01*
X113533635Y-81137339D01*
X113533635Y-81143339D01*
X113534635Y-81148339D01*
X113534635Y-81153339D01*
X113534635Y-81403339D01*
X113784635Y-81403339D01*
X113789635Y-81403339D01*
X113794635Y-81404339D01*
X113800635Y-81404339D01*
X113805635Y-81405339D01*
X113810635Y-81406339D01*
X113815635Y-81408339D01*
X113820635Y-81410339D01*
X113825635Y-81412339D01*
X113829635Y-81414339D01*
X113834635Y-81416339D01*
X113838635Y-81419339D01*
X113843635Y-81422339D01*
X113847635Y-81425339D01*
X113851635Y-81429339D01*
X113855635Y-81432339D01*
X113858635Y-81436339D01*
X113862635Y-81440339D01*
X113865635Y-81444339D01*
X113868635Y-81449339D01*
X113871635Y-81453339D01*
X113873635Y-81458339D01*
X113875635Y-81462339D01*
X113877635Y-81467339D01*
X113879635Y-81472339D01*
X113881635Y-81477339D01*
X113882635Y-81482339D01*
X113883635Y-81487339D01*
X113883635Y-81493339D01*
X113884635Y-81498339D01*
X113884635Y-81503339D01*
X113884635Y-81653339D01*
X113884635Y-81658339D01*
X113883635Y-81663339D01*
X113883635Y-81669339D01*
X113882635Y-81674339D01*
X113881635Y-81679339D01*
X113879635Y-81684339D01*
X113877635Y-81689339D01*
X113875635Y-81694339D01*
X113873635Y-81698339D01*
X113871635Y-81703339D01*
X113868635Y-81707339D01*
X113865635Y-81712339D01*
X113862635Y-81716339D01*
X113858635Y-81720339D01*
X113855635Y-81724339D01*
X113851635Y-81727339D01*
X113847635Y-81731339D01*
X113843635Y-81734339D01*
X113838635Y-81737339D01*
X113834635Y-81740339D01*
X113829635Y-81742339D01*
X113825635Y-81744339D01*
X113820635Y-81746339D01*
X113815635Y-81748339D01*
X113810635Y-81750339D01*
X113805635Y-81751339D01*
X113800635Y-81752339D01*
X113794635Y-81752339D01*
X113789635Y-81753339D01*
X113784635Y-81753339D01*
X113234635Y-81753339D01*
X113229635Y-81753339D01*
X113224635Y-81752339D01*
X113218635Y-81752339D01*
X113213635Y-81751339D01*
X113208635Y-81750339D01*
X113203635Y-81748339D01*
X113198635Y-81746339D01*
X113193635Y-81744339D01*
X113189635Y-81742339D01*
X113184635Y-81740339D01*
X113180635Y-81737339D01*
X113175635Y-81734339D01*
X113171635Y-81731339D01*
X113167635Y-81727339D01*
X113163635Y-81724339D01*
X113160635Y-81720339D01*
X113156635Y-81716339D01*
X113153635Y-81712339D01*
X113150635Y-81707339D01*
X113147635Y-81703339D01*
X113145635Y-81698339D01*
X113143635Y-81694339D01*
X113141635Y-81689339D01*
X113139635Y-81684339D01*
X113137635Y-81679339D01*
X113136635Y-81674339D01*
X113135635Y-81669339D01*
X113135635Y-81663339D01*
X113134635Y-81658339D01*
X113134635Y-81653339D01*
X113134635Y-81153339D01*
X113134635Y-81148339D01*
X113135635Y-81143339D01*
X113135635Y-81137339D01*
X113136635Y-81132339D01*
X113137635Y-81127339D01*
X113139635Y-81122339D01*
X113141635Y-81117339D01*
X113143635Y-81112339D01*
X113145635Y-81108339D01*
X113147635Y-81103339D01*
X113150635Y-81099339D01*
X113153635Y-81094339D01*
X113156635Y-81090339D01*
X113160635Y-81086339D01*
X113163635Y-81082339D01*
X113167635Y-81079339D01*
X113171635Y-81075339D01*
X113175635Y-81072339D01*
X113180635Y-81069339D01*
X113184635Y-81066339D01*
X113189635Y-81064339D01*
X113193635Y-81062339D01*
X113198635Y-81060339D01*
X113203635Y-81058339D01*
X113208635Y-81056339D01*
X113213635Y-81055339D01*
X113218635Y-81054339D01*
X113224635Y-81054339D01*
X113229635Y-81053339D01*
X113234635Y-81053339D01*
X113434635Y-81053339D01*
X113439635Y-81053339D01*
X113444635Y-81054339D01*
G37*
X113534635Y-83203339D02*
X113784635Y-83203339D01*
X113789635Y-83203339D01*
X113794635Y-83202339D01*
X113800635Y-83202339D01*
X113805635Y-83201339D01*
X113810635Y-83200339D01*
X113815635Y-83198339D01*
X113820635Y-83196339D01*
X113825635Y-83194339D01*
X113829635Y-83192339D01*
X113834635Y-83190339D01*
X113838635Y-83187339D01*
X113843635Y-83184339D01*
X113847635Y-83181339D01*
X113851635Y-83177339D01*
X113855635Y-83174339D01*
X113858635Y-83170339D01*
X113862635Y-83166339D01*
X113865635Y-83162339D01*
X113868635Y-83157339D01*
X113871635Y-83153339D01*
X113873635Y-83148339D01*
X113875635Y-83144339D01*
X113877635Y-83139339D01*
X113879635Y-83134339D01*
X113881635Y-83129339D01*
X113882635Y-83124339D01*
X113883635Y-83119339D01*
X113883635Y-83113339D01*
X113884635Y-83108339D01*
X113884635Y-83103339D01*
X113884635Y-82953339D01*
X113884635Y-82948339D01*
X113883635Y-82943339D01*
X113883635Y-82937339D01*
X113882635Y-82932339D01*
X113881635Y-82927339D01*
X113879635Y-82922339D01*
X113877635Y-82917339D01*
X113875635Y-82912339D01*
X113873635Y-82908339D01*
X113871635Y-82903339D01*
X113868635Y-82899339D01*
X113865635Y-82894339D01*
X113862635Y-82890339D01*
X113858635Y-82886339D01*
X113855635Y-82882339D01*
X113851635Y-82879339D01*
X113847635Y-82875339D01*
X113843635Y-82872339D01*
X113838635Y-82869339D01*
X113834635Y-82866339D01*
X113829635Y-82864339D01*
X113825635Y-82862339D01*
X113820635Y-82860339D01*
X113815635Y-82858339D01*
X113810635Y-82856339D01*
X113805635Y-82855339D01*
X113800635Y-82854339D01*
X113794635Y-82854339D01*
X113789635Y-82853339D01*
X113784635Y-82853339D01*
X113234635Y-82853339D01*
X113229635Y-82853339D01*
X113224635Y-82854339D01*
X113218635Y-82854339D01*
X113213635Y-82855339D01*
X113208635Y-82856339D01*
X113203635Y-82858339D01*
X113198635Y-82860339D01*
X113193635Y-82862339D01*
X113189635Y-82864339D01*
X113184635Y-82866339D01*
X113180635Y-82869339D01*
X113175635Y-82872339D01*
X113171635Y-82875339D01*
X113167635Y-82879339D01*
X113163635Y-82882339D01*
X113160635Y-82886339D01*
X113156635Y-82890339D01*
X113153635Y-82894339D01*
X113150635Y-82899339D01*
X113147635Y-82903339D01*
X113145635Y-82908339D01*
X113143635Y-82912339D01*
X113141635Y-82917339D01*
X113139635Y-82922339D01*
X113137635Y-82927339D01*
X113136635Y-82932339D01*
X113135635Y-82937339D01*
X113135635Y-82943339D01*
X113134635Y-82948339D01*
X113134635Y-82953339D01*
X113134635Y-83453339D01*
X113134635Y-83458339D01*
X113135635Y-83463339D01*
X113135635Y-83469339D01*
X113136635Y-83474339D01*
X113137635Y-83479339D01*
X113139635Y-83484339D01*
X113141635Y-83489339D01*
X113143635Y-83494339D01*
X113145635Y-83498339D01*
X113147635Y-83503339D01*
X113150635Y-83507339D01*
X113153635Y-83512339D01*
X113156635Y-83516339D01*
X113160635Y-83520339D01*
X113163635Y-83524339D01*
X113167635Y-83527339D01*
X113171635Y-83531339D01*
X113175635Y-83534339D01*
X113180635Y-83537339D01*
X113184635Y-83540339D01*
X113189635Y-83542339D01*
X113193635Y-83544339D01*
X113198635Y-83546339D01*
X113203635Y-83548339D01*
X113208635Y-83550339D01*
X113213635Y-83551339D01*
X113218635Y-83552339D01*
X113224635Y-83552339D01*
X113229635Y-83553339D01*
X113234635Y-83553339D01*
X113434635Y-83553339D01*
X113439635Y-83553339D01*
X113444635Y-83552339D01*
X113450635Y-83552339D01*
X113455635Y-83551339D01*
X113460635Y-83550339D01*
X113465635Y-83548339D01*
X113470635Y-83546339D01*
X113475635Y-83544339D01*
X113479635Y-83542339D01*
X113484635Y-83540339D01*
X113488635Y-83537339D01*
X113493635Y-83534339D01*
X113497635Y-83531339D01*
X113501635Y-83527339D01*
X113505635Y-83524339D01*
X113508635Y-83520339D01*
X113512635Y-83516339D01*
X113515635Y-83512339D01*
X113518635Y-83507339D01*
X113521635Y-83503339D01*
X113523635Y-83498339D01*
X113525635Y-83494339D01*
X113527635Y-83489339D01*
X113529635Y-83484339D01*
X113531635Y-83479339D01*
X113532635Y-83474339D01*
X113533635Y-83469339D01*
X113533635Y-83463339D01*
X113534635Y-83458339D01*
X113534635Y-83453339D01*
X113534635Y-83203339D01*
G36*
X113794635Y-82854339D02*
G01*
X113800635Y-82854339D01*
X113805635Y-82855339D01*
X113810635Y-82856339D01*
X113815635Y-82858339D01*
X113820635Y-82860339D01*
X113825635Y-82862339D01*
X113829635Y-82864339D01*
X113834635Y-82866339D01*
X113838635Y-82869339D01*
X113843635Y-82872339D01*
X113847635Y-82875339D01*
X113851635Y-82879339D01*
X113855635Y-82882339D01*
X113858635Y-82886339D01*
X113862635Y-82890339D01*
X113865635Y-82894339D01*
X113868635Y-82899339D01*
X113871635Y-82903339D01*
X113873635Y-82908339D01*
X113875635Y-82912339D01*
X113877635Y-82917339D01*
X113879635Y-82922339D01*
X113881635Y-82927339D01*
X113882635Y-82932339D01*
X113883635Y-82937339D01*
X113883635Y-82943339D01*
X113884635Y-82948339D01*
X113884635Y-82953339D01*
X113884635Y-83103339D01*
X113884635Y-83108339D01*
X113883635Y-83113339D01*
X113883635Y-83119339D01*
X113882635Y-83124339D01*
X113881635Y-83129339D01*
X113879635Y-83134339D01*
X113877635Y-83139339D01*
X113875635Y-83144339D01*
X113873635Y-83148339D01*
X113871635Y-83153339D01*
X113868635Y-83157339D01*
X113865635Y-83162339D01*
X113862635Y-83166339D01*
X113858635Y-83170339D01*
X113855635Y-83174339D01*
X113851635Y-83177339D01*
X113847635Y-83181339D01*
X113843635Y-83184339D01*
X113838635Y-83187339D01*
X113834635Y-83190339D01*
X113829635Y-83192339D01*
X113825635Y-83194339D01*
X113820635Y-83196339D01*
X113815635Y-83198339D01*
X113810635Y-83200339D01*
X113805635Y-83201339D01*
X113800635Y-83202339D01*
X113794635Y-83202339D01*
X113789635Y-83203339D01*
X113784635Y-83203339D01*
X113534635Y-83203339D01*
X113534635Y-83453339D01*
X113534635Y-83458339D01*
X113533635Y-83463339D01*
X113533635Y-83469339D01*
X113532635Y-83474339D01*
X113531635Y-83479339D01*
X113529635Y-83484339D01*
X113527635Y-83489339D01*
X113525635Y-83494339D01*
X113523635Y-83498339D01*
X113521635Y-83503339D01*
X113518635Y-83507339D01*
X113515635Y-83512339D01*
X113512635Y-83516339D01*
X113508635Y-83520339D01*
X113505635Y-83524339D01*
X113501635Y-83527339D01*
X113497635Y-83531339D01*
X113493635Y-83534339D01*
X113488635Y-83537339D01*
X113484635Y-83540339D01*
X113479635Y-83542339D01*
X113475635Y-83544339D01*
X113470635Y-83546339D01*
X113465635Y-83548339D01*
X113460635Y-83550339D01*
X113455635Y-83551339D01*
X113450635Y-83552339D01*
X113444635Y-83552339D01*
X113439635Y-83553339D01*
X113434635Y-83553339D01*
X113234635Y-83553339D01*
X113229635Y-83553339D01*
X113224635Y-83552339D01*
X113218635Y-83552339D01*
X113213635Y-83551339D01*
X113208635Y-83550339D01*
X113203635Y-83548339D01*
X113198635Y-83546339D01*
X113193635Y-83544339D01*
X113189635Y-83542339D01*
X113184635Y-83540339D01*
X113180635Y-83537339D01*
X113175635Y-83534339D01*
X113171635Y-83531339D01*
X113167635Y-83527339D01*
X113163635Y-83524339D01*
X113160635Y-83520339D01*
X113156635Y-83516339D01*
X113153635Y-83512339D01*
X113150635Y-83507339D01*
X113147635Y-83503339D01*
X113145635Y-83498339D01*
X113143635Y-83494339D01*
X113141635Y-83489339D01*
X113139635Y-83484339D01*
X113137635Y-83479339D01*
X113136635Y-83474339D01*
X113135635Y-83469339D01*
X113135635Y-83463339D01*
X113134635Y-83458339D01*
X113134635Y-83453339D01*
X113134635Y-82953339D01*
X113134635Y-82948339D01*
X113135635Y-82943339D01*
X113135635Y-82937339D01*
X113136635Y-82932339D01*
X113137635Y-82927339D01*
X113139635Y-82922339D01*
X113141635Y-82917339D01*
X113143635Y-82912339D01*
X113145635Y-82908339D01*
X113147635Y-82903339D01*
X113150635Y-82899339D01*
X113153635Y-82894339D01*
X113156635Y-82890339D01*
X113160635Y-82886339D01*
X113163635Y-82882339D01*
X113167635Y-82879339D01*
X113171635Y-82875339D01*
X113175635Y-82872339D01*
X113180635Y-82869339D01*
X113184635Y-82866339D01*
X113189635Y-82864339D01*
X113193635Y-82862339D01*
X113198635Y-82860339D01*
X113203635Y-82858339D01*
X113208635Y-82856339D01*
X113213635Y-82855339D01*
X113218635Y-82854339D01*
X113224635Y-82854339D01*
X113229635Y-82853339D01*
X113234635Y-82853339D01*
X113784635Y-82853339D01*
X113789635Y-82853339D01*
X113794635Y-82854339D01*
G37*
%TD*%
D11*
%TO.C,R76*%
X244500648Y-118780000D03*
X244500648Y-120430000D03*
%TD*%
D12*
%TO.C,R3*%
X128492664Y-98100000D03*
X130142664Y-98100000D03*
%TD*%
D13*
%TO.C,R13*%
X129779767Y-120275000D03*
X128129767Y-120275000D03*
%TD*%
D14*
%TO.C,C47*%
X210643031Y-88674307D03*
X209093031Y-88674307D03*
%TD*%
D15*
%TO.C,J2*%
X233294696Y-44739971D03*
X236034695Y-44739971D03*
X238774698Y-44739971D03*
X241514697Y-44739971D03*
X244254697Y-44739971D03*
X234664696Y-41899971D03*
X237404695Y-41899971D03*
X240144697Y-41899971D03*
X242884697Y-41899971D03*
D16*
X226280000Y-43320001D03*
X251270000Y-43320001D03*
%TD*%
D17*
%TO.C,R24*%
X256825000Y-43330000D03*
X258650000Y-43330000D03*
%TD*%
D14*
%TO.C,C38*%
X174088232Y-88000000D03*
X172538232Y-88000000D03*
%TD*%
D18*
%TO.C,C11*%
X142191677Y-76819513D03*
X145141677Y-76819513D03*
%TD*%
D13*
%TO.C,R41*%
X177250000Y-64799358D03*
X175600000Y-64799358D03*
%TD*%
D19*
%TO.C,S1*%
X102797155Y-76675001D03*
D20*
X107497155Y-76675001D03*
X112197155Y-76675001D03*
%TD*%
D21*
%TO.C,J13*%
X191450000Y-70464620D03*
D22*
X188910000Y-70464620D03*
X191450000Y-67924620D03*
X188910000Y-67924620D03*
X191450000Y-65384620D03*
X188910000Y-65384620D03*
%TD*%
D12*
%TO.C,R15*%
X138093086Y-118600000D03*
X139743086Y-118600000D03*
%TD*%
D23*
%TO.C,C13*%
X132975000Y-72850000D03*
X132975000Y-69900000D03*
%TD*%
D24*
%TO.C,C65*%
X244418813Y-123240000D03*
X245378813Y-123240000D03*
%TD*%
D25*
%TO.C,R38*%
X167375000Y-82454506D03*
X167375000Y-80804506D03*
%TD*%
D26*
%TO.C,C37*%
X109326339Y-94600000D03*
X110876339Y-94600000D03*
%TD*%
D23*
%TO.C,C50*%
X201925000Y-84983185D03*
X201925000Y-82033185D03*
%TD*%
D25*
%TO.C,R72*%
X214725000Y-114900000D03*
X214725000Y-113250000D03*
%TD*%
D27*
%TO.C,LD EN*%
X255570000Y-131680000D03*
%TD*%
D28*
%TO.C,C68*%
X246180000Y-120427498D03*
X246180000Y-119467498D03*
%TD*%
D29*
%TO.C,J10*%
X256138995Y-92535000D03*
D30*
X252963995Y-89360000D03*
X259313995Y-89360000D03*
X252963995Y-95710000D03*
X259313995Y-95710000D03*
%TD*%
D12*
%TO.C,R36*%
X163139374Y-83275000D03*
X164789374Y-83275000D03*
%TD*%
D31*
%TO.C,LDTC COM*%
X247387433Y-100125000D03*
%TD*%
D11*
%TO.C,R48*%
X193600000Y-108871729D03*
X193600000Y-110521729D03*
%TD*%
D32*
%TO.C,L4*%
X152175000Y-115925000D03*
X152175000Y-119965000D03*
%TD*%
D11*
%TO.C,R8*%
X136250000Y-101394205D03*
X136250000Y-103044205D03*
%TD*%
D24*
%TO.C,C59*%
X244455736Y-129360000D03*
X245415736Y-129360000D03*
%TD*%
D14*
%TO.C,C19*%
X131169324Y-112575000D03*
X129619324Y-112575000D03*
%TD*%
D13*
%TO.C,R11*%
X130127568Y-114918258D03*
X128477568Y-114918258D03*
%TD*%
D18*
%TO.C,C10*%
X142200000Y-80386097D03*
X145150000Y-80386097D03*
%TD*%
D33*
%TO.C,C33*%
X105461291Y-96100000D03*
X105461291Y-99050000D03*
%TD*%
D34*
%TO.C,D3*%
X116025000Y-77950001D03*
X120325000Y-77950001D03*
%TD*%
D14*
%TO.C,C1*%
X131172431Y-93725000D03*
X129622431Y-93725000D03*
%TD*%
%TO.C,C18*%
X129715839Y-122125000D03*
X128165839Y-122125000D03*
%TD*%
D17*
%TO.C,R10*%
X101666350Y-45598123D03*
X103491350Y-45598123D03*
%TD*%
D14*
%TO.C,C39*%
X174093948Y-90200000D03*
X172543948Y-90200000D03*
%TD*%
D35*
%TO.C,REF\u002A\u002A*%
X261225000Y-135076895D03*
%TD*%
D11*
%TO.C,R47*%
X196299999Y-108875000D03*
X196299999Y-110525000D03*
%TD*%
D36*
%TO.C,Q1*%
X249840000Y-133360000D03*
X251740000Y-133360000D03*
X250790000Y-131485000D03*
%TD*%
D37*
%TO.C,C35*%
X106925000Y-92269336D03*
X106925000Y-90719336D03*
%TD*%
D14*
%TO.C,C4*%
X129727930Y-103220889D03*
X128177930Y-103220889D03*
%TD*%
D13*
%TO.C,R61*%
X208810000Y-111029993D03*
X207160000Y-111029993D03*
%TD*%
%TO.C,R64*%
X246090000Y-127710000D03*
X244440000Y-127710000D03*
%TD*%
D37*
%TO.C,C57*%
X232430000Y-84076877D03*
X232430000Y-82526877D03*
%TD*%
D25*
%TO.C,R6*%
X134240000Y-103053724D03*
X134240000Y-101403724D03*
%TD*%
D38*
%TO.C,C56*%
X235800000Y-85672525D03*
X235800000Y-87222525D03*
%TD*%
D11*
%TO.C,R4*%
X132570502Y-101400000D03*
X132570502Y-103050000D03*
%TD*%
D38*
%TO.C,C70*%
X232320000Y-94521855D03*
X232320000Y-96071855D03*
%TD*%
D13*
%TO.C,R80*%
X248691234Y-92540000D03*
X247041234Y-92540000D03*
%TD*%
D33*
%TO.C,C27*%
X146250000Y-126350654D03*
X146250000Y-129300654D03*
%TD*%
D13*
%TO.C,R58*%
X246087498Y-130750000D03*
X244437498Y-130750000D03*
%TD*%
D11*
%TO.C,R16*%
X138192872Y-120425000D03*
X138192872Y-122075000D03*
%TD*%
%TO.C,R51*%
X202950000Y-99875000D03*
X202950000Y-101525000D03*
%TD*%
D13*
%TO.C,R67*%
X220210000Y-111020105D03*
X218560000Y-111020105D03*
%TD*%
D39*
%TO.C,+12V*%
X110747299Y-101975000D03*
%TD*%
D33*
%TO.C,C24*%
X157625000Y-126300000D03*
X157625000Y-129250000D03*
%TD*%
D14*
%TO.C,C20*%
X132574846Y-123975000D03*
X131024846Y-123975000D03*
%TD*%
D35*
%TO.C,REF\u002A\u002A*%
X104712111Y-37698105D03*
%TD*%
D40*
%TO.C,L1*%
X139625000Y-92825000D03*
X143665000Y-92825000D03*
%TD*%
D17*
%TO.C,R27*%
X117548235Y-121371117D03*
X119373235Y-121371117D03*
%TD*%
D37*
%TO.C,C58*%
X230660000Y-84070000D03*
X230660000Y-82520000D03*
%TD*%
D38*
%TO.C,C32*%
X110875000Y-85771895D03*
X110875000Y-87321895D03*
%TD*%
D41*
%TO.C,BUFF BIAS*%
X200350000Y-91500000D03*
%TD*%
D11*
%TO.C,R23*%
X113325000Y-85723295D03*
X113325000Y-87373295D03*
%TD*%
D24*
%TO.C,C62*%
X244421663Y-126260000D03*
X245381663Y-126260000D03*
%TD*%
D11*
%TO.C,R68*%
X225845647Y-96800000D03*
X225845647Y-98450000D03*
%TD*%
D17*
%TO.C,R19*%
X101687412Y-52573123D03*
X103512412Y-52573123D03*
%TD*%
D42*
%TO.C,J7*%
X167569394Y-64790000D03*
X165029394Y-67330000D03*
X170109394Y-67330000D03*
X170109394Y-62250000D03*
X165029394Y-62250000D03*
%TD*%
D43*
%TO.C,C9*%
X130111866Y-73175000D03*
X127161866Y-73175000D03*
%TD*%
D18*
%TO.C,C23*%
X157633883Y-123350000D03*
X160583883Y-123350000D03*
%TD*%
D26*
%TO.C,C34*%
X109325000Y-92242741D03*
X110875000Y-92242741D03*
%TD*%
D11*
%TO.C,R14*%
X132575796Y-120425000D03*
X132575796Y-122075000D03*
%TD*%
D14*
%TO.C,C42*%
X184246785Y-95875000D03*
X182696785Y-95875000D03*
%TD*%
D23*
%TO.C,C14*%
X139175000Y-72836082D03*
X139175000Y-69886082D03*
%TD*%
D41*
%TO.C,BUFF MOD*%
X179872823Y-100950000D03*
%TD*%
%TO.C,CURRENT MOD TP*%
X184681370Y-61100000D03*
%TD*%
D44*
%TO.C,R1*%
X221462500Y-40050000D03*
X219637500Y-40050000D03*
%TD*%
D13*
%TO.C,R5*%
X129783346Y-101270889D03*
X128133346Y-101270889D03*
%TD*%
D45*
%TO.C,CR1*%
X172543941Y-64815000D03*
X172543941Y-65450000D03*
%TD*%
D46*
%TO.C,+5V*%
X136100000Y-66175000D03*
%TD*%
D44*
%TO.C,R32*%
X198762500Y-94388254D03*
X196937500Y-94388254D03*
%TD*%
D25*
%TO.C,R44*%
X180294590Y-61800000D03*
X180294590Y-60150000D03*
%TD*%
D12*
%TO.C,R21*%
X106650000Y-81602575D03*
X108300000Y-81602575D03*
%TD*%
D18*
%TO.C,C5*%
X147409115Y-95325000D03*
X150359115Y-95325000D03*
%TD*%
D13*
%TO.C,R65*%
X228774059Y-94886252D03*
X227124059Y-94886252D03*
%TD*%
D12*
%TO.C,R43*%
X183400000Y-64791277D03*
X185050000Y-64791277D03*
%TD*%
D28*
%TO.C,C60*%
X227143380Y-86360000D03*
X227143380Y-85400000D03*
%TD*%
D47*
%TO.C,J1*%
X130724620Y-44500000D03*
D48*
X133464620Y-44500000D03*
X136204620Y-44500000D03*
X138944620Y-44500000D03*
X141684620Y-44500000D03*
X144424620Y-44500000D03*
X147164620Y-44500000D03*
X149904620Y-44500000D03*
X132094620Y-41660000D03*
X134834620Y-41660000D03*
X137574620Y-41660000D03*
X140314620Y-41660000D03*
X143054620Y-41660000D03*
X145794620Y-41660000D03*
X148534620Y-41660000D03*
D49*
X156974620Y-43080000D03*
X123654620Y-43080000D03*
%TD*%
D13*
%TO.C,R79*%
X248693110Y-78440000D03*
X247043110Y-78440000D03*
%TD*%
D50*
%TO.C,D5*%
X250525000Y-136273759D03*
X252725000Y-136273759D03*
%TD*%
D26*
%TO.C,C51*%
X198625000Y-98280000D03*
X200175000Y-98280000D03*
%TD*%
D13*
%TO.C,R22*%
X108291549Y-84175000D03*
X106641549Y-84175000D03*
%TD*%
D25*
%TO.C,R17*%
X134260395Y-122075000D03*
X134260395Y-120425000D03*
%TD*%
D12*
%TO.C,R56*%
X234350000Y-83392565D03*
X236000000Y-83392565D03*
%TD*%
D18*
%TO.C,C22*%
X157625000Y-119613294D03*
X160575000Y-119613294D03*
%TD*%
%TO.C,C12*%
X142200000Y-73172963D03*
X145150000Y-73172963D03*
%TD*%
D12*
%TO.C,R7*%
X138100000Y-99575000D03*
X139750000Y-99575000D03*
%TD*%
D11*
%TO.C,R9*%
X138200000Y-101408088D03*
X138200000Y-103058088D03*
%TD*%
D23*
%TO.C,C15*%
X147950000Y-107250022D03*
X147950000Y-104300022D03*
%TD*%
D13*
%TO.C,R54*%
X212590000Y-111031664D03*
X210940000Y-111031664D03*
%TD*%
D25*
%TO.C,R53*%
X210940000Y-114899979D03*
X210940000Y-113249979D03*
%TD*%
D51*
%TO.C,D2*%
X101698389Y-50273123D03*
X103273389Y-50273123D03*
%TD*%
D14*
%TO.C,C43*%
X184250000Y-97675000D03*
X182700000Y-97675000D03*
%TD*%
D13*
%TO.C,R81*%
X248674933Y-106570000D03*
X247024933Y-106570000D03*
%TD*%
D25*
%TO.C,R39*%
X164725000Y-81575000D03*
X164725000Y-79925000D03*
%TD*%
D29*
%TO.C,J8*%
X256125000Y-64405000D03*
D30*
X252950000Y-61230000D03*
X259300000Y-61230000D03*
X252950000Y-67580000D03*
X259300000Y-67580000D03*
%TD*%
D18*
%TO.C,C6*%
X147400000Y-90150000D03*
X150350000Y-90150000D03*
%TD*%
D12*
%TO.C,R49*%
X198775000Y-96425000D03*
X200425000Y-96425000D03*
%TD*%
%TO.C,R28*%
X245250000Y-132996396D03*
X246900000Y-132996396D03*
%TD*%
D52*
%TO.C,R45*%
X187850000Y-99825000D03*
X187850000Y-101650000D03*
%TD*%
D11*
%TO.C,R18*%
X136245676Y-120425000D03*
X136245676Y-122075000D03*
%TD*%
D33*
%TO.C,C26*%
X150025000Y-126341738D03*
X150025000Y-129291738D03*
%TD*%
D29*
%TO.C,J9*%
X256122175Y-78435000D03*
D30*
X252947175Y-75260000D03*
X259297175Y-75260000D03*
X252947175Y-81610000D03*
X259297175Y-81610000D03*
%TD*%
D13*
%TO.C,R78*%
X248641884Y-64402932D03*
X246991884Y-64402932D03*
%TD*%
D14*
%TO.C,C16*%
X131166182Y-110750000D03*
X129616182Y-110750000D03*
%TD*%
D43*
%TO.C,C28*%
X146377804Y-123475000D03*
X143427804Y-123475000D03*
%TD*%
D53*
%TO.C,J5*%
X112615423Y-111172711D03*
D54*
X112615423Y-116252711D03*
X112615423Y-121332711D03*
X112615423Y-126412711D03*
%TD*%
D55*
%TO.C,IC4*%
X232610000Y-86364000D03*
X231960000Y-86364000D03*
X231310000Y-86364000D03*
X230660000Y-86364000D03*
X230010000Y-86364000D03*
X229360000Y-86364000D03*
X228710000Y-86364000D03*
X228710000Y-92240000D03*
X229360000Y-92240000D03*
X230010000Y-92240000D03*
X230660000Y-92240000D03*
X231310000Y-92240000D03*
X231960000Y-92240000D03*
X232610000Y-92240000D03*
%TD*%
D11*
%TO.C,R40*%
X164723439Y-86825000D03*
X164723439Y-88475000D03*
%TD*%
D14*
%TO.C,C46*%
X210636066Y-90819419D03*
X209086066Y-90819419D03*
%TD*%
D25*
%TO.C,R63*%
X228790000Y-81610000D03*
X228790000Y-79960000D03*
%TD*%
D53*
%TO.C,J4*%
X213055000Y-45600000D03*
D54*
X207975000Y-45600000D03*
X202895000Y-45600000D03*
X197815000Y-45600000D03*
X192735000Y-45600000D03*
X187655000Y-45600000D03*
X182575000Y-45600000D03*
X177495000Y-45600000D03*
X172415000Y-45600000D03*
X167335000Y-45600000D03*
%TD*%
D31*
%TO.C,LDTC COM*%
X247421495Y-71975000D03*
%TD*%
D38*
%TO.C,C61*%
X225569358Y-85670000D03*
X225569358Y-87220000D03*
%TD*%
D13*
%TO.C,R73*%
X216374824Y-111025000D03*
X214724824Y-111025000D03*
%TD*%
%TO.C,R59*%
X228785000Y-83390000D03*
X227135000Y-83390000D03*
%TD*%
D56*
%TO.C,C66*%
X234280000Y-92238496D03*
X234280000Y-93198496D03*
%TD*%
D11*
%TO.C,R34*%
X176575000Y-82425000D03*
X176575000Y-84075000D03*
%TD*%
D14*
%TO.C,C54*%
X194216709Y-102264286D03*
X192666709Y-102264286D03*
%TD*%
D56*
%TO.C,C63*%
X227142569Y-92240000D03*
X227142569Y-93200000D03*
%TD*%
D38*
%TO.C,C69*%
X230671711Y-94520000D03*
X230671711Y-96070000D03*
%TD*%
D37*
%TO.C,C67*%
X235910000Y-93201856D03*
X235910000Y-91651856D03*
%TD*%
D25*
%TO.C,R20*%
X104600000Y-83172794D03*
X104600000Y-81522794D03*
%TD*%
D38*
%TO.C,C44*%
X214825000Y-84375000D03*
X214825000Y-85925000D03*
%TD*%
D12*
%TO.C,R35*%
X163150000Y-85075000D03*
X164800000Y-85075000D03*
%TD*%
D11*
%TO.C,R42*%
X180300000Y-64805321D03*
X180300000Y-66455321D03*
%TD*%
D12*
%TO.C,R52*%
X196300000Y-102276474D03*
X197950000Y-102276474D03*
%TD*%
D43*
%TO.C,C7*%
X130100000Y-80380610D03*
X127150000Y-80380610D03*
%TD*%
D25*
%TO.C,R62*%
X225850000Y-81613144D03*
X225850000Y-79963144D03*
%TD*%
D39*
%TO.C,EXT T TEST*%
X226330000Y-114893330D03*
%TD*%
D14*
%TO.C,C41*%
X180042072Y-89975000D03*
X178492072Y-89975000D03*
%TD*%
D31*
%TO.C,LDTC COM*%
X247404464Y-85550000D03*
%TD*%
D39*
%TO.C,+5V*%
X142125000Y-126875000D03*
%TD*%
D11*
%TO.C,R77*%
X222350000Y-113259045D03*
X222350000Y-114909045D03*
%TD*%
D31*
%TO.C,LDTC COM*%
X247373415Y-58075000D03*
%TD*%
D13*
%TO.C,R2*%
X130130762Y-96075000D03*
X128480762Y-96075000D03*
%TD*%
D57*
%TO.C,IC3*%
X212100000Y-86325000D03*
X212100000Y-85675000D03*
X212100000Y-85025000D03*
X212100000Y-84375000D03*
X207700000Y-84375000D03*
X207700000Y-85025000D03*
X207700000Y-85675000D03*
X207700000Y-86325000D03*
%TD*%
D38*
%TO.C,C40*%
X167400000Y-86075000D03*
X167400000Y-87625000D03*
%TD*%
D58*
%TO.C,J12*%
X236200000Y-122829916D03*
X238740000Y-122829916D03*
X236200000Y-125369916D03*
X238740000Y-125369916D03*
X236200000Y-127909916D03*
X238740000Y-127909916D03*
X236200000Y-130449916D03*
X238740000Y-130449916D03*
X236200000Y-132989916D03*
X238740000Y-132989916D03*
X236200000Y-135529916D03*
X238740000Y-135529916D03*
%TD*%
D25*
%TO.C,R75*%
X238170000Y-96327814D03*
X238170000Y-94677814D03*
%TD*%
D17*
%TO.C,R25*%
X169212500Y-135069881D03*
X171037500Y-135069881D03*
%TD*%
D14*
%TO.C,C2*%
X131200000Y-91975000D03*
X129650000Y-91975000D03*
%TD*%
D33*
%TO.C,C25*%
X153900000Y-126308198D03*
X153900000Y-129258198D03*
%TD*%
D38*
%TO.C,C31*%
X115800000Y-85775000D03*
X115800000Y-87325000D03*
%TD*%
D29*
%TO.C,J11*%
X256132531Y-106575000D03*
D30*
X252957531Y-103400000D03*
X259307531Y-103400000D03*
X252957531Y-109750000D03*
X259307531Y-109750000D03*
%TD*%
D38*
%TO.C,C49*%
X205150000Y-83538529D03*
X205150000Y-85088529D03*
%TD*%
D43*
%TO.C,C8*%
X130091614Y-76825000D03*
X127141614Y-76825000D03*
%TD*%
D32*
%TO.C,L3*%
X136175000Y-84815000D03*
X136175000Y-80775000D03*
%TD*%
D25*
%TO.C,R37*%
X169675000Y-82450000D03*
X169675000Y-80800000D03*
%TD*%
D11*
%TO.C,R74*%
X235910000Y-96809339D03*
X235910000Y-98459339D03*
%TD*%
D18*
%TO.C,C17*%
X150333022Y-111225000D03*
X153283022Y-111225000D03*
%TD*%
D17*
%TO.C,R26*%
X117541735Y-116250000D03*
X119366735Y-116250000D03*
%TD*%
D12*
%TO.C,R12*%
X128479098Y-116818258D03*
X130129098Y-116818258D03*
%TD*%
D59*
%TO.C,U2*%
X135270236Y-115611100D03*
X134770237Y-115611100D03*
X134270236Y-115611100D03*
X133770236Y-115611100D03*
X133270235Y-115611100D03*
X132770236Y-115611100D03*
D60*
X132127936Y-116258099D03*
X132127936Y-116758100D03*
X132127936Y-117258100D03*
X132127936Y-117758101D03*
D59*
X132770236Y-118405100D03*
X133270235Y-118405100D03*
X133770236Y-118405100D03*
X134270236Y-118405100D03*
X134770237Y-118405100D03*
X135270236Y-118405100D03*
D60*
X135912536Y-117758101D03*
X135912536Y-117258100D03*
X135912536Y-116758100D03*
X135912536Y-116258099D03*
D61*
X134020236Y-117008100D03*
D62*
X135823636Y-115700000D03*
X132216836Y-115700000D03*
X135823636Y-118316200D03*
X132216836Y-118316200D03*
%TD*%
D12*
%TO.C,R50*%
X192550490Y-104125000D03*
X194200490Y-104125000D03*
%TD*%
D25*
%TO.C,R55*%
X236190000Y-81623158D03*
X236190000Y-79973158D03*
%TD*%
%TO.C,R31*%
X176650000Y-90400000D03*
X176650000Y-88750000D03*
%TD*%
D23*
%TO.C,C21*%
X145600000Y-120413512D03*
X145600000Y-117463512D03*
%TD*%
D14*
%TO.C,C3*%
X132571688Y-105075000D03*
X131021688Y-105075000D03*
%TD*%
D40*
%TO.C,L2*%
X139608022Y-111450000D03*
X143648022Y-111450000D03*
%TD*%
D25*
%TO.C,R57*%
X234370000Y-81612197D03*
X234370000Y-79962197D03*
%TD*%
D41*
%TO.C,TP4*%
X209950000Y-78250000D03*
%TD*%
D28*
%TO.C,C55*%
X234190000Y-86361210D03*
X234190000Y-85401210D03*
%TD*%
D25*
%TO.C,R71*%
X234260000Y-96325000D03*
X234260000Y-94675000D03*
%TD*%
D35*
%TO.C,REF\u002A\u002A*%
X261187111Y-37850000D03*
%TD*%
%TO.C,REF\u002A\u002A*%
X104750000Y-134925000D03*
%TD*%
D11*
%TO.C,R69*%
X228790000Y-96820000D03*
X228790000Y-98470000D03*
%TD*%
D44*
%TO.C,R46*%
X189450000Y-104125000D03*
X187625000Y-104125000D03*
%TD*%
D63*
%TO.C,J3*%
X114950000Y-63750000D03*
X108700000Y-63750000D03*
D64*
X111824998Y-68550001D03*
%TD*%
D26*
%TO.C,C30*%
X117458145Y-83593703D03*
X119008145Y-83593703D03*
%TD*%
%TO.C,C29*%
X117465340Y-81618703D03*
X119015340Y-81618703D03*
%TD*%
D38*
%TO.C,C45*%
X217225000Y-84375276D03*
X217225000Y-85925276D03*
%TD*%
D14*
%TO.C,C48*%
X205175000Y-87091814D03*
X203625000Y-87091814D03*
%TD*%
D65*
%TO.C,IC1*%
X174075000Y-86075000D03*
X174075000Y-85575000D03*
X174075000Y-85075000D03*
X174075000Y-84575000D03*
X174075000Y-84075000D03*
X169675000Y-84075000D03*
X169675000Y-84575000D03*
X169675000Y-85075000D03*
X169675000Y-85575000D03*
X169675000Y-86075000D03*
%TD*%
D12*
%TO.C,R30*%
X178450000Y-85601460D03*
X180100000Y-85601460D03*
%TD*%
D39*
%TO.C,EXT LD SET*%
X186990000Y-110350000D03*
%TD*%
D25*
%TO.C,R60*%
X207150000Y-114891216D03*
X207150000Y-113241216D03*
%TD*%
D66*
%TO.C,J2 LDTC (CONTROL)*%
X184255000Y-128682663D03*
D67*
X188065000Y-128682663D03*
X191875000Y-128682663D03*
X195685000Y-128682663D03*
X199495000Y-128682663D03*
X203305000Y-128682663D03*
X207115000Y-128682663D03*
X210925000Y-128682663D03*
X214735000Y-128682663D03*
X218545000Y-128682663D03*
X222355000Y-128682663D03*
X226165000Y-128682663D03*
%TD*%
D51*
%TO.C,D1*%
X101700116Y-47723123D03*
X103275116Y-47723123D03*
%TD*%
D59*
%TO.C,U1*%
X135272430Y-96725000D03*
X134772431Y-96725000D03*
X134272430Y-96725000D03*
X133772430Y-96725000D03*
X133272429Y-96725000D03*
X132772430Y-96725000D03*
D60*
X132130130Y-97371999D03*
X132130130Y-97872000D03*
X132130130Y-98372000D03*
X132130130Y-98872001D03*
D59*
X132772430Y-99519000D03*
X133272429Y-99519000D03*
X133772430Y-99519000D03*
X134272430Y-99519000D03*
X134772431Y-99519000D03*
X135272430Y-99519000D03*
D60*
X135914730Y-98872001D03*
X135914730Y-98372000D03*
X135914730Y-97872000D03*
X135914730Y-97371999D03*
D61*
X134022430Y-98122000D03*
D62*
X135825830Y-96813900D03*
X132219030Y-96813900D03*
X135825830Y-99430100D03*
X132219030Y-99430100D03*
%TD*%
D44*
%TO.C,R33*%
X190450000Y-94400000D03*
X188625000Y-94400000D03*
%TD*%
D26*
%TO.C,C52 *%
X199530000Y-112800000D03*
X201080000Y-112800000D03*
%TD*%
D68*
%TO.C,F1*%
X118019162Y-67675001D03*
X118019162Y-72675001D03*
%TD*%
D14*
%TO.C,C53*%
X180047566Y-87622506D03*
X178497566Y-87622506D03*
%TD*%
D11*
%TO.C,R29*%
X246877852Y-134900000D03*
X246877852Y-136550000D03*
%TD*%
D37*
%TO.C,C64*%
X225569358Y-93220000D03*
X225569358Y-91670000D03*
%TD*%
D39*
%TO.C,BUFF SUM*%
X200300000Y-106750000D03*
%TD*%
D25*
%TO.C,R66*%
X218550000Y-114903271D03*
X218550000Y-113253271D03*
%TD*%
D13*
%TO.C,R70*%
X246088067Y-124670000D03*
X244438067Y-124670000D03*
%TD*%
D69*
%TO.C,IC2*%
X190462000Y-96325000D03*
X190462000Y-96975000D03*
X190462000Y-97625000D03*
X190462000Y-98275000D03*
X190462000Y-98925000D03*
X190462000Y-99575000D03*
X190462000Y-100225000D03*
X196338000Y-100225000D03*
X196338000Y-99575000D03*
X196338000Y-98925000D03*
X196338000Y-98275000D03*
X196338000Y-97625000D03*
X196338000Y-96975000D03*
X196338000Y-96325000D03*
%TD*%
D70*
%TO.C,D4*%
X110159573Y-98125000D03*
X114159573Y-98125000D03*
%TD*%
D37*
%TO.C,C36*%
X104300000Y-92272043D03*
X104300000Y-90722043D03*
%TD*%
D71*
X134940000Y-116533120D03*
X133139395Y-98476880D03*
X134949395Y-117273120D03*
X133129395Y-117280000D03*
X133120000Y-116540000D03*
X134029395Y-117296556D03*
X134020000Y-116556556D03*
X134030000Y-97753436D03*
X133130000Y-97736880D03*
X134039395Y-98493436D03*
X134959395Y-98470000D03*
X134950000Y-97730000D03*
M02*
