%TF.GenerationSoftware,KiCad,Pcbnew,10.0.3*%
%TF.CreationDate,2026-08-08T18:03:59-05:00*%
%TF.ProjectId,780nm-ecdl-grating,3738306e-6d2d-4656-9364-6c2d67726174,rev?*%
%TF.SameCoordinates,Original*%
%TF.FileFunction,Legend,Bot*%
%TF.FilePolarity,Positive*%
%FSLAX46Y46*%
G04 Gerber Fmt 4.6, Leading zero omitted, Abs format (unit mm)*
G04 Created by KiCad (PCBNEW 10.0.3) date 2026-08-08 18:03:59*
%MOMM*%
%LPD*%
G01*
G04 APERTURE LIST*
%ADD10C,0.150000*%
%ADD11C,0.508000*%
G04 APERTURE END LIST*
D10*
X169539285Y-43922256D02*
X169410714Y-43969875D01*
X169410714Y-43969875D02*
X169196428Y-43969875D01*
X169196428Y-43969875D02*
X169110714Y-43922256D01*
X169110714Y-43922256D02*
X169067856Y-43874636D01*
X169067856Y-43874636D02*
X169024999Y-43779398D01*
X169024999Y-43779398D02*
X169024999Y-43684160D01*
X169024999Y-43684160D02*
X169067856Y-43588922D01*
X169067856Y-43588922D02*
X169110714Y-43541303D01*
X169110714Y-43541303D02*
X169196428Y-43493684D01*
X169196428Y-43493684D02*
X169367856Y-43446065D01*
X169367856Y-43446065D02*
X169453571Y-43398446D01*
X169453571Y-43398446D02*
X169496428Y-43350827D01*
X169496428Y-43350827D02*
X169539285Y-43255589D01*
X169539285Y-43255589D02*
X169539285Y-43160351D01*
X169539285Y-43160351D02*
X169496428Y-43065113D01*
X169496428Y-43065113D02*
X169453571Y-43017494D01*
X169453571Y-43017494D02*
X169367856Y-42969875D01*
X169367856Y-42969875D02*
X169153571Y-42969875D01*
X169153571Y-42969875D02*
X169024999Y-43017494D01*
X168767856Y-42969875D02*
X168253571Y-42969875D01*
X168510713Y-43969875D02*
X168510713Y-42969875D01*
X167996428Y-43684160D02*
X167567857Y-43684160D01*
X168082142Y-43969875D02*
X167782142Y-42969875D01*
X167782142Y-42969875D02*
X167482142Y-43969875D01*
X166667856Y-43969875D02*
X166967856Y-43493684D01*
X167182142Y-43969875D02*
X167182142Y-42969875D01*
X167182142Y-42969875D02*
X166839285Y-42969875D01*
X166839285Y-42969875D02*
X166753570Y-43017494D01*
X166753570Y-43017494D02*
X166710713Y-43065113D01*
X166710713Y-43065113D02*
X166667856Y-43160351D01*
X166667856Y-43160351D02*
X166667856Y-43303208D01*
X166667856Y-43303208D02*
X166710713Y-43398446D01*
X166710713Y-43398446D02*
X166753570Y-43446065D01*
X166753570Y-43446065D02*
X166839285Y-43493684D01*
X166839285Y-43493684D02*
X167182142Y-43493684D01*
X166410713Y-42969875D02*
X165896428Y-42969875D01*
X166153570Y-43969875D02*
X166153570Y-42969875D01*
X165596428Y-42969875D02*
X165596428Y-43779398D01*
X165596428Y-43779398D02*
X165553571Y-43874636D01*
X165553571Y-43874636D02*
X165510714Y-43922256D01*
X165510714Y-43922256D02*
X165424999Y-43969875D01*
X165424999Y-43969875D02*
X165253571Y-43969875D01*
X165253571Y-43969875D02*
X165167856Y-43922256D01*
X165167856Y-43922256D02*
X165124999Y-43874636D01*
X165124999Y-43874636D02*
X165082142Y-43779398D01*
X165082142Y-43779398D02*
X165082142Y-42969875D01*
X164653571Y-43969875D02*
X164653571Y-42969875D01*
X164653571Y-42969875D02*
X164310714Y-42969875D01*
X164310714Y-42969875D02*
X164224999Y-43017494D01*
X164224999Y-43017494D02*
X164182142Y-43065113D01*
X164182142Y-43065113D02*
X164139285Y-43160351D01*
X164139285Y-43160351D02*
X164139285Y-43303208D01*
X164139285Y-43303208D02*
X164182142Y-43398446D01*
X164182142Y-43398446D02*
X164224999Y-43446065D01*
X164224999Y-43446065D02*
X164310714Y-43493684D01*
X164310714Y-43493684D02*
X164653571Y-43493684D01*
X163753571Y-43874636D02*
X163710714Y-43922256D01*
X163710714Y-43922256D02*
X163753571Y-43969875D01*
X163753571Y-43969875D02*
X163796428Y-43922256D01*
X163796428Y-43922256D02*
X163753571Y-43874636D01*
X163753571Y-43874636D02*
X163753571Y-43969875D01*
X163753571Y-43350827D02*
X163710714Y-43398446D01*
X163710714Y-43398446D02*
X163753571Y-43446065D01*
X163753571Y-43446065D02*
X163796428Y-43398446D01*
X163796428Y-43398446D02*
X163753571Y-43350827D01*
X163753571Y-43350827D02*
X163753571Y-43446065D01*
X180703570Y-45056009D02*
X180403570Y-45056009D01*
X180274998Y-45579819D02*
X180703570Y-45579819D01*
X180703570Y-45579819D02*
X180703570Y-44579819D01*
X180703570Y-44579819D02*
X180274998Y-44579819D01*
X179246427Y-44532200D02*
X180017855Y-45817914D01*
X178946427Y-45579819D02*
X178946427Y-44579819D01*
X178946427Y-44579819D02*
X178732141Y-44579819D01*
X178732141Y-44579819D02*
X178603570Y-44627438D01*
X178603570Y-44627438D02*
X178517855Y-44722676D01*
X178517855Y-44722676D02*
X178474998Y-44817914D01*
X178474998Y-44817914D02*
X178432141Y-45008390D01*
X178432141Y-45008390D02*
X178432141Y-45151247D01*
X178432141Y-45151247D02*
X178474998Y-45341723D01*
X178474998Y-45341723D02*
X178517855Y-45436961D01*
X178517855Y-45436961D02*
X178603570Y-45532200D01*
X178603570Y-45532200D02*
X178732141Y-45579819D01*
X178732141Y-45579819D02*
X178946427Y-45579819D01*
X176932141Y-45579819D02*
X177360713Y-45579819D01*
X177360713Y-45579819D02*
X177360713Y-44579819D01*
X176460713Y-44579819D02*
X176289285Y-44579819D01*
X176289285Y-44579819D02*
X176203570Y-44627438D01*
X176203570Y-44627438D02*
X176117856Y-44722676D01*
X176117856Y-44722676D02*
X176074999Y-44913152D01*
X176074999Y-44913152D02*
X176074999Y-45246485D01*
X176074999Y-45246485D02*
X176117856Y-45436961D01*
X176117856Y-45436961D02*
X176203570Y-45532200D01*
X176203570Y-45532200D02*
X176289285Y-45579819D01*
X176289285Y-45579819D02*
X176460713Y-45579819D01*
X176460713Y-45579819D02*
X176546428Y-45532200D01*
X176546428Y-45532200D02*
X176632142Y-45436961D01*
X176632142Y-45436961D02*
X176674999Y-45246485D01*
X176674999Y-45246485D02*
X176674999Y-44913152D01*
X176674999Y-44913152D02*
X176632142Y-44722676D01*
X176632142Y-44722676D02*
X176546428Y-44627438D01*
X176546428Y-44627438D02*
X176460713Y-44579819D01*
X175774999Y-44579819D02*
X175560713Y-45579819D01*
X175560713Y-45579819D02*
X175389285Y-44865533D01*
X175389285Y-44865533D02*
X175217856Y-45579819D01*
X175217856Y-45579819D02*
X175003571Y-44579819D01*
X173975000Y-45198866D02*
X173289286Y-45198866D01*
X173460714Y-45389342D02*
X173289286Y-45198866D01*
X173289286Y-45198866D02*
X173460714Y-45008390D01*
X171660714Y-45579819D02*
X171960714Y-45103628D01*
X172175000Y-45579819D02*
X172175000Y-44579819D01*
X172175000Y-44579819D02*
X171832143Y-44579819D01*
X171832143Y-44579819D02*
X171746428Y-44627438D01*
X171746428Y-44627438D02*
X171703571Y-44675057D01*
X171703571Y-44675057D02*
X171660714Y-44770295D01*
X171660714Y-44770295D02*
X171660714Y-44913152D01*
X171660714Y-44913152D02*
X171703571Y-45008390D01*
X171703571Y-45008390D02*
X171746428Y-45056009D01*
X171746428Y-45056009D02*
X171832143Y-45103628D01*
X171832143Y-45103628D02*
X172175000Y-45103628D01*
X171275000Y-45579819D02*
X171275000Y-44579819D01*
X171275000Y-44579819D02*
X170932143Y-44579819D01*
X170932143Y-44579819D02*
X170846428Y-44627438D01*
X170846428Y-44627438D02*
X170803571Y-44675057D01*
X170803571Y-44675057D02*
X170760714Y-44770295D01*
X170760714Y-44770295D02*
X170760714Y-44913152D01*
X170760714Y-44913152D02*
X170803571Y-45008390D01*
X170803571Y-45008390D02*
X170846428Y-45056009D01*
X170846428Y-45056009D02*
X170932143Y-45103628D01*
X170932143Y-45103628D02*
X171275000Y-45103628D01*
X169689286Y-45579819D02*
X169689286Y-44579819D01*
X169689286Y-44579819D02*
X169475000Y-44579819D01*
X169475000Y-44579819D02*
X169346429Y-44627438D01*
X169346429Y-44627438D02*
X169260714Y-44722676D01*
X169260714Y-44722676D02*
X169217857Y-44817914D01*
X169217857Y-44817914D02*
X169175000Y-45008390D01*
X169175000Y-45008390D02*
X169175000Y-45151247D01*
X169175000Y-45151247D02*
X169217857Y-45341723D01*
X169217857Y-45341723D02*
X169260714Y-45436961D01*
X169260714Y-45436961D02*
X169346429Y-45532200D01*
X169346429Y-45532200D02*
X169475000Y-45579819D01*
X169475000Y-45579819D02*
X169689286Y-45579819D01*
X168832143Y-45294104D02*
X168403572Y-45294104D01*
X168917857Y-45579819D02*
X168617857Y-44579819D01*
X168617857Y-44579819D02*
X168317857Y-45579819D01*
X167503571Y-45484580D02*
X167546428Y-45532200D01*
X167546428Y-45532200D02*
X167675000Y-45579819D01*
X167675000Y-45579819D02*
X167760714Y-45579819D01*
X167760714Y-45579819D02*
X167889285Y-45532200D01*
X167889285Y-45532200D02*
X167975000Y-45436961D01*
X167975000Y-45436961D02*
X168017857Y-45341723D01*
X168017857Y-45341723D02*
X168060714Y-45151247D01*
X168060714Y-45151247D02*
X168060714Y-45008390D01*
X168060714Y-45008390D02*
X168017857Y-44817914D01*
X168017857Y-44817914D02*
X167975000Y-44722676D01*
X167975000Y-44722676D02*
X167889285Y-44627438D01*
X167889285Y-44627438D02*
X167760714Y-44579819D01*
X167760714Y-44579819D02*
X167675000Y-44579819D01*
X167675000Y-44579819D02*
X167546428Y-44627438D01*
X167546428Y-44627438D02*
X167503571Y-44675057D01*
X166432143Y-45056009D02*
X165746429Y-45056009D01*
X165746429Y-45341723D02*
X166432143Y-45341723D01*
X164460714Y-44579819D02*
X164375000Y-44579819D01*
X164375000Y-44579819D02*
X164289286Y-44627438D01*
X164289286Y-44627438D02*
X164246429Y-44675057D01*
X164246429Y-44675057D02*
X164203571Y-44770295D01*
X164203571Y-44770295D02*
X164160714Y-44960771D01*
X164160714Y-44960771D02*
X164160714Y-45198866D01*
X164160714Y-45198866D02*
X164203571Y-45389342D01*
X164203571Y-45389342D02*
X164246429Y-45484580D01*
X164246429Y-45484580D02*
X164289286Y-45532200D01*
X164289286Y-45532200D02*
X164375000Y-45579819D01*
X164375000Y-45579819D02*
X164460714Y-45579819D01*
X164460714Y-45579819D02*
X164546429Y-45532200D01*
X164546429Y-45532200D02*
X164589286Y-45484580D01*
X164589286Y-45484580D02*
X164632143Y-45389342D01*
X164632143Y-45389342D02*
X164675000Y-45198866D01*
X164675000Y-45198866D02*
X164675000Y-44960771D01*
X164675000Y-44960771D02*
X164632143Y-44770295D01*
X164632143Y-44770295D02*
X164589286Y-44675057D01*
X164589286Y-44675057D02*
X164546429Y-44627438D01*
X164546429Y-44627438D02*
X164460714Y-44579819D01*
X163217857Y-44579819D02*
X162917857Y-45579819D01*
X162917857Y-45579819D02*
X162617857Y-44579819D01*
X161632143Y-45198866D02*
X160946429Y-45198866D01*
X161117857Y-45389342D02*
X160946429Y-45198866D01*
X160946429Y-45198866D02*
X161117857Y-45008390D01*
X159832143Y-45198866D02*
X159146429Y-45198866D01*
X159489286Y-45579819D02*
X159489286Y-44817914D01*
X158246428Y-45579819D02*
X158760714Y-45579819D01*
X158503571Y-45579819D02*
X158503571Y-44579819D01*
X158503571Y-44579819D02*
X158589285Y-44722676D01*
X158589285Y-44722676D02*
X158675000Y-44817914D01*
X158675000Y-44817914D02*
X158760714Y-44865533D01*
X157432142Y-44579819D02*
X157860714Y-44579819D01*
X157860714Y-44579819D02*
X157903571Y-45056009D01*
X157903571Y-45056009D02*
X157860714Y-45008390D01*
X157860714Y-45008390D02*
X157775000Y-44960771D01*
X157775000Y-44960771D02*
X157560714Y-44960771D01*
X157560714Y-44960771D02*
X157475000Y-45008390D01*
X157475000Y-45008390D02*
X157432142Y-45056009D01*
X157432142Y-45056009D02*
X157389285Y-45151247D01*
X157389285Y-45151247D02*
X157389285Y-45389342D01*
X157389285Y-45389342D02*
X157432142Y-45484580D01*
X157432142Y-45484580D02*
X157475000Y-45532200D01*
X157475000Y-45532200D02*
X157560714Y-45579819D01*
X157560714Y-45579819D02*
X157775000Y-45579819D01*
X157775000Y-45579819D02*
X157860714Y-45532200D01*
X157860714Y-45532200D02*
X157903571Y-45484580D01*
X156574999Y-44579819D02*
X157003571Y-44579819D01*
X157003571Y-44579819D02*
X157046428Y-45056009D01*
X157046428Y-45056009D02*
X157003571Y-45008390D01*
X157003571Y-45008390D02*
X156917857Y-44960771D01*
X156917857Y-44960771D02*
X156703571Y-44960771D01*
X156703571Y-44960771D02*
X156617857Y-45008390D01*
X156617857Y-45008390D02*
X156574999Y-45056009D01*
X156574999Y-45056009D02*
X156532142Y-45151247D01*
X156532142Y-45151247D02*
X156532142Y-45389342D01*
X156532142Y-45389342D02*
X156574999Y-45484580D01*
X156574999Y-45484580D02*
X156617857Y-45532200D01*
X156617857Y-45532200D02*
X156703571Y-45579819D01*
X156703571Y-45579819D02*
X156917857Y-45579819D01*
X156917857Y-45579819D02*
X157003571Y-45532200D01*
X157003571Y-45532200D02*
X157046428Y-45484580D01*
X155589285Y-44579819D02*
X155289285Y-45579819D01*
X155289285Y-45579819D02*
X154989285Y-44579819D01*
X153832142Y-44579819D02*
X153660714Y-44579819D01*
X153660714Y-44579819D02*
X153574999Y-44627438D01*
X153574999Y-44627438D02*
X153489285Y-44722676D01*
X153489285Y-44722676D02*
X153446428Y-44913152D01*
X153446428Y-44913152D02*
X153446428Y-45246485D01*
X153446428Y-45246485D02*
X153489285Y-45436961D01*
X153489285Y-45436961D02*
X153574999Y-45532200D01*
X153574999Y-45532200D02*
X153660714Y-45579819D01*
X153660714Y-45579819D02*
X153832142Y-45579819D01*
X153832142Y-45579819D02*
X153917857Y-45532200D01*
X153917857Y-45532200D02*
X154003571Y-45436961D01*
X154003571Y-45436961D02*
X154046428Y-45246485D01*
X154046428Y-45246485D02*
X154046428Y-44913152D01*
X154046428Y-44913152D02*
X154003571Y-44722676D01*
X154003571Y-44722676D02*
X153917857Y-44627438D01*
X153917857Y-44627438D02*
X153832142Y-44579819D01*
X153060714Y-45579819D02*
X153060714Y-44579819D01*
X153060714Y-44579819D02*
X152546428Y-45579819D01*
X152546428Y-45579819D02*
X152546428Y-44579819D01*
X180232141Y-46808810D02*
X179546427Y-46808810D01*
X179717855Y-46999286D02*
X179546427Y-46808810D01*
X179546427Y-46808810D02*
X179717855Y-46618334D01*
X178432141Y-46618334D02*
X177746427Y-46618334D01*
X178089284Y-46999286D02*
X178089284Y-46237382D01*
X177746427Y-47189763D02*
X178432141Y-47189763D01*
X176889283Y-47189763D02*
X177317855Y-47189763D01*
X177317855Y-47189763D02*
X177317855Y-46189763D01*
X176717855Y-46189763D02*
X176417855Y-47189763D01*
X176417855Y-47189763D02*
X176117855Y-46189763D01*
X174960712Y-46189763D02*
X174789284Y-46189763D01*
X174789284Y-46189763D02*
X174703569Y-46237382D01*
X174703569Y-46237382D02*
X174617855Y-46332620D01*
X174617855Y-46332620D02*
X174574998Y-46523096D01*
X174574998Y-46523096D02*
X174574998Y-46856429D01*
X174574998Y-46856429D02*
X174617855Y-47046905D01*
X174617855Y-47046905D02*
X174703569Y-47142144D01*
X174703569Y-47142144D02*
X174789284Y-47189763D01*
X174789284Y-47189763D02*
X174960712Y-47189763D01*
X174960712Y-47189763D02*
X175046427Y-47142144D01*
X175046427Y-47142144D02*
X175132141Y-47046905D01*
X175132141Y-47046905D02*
X175174998Y-46856429D01*
X175174998Y-46856429D02*
X175174998Y-46523096D01*
X175174998Y-46523096D02*
X175132141Y-46332620D01*
X175132141Y-46332620D02*
X175046427Y-46237382D01*
X175046427Y-46237382D02*
X174960712Y-46189763D01*
X174189284Y-47189763D02*
X174189284Y-46189763D01*
X174189284Y-46189763D02*
X173674998Y-47189763D01*
X173674998Y-47189763D02*
X173674998Y-46189763D01*
X172560713Y-46808810D02*
X171874999Y-46808810D01*
X172046427Y-46999286D02*
X171874999Y-46808810D01*
X171874999Y-46808810D02*
X172046427Y-46618334D01*
X170846427Y-46189763D02*
X170632141Y-47189763D01*
X170632141Y-47189763D02*
X170460713Y-46475477D01*
X170460713Y-46475477D02*
X170289284Y-47189763D01*
X170289284Y-47189763D02*
X170074999Y-46189763D01*
X169774999Y-46904048D02*
X169346428Y-46904048D01*
X169860713Y-47189763D02*
X169560713Y-46189763D01*
X169560713Y-46189763D02*
X169260713Y-47189763D01*
X168960713Y-47189763D02*
X168960713Y-46189763D01*
X168660713Y-46189763D02*
X168146428Y-46189763D01*
X168403570Y-47189763D02*
X168403570Y-46189763D01*
X166989285Y-46189763D02*
X166903571Y-46189763D01*
X166903571Y-46189763D02*
X166817857Y-46237382D01*
X166817857Y-46237382D02*
X166775000Y-46285001D01*
X166775000Y-46285001D02*
X166732142Y-46380239D01*
X166732142Y-46380239D02*
X166689285Y-46570715D01*
X166689285Y-46570715D02*
X166689285Y-46808810D01*
X166689285Y-46808810D02*
X166732142Y-46999286D01*
X166732142Y-46999286D02*
X166775000Y-47094524D01*
X166775000Y-47094524D02*
X166817857Y-47142144D01*
X166817857Y-47142144D02*
X166903571Y-47189763D01*
X166903571Y-47189763D02*
X166989285Y-47189763D01*
X166989285Y-47189763D02*
X167075000Y-47142144D01*
X167075000Y-47142144D02*
X167117857Y-47094524D01*
X167117857Y-47094524D02*
X167160714Y-46999286D01*
X167160714Y-46999286D02*
X167203571Y-46808810D01*
X167203571Y-46808810D02*
X167203571Y-46570715D01*
X167203571Y-46570715D02*
X167160714Y-46380239D01*
X167160714Y-46380239D02*
X167117857Y-46285001D01*
X167117857Y-46285001D02*
X167075000Y-46237382D01*
X167075000Y-46237382D02*
X166989285Y-46189763D01*
X166303571Y-47094524D02*
X166260714Y-47142144D01*
X166260714Y-47142144D02*
X166303571Y-47189763D01*
X166303571Y-47189763D02*
X166346428Y-47142144D01*
X166346428Y-47142144D02*
X166303571Y-47094524D01*
X166303571Y-47094524D02*
X166303571Y-47189763D01*
X165446428Y-46189763D02*
X165875000Y-46189763D01*
X165875000Y-46189763D02*
X165917857Y-46665953D01*
X165917857Y-46665953D02*
X165875000Y-46618334D01*
X165875000Y-46618334D02*
X165789286Y-46570715D01*
X165789286Y-46570715D02*
X165575000Y-46570715D01*
X165575000Y-46570715D02*
X165489286Y-46618334D01*
X165489286Y-46618334D02*
X165446428Y-46665953D01*
X165446428Y-46665953D02*
X165403571Y-46761191D01*
X165403571Y-46761191D02*
X165403571Y-46999286D01*
X165403571Y-46999286D02*
X165446428Y-47094524D01*
X165446428Y-47094524D02*
X165489286Y-47142144D01*
X165489286Y-47142144D02*
X165575000Y-47189763D01*
X165575000Y-47189763D02*
X165789286Y-47189763D01*
X165789286Y-47189763D02*
X165875000Y-47142144D01*
X165875000Y-47142144D02*
X165917857Y-47094524D01*
X165017857Y-46808810D02*
X164332143Y-46808810D01*
X163432142Y-47189763D02*
X163946428Y-47189763D01*
X163689285Y-47189763D02*
X163689285Y-46189763D01*
X163689285Y-46189763D02*
X163774999Y-46332620D01*
X163774999Y-46332620D02*
X163860714Y-46427858D01*
X163860714Y-46427858D02*
X163946428Y-46475477D01*
X162403571Y-47142144D02*
X162317857Y-47189763D01*
X162317857Y-47189763D02*
X162146428Y-47189763D01*
X162146428Y-47189763D02*
X162060714Y-47142144D01*
X162060714Y-47142144D02*
X162017857Y-47046905D01*
X162017857Y-47046905D02*
X162017857Y-46999286D01*
X162017857Y-46999286D02*
X162060714Y-46904048D01*
X162060714Y-46904048D02*
X162146428Y-46856429D01*
X162146428Y-46856429D02*
X162275000Y-46856429D01*
X162275000Y-46856429D02*
X162360714Y-46808810D01*
X162360714Y-46808810D02*
X162403571Y-46713572D01*
X162403571Y-46713572D02*
X162403571Y-46665953D01*
X162403571Y-46665953D02*
X162360714Y-46570715D01*
X162360714Y-46570715D02*
X162275000Y-46523096D01*
X162275000Y-46523096D02*
X162146428Y-46523096D01*
X162146428Y-46523096D02*
X162060714Y-46570715D01*
X160946429Y-46808810D02*
X160260715Y-46808810D01*
X160432143Y-46999286D02*
X160260715Y-46808810D01*
X160260715Y-46808810D02*
X160432143Y-46618334D01*
X159146429Y-46665953D02*
X158846429Y-46665953D01*
X158717857Y-47189763D02*
X159146429Y-47189763D01*
X159146429Y-47189763D02*
X159146429Y-46189763D01*
X159146429Y-46189763D02*
X158717857Y-46189763D01*
X157689286Y-46142144D02*
X158460714Y-47427858D01*
X157389286Y-47189763D02*
X157389286Y-46189763D01*
X157389286Y-46189763D02*
X157175000Y-46189763D01*
X157175000Y-46189763D02*
X157046429Y-46237382D01*
X157046429Y-46237382D02*
X156960714Y-46332620D01*
X156960714Y-46332620D02*
X156917857Y-46427858D01*
X156917857Y-46427858D02*
X156875000Y-46618334D01*
X156875000Y-46618334D02*
X156875000Y-46761191D01*
X156875000Y-46761191D02*
X156917857Y-46951667D01*
X156917857Y-46951667D02*
X156960714Y-47046905D01*
X156960714Y-47046905D02*
X157046429Y-47142144D01*
X157046429Y-47142144D02*
X157175000Y-47189763D01*
X157175000Y-47189763D02*
X157389286Y-47189763D01*
X155803572Y-47189763D02*
X155803572Y-46189763D01*
X155803572Y-46665953D02*
X155289286Y-46665953D01*
X155289286Y-47189763D02*
X155289286Y-46189763D01*
X154860715Y-47189763D02*
X154860715Y-46189763D01*
X153960715Y-46237382D02*
X154046430Y-46189763D01*
X154046430Y-46189763D02*
X154175001Y-46189763D01*
X154175001Y-46189763D02*
X154303572Y-46237382D01*
X154303572Y-46237382D02*
X154389287Y-46332620D01*
X154389287Y-46332620D02*
X154432144Y-46427858D01*
X154432144Y-46427858D02*
X154475001Y-46618334D01*
X154475001Y-46618334D02*
X154475001Y-46761191D01*
X154475001Y-46761191D02*
X154432144Y-46951667D01*
X154432144Y-46951667D02*
X154389287Y-47046905D01*
X154389287Y-47046905D02*
X154303572Y-47142144D01*
X154303572Y-47142144D02*
X154175001Y-47189763D01*
X154175001Y-47189763D02*
X154089287Y-47189763D01*
X154089287Y-47189763D02*
X153960715Y-47142144D01*
X153960715Y-47142144D02*
X153917858Y-47094524D01*
X153917858Y-47094524D02*
X153917858Y-46761191D01*
X153917858Y-46761191D02*
X154089287Y-46761191D01*
X153532144Y-47189763D02*
X153532144Y-46189763D01*
X153532144Y-46665953D02*
X153017858Y-46665953D01*
X153017858Y-47189763D02*
X153017858Y-46189763D01*
X221414284Y-43922256D02*
X221285713Y-43969875D01*
X221285713Y-43969875D02*
X221071427Y-43969875D01*
X221071427Y-43969875D02*
X220985713Y-43922256D01*
X220985713Y-43922256D02*
X220942855Y-43874636D01*
X220942855Y-43874636D02*
X220899998Y-43779398D01*
X220899998Y-43779398D02*
X220899998Y-43684160D01*
X220899998Y-43684160D02*
X220942855Y-43588922D01*
X220942855Y-43588922D02*
X220985713Y-43541303D01*
X220985713Y-43541303D02*
X221071427Y-43493684D01*
X221071427Y-43493684D02*
X221242855Y-43446065D01*
X221242855Y-43446065D02*
X221328570Y-43398446D01*
X221328570Y-43398446D02*
X221371427Y-43350827D01*
X221371427Y-43350827D02*
X221414284Y-43255589D01*
X221414284Y-43255589D02*
X221414284Y-43160351D01*
X221414284Y-43160351D02*
X221371427Y-43065113D01*
X221371427Y-43065113D02*
X221328570Y-43017494D01*
X221328570Y-43017494D02*
X221242855Y-42969875D01*
X221242855Y-42969875D02*
X221028570Y-42969875D01*
X221028570Y-42969875D02*
X220899998Y-43017494D01*
X220514284Y-43969875D02*
X220514284Y-42969875D01*
X220514284Y-43446065D02*
X219999998Y-43446065D01*
X219999998Y-43969875D02*
X219999998Y-42969875D01*
X219571427Y-42969875D02*
X219571427Y-43779398D01*
X219571427Y-43779398D02*
X219528570Y-43874636D01*
X219528570Y-43874636D02*
X219485713Y-43922256D01*
X219485713Y-43922256D02*
X219399998Y-43969875D01*
X219399998Y-43969875D02*
X219228570Y-43969875D01*
X219228570Y-43969875D02*
X219142855Y-43922256D01*
X219142855Y-43922256D02*
X219099998Y-43874636D01*
X219099998Y-43874636D02*
X219057141Y-43779398D01*
X219057141Y-43779398D02*
X219057141Y-42969875D01*
X218757141Y-42969875D02*
X218242856Y-42969875D01*
X218499998Y-43969875D02*
X218499998Y-42969875D01*
X217942856Y-43969875D02*
X217942856Y-42969875D01*
X217942856Y-42969875D02*
X217728570Y-42969875D01*
X217728570Y-42969875D02*
X217599999Y-43017494D01*
X217599999Y-43017494D02*
X217514284Y-43112732D01*
X217514284Y-43112732D02*
X217471427Y-43207970D01*
X217471427Y-43207970D02*
X217428570Y-43398446D01*
X217428570Y-43398446D02*
X217428570Y-43541303D01*
X217428570Y-43541303D02*
X217471427Y-43731779D01*
X217471427Y-43731779D02*
X217514284Y-43827017D01*
X217514284Y-43827017D02*
X217599999Y-43922256D01*
X217599999Y-43922256D02*
X217728570Y-43969875D01*
X217728570Y-43969875D02*
X217942856Y-43969875D01*
X216871427Y-42969875D02*
X216699999Y-42969875D01*
X216699999Y-42969875D02*
X216614284Y-43017494D01*
X216614284Y-43017494D02*
X216528570Y-43112732D01*
X216528570Y-43112732D02*
X216485713Y-43303208D01*
X216485713Y-43303208D02*
X216485713Y-43636541D01*
X216485713Y-43636541D02*
X216528570Y-43827017D01*
X216528570Y-43827017D02*
X216614284Y-43922256D01*
X216614284Y-43922256D02*
X216699999Y-43969875D01*
X216699999Y-43969875D02*
X216871427Y-43969875D01*
X216871427Y-43969875D02*
X216957142Y-43922256D01*
X216957142Y-43922256D02*
X217042856Y-43827017D01*
X217042856Y-43827017D02*
X217085713Y-43636541D01*
X217085713Y-43636541D02*
X217085713Y-43303208D01*
X217085713Y-43303208D02*
X217042856Y-43112732D01*
X217042856Y-43112732D02*
X216957142Y-43017494D01*
X216957142Y-43017494D02*
X216871427Y-42969875D01*
X216185713Y-42969875D02*
X215971427Y-43969875D01*
X215971427Y-43969875D02*
X215799999Y-43255589D01*
X215799999Y-43255589D02*
X215628570Y-43969875D01*
X215628570Y-43969875D02*
X215414285Y-42969875D01*
X215071428Y-43969875D02*
X215071428Y-42969875D01*
X215071428Y-42969875D02*
X214557142Y-43969875D01*
X214557142Y-43969875D02*
X214557142Y-42969875D01*
X214128571Y-43874636D02*
X214085714Y-43922256D01*
X214085714Y-43922256D02*
X214128571Y-43969875D01*
X214128571Y-43969875D02*
X214171428Y-43922256D01*
X214171428Y-43922256D02*
X214128571Y-43874636D01*
X214128571Y-43874636D02*
X214128571Y-43969875D01*
X214128571Y-43350827D02*
X214085714Y-43398446D01*
X214085714Y-43398446D02*
X214128571Y-43446065D01*
X214128571Y-43446065D02*
X214171428Y-43398446D01*
X214171428Y-43398446D02*
X214128571Y-43350827D01*
X214128571Y-43350827D02*
X214128571Y-43446065D01*
X226728570Y-45056009D02*
X226428570Y-45056009D01*
X226299998Y-45579819D02*
X226728570Y-45579819D01*
X226728570Y-45579819D02*
X226728570Y-44579819D01*
X226728570Y-44579819D02*
X226299998Y-44579819D01*
X225271427Y-44532200D02*
X226042855Y-45817914D01*
X224971427Y-45579819D02*
X224971427Y-44579819D01*
X224971427Y-44579819D02*
X224757141Y-44579819D01*
X224757141Y-44579819D02*
X224628570Y-44627438D01*
X224628570Y-44627438D02*
X224542855Y-44722676D01*
X224542855Y-44722676D02*
X224499998Y-44817914D01*
X224499998Y-44817914D02*
X224457141Y-45008390D01*
X224457141Y-45008390D02*
X224457141Y-45151247D01*
X224457141Y-45151247D02*
X224499998Y-45341723D01*
X224499998Y-45341723D02*
X224542855Y-45436961D01*
X224542855Y-45436961D02*
X224628570Y-45532200D01*
X224628570Y-45532200D02*
X224757141Y-45579819D01*
X224757141Y-45579819D02*
X224971427Y-45579819D01*
X222957141Y-45579819D02*
X223385713Y-45579819D01*
X223385713Y-45579819D02*
X223385713Y-44579819D01*
X222485713Y-44579819D02*
X222314285Y-44579819D01*
X222314285Y-44579819D02*
X222228570Y-44627438D01*
X222228570Y-44627438D02*
X222142856Y-44722676D01*
X222142856Y-44722676D02*
X222099999Y-44913152D01*
X222099999Y-44913152D02*
X222099999Y-45246485D01*
X222099999Y-45246485D02*
X222142856Y-45436961D01*
X222142856Y-45436961D02*
X222228570Y-45532200D01*
X222228570Y-45532200D02*
X222314285Y-45579819D01*
X222314285Y-45579819D02*
X222485713Y-45579819D01*
X222485713Y-45579819D02*
X222571428Y-45532200D01*
X222571428Y-45532200D02*
X222657142Y-45436961D01*
X222657142Y-45436961D02*
X222699999Y-45246485D01*
X222699999Y-45246485D02*
X222699999Y-44913152D01*
X222699999Y-44913152D02*
X222657142Y-44722676D01*
X222657142Y-44722676D02*
X222571428Y-44627438D01*
X222571428Y-44627438D02*
X222485713Y-44579819D01*
X221799999Y-44579819D02*
X221585713Y-45579819D01*
X221585713Y-45579819D02*
X221414285Y-44865533D01*
X221414285Y-44865533D02*
X221242856Y-45579819D01*
X221242856Y-45579819D02*
X221028571Y-44579819D01*
X220000000Y-45198866D02*
X219314286Y-45198866D01*
X219485714Y-45389342D02*
X219314286Y-45198866D01*
X219314286Y-45198866D02*
X219485714Y-45008390D01*
X217685714Y-45579819D02*
X217985714Y-45103628D01*
X218200000Y-45579819D02*
X218200000Y-44579819D01*
X218200000Y-44579819D02*
X217857143Y-44579819D01*
X217857143Y-44579819D02*
X217771428Y-44627438D01*
X217771428Y-44627438D02*
X217728571Y-44675057D01*
X217728571Y-44675057D02*
X217685714Y-44770295D01*
X217685714Y-44770295D02*
X217685714Y-44913152D01*
X217685714Y-44913152D02*
X217728571Y-45008390D01*
X217728571Y-45008390D02*
X217771428Y-45056009D01*
X217771428Y-45056009D02*
X217857143Y-45103628D01*
X217857143Y-45103628D02*
X218200000Y-45103628D01*
X217300000Y-45579819D02*
X217300000Y-44579819D01*
X217300000Y-44579819D02*
X216957143Y-44579819D01*
X216957143Y-44579819D02*
X216871428Y-44627438D01*
X216871428Y-44627438D02*
X216828571Y-44675057D01*
X216828571Y-44675057D02*
X216785714Y-44770295D01*
X216785714Y-44770295D02*
X216785714Y-44913152D01*
X216785714Y-44913152D02*
X216828571Y-45008390D01*
X216828571Y-45008390D02*
X216871428Y-45056009D01*
X216871428Y-45056009D02*
X216957143Y-45103628D01*
X216957143Y-45103628D02*
X217300000Y-45103628D01*
X215714286Y-45579819D02*
X215714286Y-44579819D01*
X215714286Y-44579819D02*
X215500000Y-44579819D01*
X215500000Y-44579819D02*
X215371429Y-44627438D01*
X215371429Y-44627438D02*
X215285714Y-44722676D01*
X215285714Y-44722676D02*
X215242857Y-44817914D01*
X215242857Y-44817914D02*
X215200000Y-45008390D01*
X215200000Y-45008390D02*
X215200000Y-45151247D01*
X215200000Y-45151247D02*
X215242857Y-45341723D01*
X215242857Y-45341723D02*
X215285714Y-45436961D01*
X215285714Y-45436961D02*
X215371429Y-45532200D01*
X215371429Y-45532200D02*
X215500000Y-45579819D01*
X215500000Y-45579819D02*
X215714286Y-45579819D01*
X214857143Y-45294104D02*
X214428572Y-45294104D01*
X214942857Y-45579819D02*
X214642857Y-44579819D01*
X214642857Y-44579819D02*
X214342857Y-45579819D01*
X213528571Y-45484580D02*
X213571428Y-45532200D01*
X213571428Y-45532200D02*
X213700000Y-45579819D01*
X213700000Y-45579819D02*
X213785714Y-45579819D01*
X213785714Y-45579819D02*
X213914285Y-45532200D01*
X213914285Y-45532200D02*
X214000000Y-45436961D01*
X214000000Y-45436961D02*
X214042857Y-45341723D01*
X214042857Y-45341723D02*
X214085714Y-45151247D01*
X214085714Y-45151247D02*
X214085714Y-45008390D01*
X214085714Y-45008390D02*
X214042857Y-44817914D01*
X214042857Y-44817914D02*
X214000000Y-44722676D01*
X214000000Y-44722676D02*
X213914285Y-44627438D01*
X213914285Y-44627438D02*
X213785714Y-44579819D01*
X213785714Y-44579819D02*
X213700000Y-44579819D01*
X213700000Y-44579819D02*
X213571428Y-44627438D01*
X213571428Y-44627438D02*
X213528571Y-44675057D01*
X212457143Y-45056009D02*
X211771429Y-45056009D01*
X211771429Y-45341723D02*
X212457143Y-45341723D01*
X210485714Y-44579819D02*
X210400000Y-44579819D01*
X210400000Y-44579819D02*
X210314286Y-44627438D01*
X210314286Y-44627438D02*
X210271429Y-44675057D01*
X210271429Y-44675057D02*
X210228571Y-44770295D01*
X210228571Y-44770295D02*
X210185714Y-44960771D01*
X210185714Y-44960771D02*
X210185714Y-45198866D01*
X210185714Y-45198866D02*
X210228571Y-45389342D01*
X210228571Y-45389342D02*
X210271429Y-45484580D01*
X210271429Y-45484580D02*
X210314286Y-45532200D01*
X210314286Y-45532200D02*
X210400000Y-45579819D01*
X210400000Y-45579819D02*
X210485714Y-45579819D01*
X210485714Y-45579819D02*
X210571429Y-45532200D01*
X210571429Y-45532200D02*
X210614286Y-45484580D01*
X210614286Y-45484580D02*
X210657143Y-45389342D01*
X210657143Y-45389342D02*
X210700000Y-45198866D01*
X210700000Y-45198866D02*
X210700000Y-44960771D01*
X210700000Y-44960771D02*
X210657143Y-44770295D01*
X210657143Y-44770295D02*
X210614286Y-44675057D01*
X210614286Y-44675057D02*
X210571429Y-44627438D01*
X210571429Y-44627438D02*
X210485714Y-44579819D01*
X209242857Y-44579819D02*
X208942857Y-45579819D01*
X208942857Y-45579819D02*
X208642857Y-44579819D01*
X226728572Y-46808810D02*
X226042858Y-46808810D01*
X226214286Y-46999286D02*
X226042858Y-46808810D01*
X226042858Y-46808810D02*
X226214286Y-46618334D01*
X224928572Y-46618334D02*
X224242858Y-46618334D01*
X224585715Y-46999286D02*
X224585715Y-46237382D01*
X224242858Y-47189763D02*
X224928572Y-47189763D01*
X223385714Y-47189763D02*
X223814286Y-47189763D01*
X223814286Y-47189763D02*
X223814286Y-46189763D01*
X223214286Y-46189763D02*
X222914286Y-47189763D01*
X222914286Y-47189763D02*
X222614286Y-46189763D01*
X221457143Y-46189763D02*
X221285715Y-46189763D01*
X221285715Y-46189763D02*
X221200000Y-46237382D01*
X221200000Y-46237382D02*
X221114286Y-46332620D01*
X221114286Y-46332620D02*
X221071429Y-46523096D01*
X221071429Y-46523096D02*
X221071429Y-46856429D01*
X221071429Y-46856429D02*
X221114286Y-47046905D01*
X221114286Y-47046905D02*
X221200000Y-47142144D01*
X221200000Y-47142144D02*
X221285715Y-47189763D01*
X221285715Y-47189763D02*
X221457143Y-47189763D01*
X221457143Y-47189763D02*
X221542858Y-47142144D01*
X221542858Y-47142144D02*
X221628572Y-47046905D01*
X221628572Y-47046905D02*
X221671429Y-46856429D01*
X221671429Y-46856429D02*
X221671429Y-46523096D01*
X221671429Y-46523096D02*
X221628572Y-46332620D01*
X221628572Y-46332620D02*
X221542858Y-46237382D01*
X221542858Y-46237382D02*
X221457143Y-46189763D01*
X220385715Y-46665953D02*
X220685715Y-46665953D01*
X220685715Y-47189763D02*
X220685715Y-46189763D01*
X220685715Y-46189763D02*
X220257143Y-46189763D01*
X219614286Y-46665953D02*
X219914286Y-46665953D01*
X219914286Y-47189763D02*
X219914286Y-46189763D01*
X219914286Y-46189763D02*
X219485714Y-46189763D01*
X218457143Y-46808810D02*
X217771429Y-46808810D01*
X217942857Y-46999286D02*
X217771429Y-46808810D01*
X217771429Y-46808810D02*
X217942857Y-46618334D01*
X216657143Y-46808810D02*
X215971429Y-46808810D01*
X216314286Y-47189763D02*
X216314286Y-46427858D01*
X215071428Y-47189763D02*
X215585714Y-47189763D01*
X215328571Y-47189763D02*
X215328571Y-46189763D01*
X215328571Y-46189763D02*
X215414285Y-46332620D01*
X215414285Y-46332620D02*
X215500000Y-46427858D01*
X215500000Y-46427858D02*
X215585714Y-46475477D01*
X214257142Y-46189763D02*
X214685714Y-46189763D01*
X214685714Y-46189763D02*
X214728571Y-46665953D01*
X214728571Y-46665953D02*
X214685714Y-46618334D01*
X214685714Y-46618334D02*
X214600000Y-46570715D01*
X214600000Y-46570715D02*
X214385714Y-46570715D01*
X214385714Y-46570715D02*
X214300000Y-46618334D01*
X214300000Y-46618334D02*
X214257142Y-46665953D01*
X214257142Y-46665953D02*
X214214285Y-46761191D01*
X214214285Y-46761191D02*
X214214285Y-46999286D01*
X214214285Y-46999286D02*
X214257142Y-47094524D01*
X214257142Y-47094524D02*
X214300000Y-47142144D01*
X214300000Y-47142144D02*
X214385714Y-47189763D01*
X214385714Y-47189763D02*
X214600000Y-47189763D01*
X214600000Y-47189763D02*
X214685714Y-47142144D01*
X214685714Y-47142144D02*
X214728571Y-47094524D01*
X213399999Y-46189763D02*
X213828571Y-46189763D01*
X213828571Y-46189763D02*
X213871428Y-46665953D01*
X213871428Y-46665953D02*
X213828571Y-46618334D01*
X213828571Y-46618334D02*
X213742857Y-46570715D01*
X213742857Y-46570715D02*
X213528571Y-46570715D01*
X213528571Y-46570715D02*
X213442857Y-46618334D01*
X213442857Y-46618334D02*
X213399999Y-46665953D01*
X213399999Y-46665953D02*
X213357142Y-46761191D01*
X213357142Y-46761191D02*
X213357142Y-46999286D01*
X213357142Y-46999286D02*
X213399999Y-47094524D01*
X213399999Y-47094524D02*
X213442857Y-47142144D01*
X213442857Y-47142144D02*
X213528571Y-47189763D01*
X213528571Y-47189763D02*
X213742857Y-47189763D01*
X213742857Y-47189763D02*
X213828571Y-47142144D01*
X213828571Y-47142144D02*
X213871428Y-47094524D01*
X212414285Y-46189763D02*
X212114285Y-47189763D01*
X212114285Y-47189763D02*
X211814285Y-46189763D01*
X210657142Y-46189763D02*
X210485714Y-46189763D01*
X210485714Y-46189763D02*
X210399999Y-46237382D01*
X210399999Y-46237382D02*
X210314285Y-46332620D01*
X210314285Y-46332620D02*
X210271428Y-46523096D01*
X210271428Y-46523096D02*
X210271428Y-46856429D01*
X210271428Y-46856429D02*
X210314285Y-47046905D01*
X210314285Y-47046905D02*
X210399999Y-47142144D01*
X210399999Y-47142144D02*
X210485714Y-47189763D01*
X210485714Y-47189763D02*
X210657142Y-47189763D01*
X210657142Y-47189763D02*
X210742857Y-47142144D01*
X210742857Y-47142144D02*
X210828571Y-47046905D01*
X210828571Y-47046905D02*
X210871428Y-46856429D01*
X210871428Y-46856429D02*
X210871428Y-46523096D01*
X210871428Y-46523096D02*
X210828571Y-46332620D01*
X210828571Y-46332620D02*
X210742857Y-46237382D01*
X210742857Y-46237382D02*
X210657142Y-46189763D01*
X209585714Y-46665953D02*
X209885714Y-46665953D01*
X209885714Y-47189763D02*
X209885714Y-46189763D01*
X209885714Y-46189763D02*
X209457142Y-46189763D01*
X208814285Y-46665953D02*
X209114285Y-46665953D01*
X209114285Y-47189763D02*
X209114285Y-46189763D01*
X209114285Y-46189763D02*
X208685713Y-46189763D01*
%TO.C,J5*%
D11*
X216207100Y-92475000D02*
G75*
G02*
X215445100Y-92475000I-381000J0D01*
G01*
X215445100Y-92475000D02*
G75*
G02*
X216207100Y-92475000I381000J0D01*
G01*
%TD*%
M02*
