%TF.GenerationSoftware,KiCad,Pcbnew,10.0.3*%
%TF.CreationDate,2026-08-08T18:03:59-05:00*%
%TF.ProjectId,780nm-ecdl-grating,3738306e-6d2d-4656-9364-6c2d67726174,rev?*%
%TF.SameCoordinates,Original*%
%TF.FileFunction,Copper,L4,Bot*%
%TF.FilePolarity,Positive*%
%FSLAX46Y46*%
G04 Gerber Fmt 4.6, Leading zero omitted, Abs format (unit mm)*
G04 Created by KiCad (PCBNEW 10.0.3) date 2026-08-08 18:03:59*
%MOMM*%
%LPD*%
G01*
G04 APERTURE LIST*
G04 Aperture macros list*
%AMRoundRect*
0 Rectangle with rounded corners*
0 $1 Rounding radius*
0 $2 $3 $4 $5 $6 $7 $8 $9 X,Y pos of 4 corners*
0 Add a 4 corners polygon primitive as box body*
4,1,4,$2,$3,$4,$5,$6,$7,$8,$9,$2,$3,0*
0 Add four circle primitives for the rounded corners*
1,1,$1+$1,$2,$3*
1,1,$1+$1,$4,$5*
1,1,$1+$1,$6,$7*
1,1,$1+$1,$8,$9*
0 Add four rect primitives between the rounded corners*
20,1,$1+$1,$2,$3,$4,$5,0*
20,1,$1+$1,$4,$5,$6,$7,0*
20,1,$1+$1,$6,$7,$8,$9,0*
20,1,$1+$1,$8,$9,$2,$3,0*%
G04 Aperture macros list end*
%TA.AperFunction,ComponentPad*%
%ADD10C,1.320800*%
%TD*%
%TA.AperFunction,ComponentPad*%
%ADD11R,1.320800X1.320800*%
%TD*%
%TA.AperFunction,ComponentPad*%
%ADD12C,1.300000*%
%TD*%
%TA.AperFunction,ComponentPad*%
%ADD13R,2.100000X2.100000*%
%TD*%
%TA.AperFunction,ComponentPad*%
%ADD14C,2.100000*%
%TD*%
%TA.AperFunction,ComponentPad*%
%ADD15R,1.422400X1.422400*%
%TD*%
%TA.AperFunction,ComponentPad*%
%ADD16C,1.422400*%
%TD*%
%TA.AperFunction,ComponentPad*%
%ADD17R,1.524000X1.524000*%
%TD*%
%TA.AperFunction,ComponentPad*%
%ADD18C,1.524000*%
%TD*%
%TA.AperFunction,ComponentPad*%
%ADD19C,1.803400*%
%TD*%
%TA.AperFunction,ComponentPad*%
%ADD20C,2.006600*%
%TD*%
%TA.AperFunction,ComponentPad*%
%ADD21R,1.950000X1.950000*%
%TD*%
%TA.AperFunction,ComponentPad*%
%ADD22C,1.950000*%
%TD*%
%TA.AperFunction,ComponentPad*%
%ADD23RoundRect,0.250000X-1.050000X-1.050000X1.050000X-1.050000X1.050000X1.050000X-1.050000X1.050000X0*%
%TD*%
%TA.AperFunction,ComponentPad*%
%ADD24C,2.600000*%
%TD*%
%TA.AperFunction,ComponentPad*%
%ADD25C,1.550000*%
%TD*%
%TA.AperFunction,ComponentPad*%
%ADD26C,2.108200*%
%TD*%
%TA.AperFunction,ViaPad*%
%ADD27C,0.600000*%
%TD*%
%TA.AperFunction,Conductor*%
%ADD28C,0.200000*%
%TD*%
%TA.AperFunction,Conductor*%
%ADD29C,0.250000*%
%TD*%
%TA.AperFunction,Conductor*%
%ADD30C,1.000000*%
%TD*%
G04 APERTURE END LIST*
D10*
%TO.P,R1,1,1_1*%
%TO.N,Net-(U1-OUT)*%
X164425000Y-59475000D03*
%TO.P,R1,2,2_2*%
%TO.N,Net-(R1-Pad2)*%
X164425000Y-62015000D03*
D11*
%TO.P,R1,3,3_3*%
X164425000Y-64555000D03*
%TD*%
D12*
%TO.P,S1,1,NO_1_1*%
%TO.N,+9V_SW*%
X150102441Y-80640000D03*
%TO.P,S1,2,COM_1_2*%
%TO.N,+9V_IN*%
X150102441Y-78100000D03*
%TO.P,S1,3,NC_1_3*%
%TO.N,unconnected-(S1-NC_1-Pad3)*%
X150102441Y-75560000D03*
%TO.P,S1,4,NO_2_4*%
%TO.N,-5V_SW*%
X155182441Y-80640000D03*
%TO.P,S1,5,COM_2_5*%
%TO.N,-5V_IN*%
X155182441Y-78100000D03*
%TO.P,S1,6,NC_2_6*%
%TO.N,unconnected-(S1-NC_2-Pad6)*%
X155182441Y-75560000D03*
%TD*%
D13*
%TO.P,J4,1,1_1*%
%TO.N,PIEZO_OUT*%
X228735000Y-92025000D03*
D14*
%TO.P,J4,2,2_2*%
%TO.N,GND*%
X233815000Y-92025000D03*
%TD*%
D15*
%TO.P,C25,1*%
%TO.N,+155V*%
X233255600Y-45030000D03*
D16*
%TO.P,C25,2*%
%TO.N,GND*%
X243255600Y-45030000D03*
%TD*%
D17*
%TO.P,C23,1*%
%TO.N,+155V*%
X246000000Y-83440000D03*
D18*
%TO.P,C23,2*%
%TO.N,GND*%
X251511800Y-83440000D03*
%TD*%
D19*
%TO.P,J5,1,In_1*%
%TO.N,V_MON*%
X209565000Y-92475000D03*
D20*
%TO.P,J5,2,Ext_2*%
%TO.N,GND*%
X206390000Y-89300000D03*
%TO.P,J5,3*%
X212740000Y-89300000D03*
%TO.P,J5,4*%
X206390000Y-95650000D03*
%TO.P,J5,5*%
X212740000Y-95650000D03*
%TD*%
D15*
%TO.P,C24,1*%
%TO.N,+155V*%
X246520000Y-71550000D03*
D16*
%TO.P,C24,2*%
%TO.N,GND*%
X251523800Y-71550000D03*
%TD*%
D21*
%TO.P,J7,1,1_1*%
%TO.N,+9V_SW*%
X156035000Y-90875000D03*
D22*
%TO.P,J7,2,2_2*%
%TO.N,+3.3V_SW*%
X161115000Y-90875000D03*
%TO.P,J7,3,3_3*%
%TO.N,GND*%
X166195000Y-90875000D03*
%TO.P,J7,4,4_4*%
%TO.N,-5V_SW*%
X171275000Y-90875000D03*
%TD*%
D23*
%TO.P,D5,1,K_1*%
%TO.N,PIEZO_OUT*%
X224995000Y-82725000D03*
D24*
%TO.P,D5,2,A_2*%
%TO.N,GND*%
X237695000Y-82725000D03*
%TD*%
D25*
%TO.P,J3,1,1_1*%
%TO.N,Net-(J3-Pad1)*%
X191485000Y-94179792D03*
%TO.P,J3,2,2_2*%
%TO.N,GND*%
X194025000Y-94179792D03*
%TO.P,J3,3,3_3*%
%TO.N,STATUS*%
X196565000Y-94179792D03*
%TD*%
D13*
%TO.P,J2,1,1_1*%
%TO.N,+155V*%
X247585000Y-60195000D03*
D14*
%TO.P,J2,2,2_2*%
%TO.N,GND*%
X247585000Y-55115000D03*
%TD*%
D26*
%TO.P,J1,1,In_1*%
%TO.N,RP_IN*%
X178965000Y-73115000D03*
%TO.P,J1,2,Ext_2*%
%TO.N,GND*%
X176425000Y-70575000D03*
%TO.P,J1,3*%
X176425000Y-75655000D03*
%TO.P,J1,4*%
X181505000Y-75655000D03*
%TO.P,J1,5*%
X181505000Y-70575000D03*
%TD*%
D27*
%TO.N,GND*%
X160750000Y-57800000D03*
X179460000Y-75310000D03*
X239100000Y-85960000D03*
X194020000Y-92550000D03*
X241710000Y-44700000D03*
X181500000Y-55840000D03*
X163110000Y-74580000D03*
X188590000Y-76420000D03*
X186570000Y-76420000D03*
X203970000Y-89220000D03*
X195580000Y-65790000D03*
X212290000Y-63910000D03*
X234930000Y-90280000D03*
X167350000Y-89550000D03*
X238250000Y-79360000D03*
X241720000Y-45550000D03*
X238240000Y-85950000D03*
X147170000Y-69250000D03*
X202930000Y-71500000D03*
X237060000Y-59500000D03*
X205310000Y-97330000D03*
X159340000Y-81430000D03*
X160730000Y-56970000D03*
X237070000Y-58640000D03*
X169420000Y-66910000D03*
X163320000Y-81860000D03*
X250060000Y-70330000D03*
X216320000Y-79260000D03*
X211330000Y-64480000D03*
X250040000Y-72990000D03*
X196650000Y-58290000D03*
X145350000Y-69270000D03*
X239110000Y-79370000D03*
X166150000Y-88850000D03*
X156530000Y-69230000D03*
X164925000Y-89550000D03*
X181220000Y-66750000D03*
X202930000Y-73460000D03*
X238930000Y-58150000D03*
X239780000Y-58140000D03*
X237400000Y-79370000D03*
X178420000Y-75320000D03*
X189590000Y-49800000D03*
X214470000Y-96670000D03*
X192350000Y-63240000D03*
X163210000Y-72590000D03*
X237390000Y-85960000D03*
X182210000Y-68690000D03*
X237050000Y-61300000D03*
X236020000Y-91230000D03*
X212290000Y-84440000D03*
X148730000Y-55600000D03*
X250030000Y-82250000D03*
X207970000Y-63910000D03*
X207950000Y-45880000D03*
X215120000Y-89280000D03*
X147680000Y-55600000D03*
X248940000Y-53180000D03*
X204730000Y-88490000D03*
X149700000Y-55620000D03*
X213510000Y-79290000D03*
X207790000Y-53700000D03*
X207810000Y-56550000D03*
X186280000Y-52530000D03*
X178410000Y-76150000D03*
X184830000Y-75280000D03*
X187200000Y-61500000D03*
X250010000Y-84910000D03*
X155550000Y-72680000D03*
X214460000Y-79290000D03*
X214390000Y-88520000D03*
X207980000Y-62840000D03*
X180210000Y-66750000D03*
X234930000Y-93840000D03*
X241720000Y-43840000D03*
X182850000Y-58890000D03*
X161230000Y-81460000D03*
X183890000Y-76030000D03*
X248080000Y-53170000D03*
X215450000Y-79260000D03*
X204580000Y-96570000D03*
X179290000Y-55880000D03*
X190610000Y-76440000D03*
X250060000Y-72040000D03*
X209130000Y-64460000D03*
X250050000Y-71190000D03*
X246280000Y-53160000D03*
X148700000Y-68780000D03*
X212300000Y-62840000D03*
X209380000Y-45870000D03*
X240640000Y-58150000D03*
X207990000Y-61710000D03*
X146600000Y-55600000D03*
X237070000Y-60350000D03*
X186030000Y-71390000D03*
X180490000Y-68730000D03*
X241700000Y-46500000D03*
X212310000Y-61710000D03*
X247230000Y-53180000D03*
X237980000Y-58130000D03*
X210260000Y-64470000D03*
X193720000Y-47480000D03*
X162710000Y-76920000D03*
X179450000Y-76140000D03*
X207810000Y-54640000D03*
X236450000Y-79350000D03*
X193740000Y-48890000D03*
X250020000Y-83110000D03*
X236440000Y-85940000D03*
X152820000Y-67420000D03*
X213710000Y-97400000D03*
X207790000Y-55650000D03*
X191090000Y-49810000D03*
X250030000Y-83960000D03*
X236020000Y-92110000D03*
X194020000Y-95820000D03*
X186240000Y-51560000D03*
X170590000Y-66940000D03*
X213370000Y-49060000D03*
X149790000Y-68790000D03*
X195600000Y-67750000D03*
X236020000Y-93070000D03*
%TO.N,+9V*%
X188560000Y-64970000D03*
X198310000Y-66810000D03*
X188620000Y-53130000D03*
X198310000Y-71800000D03*
X147200000Y-59260000D03*
X153770000Y-69990000D03*
X179050000Y-57550000D03*
X215710000Y-82730000D03*
X153770000Y-71180000D03*
%TO.N,-5V_IN*%
X216080000Y-50590000D03*
X216082000Y-51270000D03*
X211590000Y-55600000D03*
X217420000Y-61080000D03*
X215188000Y-50590000D03*
X215190000Y-51270000D03*
X160290000Y-79030000D03*
X216970000Y-51270000D03*
X215190000Y-51990000D03*
X215198000Y-52700000D03*
X216970000Y-51990000D03*
X211590000Y-53910000D03*
X211590000Y-56400000D03*
X216968000Y-50590000D03*
X216090000Y-52700000D03*
X162120000Y-79020000D03*
X159730000Y-77960000D03*
X211590000Y-54710000D03*
X216978000Y-52700000D03*
X158970000Y-77960000D03*
X216082000Y-51990000D03*
%TO.N,+3.3V_SW*%
X167410000Y-81420000D03*
X191080000Y-84600000D03*
%TO.N,+9V_IN*%
X150440000Y-71720000D03*
X148040000Y-71720000D03*
X146270000Y-71720000D03*
%TO.N,+155V*%
X242880000Y-83480000D03*
X230870000Y-45020000D03*
X241570000Y-70070000D03*
X227380000Y-54740000D03*
X221120000Y-51175000D03*
%TO.N,-5V*%
X195120000Y-58270000D03*
X160410000Y-74730000D03*
X189550000Y-73830000D03*
X160410000Y-75400000D03*
X187740000Y-68860000D03*
%TO.N,+9V_SW*%
X167390000Y-82940000D03*
%TO.N,-5V_SW*%
X167560000Y-79060000D03*
X156210000Y-94070000D03*
X156210000Y-93350000D03*
X156210000Y-94870000D03*
%TO.N,STATUS*%
X195750000Y-90720000D03*
X220885000Y-53710000D03*
%TO.N,E{slash}D*%
X220210000Y-49890000D03*
X186420000Y-87390000D03*
%TD*%
%TO.N,GND*%
D28*
X178410000Y-75310000D02*
X178420000Y-75320000D01*
X181505000Y-70575000D02*
X181505000Y-69395000D01*
X181505000Y-75655000D02*
X181160000Y-75310000D01*
X181505000Y-69395000D02*
X182210000Y-68690000D01*
X176770000Y-75310000D02*
X178410000Y-75310000D01*
X176425000Y-75655000D02*
X176770000Y-75310000D01*
X181160000Y-75310000D02*
X179460000Y-75310000D01*
%TO.N,+3.3V_SW*%
D29*
X187900000Y-81420000D02*
X167410000Y-81420000D01*
X191080000Y-84600000D02*
X187900000Y-81420000D01*
%TO.N,+155V*%
D30*
X224700000Y-51190000D02*
X221180000Y-51190000D01*
X230870000Y-45020000D02*
X224700000Y-51190000D01*
%TO.N,STATUS*%
D29*
X220885000Y-53710000D02*
X222350000Y-55175000D01*
X195750000Y-90230000D02*
X195750000Y-90720000D01*
X216640000Y-87500000D02*
X198480000Y-87500000D01*
X222350000Y-55175000D02*
X222350000Y-81790000D01*
X198480000Y-87500000D02*
X195750000Y-90230000D01*
X222350000Y-81790000D02*
X216640000Y-87500000D01*
%TO.N,E{slash}D*%
X220210000Y-49890000D02*
X220210000Y-82090000D01*
X187250000Y-86560000D02*
X186420000Y-87390000D01*
X215740000Y-86560000D02*
X187250000Y-86560000D01*
X220210000Y-82090000D02*
X215740000Y-86560000D01*
%TD*%
%TA.AperFunction,Conductor*%
%TO.N,+9V*%
G36*
X198717966Y-72204768D02*
G01*
X198959999Y-72519999D01*
X198960000Y-72520000D01*
X203490000Y-78420000D01*
X213110282Y-78441651D01*
X213177277Y-78461487D01*
X213222913Y-78514394D01*
X213232701Y-78583574D01*
X213203533Y-78647064D01*
X213178894Y-78668753D01*
X213063458Y-78745885D01*
X213063454Y-78745888D01*
X212965888Y-78843454D01*
X212965885Y-78843458D01*
X212889228Y-78958182D01*
X212889221Y-78958195D01*
X212836421Y-79085667D01*
X212836418Y-79085677D01*
X212809500Y-79221004D01*
X212809500Y-79221007D01*
X212809500Y-79358993D01*
X212809500Y-79358995D01*
X212809499Y-79358995D01*
X212836418Y-79494322D01*
X212836421Y-79494332D01*
X212889221Y-79621804D01*
X212889228Y-79621817D01*
X212965885Y-79736541D01*
X212965888Y-79736545D01*
X213063454Y-79834111D01*
X213063458Y-79834114D01*
X213178182Y-79910771D01*
X213178195Y-79910778D01*
X213298236Y-79960500D01*
X213305672Y-79963580D01*
X213305676Y-79963580D01*
X213305677Y-79963581D01*
X213441004Y-79990500D01*
X213441007Y-79990500D01*
X213578995Y-79990500D01*
X213670041Y-79972389D01*
X213714328Y-79963580D01*
X213841811Y-79910775D01*
X213841816Y-79910771D01*
X213841819Y-79910770D01*
X213916108Y-79861131D01*
X213982785Y-79840252D01*
X214050166Y-79858736D01*
X214053892Y-79861131D01*
X214128180Y-79910770D01*
X214128195Y-79910778D01*
X214248236Y-79960500D01*
X214255672Y-79963580D01*
X214255676Y-79963580D01*
X214255677Y-79963581D01*
X214391004Y-79990500D01*
X214391007Y-79990500D01*
X214528995Y-79990500D01*
X214620041Y-79972389D01*
X214664328Y-79963580D01*
X214791811Y-79910775D01*
X214906542Y-79834114D01*
X214906545Y-79834110D01*
X214908556Y-79832767D01*
X214975234Y-79811889D01*
X215042614Y-79830373D01*
X215046339Y-79832767D01*
X215118182Y-79880771D01*
X215118195Y-79880778D01*
X215245667Y-79933578D01*
X215245672Y-79933580D01*
X215245676Y-79933580D01*
X215245677Y-79933581D01*
X215381004Y-79960500D01*
X215381007Y-79960500D01*
X215518995Y-79960500D01*
X215610041Y-79942389D01*
X215654328Y-79933580D01*
X215781811Y-79880775D01*
X215816109Y-79857857D01*
X215882786Y-79836980D01*
X215950166Y-79855464D01*
X215953877Y-79857848D01*
X215988189Y-79880775D01*
X215988191Y-79880776D01*
X215988195Y-79880778D01*
X216115667Y-79933578D01*
X216115672Y-79933580D01*
X216115676Y-79933580D01*
X216115677Y-79933581D01*
X216251004Y-79960500D01*
X216251007Y-79960500D01*
X216388995Y-79960500D01*
X216480041Y-79942389D01*
X216524328Y-79933580D01*
X216641234Y-79885155D01*
X216710704Y-79877687D01*
X216773183Y-79908962D01*
X216808835Y-79969051D01*
X216812686Y-80000302D01*
X216800244Y-82638163D01*
X216780243Y-82705109D01*
X216762936Y-82726239D01*
X216239645Y-83237902D01*
X216177949Y-83270696D01*
X216152238Y-83273239D01*
X197713337Y-83166792D01*
X197646412Y-83146721D01*
X197617197Y-83120220D01*
X193727144Y-78253955D01*
X193700659Y-78189300D01*
X193700000Y-78176529D01*
X193700000Y-72247771D01*
X193700868Y-72244813D01*
X193701030Y-72195229D01*
X198717966Y-72204768D01*
G37*
%TD.AperFunction*%
%TD*%
%TA.AperFunction,Conductor*%
%TO.N,GND*%
G36*
X207859512Y-55406406D02*
G01*
X207906220Y-55458369D01*
X207906237Y-55458406D01*
X207924192Y-55495933D01*
X207930778Y-55509698D01*
X207956361Y-55547986D01*
X207956759Y-55548596D01*
X207956940Y-55549198D01*
X207967480Y-55568916D01*
X207972832Y-55581836D01*
X207979888Y-55605094D01*
X207982616Y-55618805D01*
X207985000Y-55643002D01*
X207985000Y-55656990D01*
X207982616Y-55681189D01*
X207979886Y-55694909D01*
X207972831Y-55718162D01*
X207966779Y-55732773D01*
X207957131Y-55751421D01*
X207955378Y-55754201D01*
X207955369Y-55754218D01*
X207907404Y-55864416D01*
X207862600Y-55918029D01*
X207795922Y-55938907D01*
X207728542Y-55920423D01*
X207681851Y-55868444D01*
X207681851Y-55868443D01*
X207632473Y-55765237D01*
X207632472Y-55765236D01*
X207632471Y-55765233D01*
X207623976Y-55752520D01*
X207612518Y-55731081D01*
X207607166Y-55718160D01*
X207600109Y-55694898D01*
X207597382Y-55681188D01*
X207595000Y-55656998D01*
X207595000Y-55643007D01*
X207597381Y-55618825D01*
X207598077Y-55615322D01*
X207600111Y-55605093D01*
X207607163Y-55581843D01*
X207612524Y-55568900D01*
X207623975Y-55547479D01*
X207669220Y-55479768D01*
X207674182Y-55472197D01*
X207676575Y-55468473D01*
X207681370Y-55460862D01*
X207681372Y-55460857D01*
X207681376Y-55460851D01*
X207683572Y-55456699D01*
X207684902Y-55457402D01*
X207725455Y-55408845D01*
X207792125Y-55387945D01*
X207859512Y-55406406D01*
G37*
%TD.AperFunction*%
%TA.AperFunction,Conductor*%
G36*
X207872086Y-54378827D02*
G01*
X207918777Y-54430805D01*
X207918778Y-54430807D01*
X207940639Y-54476499D01*
X207954159Y-54504758D01*
X207976442Y-54538108D01*
X207976844Y-54538725D01*
X207977043Y-54539390D01*
X207987481Y-54558918D01*
X207992832Y-54571836D01*
X207999887Y-54595089D01*
X208002617Y-54608814D01*
X208005000Y-54633002D01*
X208005000Y-54646990D01*
X208002616Y-54671186D01*
X207999887Y-54684903D01*
X207992832Y-54708159D01*
X207987480Y-54721080D01*
X207976021Y-54742518D01*
X207935972Y-54802456D01*
X207935959Y-54802474D01*
X207930437Y-54810741D01*
X207930356Y-54810863D01*
X207907682Y-54844797D01*
X207854070Y-54889602D01*
X207784745Y-54898309D01*
X207721717Y-54868155D01*
X207692723Y-54829422D01*
X207669222Y-54780301D01*
X207669220Y-54780298D01*
X207643978Y-54742522D01*
X207632517Y-54721080D01*
X207627162Y-54708152D01*
X207620109Y-54684898D01*
X207617382Y-54671188D01*
X207615000Y-54646998D01*
X207615000Y-54633007D01*
X207617381Y-54608822D01*
X207620112Y-54595091D01*
X207627165Y-54571837D01*
X207632517Y-54558917D01*
X207643993Y-54537454D01*
X207645835Y-54534699D01*
X207650797Y-54527127D01*
X207653190Y-54523403D01*
X207657989Y-54515786D01*
X207693225Y-54434832D01*
X207738029Y-54381222D01*
X207804706Y-54360343D01*
X207872086Y-54378827D01*
G37*
%TD.AperFunction*%
%TA.AperFunction,Conductor*%
G36*
X255782606Y-41055523D02*
G01*
X255797604Y-41059927D01*
X255812594Y-41069557D01*
X255829675Y-41074567D01*
X255856355Y-41097672D01*
X255857542Y-41099041D01*
X255885018Y-41153902D01*
X255886663Y-41161460D01*
X255889500Y-41187831D01*
X255889500Y-98807670D01*
X255884475Y-98842614D01*
X255880070Y-98857612D01*
X255870439Y-98872601D01*
X255865432Y-98889675D01*
X255842327Y-98916355D01*
X255840958Y-98917542D01*
X255786097Y-98945018D01*
X255778539Y-98946663D01*
X255752168Y-98949500D01*
X143817330Y-98949500D01*
X143782389Y-98944475D01*
X143767390Y-98940070D01*
X143752402Y-98930440D01*
X143735324Y-98925432D01*
X143708644Y-98902327D01*
X143707457Y-98900958D01*
X143679977Y-98846083D01*
X143678332Y-98838521D01*
X143675500Y-98812168D01*
X143675500Y-94731995D01*
X146036610Y-94731995D01*
X146036610Y-94968004D01*
X146036611Y-94968020D01*
X146060922Y-95152686D01*
X146067416Y-95202010D01*
X146067419Y-95202022D01*
X146085819Y-95270696D01*
X146085820Y-95270696D01*
X146128504Y-95429993D01*
X146216507Y-95642453D01*
X146218824Y-95648045D01*
X146218829Y-95648056D01*
X146289787Y-95770957D01*
X146336837Y-95852450D01*
X146336839Y-95852453D01*
X146336840Y-95852454D01*
X146342556Y-95859904D01*
X146342559Y-95859908D01*
X146480509Y-96039689D01*
X146480514Y-96039695D01*
X146480516Y-96039697D01*
X146480522Y-96039704D01*
X146480530Y-96039712D01*
X146647391Y-96206574D01*
X146647403Y-96206585D01*
X146647405Y-96206587D01*
X146647411Y-96206592D01*
X146647415Y-96206595D01*
X146834658Y-96350272D01*
X146834660Y-96350273D01*
X146966028Y-96426118D01*
X147035626Y-96466301D01*
X147037365Y-96467382D01*
X147038770Y-96468162D01*
X147039048Y-96468277D01*
X147039053Y-96468280D01*
X147039058Y-96468282D01*
X147039061Y-96468284D01*
X147257117Y-96558606D01*
X147485096Y-96619693D01*
X147719099Y-96650500D01*
X147719106Y-96650500D01*
X147955114Y-96650500D01*
X147955121Y-96650500D01*
X148189124Y-96619693D01*
X148417103Y-96558606D01*
X148635159Y-96468284D01*
X148839560Y-96350273D01*
X149026809Y-96206592D01*
X149193702Y-96039699D01*
X149337383Y-95852450D01*
X149455394Y-95648049D01*
X149545716Y-95429993D01*
X149606803Y-95202014D01*
X149637610Y-94968011D01*
X149637610Y-94731989D01*
X149606803Y-94497986D01*
X149545716Y-94270007D01*
X149455394Y-94051951D01*
X149455392Y-94051948D01*
X149455390Y-94051943D01*
X149455387Y-94051938D01*
X149455272Y-94051660D01*
X149454492Y-94050255D01*
X149453407Y-94048509D01*
X149413228Y-93978918D01*
X149337383Y-93847550D01*
X149216621Y-93690170D01*
X149193703Y-93660302D01*
X149193697Y-93660295D01*
X149026814Y-93493412D01*
X149026807Y-93493406D01*
X149026804Y-93493403D01*
X149026799Y-93493399D01*
X148847018Y-93355449D01*
X148847014Y-93355446D01*
X148839564Y-93349730D01*
X148839563Y-93349729D01*
X148839560Y-93349727D01*
X148758067Y-93302677D01*
X148757392Y-93302287D01*
X148757373Y-93302276D01*
X148635175Y-93231724D01*
X148635158Y-93231715D01*
X148417107Y-93141395D01*
X148276088Y-93103609D01*
X148189120Y-93080306D01*
X148189119Y-93080305D01*
X148189116Y-93080305D01*
X147956999Y-93049747D01*
X147955318Y-93049500D01*
X147955127Y-93049500D01*
X147955121Y-93049500D01*
X147719099Y-93049500D01*
X147719093Y-93049500D01*
X147719091Y-93049500D01*
X147712971Y-93050253D01*
X147712065Y-93050425D01*
X147485102Y-93080305D01*
X147257111Y-93141395D01*
X147039060Y-93231715D01*
X147039052Y-93231719D01*
X146834655Y-93349730D01*
X146834646Y-93349736D01*
X146647419Y-93493399D01*
X146647404Y-93493413D01*
X146647396Y-93493420D01*
X146480530Y-93660286D01*
X146480523Y-93660294D01*
X146480509Y-93660309D01*
X146336846Y-93847536D01*
X146336840Y-93847545D01*
X146218829Y-94051942D01*
X146218825Y-94051950D01*
X146128505Y-94270001D01*
X146067415Y-94497992D01*
X146044847Y-94669416D01*
X146036611Y-94731979D01*
X146036610Y-94731995D01*
X143675500Y-94731995D01*
X143675500Y-82984693D01*
X148294500Y-82984693D01*
X148294500Y-84824537D01*
X148295411Y-84833501D01*
X148304834Y-84926233D01*
X148314866Y-84975083D01*
X148314866Y-84975085D01*
X148345444Y-85072617D01*
X151174182Y-91669742D01*
X151184217Y-91718878D01*
X151177789Y-94669414D01*
X151174777Y-96052178D01*
X151184538Y-96140273D01*
X151187281Y-96165021D01*
X151199510Y-96218980D01*
X151199512Y-96218987D01*
X151199513Y-96218989D01*
X151236876Y-96326180D01*
X151317012Y-96445679D01*
X151362771Y-96496451D01*
X151363606Y-96497401D01*
X151363794Y-96497586D01*
X151363795Y-96497587D01*
X151474352Y-96589666D01*
X151606373Y-96646867D01*
X151673784Y-96665238D01*
X151816568Y-96682929D01*
X154621845Y-96628138D01*
X156685892Y-96587826D01*
X156685898Y-96587825D01*
X156685907Y-96587825D01*
X156793080Y-96574184D01*
X156805943Y-96571122D01*
X156844336Y-96561985D01*
X156844341Y-96561983D01*
X156844351Y-96561981D01*
X156946188Y-96525873D01*
X157065694Y-96445750D01*
X157117599Y-96398979D01*
X157209689Y-96288437D01*
X157266908Y-96156424D01*
X157285288Y-96089015D01*
X157285289Y-96089011D01*
X157302997Y-95946224D01*
X157266748Y-94079408D01*
X190209500Y-94079408D01*
X190209500Y-94280176D01*
X190213194Y-94303497D01*
X190214515Y-94311843D01*
X190214516Y-94311848D01*
X190240907Y-94478473D01*
X190255048Y-94521995D01*
X190302949Y-94669418D01*
X190394095Y-94848300D01*
X190512103Y-95010724D01*
X190654068Y-95152689D01*
X190816492Y-95270697D01*
X190901007Y-95313759D01*
X190988932Y-95358560D01*
X190990534Y-95359498D01*
X190994256Y-95361301D01*
X190996230Y-95362281D01*
X190999984Y-95363340D01*
X191186320Y-95423885D01*
X191384616Y-95455292D01*
X191384617Y-95455292D01*
X191585383Y-95455292D01*
X191585384Y-95455292D01*
X191783680Y-95423885D01*
X191974622Y-95361844D01*
X192153508Y-95270697D01*
X192315932Y-95152689D01*
X192457897Y-95010724D01*
X192575905Y-94848300D01*
X192667052Y-94669414D01*
X192729093Y-94478472D01*
X192760500Y-94280176D01*
X192760500Y-94079408D01*
X195289500Y-94079408D01*
X195289500Y-94280176D01*
X195293194Y-94303497D01*
X195294515Y-94311843D01*
X195294516Y-94311848D01*
X195320907Y-94478473D01*
X195335048Y-94521995D01*
X195382949Y-94669418D01*
X195474095Y-94848300D01*
X195592103Y-95010724D01*
X195734068Y-95152689D01*
X195896492Y-95270697D01*
X195981007Y-95313759D01*
X196068932Y-95358560D01*
X196070534Y-95359498D01*
X196074256Y-95361301D01*
X196076230Y-95362281D01*
X196079984Y-95363340D01*
X196266320Y-95423885D01*
X196464616Y-95455292D01*
X196464617Y-95455292D01*
X196665383Y-95455292D01*
X196665384Y-95455292D01*
X196863680Y-95423885D01*
X197054622Y-95361844D01*
X197233508Y-95270697D01*
X197395932Y-95152689D01*
X197537897Y-95010724D01*
X197655905Y-94848300D01*
X197747052Y-94669414D01*
X197794954Y-94521987D01*
X250049500Y-94521987D01*
X250049500Y-94758011D01*
X250049503Y-94758035D01*
X250080305Y-94992006D01*
X250141395Y-95219997D01*
X250231714Y-95438045D01*
X250231719Y-95438056D01*
X250302677Y-95560957D01*
X250349727Y-95642450D01*
X250349729Y-95642453D01*
X250349730Y-95642454D01*
X250355446Y-95649904D01*
X250355449Y-95649908D01*
X250493399Y-95829689D01*
X250493403Y-95829694D01*
X250493406Y-95829697D01*
X250493412Y-95829704D01*
X250660295Y-95996587D01*
X250660302Y-95996593D01*
X250660305Y-95996595D01*
X250660309Y-95996599D01*
X250716466Y-96039689D01*
X250716479Y-96039699D01*
X250847550Y-96140273D01*
X250962409Y-96206587D01*
X250983890Y-96218989D01*
X251048503Y-96256294D01*
X251050245Y-96257376D01*
X251051663Y-96258163D01*
X251051937Y-96258276D01*
X251051943Y-96258280D01*
X251051948Y-96258282D01*
X251051951Y-96258284D01*
X251270007Y-96348606D01*
X251497986Y-96409693D01*
X251731989Y-96440500D01*
X251731996Y-96440500D01*
X251968004Y-96440500D01*
X251968011Y-96440500D01*
X252202014Y-96409693D01*
X252429993Y-96348606D01*
X252648049Y-96258284D01*
X252852450Y-96140273D01*
X253039699Y-95996592D01*
X253206592Y-95829699D01*
X253350273Y-95642450D01*
X253468284Y-95438049D01*
X253558606Y-95219993D01*
X253619693Y-94992014D01*
X253650500Y-94758011D01*
X253650500Y-94521989D01*
X253619693Y-94287986D01*
X253558606Y-94060007D01*
X253468284Y-93841951D01*
X253468282Y-93841948D01*
X253468280Y-93841943D01*
X253468276Y-93841937D01*
X253468163Y-93841663D01*
X253467376Y-93840245D01*
X253466294Y-93838503D01*
X253449011Y-93808569D01*
X253380650Y-93690165D01*
X253350273Y-93637550D01*
X253350262Y-93637536D01*
X253291001Y-93560306D01*
X253291000Y-93560305D01*
X253278899Y-93544535D01*
X253206593Y-93450302D01*
X253206587Y-93450295D01*
X253039704Y-93283412D01*
X253039697Y-93283406D01*
X253039694Y-93283403D01*
X253039689Y-93283399D01*
X252860014Y-93145531D01*
X252852454Y-93139730D01*
X252852453Y-93139729D01*
X252852450Y-93139727D01*
X252749530Y-93080306D01*
X252748954Y-93079973D01*
X252748916Y-93079951D01*
X252648065Y-93021724D01*
X252648048Y-93021715D01*
X252429997Y-92931395D01*
X252202006Y-92870305D01*
X251969889Y-92839747D01*
X251968208Y-92839500D01*
X251968017Y-92839500D01*
X251968011Y-92839500D01*
X251731989Y-92839500D01*
X251731983Y-92839500D01*
X251731981Y-92839500D01*
X251725861Y-92840253D01*
X251724955Y-92840425D01*
X251497992Y-92870305D01*
X251270001Y-92931395D01*
X251051950Y-93021715D01*
X251051942Y-93021719D01*
X250847545Y-93139730D01*
X250847536Y-93139736D01*
X250660309Y-93283399D01*
X250660294Y-93283413D01*
X250660286Y-93283420D01*
X250493420Y-93450286D01*
X250493413Y-93450294D01*
X250493399Y-93450309D01*
X250349736Y-93637536D01*
X250349730Y-93637545D01*
X250231719Y-93841942D01*
X250231715Y-93841950D01*
X250141395Y-94060001D01*
X250080305Y-94287992D01*
X250049503Y-94521963D01*
X250049500Y-94521987D01*
X197794954Y-94521987D01*
X197802752Y-94497989D01*
X197808723Y-94479611D01*
X197808723Y-94479610D01*
X197808724Y-94479607D01*
X197809093Y-94478472D01*
X197840500Y-94280176D01*
X197840500Y-94079408D01*
X197809093Y-93881112D01*
X197809092Y-93881108D01*
X197809092Y-93881107D01*
X197749666Y-93698214D01*
X197749663Y-93698208D01*
X197747052Y-93690170D01*
X197747050Y-93690167D01*
X197747050Y-93690165D01*
X197744807Y-93685764D01*
X197744497Y-93684968D01*
X197743765Y-93683718D01*
X197685359Y-93569091D01*
X197680882Y-93560305D01*
X197655905Y-93511284D01*
X197537897Y-93348860D01*
X197395932Y-93206895D01*
X197233508Y-93088887D01*
X197233507Y-93088886D01*
X197233505Y-93088885D01*
X197216667Y-93080305D01*
X197216667Y-93080306D01*
X197054626Y-92997741D01*
X197053857Y-92997491D01*
X196863680Y-92935698D01*
X196836500Y-92931394D01*
X196836499Y-92931394D01*
X196665384Y-92904292D01*
X196665383Y-92904292D01*
X196464612Y-92904292D01*
X196266318Y-92935698D01*
X196112978Y-92985522D01*
X196075373Y-92997741D01*
X195978702Y-93046997D01*
X195896498Y-93088883D01*
X195896485Y-93088891D01*
X195824221Y-93141394D01*
X195745938Y-93198270D01*
X195738559Y-93202402D01*
X195587610Y-93353351D01*
X195583480Y-93360727D01*
X195563324Y-93388471D01*
X195563322Y-93388473D01*
X195487079Y-93493412D01*
X195474095Y-93511283D01*
X195474093Y-93511285D01*
X195474091Y-93511290D01*
X195382944Y-93690174D01*
X195331812Y-93847549D01*
X195331811Y-93847552D01*
X195320908Y-93881104D01*
X195320907Y-93881110D01*
X195289614Y-94078683D01*
X195289614Y-94078687D01*
X195289500Y-94079408D01*
X192760500Y-94079408D01*
X192729093Y-93881112D01*
X192729092Y-93881108D01*
X192729092Y-93881107D01*
X192669666Y-93698214D01*
X192669663Y-93698208D01*
X192667052Y-93690170D01*
X192667050Y-93690167D01*
X192667050Y-93690165D01*
X192664807Y-93685764D01*
X192664497Y-93684968D01*
X192663765Y-93683718D01*
X192605359Y-93569091D01*
X192600882Y-93560305D01*
X192575905Y-93511284D01*
X192457897Y-93348860D01*
X192315932Y-93206895D01*
X192153508Y-93088887D01*
X192153507Y-93088886D01*
X192153505Y-93088885D01*
X192136667Y-93080305D01*
X192136667Y-93080306D01*
X191974626Y-92997741D01*
X191973857Y-92997491D01*
X191783680Y-92935698D01*
X191756500Y-92931394D01*
X191756499Y-92931394D01*
X191585384Y-92904292D01*
X191585383Y-92904292D01*
X191384612Y-92904292D01*
X191186318Y-92935698D01*
X191032978Y-92985522D01*
X190995373Y-92997741D01*
X190898702Y-93046997D01*
X190816498Y-93088883D01*
X190816485Y-93088891D01*
X190744221Y-93141394D01*
X190665938Y-93198270D01*
X190658559Y-93202402D01*
X190507610Y-93353351D01*
X190503480Y-93360727D01*
X190483324Y-93388471D01*
X190483322Y-93388473D01*
X190407079Y-93493412D01*
X190394095Y-93511283D01*
X190394093Y-93511285D01*
X190394091Y-93511290D01*
X190302944Y-93690174D01*
X190251812Y-93847549D01*
X190251811Y-93847552D01*
X190240908Y-93881104D01*
X190240907Y-93881110D01*
X190209614Y-94078683D01*
X190209614Y-94078687D01*
X190209500Y-94079408D01*
X157266748Y-94079408D01*
X157247801Y-93103616D01*
X157234421Y-92997491D01*
X157222453Y-92946701D01*
X157187046Y-92845774D01*
X157187044Y-92845771D01*
X157183604Y-92838859D01*
X157185440Y-92837945D01*
X157167901Y-92781354D01*
X157186581Y-92714027D01*
X157238695Y-92667488D01*
X157291887Y-92655500D01*
X157342053Y-92655500D01*
X157342062Y-92655500D01*
X157396593Y-92652550D01*
X157423190Y-92649664D01*
X157477086Y-92640849D01*
X157484859Y-92639142D01*
X157603986Y-92596793D01*
X157658939Y-92569090D01*
X157763799Y-92498534D01*
X157765089Y-92497408D01*
X157765217Y-92497296D01*
X157765279Y-92497224D01*
X157859003Y-92388191D01*
X157859003Y-92388189D01*
X157859007Y-92388186D01*
X157874005Y-92364644D01*
X208162800Y-92364644D01*
X208162800Y-92585356D01*
X208164612Y-92596795D01*
X208171551Y-92640606D01*
X208197327Y-92803351D01*
X208265527Y-93013252D01*
X208265530Y-93013261D01*
X208330818Y-93141394D01*
X208351754Y-93182482D01*
X208365731Y-93209913D01*
X208495462Y-93388472D01*
X208651528Y-93544538D01*
X208830087Y-93674269D01*
X208900213Y-93710000D01*
X209026741Y-93774470D01*
X209026744Y-93774471D01*
X209131696Y-93808571D01*
X209184173Y-93825622D01*
X209236650Y-93842673D01*
X209345647Y-93859936D01*
X209454644Y-93877200D01*
X209454645Y-93877200D01*
X209675355Y-93877200D01*
X209675356Y-93877200D01*
X209893349Y-93842673D01*
X210103258Y-93774470D01*
X210299913Y-93674269D01*
X210478472Y-93544538D01*
X210634538Y-93388472D01*
X210764269Y-93209913D01*
X210864470Y-93013258D01*
X210932673Y-92803349D01*
X210967200Y-92585356D01*
X210967200Y-92364644D01*
X210932673Y-92146651D01*
X210898571Y-92041696D01*
X210892457Y-92022878D01*
X210864479Y-91936767D01*
X210864472Y-91936748D01*
X210864472Y-91936747D01*
X210864471Y-91936746D01*
X210864471Y-91936744D01*
X210864470Y-91936741D01*
X210764268Y-91740086D01*
X210634538Y-91561528D01*
X210478472Y-91405462D01*
X210299913Y-91275731D01*
X210103258Y-91175529D01*
X210103255Y-91175528D01*
X210103254Y-91175527D01*
X210103251Y-91175526D01*
X209893351Y-91107327D01*
X209784352Y-91090063D01*
X209675361Y-91072800D01*
X209675356Y-91072800D01*
X209454644Y-91072800D01*
X209381979Y-91084309D01*
X209236647Y-91107327D01*
X209026747Y-91175526D01*
X208830093Y-91275727D01*
X208830080Y-91275735D01*
X208739169Y-91341786D01*
X208663398Y-91396837D01*
X208656019Y-91400969D01*
X208490970Y-91566018D01*
X208486837Y-91573399D01*
X208439747Y-91638212D01*
X208439746Y-91638211D01*
X208365733Y-91740082D01*
X208265526Y-91936747D01*
X208197327Y-92146647D01*
X208167830Y-92332886D01*
X208166055Y-92344091D01*
X208162800Y-92364644D01*
X157874005Y-92364644D01*
X157896547Y-92329261D01*
X157955784Y-92198198D01*
X157960130Y-92183183D01*
X157975194Y-92112616D01*
X157980079Y-92077668D01*
X157984942Y-92005723D01*
X157984921Y-92000449D01*
X157983512Y-91638211D01*
X157980089Y-90758870D01*
X159639500Y-90758870D01*
X159639500Y-90991128D01*
X159675831Y-91220515D01*
X159675831Y-91220518D01*
X159733122Y-91396837D01*
X159747601Y-91441400D01*
X159853039Y-91648331D01*
X159989551Y-91836224D01*
X160153776Y-92000449D01*
X160341669Y-92136961D01*
X160360683Y-92146649D01*
X160542155Y-92239115D01*
X160543750Y-92240048D01*
X160547455Y-92241843D01*
X160549460Y-92242839D01*
X160553224Y-92243901D01*
X160769486Y-92314169D01*
X160830029Y-92323757D01*
X160887507Y-92332861D01*
X160887606Y-92332876D01*
X160887668Y-92332886D01*
X160998871Y-92350500D01*
X160998876Y-92350500D01*
X161231128Y-92350500D01*
X161231129Y-92350500D01*
X161332502Y-92334443D01*
X161332503Y-92334443D01*
X161365196Y-92329265D01*
X161460514Y-92314169D01*
X161681396Y-92242400D01*
X161888331Y-92136961D01*
X162076224Y-92000449D01*
X162240449Y-91836224D01*
X162376961Y-91648331D01*
X162482400Y-91441396D01*
X162554169Y-91220514D01*
X162573387Y-91099172D01*
X162577564Y-91072802D01*
X162577564Y-91072801D01*
X162590500Y-90991128D01*
X162590500Y-90763411D01*
X162590500Y-90758870D01*
X169799500Y-90758870D01*
X169799500Y-90991128D01*
X169835831Y-91220515D01*
X169835831Y-91220518D01*
X169893122Y-91396837D01*
X169907601Y-91441400D01*
X170013039Y-91648331D01*
X170149551Y-91836224D01*
X170313776Y-92000449D01*
X170501669Y-92136961D01*
X170520683Y-92146649D01*
X170702155Y-92239115D01*
X170703750Y-92240048D01*
X170707455Y-92241843D01*
X170709460Y-92242839D01*
X170713224Y-92243901D01*
X170929486Y-92314169D01*
X170990029Y-92323757D01*
X171047507Y-92332861D01*
X171047606Y-92332876D01*
X171047668Y-92332886D01*
X171158871Y-92350500D01*
X171158876Y-92350500D01*
X171391128Y-92350500D01*
X171391129Y-92350500D01*
X171492502Y-92334443D01*
X171492503Y-92334443D01*
X171525196Y-92329265D01*
X171620514Y-92314169D01*
X171841396Y-92242400D01*
X172048331Y-92136961D01*
X172236224Y-92000449D01*
X172400449Y-91836224D01*
X172536961Y-91648331D01*
X172642400Y-91441396D01*
X172714169Y-91220514D01*
X172733387Y-91099172D01*
X172737564Y-91072802D01*
X172737564Y-91072801D01*
X172750500Y-90991128D01*
X172750500Y-90758871D01*
X172731232Y-90637222D01*
X172731232Y-90637220D01*
X172714169Y-90529487D01*
X172714168Y-90529482D01*
X172645012Y-90316642D01*
X172645010Y-90316637D01*
X172642400Y-90308604D01*
X172642398Y-90308601D01*
X172642398Y-90308599D01*
X172640159Y-90304205D01*
X172639849Y-90303410D01*
X172639115Y-90302156D01*
X172558293Y-90143535D01*
X172558293Y-90143534D01*
X172536962Y-90101670D01*
X172497633Y-90047538D01*
X172400449Y-89913776D01*
X172236224Y-89749551D01*
X172048331Y-89613039D01*
X171841400Y-89507601D01*
X171771684Y-89484949D01*
X171620516Y-89435831D01*
X171467590Y-89411610D01*
X171391129Y-89399500D01*
X171391128Y-89399500D01*
X171158866Y-89399500D01*
X170929484Y-89435830D01*
X170708601Y-89507600D01*
X170501667Y-89613039D01*
X170394466Y-89690925D01*
X170313773Y-89749553D01*
X170313771Y-89749555D01*
X170313770Y-89749555D01*
X170149555Y-89913770D01*
X170149555Y-89913771D01*
X170149553Y-89913773D01*
X170135066Y-89933713D01*
X170013039Y-90101667D01*
X169966446Y-90193111D01*
X169907601Y-90308599D01*
X169907600Y-90308601D01*
X169907600Y-90308602D01*
X169835831Y-90529480D01*
X169835831Y-90529483D01*
X169799500Y-90758870D01*
X162590500Y-90758870D01*
X162571232Y-90637222D01*
X162554169Y-90529486D01*
X162540205Y-90486510D01*
X162485012Y-90316642D01*
X162485010Y-90316637D01*
X162482400Y-90308604D01*
X162482398Y-90308601D01*
X162482398Y-90308599D01*
X162480159Y-90304205D01*
X162479849Y-90303410D01*
X162479115Y-90302156D01*
X162398293Y-90143535D01*
X162398293Y-90143534D01*
X162376962Y-90101670D01*
X162337633Y-90047538D01*
X162240449Y-89913776D01*
X162076224Y-89749551D01*
X161888331Y-89613039D01*
X161681400Y-89507601D01*
X161611684Y-89484949D01*
X161460516Y-89435831D01*
X161307590Y-89411610D01*
X161231129Y-89399500D01*
X161231128Y-89399500D01*
X160998866Y-89399500D01*
X160769484Y-89435830D01*
X160548601Y-89507600D01*
X160341667Y-89613039D01*
X160234466Y-89690925D01*
X160153773Y-89749553D01*
X160153771Y-89749555D01*
X160153770Y-89749555D01*
X159989555Y-89913770D01*
X159989555Y-89913771D01*
X159989553Y-89913773D01*
X159975066Y-89933713D01*
X159853039Y-90101667D01*
X159806446Y-90193111D01*
X159747601Y-90308599D01*
X159747600Y-90308601D01*
X159747600Y-90308602D01*
X159675831Y-90529480D01*
X159675831Y-90529483D01*
X159639500Y-90758870D01*
X157980089Y-90758870D01*
X157976858Y-89928711D01*
X157996281Y-89861598D01*
X158039187Y-89820654D01*
X162142005Y-87468848D01*
X185619499Y-87468848D01*
X185650257Y-87623471D01*
X185650264Y-87623502D01*
X185710598Y-87769165D01*
X185710603Y-87769174D01*
X185710613Y-87769191D01*
X185798211Y-87900290D01*
X185798212Y-87900291D01*
X185798217Y-87900297D01*
X185909701Y-88011781D01*
X185909707Y-88011786D01*
X185909711Y-88011789D01*
X186040814Y-88099390D01*
X186040827Y-88099397D01*
X186186498Y-88159735D01*
X186186503Y-88159737D01*
X186341153Y-88190499D01*
X186341156Y-88190500D01*
X186341158Y-88190500D01*
X186498844Y-88190500D01*
X186498845Y-88190499D01*
X186653497Y-88159737D01*
X186799179Y-88099394D01*
X186930289Y-88011789D01*
X187041789Y-87900289D01*
X187129394Y-87769179D01*
X187189737Y-87623497D01*
X187208380Y-87529763D01*
X187220122Y-87496483D01*
X187235481Y-87467120D01*
X187257673Y-87436915D01*
X187460166Y-87234421D01*
X187488422Y-87213271D01*
X187511511Y-87200665D01*
X187570932Y-87185500D01*
X197592718Y-87185500D01*
X197627645Y-87190521D01*
X197638498Y-87193707D01*
X197697279Y-87231477D01*
X197726308Y-87295031D01*
X197716369Y-87364190D01*
X197716368Y-87364192D01*
X197713183Y-87371167D01*
X197688067Y-87407342D01*
X195351270Y-89744138D01*
X195351270Y-89744139D01*
X195264142Y-89831265D01*
X195264135Y-89831274D01*
X195196486Y-89932515D01*
X195196484Y-89932518D01*
X195195690Y-89933708D01*
X195195688Y-89933713D01*
X195148540Y-90047538D01*
X195148535Y-90047554D01*
X195130307Y-90139195D01*
X195130304Y-90139211D01*
X195129445Y-90143535D01*
X195128850Y-90146522D01*
X195128849Y-90146528D01*
X195124499Y-90168396D01*
X195124228Y-90171147D01*
X195124329Y-90171570D01*
X195124085Y-90172604D01*
X195123903Y-90174454D01*
X195123654Y-90174429D01*
X195120925Y-90186005D01*
X195117480Y-90206194D01*
X195115986Y-90210441D01*
X195112559Y-90218314D01*
X195109219Y-90229687D01*
X195108140Y-90232758D01*
X195105572Y-90236326D01*
X195094262Y-90260518D01*
X195040613Y-90340808D01*
X195040603Y-90340825D01*
X195040598Y-90340834D01*
X194980264Y-90486496D01*
X194980257Y-90486527D01*
X194949500Y-90641150D01*
X194949500Y-90798845D01*
X194949499Y-90798848D01*
X194980257Y-90953471D01*
X194980264Y-90953502D01*
X195040598Y-91099165D01*
X195040603Y-91099174D01*
X195040613Y-91099191D01*
X195128211Y-91230290D01*
X195128212Y-91230291D01*
X195128217Y-91230297D01*
X195239701Y-91341781D01*
X195239707Y-91341786D01*
X195239711Y-91341789D01*
X195370814Y-91429390D01*
X195370827Y-91429397D01*
X195516498Y-91489735D01*
X195516503Y-91489737D01*
X195671153Y-91520499D01*
X195671156Y-91520500D01*
X195671158Y-91520500D01*
X195828844Y-91520500D01*
X195828845Y-91520499D01*
X195983497Y-91489737D01*
X196129179Y-91429394D01*
X196260289Y-91341789D01*
X196371789Y-91230289D01*
X196459394Y-91099179D01*
X196519737Y-90953497D01*
X196524983Y-90927125D01*
X227184500Y-90927125D01*
X227184500Y-93122876D01*
X227184659Y-93124806D01*
X227184885Y-93126454D01*
X227190907Y-93182482D01*
X227209270Y-93231714D01*
X227241202Y-93317328D01*
X227241206Y-93317335D01*
X227284086Y-93374616D01*
X227327450Y-93432542D01*
X227327456Y-93432548D01*
X227356419Y-93454229D01*
X227442664Y-93518793D01*
X227442671Y-93518797D01*
X227577517Y-93569091D01*
X227577516Y-93569091D01*
X227584444Y-93569835D01*
X227637127Y-93575500D01*
X229832872Y-93575499D01*
X229892483Y-93569091D01*
X230027331Y-93518796D01*
X230142546Y-93432546D01*
X230228796Y-93317331D01*
X230279091Y-93182483D01*
X230285500Y-93122873D01*
X230285499Y-90927128D01*
X230279091Y-90867517D01*
X230253478Y-90798846D01*
X230228797Y-90732671D01*
X230228793Y-90732664D01*
X230142547Y-90617455D01*
X230142544Y-90617452D01*
X230142542Y-90617450D01*
X230084616Y-90574086D01*
X230027335Y-90531206D01*
X230027332Y-90531204D01*
X230027330Y-90531203D01*
X230027328Y-90531202D01*
X229892482Y-90480908D01*
X229892483Y-90480908D01*
X229832883Y-90474501D01*
X229832881Y-90474500D01*
X229832873Y-90474500D01*
X229832864Y-90474500D01*
X229831841Y-90474500D01*
X227637123Y-90474500D01*
X227635192Y-90474659D01*
X227633545Y-90474885D01*
X227577516Y-90480908D01*
X227442666Y-90531204D01*
X227442665Y-90531205D01*
X227327456Y-90617450D01*
X227327453Y-90617453D01*
X227327453Y-90617454D01*
X227327452Y-90617455D01*
X227312656Y-90637220D01*
X227241205Y-90732665D01*
X227241203Y-90732668D01*
X227190908Y-90867516D01*
X227184500Y-90927125D01*
X196524983Y-90927125D01*
X196536840Y-90867516D01*
X196550500Y-90798844D01*
X196550500Y-90641155D01*
X196550500Y-90640971D01*
X196550064Y-90638966D01*
X196545785Y-90617454D01*
X196519738Y-90486506D01*
X196519736Y-90486501D01*
X196517420Y-90480908D01*
X196517418Y-90480904D01*
X196516774Y-90479349D01*
X196508049Y-90445160D01*
X196506378Y-90429620D01*
X196509544Y-90412068D01*
X196509309Y-90409880D01*
X196510293Y-90407912D01*
X196518781Y-90360863D01*
X196524879Y-90348681D01*
X196548078Y-90316509D01*
X198690171Y-88174418D01*
X198718416Y-88153275D01*
X198741508Y-88140667D01*
X198800933Y-88125500D01*
X216701607Y-88125500D01*
X216762029Y-88113481D01*
X216822452Y-88101463D01*
X216855792Y-88087652D01*
X216936286Y-88054312D01*
X216994369Y-88015501D01*
X217038733Y-87985858D01*
X217125858Y-87898733D01*
X217125858Y-87898732D01*
X217138933Y-87885657D01*
X217143804Y-87880783D01*
X217146257Y-87878330D01*
X217146265Y-87878326D01*
X217146275Y-87878312D01*
X222835857Y-82188734D01*
X222839624Y-82183095D01*
X222843364Y-82177501D01*
X222901379Y-82090672D01*
X222903387Y-82087931D01*
X222904894Y-82085534D01*
X222906619Y-82080713D01*
X222947753Y-81981406D01*
X222951768Y-81976424D01*
X222958592Y-81960907D01*
X222965105Y-81950967D01*
X222987954Y-81931522D01*
X222991593Y-81927007D01*
X222997114Y-81923726D01*
X223018312Y-81905686D01*
X223087556Y-81896358D01*
X223150851Y-81925946D01*
X223187945Y-81984513D01*
X223189627Y-81990336D01*
X223194500Y-82024752D01*
X223194500Y-83825001D01*
X223194501Y-83825018D01*
X223194502Y-83825026D01*
X223205000Y-83927797D01*
X223205001Y-83927799D01*
X223258653Y-84089707D01*
X223258653Y-84089709D01*
X223258654Y-84089711D01*
X223260186Y-84094334D01*
X223352288Y-84243656D01*
X223476344Y-84367712D01*
X223625666Y-84459814D01*
X223792203Y-84514999D01*
X223894991Y-84525500D01*
X226095008Y-84525499D01*
X226197797Y-84514999D01*
X226364334Y-84459814D01*
X226513656Y-84367712D01*
X226637712Y-84243656D01*
X226729814Y-84094334D01*
X226784999Y-83927797D01*
X226795500Y-83825009D01*
X226795500Y-83558848D01*
X242079499Y-83558848D01*
X242110257Y-83713471D01*
X242110264Y-83713502D01*
X242170598Y-83859165D01*
X242170603Y-83859174D01*
X242170613Y-83859191D01*
X242258211Y-83990290D01*
X242258212Y-83990291D01*
X242258217Y-83990297D01*
X242369701Y-84101781D01*
X242369707Y-84101786D01*
X242369711Y-84101789D01*
X242500814Y-84189390D01*
X242500827Y-84189397D01*
X242631822Y-84243656D01*
X242646503Y-84249737D01*
X242646507Y-84249737D01*
X242646510Y-84249739D01*
X242730279Y-84266401D01*
X242801153Y-84280499D01*
X242801156Y-84280500D01*
X242801158Y-84280500D01*
X242958844Y-84280500D01*
X242958845Y-84280499D01*
X243113497Y-84249737D01*
X243259179Y-84189394D01*
X243390289Y-84101789D01*
X243501789Y-83990289D01*
X243589394Y-83859179D01*
X243649737Y-83713497D01*
X243680500Y-83558842D01*
X243680500Y-83401158D01*
X243680500Y-83401155D01*
X243680500Y-83400973D01*
X243680065Y-83398972D01*
X243650398Y-83249830D01*
X243649983Y-83247403D01*
X243649737Y-83246504D01*
X243619494Y-83173489D01*
X243589402Y-83100840D01*
X243589399Y-83100833D01*
X243589397Y-83100827D01*
X243589390Y-83100814D01*
X243501789Y-82969711D01*
X243501786Y-82969707D01*
X243501781Y-82969701D01*
X243390297Y-82858217D01*
X243390291Y-82858212D01*
X243390290Y-82858211D01*
X243259191Y-82770613D01*
X243259190Y-82770612D01*
X243259185Y-82770609D01*
X243259172Y-82770602D01*
X243259158Y-82770596D01*
X243190418Y-82742123D01*
X243190416Y-82742123D01*
X243188600Y-82741371D01*
X243188589Y-82741366D01*
X243113502Y-82710264D01*
X243113471Y-82710257D01*
X242958847Y-82679500D01*
X242958845Y-82679500D01*
X242958842Y-82679500D01*
X242801158Y-82679500D01*
X242801155Y-82679500D01*
X242801153Y-82679500D01*
X242646527Y-82710257D01*
X242646496Y-82710264D01*
X242500833Y-82770598D01*
X242500824Y-82770603D01*
X242500807Y-82770613D01*
X242369708Y-82858211D01*
X242369707Y-82858212D01*
X242369701Y-82858217D01*
X242258217Y-82969701D01*
X242258212Y-82969707D01*
X242258211Y-82969708D01*
X242170613Y-83100807D01*
X242170603Y-83100824D01*
X242170598Y-83100833D01*
X242110264Y-83246496D01*
X242110257Y-83246527D01*
X242079500Y-83401150D01*
X242079500Y-83401153D01*
X242079500Y-83558846D01*
X242079500Y-83558848D01*
X242079499Y-83558848D01*
X226795500Y-83558848D01*
X226795499Y-83249830D01*
X226795499Y-82710264D01*
X226795499Y-82630125D01*
X244737500Y-82630125D01*
X244737500Y-84249876D01*
X244737659Y-84251806D01*
X244737885Y-84253454D01*
X244743907Y-84309482D01*
X244765175Y-84366503D01*
X244794202Y-84444328D01*
X244794206Y-84444335D01*
X244805794Y-84459814D01*
X244880450Y-84559542D01*
X244880452Y-84559544D01*
X244880455Y-84559547D01*
X244995664Y-84645793D01*
X244995671Y-84645797D01*
X245130517Y-84696091D01*
X245130516Y-84696091D01*
X245137444Y-84696835D01*
X245190127Y-84702500D01*
X246809872Y-84702499D01*
X246869483Y-84696091D01*
X247004331Y-84645796D01*
X247119546Y-84559546D01*
X247205796Y-84444331D01*
X247256091Y-84309483D01*
X247262500Y-84249873D01*
X247262499Y-82630128D01*
X247256091Y-82570517D01*
X247228488Y-82496510D01*
X247226012Y-82489872D01*
X247205798Y-82435673D01*
X247205797Y-82435671D01*
X247205795Y-82435668D01*
X247205793Y-82435664D01*
X247119547Y-82320455D01*
X247119544Y-82320452D01*
X247119542Y-82320450D01*
X247038118Y-82259496D01*
X247004335Y-82234206D01*
X247004332Y-82234204D01*
X247004330Y-82234203D01*
X247004328Y-82234202D01*
X246869482Y-82183908D01*
X246869483Y-82183908D01*
X246809883Y-82177501D01*
X246809881Y-82177500D01*
X246809873Y-82177500D01*
X246809864Y-82177500D01*
X246808841Y-82177500D01*
X245190123Y-82177500D01*
X245188192Y-82177659D01*
X245186545Y-82177885D01*
X245130516Y-82183908D01*
X245031749Y-82220746D01*
X244995666Y-82234204D01*
X244995665Y-82234205D01*
X244880456Y-82320450D01*
X244880450Y-82320456D01*
X244794205Y-82435665D01*
X244794203Y-82435668D01*
X244743908Y-82570516D01*
X244737500Y-82630125D01*
X226795499Y-82630125D01*
X226795499Y-81625008D01*
X226795499Y-81624998D01*
X226795498Y-81624981D01*
X226784999Y-81522203D01*
X226784998Y-81522200D01*
X226770864Y-81479547D01*
X226729814Y-81355666D01*
X226637712Y-81206344D01*
X226513656Y-81082288D01*
X226420888Y-81025069D01*
X226364336Y-80990187D01*
X226364331Y-80990185D01*
X226362862Y-80989698D01*
X226206265Y-80937807D01*
X226203445Y-80936641D01*
X226197792Y-80934999D01*
X226095019Y-80924500D01*
X226095010Y-80924500D01*
X223894998Y-80924500D01*
X223894981Y-80924501D01*
X223880959Y-80925933D01*
X223792198Y-80935000D01*
X223792193Y-80935001D01*
X223792032Y-80935056D01*
X223625667Y-80990185D01*
X223625665Y-80990186D01*
X223625663Y-80990187D01*
X223543563Y-81040827D01*
X223476340Y-81082290D01*
X223352290Y-81206340D01*
X223260185Y-81355667D01*
X223260178Y-81355685D01*
X223222814Y-81468447D01*
X223214237Y-81480834D01*
X223207049Y-81500042D01*
X223202999Y-81505890D01*
X223189138Y-81517086D01*
X223183042Y-81525892D01*
X223173143Y-81530007D01*
X223148647Y-81549796D01*
X223079187Y-81557348D01*
X223037210Y-81536398D01*
X223035860Y-81536049D01*
X223035303Y-81535446D01*
X223016671Y-81526148D01*
X222997526Y-81494589D01*
X222988426Y-81484748D01*
X222987138Y-81477466D01*
X222981495Y-81468165D01*
X222979935Y-81462495D01*
X222975500Y-81429625D01*
X222975500Y-70148848D01*
X240769499Y-70148848D01*
X240800257Y-70303471D01*
X240800264Y-70303502D01*
X240860598Y-70449165D01*
X240860603Y-70449174D01*
X240860613Y-70449191D01*
X240948211Y-70580290D01*
X240948212Y-70580291D01*
X240948217Y-70580297D01*
X241059701Y-70691781D01*
X241059707Y-70691786D01*
X241059711Y-70691789D01*
X241190814Y-70779390D01*
X241190827Y-70779397D01*
X241336498Y-70839735D01*
X241336503Y-70839737D01*
X241491153Y-70870499D01*
X241491156Y-70870500D01*
X241491158Y-70870500D01*
X241648844Y-70870500D01*
X241648845Y-70870499D01*
X241803497Y-70839737D01*
X241921340Y-70790925D01*
X245308300Y-70790925D01*
X245308300Y-72309076D01*
X245308459Y-72311006D01*
X245308685Y-72312654D01*
X245314707Y-72368682D01*
X245337348Y-72429385D01*
X245365002Y-72503528D01*
X245365006Y-72503535D01*
X245377706Y-72520500D01*
X245451250Y-72618742D01*
X245451252Y-72618744D01*
X245451255Y-72618747D01*
X245566464Y-72704993D01*
X245566471Y-72704997D01*
X245701317Y-72755291D01*
X245701316Y-72755291D01*
X245708244Y-72756035D01*
X245760927Y-72761700D01*
X247279072Y-72761699D01*
X247338683Y-72755291D01*
X247473531Y-72704996D01*
X247588746Y-72618746D01*
X247674996Y-72503531D01*
X247725291Y-72368683D01*
X247731700Y-72309073D01*
X247731699Y-70790928D01*
X247725291Y-70731317D01*
X247702313Y-70669711D01*
X247674997Y-70596471D01*
X247674993Y-70596464D01*
X247588747Y-70481255D01*
X247588744Y-70481252D01*
X247588742Y-70481250D01*
X247530816Y-70437886D01*
X247473535Y-70395006D01*
X247473532Y-70395004D01*
X247473530Y-70395003D01*
X247473528Y-70395002D01*
X247338682Y-70344708D01*
X247338683Y-70344708D01*
X247279083Y-70338301D01*
X247279081Y-70338300D01*
X247279073Y-70338300D01*
X247279064Y-70338300D01*
X247278041Y-70338300D01*
X245760923Y-70338300D01*
X245758992Y-70338459D01*
X245757345Y-70338685D01*
X245701316Y-70344708D01*
X245635720Y-70369174D01*
X245566466Y-70395004D01*
X245566465Y-70395005D01*
X245451256Y-70481250D01*
X245451250Y-70481256D01*
X245365005Y-70596465D01*
X245365003Y-70596468D01*
X245314708Y-70731316D01*
X245308300Y-70790925D01*
X241921340Y-70790925D01*
X241949179Y-70779394D01*
X242080289Y-70691789D01*
X242191789Y-70580289D01*
X242279394Y-70449179D01*
X242339737Y-70303497D01*
X242370500Y-70148842D01*
X242370500Y-69991158D01*
X242370500Y-69991155D01*
X242370500Y-69990973D01*
X242370065Y-69988972D01*
X242340395Y-69839815D01*
X242339983Y-69837403D01*
X242339738Y-69836507D01*
X242339737Y-69836505D01*
X242339737Y-69836503D01*
X242306598Y-69756498D01*
X242279397Y-69690827D01*
X242279390Y-69690814D01*
X242191789Y-69559711D01*
X242191786Y-69559707D01*
X242191781Y-69559701D01*
X242080297Y-69448217D01*
X242080291Y-69448212D01*
X242080290Y-69448211D01*
X241949191Y-69360613D01*
X241949190Y-69360612D01*
X241949185Y-69360609D01*
X241949172Y-69360602D01*
X241949165Y-69360598D01*
X241803502Y-69300264D01*
X241803471Y-69300257D01*
X241648847Y-69269500D01*
X241648845Y-69269500D01*
X241648842Y-69269500D01*
X241491158Y-69269500D01*
X241491155Y-69269500D01*
X241491153Y-69269500D01*
X241336527Y-69300257D01*
X241336496Y-69300264D01*
X241190833Y-69360598D01*
X241190824Y-69360603D01*
X241190807Y-69360613D01*
X241059708Y-69448211D01*
X241059707Y-69448212D01*
X241059701Y-69448217D01*
X240948217Y-69559701D01*
X240948212Y-69559707D01*
X240948211Y-69559708D01*
X240860613Y-69690807D01*
X240860603Y-69690824D01*
X240860598Y-69690833D01*
X240800264Y-69836496D01*
X240800257Y-69836527D01*
X240769500Y-69991150D01*
X240769500Y-69991153D01*
X240769500Y-70148846D01*
X240769500Y-70148848D01*
X240769499Y-70148848D01*
X222975500Y-70148848D01*
X222975500Y-59097125D01*
X246034500Y-59097125D01*
X246034500Y-61292876D01*
X246034659Y-61294806D01*
X246034885Y-61296454D01*
X246040907Y-61352482D01*
X246061076Y-61406556D01*
X246091202Y-61487328D01*
X246091203Y-61487330D01*
X246091204Y-61487332D01*
X246091205Y-61487333D01*
X246177450Y-61602542D01*
X246177452Y-61602544D01*
X246177455Y-61602547D01*
X246292664Y-61688793D01*
X246292671Y-61688797D01*
X246427517Y-61739091D01*
X246427516Y-61739091D01*
X246434444Y-61739835D01*
X246487127Y-61745500D01*
X248682872Y-61745499D01*
X248742483Y-61739091D01*
X248877331Y-61688796D01*
X248992546Y-61602546D01*
X249078796Y-61487331D01*
X249129091Y-61352483D01*
X249135500Y-61292873D01*
X249135499Y-59097128D01*
X249129330Y-59039737D01*
X249129091Y-59037516D01*
X249078797Y-58902671D01*
X249078793Y-58902664D01*
X248992547Y-58787455D01*
X248992544Y-58787452D01*
X248992542Y-58787450D01*
X248934616Y-58744086D01*
X248877335Y-58701206D01*
X248877332Y-58701204D01*
X248877330Y-58701203D01*
X248877328Y-58701202D01*
X248742482Y-58650908D01*
X248742483Y-58650908D01*
X248682883Y-58644501D01*
X248682881Y-58644500D01*
X248682873Y-58644500D01*
X248682864Y-58644500D01*
X248681841Y-58644500D01*
X246487123Y-58644500D01*
X246485192Y-58644659D01*
X246483545Y-58644885D01*
X246427516Y-58650908D01*
X246292666Y-58701204D01*
X246292665Y-58701205D01*
X246177456Y-58787450D01*
X246177450Y-58787456D01*
X246091205Y-58902665D01*
X246091203Y-58902668D01*
X246040908Y-59037516D01*
X246034500Y-59097125D01*
X222975500Y-59097125D01*
X222975500Y-55113394D01*
X222971786Y-55094724D01*
X222962518Y-55048127D01*
X222951463Y-54992548D01*
X222909237Y-54890606D01*
X222904312Y-54878715D01*
X222904309Y-54878710D01*
X222904308Y-54878708D01*
X222882156Y-54845555D01*
X222882156Y-54845556D01*
X222864310Y-54818848D01*
X226579499Y-54818848D01*
X226610257Y-54973471D01*
X226610264Y-54973502D01*
X226670598Y-55119165D01*
X226670603Y-55119174D01*
X226670613Y-55119191D01*
X226758211Y-55250290D01*
X226758212Y-55250291D01*
X226758217Y-55250297D01*
X226869701Y-55361781D01*
X226869707Y-55361786D01*
X226869711Y-55361789D01*
X227000814Y-55449390D01*
X227000827Y-55449397D01*
X227087873Y-55485452D01*
X227146503Y-55509737D01*
X227297336Y-55539739D01*
X227298701Y-55540101D01*
X227301155Y-55540500D01*
X227458844Y-55540500D01*
X227462964Y-55540500D01*
X227470814Y-55538118D01*
X227613497Y-55509737D01*
X227759179Y-55449394D01*
X227890289Y-55361789D01*
X228001789Y-55250289D01*
X228089394Y-55119179D01*
X228149737Y-54973497D01*
X228180500Y-54818842D01*
X228180500Y-54661158D01*
X228180500Y-54661155D01*
X228180500Y-54660973D01*
X228180065Y-54658972D01*
X228171305Y-54614932D01*
X228150395Y-54509815D01*
X228149984Y-54507406D01*
X228149737Y-54506508D01*
X228149737Y-54506503D01*
X228137309Y-54476498D01*
X228120052Y-54434835D01*
X228089400Y-54360833D01*
X228089395Y-54360824D01*
X228089390Y-54360814D01*
X228001789Y-54229711D01*
X228001786Y-54229707D01*
X228001781Y-54229701D01*
X227890297Y-54118217D01*
X227890291Y-54118212D01*
X227890290Y-54118211D01*
X227759191Y-54030613D01*
X227759190Y-54030612D01*
X227759185Y-54030609D01*
X227759172Y-54030602D01*
X227759165Y-54030598D01*
X227613502Y-53970264D01*
X227613471Y-53970257D01*
X227458847Y-53939500D01*
X227458845Y-53939500D01*
X227458842Y-53939500D01*
X227301158Y-53939500D01*
X227301155Y-53939500D01*
X227301153Y-53939500D01*
X227146527Y-53970257D01*
X227146496Y-53970264D01*
X227000833Y-54030598D01*
X227000824Y-54030603D01*
X227000807Y-54030613D01*
X226869708Y-54118211D01*
X226869707Y-54118212D01*
X226869701Y-54118217D01*
X226758217Y-54229701D01*
X226758212Y-54229707D01*
X226758211Y-54229708D01*
X226670613Y-54360807D01*
X226670603Y-54360824D01*
X226670598Y-54360833D01*
X226610264Y-54506496D01*
X226610257Y-54506527D01*
X226579500Y-54661150D01*
X226579500Y-54661153D01*
X226579500Y-54818846D01*
X226579500Y-54818848D01*
X226579499Y-54818848D01*
X222864310Y-54818848D01*
X222835859Y-54776268D01*
X222835856Y-54776264D01*
X222835850Y-54776257D01*
X222802337Y-54742744D01*
X222756465Y-54696874D01*
X222748733Y-54689142D01*
X222748729Y-54689139D01*
X221723400Y-53663810D01*
X221702250Y-53635558D01*
X221687000Y-53607630D01*
X221686362Y-53606462D01*
X221673578Y-53571232D01*
X221654737Y-53476503D01*
X221608446Y-53364745D01*
X221594397Y-53330827D01*
X221594390Y-53330814D01*
X221506789Y-53199711D01*
X221506786Y-53199707D01*
X221506781Y-53199701D01*
X221395297Y-53088217D01*
X221395291Y-53088212D01*
X221395290Y-53088211D01*
X221264191Y-53000613D01*
X221264190Y-53000612D01*
X221264185Y-53000609D01*
X221264172Y-53000602D01*
X221264165Y-53000598D01*
X221118502Y-52940264D01*
X221118471Y-52940257D01*
X220957870Y-52908311D01*
X220957957Y-52907871D01*
X220946119Y-52905570D01*
X220927391Y-52900070D01*
X220868644Y-52862327D01*
X220868615Y-52862293D01*
X220868614Y-52862293D01*
X220868613Y-52862291D01*
X220867457Y-52860958D01*
X220839977Y-52806083D01*
X220838332Y-52798521D01*
X220835500Y-52772168D01*
X220835500Y-52310499D01*
X220840522Y-52275566D01*
X220844433Y-52262247D01*
X220882206Y-52203470D01*
X220945758Y-52174445D01*
X220956664Y-52172877D01*
X220998496Y-52173997D01*
X221064489Y-52187125D01*
X221081455Y-52190500D01*
X224798542Y-52190500D01*
X224798543Y-52190500D01*
X224807443Y-52188729D01*
X224851949Y-52179876D01*
X224895188Y-52171275D01*
X224991836Y-52152051D01*
X225060679Y-52123535D01*
X225173914Y-52076632D01*
X225337782Y-51967139D01*
X225477139Y-51827782D01*
X225477139Y-51827780D01*
X225487347Y-51817573D01*
X225487347Y-51817571D01*
X225487774Y-51817145D01*
X225491025Y-51813892D01*
X225497550Y-51807367D01*
X225497553Y-51807366D01*
X225497556Y-51807361D01*
X231647140Y-45657781D01*
X231756632Y-45493914D01*
X231779698Y-45438229D01*
X231798518Y-45392792D01*
X231799891Y-45391087D01*
X231800200Y-45388918D01*
X231816524Y-45362443D01*
X231822167Y-45355440D01*
X231836810Y-45345271D01*
X231842358Y-45338388D01*
X231856463Y-45331625D01*
X231879556Y-45315590D01*
X231949381Y-45313092D01*
X232009472Y-45348742D01*
X232039395Y-45404713D01*
X232040574Y-45409700D01*
X232041549Y-45418071D01*
X232042609Y-45420380D01*
X232042175Y-45423433D01*
X232043900Y-45438229D01*
X232043900Y-45789064D01*
X232043950Y-45789774D01*
X232044131Y-45791219D01*
X232050307Y-45848682D01*
X232064993Y-45888056D01*
X232100602Y-45983528D01*
X232100606Y-45983535D01*
X232128999Y-46021463D01*
X232186850Y-46098742D01*
X232186852Y-46098744D01*
X232186855Y-46098747D01*
X232302064Y-46184993D01*
X232302071Y-46184997D01*
X232436917Y-46235291D01*
X232436916Y-46235291D01*
X232443844Y-46236035D01*
X232496527Y-46241700D01*
X234014672Y-46241699D01*
X234074283Y-46235291D01*
X234209131Y-46184996D01*
X234324346Y-46098746D01*
X234410596Y-45983531D01*
X234460891Y-45848683D01*
X234467300Y-45789073D01*
X234467299Y-44971987D01*
X250069500Y-44971987D01*
X250069500Y-45208011D01*
X250069503Y-45208035D01*
X250100305Y-45442006D01*
X250161395Y-45669997D01*
X250251715Y-45888048D01*
X250251719Y-45888056D01*
X250294621Y-45962364D01*
X250306845Y-45983535D01*
X250369727Y-46092450D01*
X250369729Y-46092453D01*
X250369730Y-46092454D01*
X250375544Y-46100032D01*
X250375546Y-46100034D01*
X250513399Y-46279689D01*
X250513403Y-46279694D01*
X250513406Y-46279697D01*
X250513412Y-46279704D01*
X250680295Y-46446587D01*
X250680302Y-46446593D01*
X250680305Y-46446595D01*
X250680309Y-46446599D01*
X250736466Y-46489689D01*
X250736479Y-46489699D01*
X250867550Y-46590273D01*
X250982409Y-46656587D01*
X251055261Y-46698648D01*
X251068503Y-46706294D01*
X251070245Y-46707376D01*
X251071663Y-46708163D01*
X251071937Y-46708276D01*
X251071943Y-46708280D01*
X251071948Y-46708282D01*
X251071951Y-46708284D01*
X251290007Y-46798606D01*
X251517986Y-46859693D01*
X251751989Y-46890500D01*
X251751996Y-46890500D01*
X251988004Y-46890500D01*
X251988011Y-46890500D01*
X252222014Y-46859693D01*
X252449993Y-46798606D01*
X252668049Y-46708284D01*
X252872450Y-46590273D01*
X253059699Y-46446592D01*
X253226592Y-46279699D01*
X253370273Y-46092450D01*
X253488284Y-45888049D01*
X253578606Y-45669993D01*
X253639693Y-45442014D01*
X253670500Y-45208011D01*
X253670500Y-44971989D01*
X253639693Y-44737986D01*
X253578606Y-44510007D01*
X253488284Y-44291951D01*
X253488282Y-44291948D01*
X253488280Y-44291943D01*
X253488277Y-44291938D01*
X253488162Y-44291660D01*
X253487382Y-44290255D01*
X253486297Y-44288509D01*
X253476146Y-44270928D01*
X253441729Y-44211316D01*
X253370273Y-44087550D01*
X253370272Y-44087548D01*
X253226595Y-43900305D01*
X253226589Y-43900297D01*
X253226574Y-43900281D01*
X253059712Y-43733420D01*
X253059704Y-43733412D01*
X253059697Y-43733406D01*
X253059694Y-43733403D01*
X253059689Y-43733399D01*
X252880014Y-43595531D01*
X252872454Y-43589730D01*
X252872453Y-43589729D01*
X252872450Y-43589727D01*
X252769530Y-43530306D01*
X252768954Y-43529973D01*
X252768916Y-43529951D01*
X252668065Y-43471724D01*
X252668048Y-43471715D01*
X252449997Y-43381395D01*
X252222006Y-43320305D01*
X251989889Y-43289747D01*
X251988208Y-43289500D01*
X251988017Y-43289500D01*
X251988011Y-43289500D01*
X251751989Y-43289500D01*
X251751983Y-43289500D01*
X251751981Y-43289500D01*
X251745861Y-43290253D01*
X251744955Y-43290425D01*
X251517992Y-43320305D01*
X251290001Y-43381395D01*
X251071950Y-43471715D01*
X251071942Y-43471719D01*
X250867545Y-43589730D01*
X250867536Y-43589736D01*
X250680309Y-43733399D01*
X250680294Y-43733413D01*
X250680286Y-43733420D01*
X250513420Y-43900286D01*
X250513413Y-43900294D01*
X250513399Y-43900309D01*
X250369736Y-44087536D01*
X250369730Y-44087545D01*
X250251719Y-44291942D01*
X250251715Y-44291950D01*
X250161395Y-44510001D01*
X250100305Y-44737992D01*
X250069503Y-44971963D01*
X250069500Y-44971987D01*
X234467299Y-44971987D01*
X234467299Y-44270928D01*
X234460891Y-44211317D01*
X234431815Y-44133362D01*
X234423212Y-44110295D01*
X234423211Y-44110293D01*
X234423209Y-44110286D01*
X234410597Y-44076471D01*
X234410593Y-44076464D01*
X234324347Y-43961255D01*
X234324344Y-43961252D01*
X234324342Y-43961250D01*
X234242926Y-43900302D01*
X234209135Y-43875006D01*
X234209132Y-43875004D01*
X234209130Y-43875003D01*
X234209128Y-43875002D01*
X234074282Y-43824708D01*
X234074283Y-43824708D01*
X234014683Y-43818301D01*
X234014681Y-43818300D01*
X234014673Y-43818300D01*
X234014664Y-43818300D01*
X234013641Y-43818300D01*
X232496523Y-43818300D01*
X232494592Y-43818459D01*
X232492945Y-43818685D01*
X232436916Y-43824708D01*
X232302066Y-43875004D01*
X232302065Y-43875005D01*
X232186856Y-43961250D01*
X232186850Y-43961256D01*
X232100605Y-44076465D01*
X232100603Y-44076468D01*
X232050307Y-44211316D01*
X232046917Y-44242863D01*
X232043901Y-44270918D01*
X232043900Y-44270939D01*
X232043900Y-44598391D01*
X232043292Y-44600460D01*
X232043830Y-44602548D01*
X232038876Y-44633331D01*
X232036341Y-44641963D01*
X232026702Y-44656960D01*
X232024215Y-44665430D01*
X232013763Y-44677091D01*
X231998564Y-44700740D01*
X231935007Y-44729762D01*
X231865849Y-44719815D01*
X231816785Y-44679547D01*
X231813789Y-44675392D01*
X231809717Y-44668089D01*
X231807865Y-44666373D01*
X231807097Y-44663391D01*
X231799808Y-44650320D01*
X231756636Y-44546092D01*
X231756631Y-44546082D01*
X231727143Y-44501951D01*
X231647140Y-44382218D01*
X231647137Y-44382214D01*
X231647134Y-44382211D01*
X231647132Y-44382208D01*
X231507788Y-44242864D01*
X231460573Y-44211316D01*
X231343921Y-44133371D01*
X231343916Y-44133368D01*
X231343915Y-44133367D01*
X231343916Y-44133367D01*
X231343906Y-44133362D01*
X231161837Y-44057948D01*
X231161802Y-44057940D01*
X230968549Y-44019500D01*
X230968545Y-44019500D01*
X230968541Y-44019500D01*
X230771460Y-44019500D01*
X230771455Y-44019500D01*
X230771450Y-44019500D01*
X230578197Y-44057940D01*
X230578162Y-44057948D01*
X230396093Y-44133362D01*
X230396083Y-44133367D01*
X230232211Y-44242864D01*
X224334506Y-50140573D01*
X224311200Y-50158020D01*
X224306255Y-50161722D01*
X224283167Y-50174330D01*
X224223737Y-50189500D01*
X221135533Y-50189500D01*
X221100594Y-50184476D01*
X221087276Y-50180565D01*
X221028499Y-50142789D01*
X220999478Y-50079240D01*
X220997911Y-50068344D01*
X220999031Y-50026502D01*
X221010069Y-49971010D01*
X221010500Y-49969027D01*
X221010500Y-49810973D01*
X221010065Y-49808972D01*
X220980395Y-49659816D01*
X220979994Y-49657467D01*
X220979738Y-49656508D01*
X220979737Y-49656506D01*
X220979737Y-49656503D01*
X220979735Y-49656498D01*
X220919397Y-49510827D01*
X220919390Y-49510814D01*
X220831789Y-49379711D01*
X220831786Y-49379707D01*
X220831781Y-49379701D01*
X220720297Y-49268217D01*
X220720291Y-49268212D01*
X220720290Y-49268211D01*
X220589191Y-49180613D01*
X220589190Y-49180612D01*
X220589185Y-49180609D01*
X220589172Y-49180602D01*
X220589165Y-49180598D01*
X220443502Y-49120264D01*
X220443471Y-49120257D01*
X220288847Y-49089500D01*
X220288845Y-49089500D01*
X220288842Y-49089500D01*
X220131158Y-49089500D01*
X220131155Y-49089500D01*
X220131153Y-49089500D01*
X219976527Y-49120257D01*
X219976496Y-49120264D01*
X219830833Y-49180598D01*
X219830824Y-49180603D01*
X219830807Y-49180613D01*
X219699708Y-49268211D01*
X219699707Y-49268212D01*
X219699701Y-49268217D01*
X219588217Y-49379701D01*
X219588212Y-49379707D01*
X219588211Y-49379708D01*
X219500613Y-49510807D01*
X219500603Y-49510824D01*
X219500598Y-49510833D01*
X219440264Y-49656496D01*
X219440257Y-49656527D01*
X219409500Y-49811150D01*
X219409500Y-49811153D01*
X219409500Y-49968846D01*
X219409500Y-49968848D01*
X219409499Y-49968848D01*
X219440257Y-50123471D01*
X219440264Y-50123502D01*
X219500596Y-50269160D01*
X219500600Y-50269168D01*
X219500602Y-50269172D01*
X219500609Y-50269184D01*
X219553696Y-50348633D01*
X219568928Y-50380471D01*
X219578834Y-50412107D01*
X219584500Y-50449160D01*
X219584500Y-81761717D01*
X219579476Y-81796654D01*
X219572064Y-81821895D01*
X219540769Y-81874639D01*
X215529836Y-85885573D01*
X215501585Y-85906722D01*
X215478497Y-85919330D01*
X215419067Y-85934500D01*
X187188384Y-85934500D01*
X187127972Y-85946516D01*
X187127973Y-85946517D01*
X187095476Y-85952981D01*
X187084743Y-85955116D01*
X187078278Y-85956401D01*
X187067546Y-85958536D01*
X187067543Y-85958537D01*
X186953721Y-86005683D01*
X186953711Y-86005688D01*
X186851268Y-86074139D01*
X186851264Y-86074142D01*
X186807704Y-86117703D01*
X186764144Y-86161265D01*
X186764139Y-86161270D01*
X186373810Y-86551597D01*
X186345556Y-86572748D01*
X186316461Y-86588635D01*
X186281226Y-86601420D01*
X186186513Y-86620259D01*
X186186504Y-86620262D01*
X186186498Y-86620264D01*
X186186493Y-86620265D01*
X186186475Y-86620272D01*
X186040833Y-86680598D01*
X186040824Y-86680603D01*
X186040807Y-86680613D01*
X185909708Y-86768211D01*
X185909707Y-86768212D01*
X185909701Y-86768217D01*
X185798217Y-86879701D01*
X185798212Y-86879707D01*
X185798211Y-86879708D01*
X185710613Y-87010807D01*
X185710603Y-87010824D01*
X185710598Y-87010833D01*
X185650264Y-87156496D01*
X185650257Y-87156527D01*
X185619500Y-87311150D01*
X185619500Y-87311153D01*
X185619500Y-87468846D01*
X185619500Y-87468848D01*
X185619499Y-87468848D01*
X162142005Y-87468848D01*
X167808341Y-84220807D01*
X167945961Y-84141921D01*
X168007627Y-84125500D01*
X169220562Y-84125500D01*
X169220571Y-84125500D01*
X169276297Y-84122419D01*
X169303471Y-84119405D01*
X169358524Y-84110198D01*
X169366814Y-84108336D01*
X169486865Y-84064843D01*
X169526461Y-84044518D01*
X169542140Y-84036472D01*
X169542142Y-84036470D01*
X169542151Y-84036466D01*
X169647478Y-83964277D01*
X169648500Y-83963367D01*
X169698805Y-83911686D01*
X169721556Y-83884703D01*
X169764013Y-83826358D01*
X169795857Y-83754051D01*
X169836217Y-83662432D01*
X169840418Y-83647378D01*
X169854798Y-83576710D01*
X169857122Y-83558848D01*
X169859349Y-83541726D01*
X169859350Y-83541712D01*
X169863527Y-83469719D01*
X169862114Y-83364486D01*
X169847283Y-82259496D01*
X169843761Y-82206322D01*
X169843760Y-82206319D01*
X169843760Y-82206309D01*
X169841120Y-82184210D01*
X169852712Y-82115309D01*
X169899716Y-82063613D01*
X169964244Y-82045500D01*
X187571718Y-82045500D01*
X187606650Y-82050521D01*
X187631894Y-82057934D01*
X187684640Y-82089230D01*
X190241597Y-84646187D01*
X190262747Y-84674440D01*
X190278634Y-84703534D01*
X190291420Y-84738771D01*
X190310255Y-84833463D01*
X190310264Y-84833502D01*
X190370598Y-84979165D01*
X190370603Y-84979174D01*
X190370613Y-84979191D01*
X190458211Y-85110290D01*
X190458212Y-85110291D01*
X190458217Y-85110297D01*
X190569701Y-85221781D01*
X190569707Y-85221786D01*
X190569711Y-85221789D01*
X190700814Y-85309390D01*
X190700827Y-85309397D01*
X190846498Y-85369735D01*
X190846503Y-85369737D01*
X191001153Y-85400499D01*
X191001156Y-85400500D01*
X191001158Y-85400500D01*
X191158844Y-85400500D01*
X191158845Y-85400499D01*
X191313497Y-85369737D01*
X191459179Y-85309394D01*
X191590289Y-85221789D01*
X191701789Y-85110289D01*
X191789394Y-84979179D01*
X191849737Y-84833497D01*
X191880500Y-84678842D01*
X191880500Y-84521158D01*
X191880500Y-84521155D01*
X191880500Y-84520973D01*
X191880065Y-84518972D01*
X191879275Y-84514998D01*
X191850395Y-84369815D01*
X191849983Y-84367403D01*
X191849737Y-84366504D01*
X191826119Y-84309483D01*
X191789397Y-84220827D01*
X191789390Y-84220814D01*
X191701789Y-84089711D01*
X191701786Y-84089707D01*
X191701781Y-84089701D01*
X191590297Y-83978217D01*
X191590291Y-83978212D01*
X191590290Y-83978211D01*
X191459191Y-83890613D01*
X191459190Y-83890612D01*
X191459185Y-83890609D01*
X191459172Y-83890602D01*
X191459165Y-83890598D01*
X191313502Y-83830264D01*
X191313471Y-83830257D01*
X191219772Y-83811619D01*
X191186489Y-83799877D01*
X191157112Y-83784510D01*
X191126906Y-83762316D01*
X188390198Y-81025608D01*
X188390178Y-81025586D01*
X188298733Y-80934141D01*
X188249375Y-80901162D01*
X188247509Y-80899915D01*
X188196286Y-80865688D01*
X188196283Y-80865686D01*
X188196280Y-80865685D01*
X188122603Y-80835168D01*
X188122603Y-80835167D01*
X188118176Y-80833334D01*
X188115801Y-80832351D01*
X188115793Y-80832344D01*
X188115792Y-80832347D01*
X188082452Y-80818537D01*
X188082444Y-80818535D01*
X188022041Y-80806520D01*
X188022034Y-80806519D01*
X188011378Y-80804398D01*
X188011332Y-80804390D01*
X187980297Y-80798217D01*
X187961610Y-80794500D01*
X187961609Y-80794500D01*
X167970180Y-80794500D01*
X167935245Y-80789477D01*
X167903436Y-80780137D01*
X167869482Y-80764263D01*
X167789184Y-80710609D01*
X167789172Y-80710602D01*
X167789168Y-80710600D01*
X167789160Y-80710596D01*
X167643502Y-80650264D01*
X167643471Y-80650257D01*
X167488847Y-80619500D01*
X167488845Y-80619500D01*
X167488842Y-80619500D01*
X167331158Y-80619500D01*
X167331155Y-80619500D01*
X167331153Y-80619500D01*
X167176527Y-80650257D01*
X167176496Y-80650264D01*
X167030833Y-80710598D01*
X167030824Y-80710603D01*
X167030807Y-80710613D01*
X166899708Y-80798211D01*
X166899707Y-80798212D01*
X166899701Y-80798217D01*
X166788217Y-80909701D01*
X166788212Y-80909707D01*
X166788211Y-80909708D01*
X166700613Y-81040807D01*
X166700603Y-81040824D01*
X166700598Y-81040833D01*
X166640264Y-81186496D01*
X166640257Y-81186527D01*
X166609500Y-81341150D01*
X166609500Y-81498851D01*
X166609981Y-81503740D01*
X166596956Y-81572385D01*
X166548887Y-81623091D01*
X166487067Y-81639882D01*
X165366576Y-81644311D01*
X165301842Y-81648731D01*
X165270376Y-81652922D01*
X165206742Y-81665598D01*
X165206733Y-81665600D01*
X165176811Y-81673587D01*
X165176797Y-81673591D01*
X165115316Y-81694310D01*
X165115281Y-81694323D01*
X165085950Y-81706355D01*
X165085931Y-81706364D01*
X165027610Y-81734790D01*
X154738295Y-87595372D01*
X154714407Y-87609866D01*
X154702918Y-87617279D01*
X154679842Y-87633089D01*
X154668798Y-87641114D01*
X154646685Y-87658133D01*
X154636098Y-87666756D01*
X154614925Y-87684999D01*
X154563961Y-87731427D01*
X154563955Y-87731433D01*
X154556085Y-87738604D01*
X154556046Y-87738639D01*
X154464569Y-87849695D01*
X154447493Y-87877782D01*
X154443561Y-87884155D01*
X154443558Y-87884160D01*
X154430213Y-87905794D01*
X154430211Y-87905798D01*
X154373260Y-88036331D01*
X154373251Y-88036354D01*
X154373212Y-88036494D01*
X154373175Y-88036632D01*
X154371928Y-88041222D01*
X154371877Y-88041412D01*
X154371861Y-88041472D01*
X154370694Y-88045841D01*
X154370402Y-88046916D01*
X154366676Y-88060371D01*
X154364485Y-88068558D01*
X154364445Y-88068712D01*
X154352343Y-88131812D01*
X154347957Y-88166465D01*
X154344018Y-88237723D01*
X154344018Y-88237752D01*
X154364715Y-89577806D01*
X154402474Y-92022849D01*
X154402477Y-92022908D01*
X154405970Y-92074919D01*
X154408991Y-92100257D01*
X154408997Y-92100297D01*
X154417833Y-92151681D01*
X154417840Y-92151716D01*
X154419346Y-92158393D01*
X154461331Y-92275214D01*
X154461332Y-92275215D01*
X154482599Y-92317278D01*
X154495281Y-92385987D01*
X154468802Y-92450645D01*
X154411570Y-92490723D01*
X154372864Y-92497224D01*
X154033095Y-92499760D01*
X153965911Y-92480576D01*
X153919763Y-92428115D01*
X153908171Y-92375242D01*
X153908343Y-92334443D01*
X153915357Y-90665148D01*
X153898876Y-90534981D01*
X153882709Y-90473237D01*
X153833283Y-90351696D01*
X153833280Y-90351692D01*
X153833278Y-90351686D01*
X152562501Y-88113481D01*
X152381157Y-87794083D01*
X152364991Y-87733240D01*
X152364985Y-87731427D01*
X152357433Y-85261676D01*
X152376912Y-85194579D01*
X152429576Y-85148663D01*
X152481783Y-85137300D01*
X155030238Y-85144562D01*
X155283487Y-85145284D01*
X155283487Y-85145283D01*
X155283502Y-85145284D01*
X155412868Y-85128831D01*
X155474248Y-85112775D01*
X155595103Y-85063774D01*
X155709000Y-84975859D01*
X155709752Y-84975085D01*
X155756158Y-84927288D01*
X155757538Y-84925914D01*
X155757672Y-84925729D01*
X155757674Y-84925728D01*
X155842188Y-84809285D01*
X156962893Y-82682821D01*
X157006406Y-82568528D01*
X157020708Y-82510714D01*
X157035500Y-82389323D01*
X157035500Y-79733473D01*
X157024176Y-79627077D01*
X157013189Y-79576046D01*
X156979721Y-79474406D01*
X156975310Y-79467478D01*
X156902450Y-79353039D01*
X156902448Y-79353037D01*
X156856923Y-79300044D01*
X156856920Y-79300041D01*
X156856918Y-79300039D01*
X156748588Y-79205360D01*
X156617966Y-79145032D01*
X156573330Y-79131718D01*
X156551013Y-79125062D01*
X156551007Y-79125061D01*
X156408681Y-79103979D01*
X156105638Y-79102689D01*
X156038683Y-79082719D01*
X155993153Y-79029721D01*
X155983504Y-78960521D01*
X156012800Y-78897089D01*
X156018471Y-78891023D01*
X156059994Y-78849501D01*
X156166437Y-78702994D01*
X156248652Y-78541639D01*
X156304612Y-78369409D01*
X156324920Y-78241190D01*
X156332941Y-78190551D01*
X156332941Y-78009448D01*
X156314729Y-77894464D01*
X156309541Y-77861717D01*
X156304612Y-77830591D01*
X156270795Y-77726510D01*
X156259586Y-77692012D01*
X156248661Y-77658386D01*
X156248653Y-77658363D01*
X156248652Y-77658361D01*
X156248652Y-77658360D01*
X156209143Y-77580821D01*
X156166437Y-77497006D01*
X156132075Y-77449711D01*
X156059999Y-77350505D01*
X156059995Y-77350500D01*
X156059994Y-77350499D01*
X156059987Y-77350491D01*
X155931948Y-77222452D01*
X155931939Y-77222444D01*
X155931915Y-77222426D01*
X155796046Y-77123712D01*
X155796032Y-77123703D01*
X155785438Y-77116006D01*
X155785437Y-77116005D01*
X155785435Y-77116004D01*
X155779312Y-77112884D01*
X155733742Y-77089664D01*
X155733741Y-77089664D01*
X155624080Y-77033788D01*
X155624077Y-77033787D01*
X155624074Y-77033786D01*
X155624072Y-77033785D01*
X155624053Y-77033778D01*
X155451853Y-76977829D01*
X155451854Y-76977829D01*
X155309372Y-76955262D01*
X155297086Y-76949438D01*
X155275648Y-76944834D01*
X155269368Y-76941857D01*
X155256065Y-76929992D01*
X155246237Y-76925333D01*
X155240485Y-76916095D01*
X155217226Y-76895350D01*
X155198504Y-76828035D01*
X155219147Y-76761285D01*
X155250023Y-76734917D01*
X155258804Y-76724373D01*
X155264457Y-76722591D01*
X155270990Y-76717013D01*
X155276378Y-76714553D01*
X155308473Y-76704879D01*
X155361866Y-76696422D01*
X155451850Y-76682171D01*
X155624080Y-76626211D01*
X155785435Y-76543996D01*
X155931942Y-76437553D01*
X156059994Y-76309501D01*
X156092482Y-76264785D01*
X158104500Y-76264785D01*
X158104500Y-79675572D01*
X158116240Y-79783879D01*
X158127624Y-79835777D01*
X158127625Y-79835782D01*
X158162302Y-79939065D01*
X158162302Y-79939066D01*
X158240503Y-80059823D01*
X158240507Y-80059828D01*
X158240512Y-80059835D01*
X158286451Y-80112479D01*
X158286454Y-80112481D01*
X158291358Y-80116788D01*
X158292209Y-80117433D01*
X158395520Y-80206322D01*
X158526606Y-80265634D01*
X158593714Y-80285084D01*
X158736197Y-80305062D01*
X164219007Y-80285925D01*
X164323929Y-80274542D01*
X164374264Y-80263674D01*
X164474542Y-80230750D01*
X164596091Y-80153760D01*
X164649195Y-80108353D01*
X164744129Y-80000239D01*
X164804758Y-79869756D01*
X164824883Y-79802848D01*
X164846296Y-79660570D01*
X164847452Y-79484834D01*
X164849729Y-79138848D01*
X166759499Y-79138848D01*
X166790257Y-79293471D01*
X166790264Y-79293502D01*
X166850598Y-79439165D01*
X166850603Y-79439174D01*
X166850613Y-79439191D01*
X166938211Y-79570290D01*
X166938212Y-79570291D01*
X166938217Y-79570297D01*
X167049701Y-79681781D01*
X167049707Y-79681786D01*
X167049711Y-79681789D01*
X167180814Y-79769390D01*
X167180827Y-79769397D01*
X167326498Y-79829735D01*
X167326503Y-79829737D01*
X167481153Y-79860499D01*
X167481156Y-79860500D01*
X167481158Y-79860500D01*
X167638844Y-79860500D01*
X167638845Y-79860499D01*
X167793497Y-79829737D01*
X167939179Y-79769394D01*
X168070289Y-79681789D01*
X168181789Y-79570289D01*
X168269394Y-79439179D01*
X168278112Y-79418133D01*
X168288722Y-79392517D01*
X168329737Y-79293497D01*
X168360500Y-79138842D01*
X168360500Y-78981158D01*
X168360500Y-78981155D01*
X168360500Y-78980973D01*
X168360065Y-78978972D01*
X168360062Y-78978959D01*
X168346420Y-78910375D01*
X168329737Y-78826503D01*
X168317309Y-78796498D01*
X168316520Y-78794593D01*
X168269400Y-78680833D01*
X168269395Y-78680824D01*
X168269390Y-78680814D01*
X168181789Y-78549711D01*
X168181786Y-78549707D01*
X168181781Y-78549701D01*
X168070297Y-78438217D01*
X168070291Y-78438212D01*
X168070290Y-78438211D01*
X167939191Y-78350613D01*
X167939190Y-78350612D01*
X167939185Y-78350609D01*
X167939172Y-78350602D01*
X167939165Y-78350598D01*
X167793502Y-78290264D01*
X167793471Y-78290257D01*
X167638847Y-78259500D01*
X167638845Y-78259500D01*
X167638842Y-78259500D01*
X167481158Y-78259500D01*
X167481155Y-78259500D01*
X167481153Y-78259500D01*
X167326527Y-78290257D01*
X167326496Y-78290264D01*
X167180833Y-78350598D01*
X167180824Y-78350603D01*
X167180807Y-78350613D01*
X167049708Y-78438211D01*
X167049707Y-78438212D01*
X167049701Y-78438217D01*
X166938217Y-78549701D01*
X166938212Y-78549707D01*
X166938211Y-78549708D01*
X166850613Y-78680807D01*
X166850603Y-78680824D01*
X166850598Y-78680833D01*
X166790264Y-78826496D01*
X166790257Y-78826527D01*
X166759500Y-78981150D01*
X166759500Y-78981153D01*
X166759500Y-79138846D01*
X166759500Y-79138848D01*
X166759499Y-79138848D01*
X164849729Y-79138848D01*
X164850812Y-78974245D01*
X164851309Y-78898684D01*
X164871434Y-78831776D01*
X164924538Y-78786369D01*
X164975306Y-78775500D01*
X165487093Y-78775500D01*
X165487097Y-78775500D01*
X165592350Y-78764421D01*
X165642857Y-78753669D01*
X165743505Y-78720914D01*
X165865230Y-78644204D01*
X165918438Y-78598920D01*
X166013619Y-78491029D01*
X166074550Y-78360687D01*
X166094629Y-78294485D01*
X166094827Y-78293849D01*
X166095376Y-78290257D01*
X166116572Y-78151595D01*
X166129913Y-76650650D01*
X166150193Y-76583791D01*
X166203401Y-76538507D01*
X166254354Y-76527756D01*
X168028053Y-76534159D01*
X171087657Y-76545206D01*
X171087658Y-76545206D01*
X171088975Y-76545207D01*
X171089627Y-76545209D01*
X171090469Y-76545209D01*
X171090591Y-76545209D01*
X171092692Y-76545205D01*
X171175670Y-76532922D01*
X171235010Y-76524139D01*
X171235012Y-76524138D01*
X171235021Y-76524137D01*
X171301978Y-76504174D01*
X171301980Y-76504173D01*
X171301991Y-76504167D01*
X171302357Y-76504023D01*
X171303676Y-76503389D01*
X171432608Y-76443859D01*
X171540953Y-76349186D01*
X171571823Y-76313258D01*
X171579675Y-76306891D01*
X171586488Y-76296192D01*
X171586489Y-76296192D01*
X171663772Y-76174829D01*
X173101052Y-72992650D01*
X177410400Y-72992650D01*
X177410400Y-73237349D01*
X177444213Y-73450833D01*
X177447153Y-73469395D01*
X177447154Y-73469403D01*
X177448680Y-73479040D01*
X177524294Y-73711757D01*
X177526640Y-73716601D01*
X177527585Y-73718215D01*
X177624717Y-73908846D01*
X177635387Y-73929788D01*
X177779218Y-74127754D01*
X177952246Y-74300782D01*
X178150212Y-74444613D01*
X178368241Y-74555704D01*
X178368243Y-74555705D01*
X178430724Y-74576006D01*
X178600964Y-74631320D01*
X178842650Y-74669600D01*
X178842651Y-74669600D01*
X179087349Y-74669600D01*
X179087350Y-74669600D01*
X179329036Y-74631320D01*
X179329039Y-74631319D01*
X179329040Y-74631319D01*
X179561756Y-74555705D01*
X179561756Y-74555704D01*
X179571037Y-74552689D01*
X179571038Y-74552688D01*
X179571043Y-74552687D01*
X179579028Y-74550092D01*
X179588277Y-74542192D01*
X179779788Y-74444613D01*
X179977754Y-74300782D01*
X180150782Y-74127754D01*
X180294613Y-73929788D01*
X180305282Y-73908848D01*
X188749499Y-73908848D01*
X188780257Y-74063471D01*
X188780264Y-74063502D01*
X188840598Y-74209165D01*
X188840603Y-74209174D01*
X188840613Y-74209191D01*
X188928211Y-74340290D01*
X188928212Y-74340291D01*
X188928217Y-74340297D01*
X189039701Y-74451781D01*
X189039707Y-74451786D01*
X189039711Y-74451789D01*
X189170814Y-74539390D01*
X189170827Y-74539397D01*
X189316498Y-74599735D01*
X189316503Y-74599737D01*
X189471153Y-74630499D01*
X189471156Y-74630500D01*
X189471158Y-74630500D01*
X189628844Y-74630500D01*
X189628845Y-74630499D01*
X189783497Y-74599737D01*
X189929179Y-74539394D01*
X190060289Y-74451789D01*
X190171789Y-74340289D01*
X190259394Y-74209179D01*
X190319737Y-74063497D01*
X190350500Y-73908842D01*
X190350500Y-73751158D01*
X190350500Y-73751155D01*
X190350500Y-73750973D01*
X190350065Y-73748972D01*
X190342513Y-73711005D01*
X190320395Y-73599815D01*
X190319983Y-73597403D01*
X190319737Y-73596504D01*
X190271083Y-73479040D01*
X190259397Y-73450827D01*
X190259390Y-73450814D01*
X190171789Y-73319711D01*
X190171786Y-73319707D01*
X190171781Y-73319701D01*
X190060297Y-73208217D01*
X190060291Y-73208212D01*
X190060290Y-73208211D01*
X189929191Y-73120613D01*
X189929190Y-73120612D01*
X189929185Y-73120609D01*
X189929172Y-73120602D01*
X189929165Y-73120598D01*
X189783502Y-73060264D01*
X189783471Y-73060257D01*
X189628847Y-73029500D01*
X189628845Y-73029500D01*
X189628842Y-73029500D01*
X189471158Y-73029500D01*
X189471155Y-73029500D01*
X189471153Y-73029500D01*
X189316527Y-73060257D01*
X189316496Y-73060264D01*
X189170833Y-73120598D01*
X189170824Y-73120603D01*
X189170807Y-73120613D01*
X189039708Y-73208211D01*
X189039707Y-73208212D01*
X189039701Y-73208217D01*
X188928217Y-73319701D01*
X188928212Y-73319707D01*
X188928211Y-73319708D01*
X188840613Y-73450807D01*
X188840603Y-73450824D01*
X188840598Y-73450833D01*
X188780264Y-73596496D01*
X188780257Y-73596527D01*
X188749500Y-73751150D01*
X188749500Y-73751153D01*
X188749500Y-73908846D01*
X188749500Y-73908848D01*
X188749499Y-73908848D01*
X180305282Y-73908848D01*
X180405704Y-73711759D01*
X180405985Y-73710893D01*
X180407335Y-73706743D01*
X180481218Y-73479350D01*
X180481316Y-73479051D01*
X180481316Y-73479047D01*
X180481319Y-73479040D01*
X180481319Y-73479039D01*
X180481320Y-73479036D01*
X180519600Y-73237350D01*
X180519600Y-72992650D01*
X180481320Y-72750964D01*
X180481319Y-72750960D01*
X180481319Y-72750959D01*
X180405705Y-72518243D01*
X180405704Y-72518241D01*
X180403347Y-72513374D01*
X180402402Y-72511760D01*
X180401200Y-72509400D01*
X180401200Y-72509401D01*
X180401198Y-72509397D01*
X180294613Y-72300212D01*
X180150782Y-72102246D01*
X179977754Y-71929218D01*
X179779788Y-71785387D01*
X179568215Y-71677585D01*
X179566601Y-71676640D01*
X179561757Y-71674294D01*
X179329039Y-71598680D01*
X179125882Y-71566503D01*
X179114284Y-71564666D01*
X179087350Y-71560400D01*
X179087349Y-71560400D01*
X178842651Y-71560400D01*
X178842650Y-71560400D01*
X178815716Y-71564666D01*
X178804118Y-71566503D01*
X178610603Y-71597153D01*
X178610595Y-71597153D01*
X178610596Y-71597154D01*
X178600955Y-71598680D01*
X178368241Y-71674294D01*
X178363397Y-71676640D01*
X178361783Y-71677585D01*
X178150207Y-71785389D01*
X178037264Y-71867446D01*
X178037265Y-71867447D01*
X177964117Y-71920593D01*
X177956736Y-71924726D01*
X177774727Y-72106735D01*
X177770594Y-72114114D01*
X177723328Y-72179172D01*
X177635387Y-72300210D01*
X177527585Y-72511783D01*
X177526640Y-72513397D01*
X177524294Y-72518241D01*
X177448680Y-72750955D01*
X177447212Y-72760228D01*
X177410400Y-72992650D01*
X173101052Y-72992650D01*
X174932013Y-68938848D01*
X186939499Y-68938848D01*
X186970257Y-69093471D01*
X186970264Y-69093502D01*
X187030598Y-69239165D01*
X187030603Y-69239174D01*
X187030613Y-69239191D01*
X187118211Y-69370290D01*
X187118212Y-69370291D01*
X187118217Y-69370297D01*
X187229701Y-69481781D01*
X187229707Y-69481786D01*
X187229711Y-69481789D01*
X187360814Y-69569390D01*
X187360827Y-69569397D01*
X187506498Y-69629735D01*
X187506503Y-69629737D01*
X187661153Y-69660499D01*
X187661156Y-69660500D01*
X187661158Y-69660500D01*
X187818844Y-69660500D01*
X187818845Y-69660499D01*
X187973497Y-69629737D01*
X188119179Y-69569394D01*
X188250289Y-69481789D01*
X188361789Y-69370289D01*
X188449394Y-69239179D01*
X188509737Y-69093497D01*
X188540500Y-68938842D01*
X188540500Y-68781158D01*
X188540500Y-68781155D01*
X188540500Y-68780973D01*
X188540065Y-68778972D01*
X188510397Y-68629824D01*
X188509994Y-68627467D01*
X188509738Y-68626508D01*
X188509737Y-68626506D01*
X188509737Y-68626503D01*
X188509735Y-68626498D01*
X188449397Y-68480827D01*
X188449390Y-68480814D01*
X188361789Y-68349711D01*
X188361786Y-68349707D01*
X188361781Y-68349701D01*
X188250297Y-68238217D01*
X188250291Y-68238212D01*
X188250290Y-68238211D01*
X188119191Y-68150613D01*
X188119190Y-68150612D01*
X188119185Y-68150609D01*
X188119172Y-68150602D01*
X188119165Y-68150598D01*
X187973502Y-68090264D01*
X187973471Y-68090257D01*
X187818847Y-68059500D01*
X187818845Y-68059500D01*
X187818842Y-68059500D01*
X187661158Y-68059500D01*
X187661155Y-68059500D01*
X187661153Y-68059500D01*
X187506527Y-68090257D01*
X187506496Y-68090264D01*
X187360833Y-68150598D01*
X187360824Y-68150603D01*
X187360807Y-68150613D01*
X187229708Y-68238211D01*
X187229707Y-68238212D01*
X187229701Y-68238217D01*
X187118217Y-68349701D01*
X187118212Y-68349707D01*
X187118211Y-68349708D01*
X187030613Y-68480807D01*
X187030603Y-68480824D01*
X187030598Y-68480833D01*
X186970264Y-68626496D01*
X186970257Y-68626527D01*
X186939500Y-68781150D01*
X186939500Y-68781153D01*
X186939500Y-68938846D01*
X186939500Y-68938848D01*
X186939499Y-68938848D01*
X174932013Y-68938848D01*
X176688991Y-65048848D01*
X187759499Y-65048848D01*
X187790257Y-65203471D01*
X187790264Y-65203502D01*
X187850598Y-65349165D01*
X187850603Y-65349174D01*
X187850613Y-65349191D01*
X187938211Y-65480290D01*
X187938212Y-65480291D01*
X187938217Y-65480297D01*
X188049701Y-65591781D01*
X188049707Y-65591786D01*
X188049711Y-65591789D01*
X188180814Y-65679390D01*
X188180827Y-65679397D01*
X188326498Y-65739735D01*
X188326503Y-65739737D01*
X188481153Y-65770499D01*
X188481156Y-65770500D01*
X188481158Y-65770500D01*
X188638844Y-65770500D01*
X188638845Y-65770499D01*
X188793497Y-65739737D01*
X188939179Y-65679394D01*
X189070289Y-65591789D01*
X189181789Y-65480289D01*
X189269394Y-65349179D01*
X189280287Y-65322882D01*
X189304977Y-65263273D01*
X189329737Y-65203497D01*
X189360500Y-65048842D01*
X189360500Y-64891158D01*
X189360500Y-64891155D01*
X189360500Y-64890973D01*
X189360065Y-64888972D01*
X189330397Y-64739824D01*
X189329994Y-64737467D01*
X189329738Y-64736508D01*
X189329737Y-64736506D01*
X189329737Y-64736503D01*
X189329735Y-64736498D01*
X189269397Y-64590827D01*
X189269390Y-64590814D01*
X189181789Y-64459711D01*
X189181786Y-64459707D01*
X189181781Y-64459701D01*
X189070297Y-64348217D01*
X189070291Y-64348212D01*
X189070290Y-64348211D01*
X188939191Y-64260613D01*
X188939190Y-64260612D01*
X188939185Y-64260609D01*
X188939172Y-64260602D01*
X188939165Y-64260598D01*
X188793502Y-64200264D01*
X188793471Y-64200257D01*
X188638847Y-64169500D01*
X188638845Y-64169500D01*
X188638842Y-64169500D01*
X188481158Y-64169500D01*
X188481155Y-64169500D01*
X188481153Y-64169500D01*
X188326527Y-64200257D01*
X188326496Y-64200264D01*
X188180833Y-64260598D01*
X188180824Y-64260603D01*
X188180807Y-64260613D01*
X188049708Y-64348211D01*
X188049707Y-64348212D01*
X188049701Y-64348217D01*
X187938217Y-64459701D01*
X187938212Y-64459707D01*
X187938211Y-64459708D01*
X187850613Y-64590807D01*
X187850603Y-64590824D01*
X187850598Y-64590833D01*
X187790264Y-64736496D01*
X187790257Y-64736527D01*
X187759500Y-64891150D01*
X187759500Y-64891153D01*
X187759500Y-65048846D01*
X187759500Y-65048848D01*
X187759499Y-65048848D01*
X176688991Y-65048848D01*
X177189700Y-63940264D01*
X177193682Y-63931212D01*
X177195582Y-63926776D01*
X177199348Y-63917744D01*
X177228153Y-63846725D01*
X178814231Y-59936183D01*
X186664649Y-59936183D01*
X186664650Y-59936224D01*
X186667762Y-59993659D01*
X186667765Y-59993695D01*
X186670890Y-60021715D01*
X186670891Y-60021723D01*
X186680513Y-60078438D01*
X186732245Y-60212692D01*
X186732247Y-60212696D01*
X186742655Y-60231276D01*
X186766390Y-60273650D01*
X186766394Y-60273657D01*
X186832865Y-60360482D01*
X186853857Y-60387901D01*
X189267846Y-62750293D01*
X189748624Y-63220795D01*
X190207924Y-63670278D01*
X192354318Y-65770795D01*
X192813618Y-66220278D01*
X193176362Y-66575268D01*
X193210507Y-66636226D01*
X193213632Y-66664297D01*
X193212092Y-67135000D01*
X193210142Y-67730795D01*
X193209859Y-67817340D01*
X193202489Y-70068844D01*
X193195533Y-72193576D01*
X193195533Y-72193579D01*
X193195403Y-72233026D01*
X193194649Y-72243351D01*
X193194815Y-72243363D01*
X193194500Y-72247769D01*
X193194500Y-72247771D01*
X193194500Y-78176529D01*
X193194735Y-78185646D01*
X193195172Y-78202592D01*
X193195830Y-78215345D01*
X193197847Y-78241368D01*
X193232882Y-78380911D01*
X193232882Y-78380913D01*
X193232884Y-78380917D01*
X193259369Y-78445572D01*
X193332298Y-78569592D01*
X193332300Y-78569595D01*
X193332304Y-78569601D01*
X197222342Y-83435847D01*
X197222347Y-83435853D01*
X197254164Y-83469719D01*
X197277569Y-83494630D01*
X197306784Y-83521131D01*
X197355692Y-83558842D01*
X197370671Y-83570392D01*
X197370673Y-83570393D01*
X197501189Y-83630910D01*
X197501195Y-83630912D01*
X197501201Y-83630915D01*
X197501206Y-83630916D01*
X197501210Y-83630918D01*
X197568115Y-83650983D01*
X197568117Y-83650983D01*
X197568126Y-83650986D01*
X197710419Y-83672284D01*
X216149320Y-83778731D01*
X216149342Y-83778730D01*
X216149346Y-83778730D01*
X216171833Y-83777685D01*
X216201993Y-83776284D01*
X216227704Y-83773741D01*
X216279843Y-83765820D01*
X216279846Y-83765819D01*
X216279850Y-83765818D01*
X216415203Y-83717060D01*
X216421906Y-83713497D01*
X216476905Y-83684263D01*
X216476906Y-83684262D01*
X216593049Y-83599338D01*
X217116340Y-83087675D01*
X217154001Y-83046549D01*
X217171308Y-83025419D01*
X217204201Y-82980408D01*
X217264589Y-82849814D01*
X217284036Y-82784719D01*
X217284491Y-82783280D01*
X217284585Y-82782882D01*
X217284590Y-82782868D01*
X217284591Y-82782865D01*
X217305738Y-82640547D01*
X217318180Y-80002686D01*
X217314391Y-79938478D01*
X217310540Y-79907227D01*
X217298634Y-79844040D01*
X217243574Y-79711112D01*
X217207922Y-79651023D01*
X217207921Y-79651022D01*
X217207890Y-79650983D01*
X217204860Y-79647083D01*
X217203753Y-79645850D01*
X217117641Y-79538990D01*
X217039642Y-79484834D01*
X216999460Y-79456935D01*
X216999457Y-79456933D01*
X216999455Y-79456932D01*
X216963961Y-79439165D01*
X216936981Y-79425659D01*
X216936965Y-79425652D01*
X216800464Y-79380220D01*
X216800465Y-79380220D01*
X216656675Y-79375083D01*
X216656674Y-79375083D01*
X216653251Y-79375451D01*
X216587198Y-79382551D01*
X216587186Y-79382553D01*
X216447789Y-79418133D01*
X216447782Y-79418135D01*
X216388156Y-79442833D01*
X216364907Y-79449886D01*
X216364904Y-79449887D01*
X216354038Y-79452049D01*
X216351187Y-79452616D01*
X216326990Y-79455000D01*
X216313011Y-79455000D01*
X216288809Y-79452615D01*
X216275091Y-79449885D01*
X216251843Y-79442832D01*
X216237212Y-79436772D01*
X216218571Y-79427129D01*
X216215824Y-79425398D01*
X216215817Y-79425394D01*
X216083904Y-79367976D01*
X216016518Y-79349490D01*
X215873770Y-79331559D01*
X215873768Y-79331559D01*
X215731754Y-79354571D01*
X215731735Y-79354575D01*
X215673331Y-79372862D01*
X215673327Y-79372863D01*
X215665064Y-79375451D01*
X215665051Y-79375455D01*
X215565796Y-79422943D01*
X215565168Y-79423236D01*
X215565066Y-79423251D01*
X215560269Y-79425390D01*
X215560252Y-79425398D01*
X215518161Y-79442832D01*
X215494909Y-79449886D01*
X215484058Y-79452045D01*
X215481187Y-79452616D01*
X215456990Y-79455000D01*
X215443008Y-79455000D01*
X215418812Y-79452616D01*
X215405090Y-79449886D01*
X215381835Y-79442831D01*
X215368915Y-79437480D01*
X215347479Y-79426022D01*
X215327226Y-79412489D01*
X215325277Y-79411212D01*
X215319640Y-79407518D01*
X215318260Y-79406631D01*
X215315885Y-79405104D01*
X215308270Y-79400306D01*
X215176352Y-79342885D01*
X215108958Y-79324397D01*
X214966216Y-79306469D01*
X214966212Y-79306469D01*
X214824191Y-79329482D01*
X214824185Y-79329484D01*
X214757507Y-79350362D01*
X214757504Y-79350363D01*
X214757502Y-79350364D01*
X214657290Y-79398294D01*
X214657270Y-79398303D01*
X214627817Y-79412391D01*
X214625806Y-79413734D01*
X214625702Y-79413807D01*
X214625701Y-79413806D01*
X214623604Y-79415206D01*
X214623598Y-79415210D01*
X214562517Y-79456022D01*
X214541088Y-79467476D01*
X214528167Y-79472829D01*
X214504903Y-79479887D01*
X214491186Y-79482616D01*
X214466990Y-79485000D01*
X214453008Y-79485000D01*
X214428816Y-79482617D01*
X214428811Y-79482616D01*
X214415095Y-79479887D01*
X214391832Y-79472830D01*
X214378910Y-79467477D01*
X214357478Y-79456021D01*
X214337740Y-79442833D01*
X214334738Y-79440827D01*
X214327222Y-79435900D01*
X214323496Y-79433505D01*
X214315820Y-79428668D01*
X214183895Y-79371246D01*
X214183892Y-79371245D01*
X214183885Y-79371242D01*
X214116514Y-79352761D01*
X214109790Y-79351856D01*
X214108814Y-79351795D01*
X213973756Y-79334832D01*
X213973755Y-79334832D01*
X213831731Y-79357848D01*
X213831728Y-79357849D01*
X213765054Y-79378726D01*
X213765049Y-79378728D01*
X213635264Y-79440825D01*
X213612519Y-79456022D01*
X213591089Y-79467477D01*
X213591087Y-79467478D01*
X213578164Y-79472831D01*
X213554909Y-79479886D01*
X213544058Y-79482045D01*
X213541187Y-79482616D01*
X213516990Y-79485000D01*
X213503008Y-79485000D01*
X213478811Y-79482616D01*
X213465090Y-79479886D01*
X213441839Y-79472833D01*
X213438476Y-79471440D01*
X213428915Y-79467480D01*
X213407472Y-79456018D01*
X213395846Y-79448249D01*
X213377060Y-79432831D01*
X213367172Y-79422943D01*
X213351751Y-79404153D01*
X213343976Y-79392517D01*
X213332518Y-79371081D01*
X213327166Y-79358161D01*
X213320108Y-79334895D01*
X213317381Y-79321183D01*
X213315000Y-79296998D01*
X213315000Y-79283007D01*
X213317381Y-79258825D01*
X213318230Y-79254553D01*
X213320111Y-79245093D01*
X213327165Y-79221838D01*
X213332523Y-79208904D01*
X213343975Y-79187481D01*
X213351747Y-79175849D01*
X213367164Y-79157062D01*
X213377060Y-79147166D01*
X213395839Y-79131754D01*
X213459736Y-79089060D01*
X213512899Y-79048188D01*
X213537538Y-79026499D01*
X213584817Y-78978956D01*
X213662878Y-78858092D01*
X213692046Y-78794602D01*
X213692047Y-78794599D01*
X213700983Y-78764419D01*
X213732892Y-78656642D01*
X213732892Y-78656641D01*
X213732893Y-78656638D01*
X213733216Y-78512758D01*
X213723428Y-78443578D01*
X213723426Y-78443569D01*
X213683205Y-78305440D01*
X213675793Y-78293849D01*
X213605689Y-78184223D01*
X213560053Y-78131316D01*
X213451531Y-78036852D01*
X213320788Y-77976786D01*
X213320783Y-77976784D01*
X213320780Y-77976783D01*
X213253796Y-77956950D01*
X213253791Y-77956949D01*
X213158876Y-77943084D01*
X213111420Y-77936152D01*
X212996258Y-77935892D01*
X203800574Y-77915197D01*
X203733579Y-77895361D01*
X203702500Y-77866713D01*
X199774643Y-72750959D01*
X199490809Y-72381286D01*
X199465596Y-72316125D01*
X199465163Y-72305966D01*
X199465062Y-72241675D01*
X199455580Y-66200940D01*
X199452458Y-66145630D01*
X199449446Y-66118659D01*
X199440288Y-66064015D01*
X199410215Y-65985000D01*
X199389113Y-65929554D01*
X199389112Y-65929553D01*
X199389109Y-65929545D01*
X199355215Y-65868446D01*
X199268223Y-65753842D01*
X197021639Y-63537053D01*
X191952974Y-58535612D01*
X191919080Y-58474513D01*
X191916068Y-58447079D01*
X191916172Y-58399152D01*
X191916281Y-58348848D01*
X194319499Y-58348848D01*
X194350257Y-58503471D01*
X194350264Y-58503502D01*
X194410598Y-58649165D01*
X194410603Y-58649174D01*
X194410613Y-58649191D01*
X194498211Y-58780290D01*
X194498212Y-58780291D01*
X194498217Y-58780297D01*
X194609701Y-58891781D01*
X194609707Y-58891786D01*
X194609711Y-58891789D01*
X194740814Y-58979390D01*
X194740827Y-58979397D01*
X194854541Y-59026498D01*
X194886503Y-59039737D01*
X195036188Y-59069511D01*
X195038395Y-59070052D01*
X195041155Y-59070500D01*
X195198844Y-59070500D01*
X195202964Y-59070500D01*
X195210814Y-59068118D01*
X195353497Y-59039737D01*
X195499179Y-58979394D01*
X195630289Y-58891789D01*
X195741789Y-58780289D01*
X195829394Y-58649179D01*
X195833938Y-58638210D01*
X195870224Y-58550606D01*
X195889737Y-58503497D01*
X195893992Y-58482109D01*
X195920499Y-58348846D01*
X195920500Y-58348844D01*
X195920500Y-58190973D01*
X195920065Y-58188972D01*
X195916647Y-58171789D01*
X195890395Y-58039815D01*
X195889983Y-58037403D01*
X195889737Y-58036504D01*
X195845285Y-57929185D01*
X195829397Y-57890827D01*
X195829390Y-57890814D01*
X195741789Y-57759711D01*
X195741786Y-57759707D01*
X195741781Y-57759701D01*
X195630297Y-57648217D01*
X195630291Y-57648212D01*
X195630290Y-57648211D01*
X195499191Y-57560613D01*
X195499190Y-57560612D01*
X195499185Y-57560609D01*
X195499172Y-57560602D01*
X195499165Y-57560598D01*
X195353502Y-57500264D01*
X195353471Y-57500257D01*
X195198847Y-57469500D01*
X195198845Y-57469500D01*
X195198842Y-57469500D01*
X195041158Y-57469500D01*
X195041155Y-57469500D01*
X195041153Y-57469500D01*
X194886527Y-57500257D01*
X194886496Y-57500264D01*
X194740833Y-57560598D01*
X194740824Y-57560603D01*
X194740807Y-57560613D01*
X194609708Y-57648211D01*
X194609707Y-57648212D01*
X194609701Y-57648217D01*
X194498217Y-57759701D01*
X194498212Y-57759707D01*
X194498211Y-57759708D01*
X194410613Y-57890807D01*
X194410603Y-57890824D01*
X194410598Y-57890833D01*
X194350264Y-58036496D01*
X194350257Y-58036527D01*
X194319500Y-58191150D01*
X194319500Y-58191153D01*
X194319500Y-58348846D01*
X194319500Y-58348848D01*
X194319499Y-58348848D01*
X191916281Y-58348848D01*
X191933015Y-50609542D01*
X191932848Y-50595424D01*
X191932670Y-50588518D01*
X191932113Y-50574484D01*
X191904043Y-50433369D01*
X191882050Y-50371028D01*
X191881390Y-50368960D01*
X191880798Y-50367479D01*
X191880796Y-50367472D01*
X191814104Y-50239982D01*
X191714195Y-50136445D01*
X191714194Y-50136444D01*
X191714193Y-50136443D01*
X191714189Y-50136440D01*
X191659018Y-50093584D01*
X191659019Y-50093584D01*
X191659017Y-50093583D01*
X191533992Y-50022390D01*
X191393968Y-49989303D01*
X191324378Y-49983076D01*
X191324374Y-49983076D01*
X191324373Y-49983076D01*
X191180708Y-49990777D01*
X191180701Y-49990778D01*
X191121187Y-50002617D01*
X191096995Y-50005000D01*
X191083008Y-50005000D01*
X191058811Y-50002616D01*
X191045090Y-49999886D01*
X191021839Y-49992833D01*
X191014726Y-49989887D01*
X191008915Y-49987480D01*
X190987472Y-49976018D01*
X190975846Y-49968249D01*
X190957060Y-49952831D01*
X190947171Y-49942942D01*
X190931753Y-49924157D01*
X190925068Y-49914153D01*
X190923012Y-49911076D01*
X190912807Y-49892379D01*
X190912757Y-49892402D01*
X190912436Y-49891700D01*
X190912405Y-49891643D01*
X190912300Y-49891401D01*
X190908622Y-49883348D01*
X190900837Y-49867076D01*
X190818777Y-49748892D01*
X190771166Y-49697756D01*
X190771165Y-49697755D01*
X190689299Y-49631786D01*
X190659133Y-49607477D01*
X190526204Y-49552419D01*
X190466357Y-49537145D01*
X190465690Y-49536928D01*
X190458496Y-49535138D01*
X190315443Y-49519763D01*
X190315439Y-49519764D01*
X190173848Y-49545313D01*
X190173844Y-49545314D01*
X190107570Y-49567374D01*
X190107554Y-49567381D01*
X189978899Y-49631784D01*
X189873594Y-49729831D01*
X189829760Y-49784228D01*
X189829759Y-49784229D01*
X189789434Y-49852194D01*
X189785894Y-49857810D01*
X189748247Y-49914153D01*
X189732826Y-49932944D01*
X189722946Y-49942824D01*
X189704158Y-49958244D01*
X189692521Y-49966020D01*
X189671080Y-49977480D01*
X189658159Y-49982832D01*
X189634903Y-49989887D01*
X189621186Y-49992616D01*
X189596990Y-49995000D01*
X189583008Y-49995000D01*
X189558811Y-49992616D01*
X189545090Y-49989886D01*
X189521839Y-49982833D01*
X189518476Y-49981440D01*
X189508915Y-49977480D01*
X189487472Y-49966018D01*
X189475846Y-49958249D01*
X189457060Y-49942831D01*
X189447172Y-49932943D01*
X189431751Y-49914153D01*
X189423976Y-49902517D01*
X189412518Y-49881081D01*
X189407166Y-49868161D01*
X189400108Y-49844895D01*
X189397381Y-49831183D01*
X189395000Y-49806998D01*
X189395000Y-49793008D01*
X189397382Y-49768820D01*
X189401441Y-49748410D01*
X189408954Y-49710636D01*
X189410625Y-49703384D01*
X189411603Y-49699663D01*
X189412192Y-49697011D01*
X189415680Y-49681320D01*
X189417635Y-49670620D01*
X189422575Y-49643583D01*
X189422574Y-49499703D01*
X189412630Y-49430545D01*
X189372095Y-49292496D01*
X189294307Y-49171457D01*
X189277763Y-49152364D01*
X189248558Y-49118659D01*
X189248554Y-49118656D01*
X189248552Y-49118653D01*
X189139818Y-49024433D01*
X189139815Y-49024431D01*
X189139813Y-49024430D01*
X189008947Y-48964664D01*
X189008942Y-48964662D01*
X189008941Y-48964662D01*
X188941902Y-48944977D01*
X188941904Y-48944977D01*
X188941899Y-48944976D01*
X188877332Y-48935693D01*
X188799482Y-48924500D01*
X188799480Y-48924500D01*
X187323651Y-48924500D01*
X187323648Y-48924500D01*
X187301905Y-48926822D01*
X187216903Y-48935899D01*
X187216885Y-48935902D01*
X187165717Y-48946957D01*
X187165702Y-48946961D01*
X187063778Y-48980643D01*
X187063774Y-48980644D01*
X186942514Y-49058086D01*
X186942512Y-49058088D01*
X186889571Y-49103699D01*
X186889567Y-49103703D01*
X186795045Y-49212166D01*
X186795042Y-49212171D01*
X186758087Y-49292492D01*
X186734904Y-49342879D01*
X186724967Y-49376371D01*
X186715028Y-49409868D01*
X186694150Y-49552212D01*
X186694150Y-49552215D01*
X186664649Y-59936183D01*
X178814231Y-59936183D01*
X178832548Y-59891021D01*
X178993790Y-59493471D01*
X179368597Y-58569369D01*
X179397956Y-58467294D01*
X179406969Y-58416262D01*
X179413118Y-58327985D01*
X179413962Y-58325711D01*
X179413532Y-58323322D01*
X179426044Y-58293131D01*
X179437413Y-58262479D01*
X179439642Y-58260323D01*
X179440284Y-58258777D01*
X179458051Y-58242532D01*
X179466121Y-58234733D01*
X179467007Y-58234117D01*
X179560289Y-58171789D01*
X179560292Y-58171786D01*
X179634694Y-58097385D01*
X179671786Y-58060292D01*
X179671789Y-58060289D01*
X179759394Y-57929179D01*
X179819737Y-57783497D01*
X179850500Y-57628842D01*
X179850500Y-57471158D01*
X179850500Y-57471155D01*
X179850500Y-57470973D01*
X179850065Y-57468972D01*
X179825332Y-57344633D01*
X179831559Y-57275045D01*
X179861786Y-57230315D01*
X179872453Y-57220237D01*
X179901122Y-57184117D01*
X179908985Y-57177352D01*
X179988392Y-57041237D01*
X179988398Y-57041226D01*
X180035536Y-56925003D01*
X180035542Y-56924989D01*
X180057812Y-56856393D01*
X180066288Y-56822132D01*
X180078573Y-56751039D01*
X180077185Y-56718877D01*
X180080795Y-56654678D01*
X180072648Y-56613732D01*
X180072371Y-56607292D01*
X180070921Y-56599583D01*
X180070920Y-56599583D01*
X180067678Y-56582342D01*
X180067676Y-56582333D01*
X180059459Y-56538629D01*
X180059457Y-56538625D01*
X180059457Y-56538621D01*
X180057906Y-56534074D01*
X180053650Y-56518236D01*
X180053209Y-56516023D01*
X180052720Y-56513563D01*
X180045506Y-56493115D01*
X180033278Y-56458456D01*
X180033275Y-56458446D01*
X180030034Y-56449257D01*
X180029494Y-56447663D01*
X180029364Y-56447409D01*
X180027449Y-56442847D01*
X180027626Y-56442772D01*
X180023413Y-56432952D01*
X180020515Y-56424456D01*
X180013007Y-56402445D01*
X179989911Y-56369703D01*
X179981366Y-56355707D01*
X179962788Y-56320193D01*
X179940403Y-56296995D01*
X179932596Y-56288091D01*
X179930369Y-56285292D01*
X179930073Y-56284872D01*
X179929833Y-56284618D01*
X179929829Y-56284613D01*
X179897823Y-56250741D01*
X179866088Y-56188495D01*
X179873044Y-56118972D01*
X179916482Y-56064247D01*
X179982612Y-56041693D01*
X179992958Y-56041986D01*
X179996633Y-56041828D01*
X179996633Y-56041827D01*
X179996635Y-56041828D01*
X180138037Y-56015236D01*
X180204166Y-55992682D01*
X180332343Y-55927332D01*
X180436922Y-55828515D01*
X180475949Y-55779345D01*
X180476884Y-55778299D01*
X180480330Y-55773827D01*
X180480360Y-55773790D01*
X180480361Y-55773789D01*
X180552863Y-55649511D01*
X183201065Y-49120261D01*
X184149079Y-46782894D01*
X184192517Y-46728169D01*
X184258646Y-46705615D01*
X184263987Y-46705500D01*
X197750500Y-46705500D01*
X197817539Y-46725185D01*
X197863294Y-46777989D01*
X197874500Y-46829500D01*
X197874500Y-49661016D01*
X197874591Y-49670620D01*
X197874645Y-49673434D01*
X197874685Y-49675476D01*
X197874969Y-49685275D01*
X197900928Y-49826794D01*
X197921313Y-49887450D01*
X197923186Y-49893024D01*
X197987962Y-50021495D01*
X198447667Y-50679504D01*
X200544460Y-53680795D01*
X200808335Y-54058499D01*
X206140487Y-61690795D01*
X206826320Y-62672478D01*
X206830593Y-62678188D01*
X206839729Y-62690836D01*
X206839960Y-62691255D01*
X206840211Y-62691504D01*
X206841588Y-62693410D01*
X206842826Y-62695050D01*
X206844530Y-62696947D01*
X206844829Y-62697321D01*
X206846091Y-62698897D01*
X206846093Y-62698900D01*
X206848530Y-62701944D01*
X206872926Y-62732417D01*
X206873572Y-62733046D01*
X206873794Y-62732821D01*
X206877682Y-62736631D01*
X206919844Y-62771255D01*
X206928003Y-62778583D01*
X206928279Y-62778854D01*
X206942114Y-62792576D01*
X206942718Y-62793024D01*
X206942724Y-62793030D01*
X206978139Y-62819320D01*
X206982920Y-62823053D01*
X206988875Y-62827944D01*
X206988881Y-62827948D01*
X206989829Y-62828620D01*
X206994822Y-62832026D01*
X206998183Y-62834201D01*
X206998185Y-62834202D01*
X206998189Y-62834205D01*
X207005016Y-62837897D01*
X207010273Y-62840909D01*
X207025702Y-62850258D01*
X207025704Y-62850259D01*
X207048620Y-62864145D01*
X207048625Y-62864147D01*
X207048630Y-62864150D01*
X207061500Y-62869621D01*
X207066313Y-62871667D01*
X207076787Y-62876712D01*
X207120745Y-62900485D01*
X207124747Y-62902649D01*
X207124749Y-62902649D01*
X207124751Y-62902650D01*
X207142083Y-62906347D01*
X207142088Y-62906348D01*
X207153752Y-62908836D01*
X207181042Y-62920437D01*
X207240967Y-62927441D01*
X207265461Y-62932666D01*
X207265467Y-62932666D01*
X207265484Y-62932670D01*
X207305869Y-62935392D01*
X207305869Y-62935393D01*
X207313285Y-62935893D01*
X207323949Y-62937140D01*
X207329547Y-62936991D01*
X207335169Y-62937371D01*
X207335171Y-62937371D01*
X207335185Y-62937372D01*
X207342915Y-62936786D01*
X207348959Y-62936477D01*
X207353282Y-62936364D01*
X207353281Y-62936363D01*
X207393776Y-62935297D01*
X207393798Y-62935293D01*
X207393801Y-62935293D01*
X207412746Y-62932054D01*
X207424292Y-62930635D01*
X207432819Y-62929990D01*
X207478656Y-62926526D01*
X207506396Y-62916051D01*
X207535625Y-62911056D01*
X207589833Y-62884544D01*
X207613259Y-62875699D01*
X207613262Y-62875696D01*
X207613281Y-62875690D01*
X207648715Y-62856151D01*
X207648716Y-62856152D01*
X207655225Y-62852563D01*
X207664876Y-62847844D01*
X207669510Y-62844689D01*
X207674420Y-62841983D01*
X207674495Y-62841941D01*
X207680747Y-62837219D01*
X207685676Y-62833684D01*
X207689136Y-62831330D01*
X207689135Y-62831329D01*
X207712118Y-62815689D01*
X207712161Y-62815607D01*
X207727391Y-62801998D01*
X207789317Y-62755238D01*
X207794221Y-62750293D01*
X207794246Y-62750262D01*
X207794645Y-62749821D01*
X207795642Y-62748727D01*
X207797322Y-62746905D01*
X207829465Y-62714762D01*
X207846267Y-62693852D01*
X207849125Y-62690755D01*
X207857695Y-62685616D01*
X207877815Y-62658628D01*
X207877817Y-62658629D01*
X207885041Y-62648938D01*
X207940889Y-62606959D01*
X208010570Y-62601837D01*
X208071960Y-62635200D01*
X208083719Y-62648745D01*
X208109754Y-62683524D01*
X208113589Y-62688942D01*
X208146021Y-62737479D01*
X208157479Y-62758916D01*
X208162831Y-62771836D01*
X208169888Y-62795100D01*
X208179427Y-62843057D01*
X208181105Y-62854042D01*
X208186462Y-62904057D01*
X208186463Y-62904064D01*
X208197584Y-62955391D01*
X208197585Y-62955393D01*
X208197586Y-62955400D01*
X208231457Y-63057583D01*
X208231461Y-63057591D01*
X208309041Y-63178744D01*
X208309050Y-63178757D01*
X208354716Y-63231632D01*
X208354719Y-63231635D01*
X208376376Y-63250463D01*
X208463300Y-63326033D01*
X208463305Y-63326036D01*
X208594072Y-63386013D01*
X208594071Y-63386013D01*
X208594077Y-63386014D01*
X208594082Y-63386017D01*
X208661089Y-63405811D01*
X208803470Y-63426520D01*
X211474470Y-63430892D01*
X211582350Y-63419427D01*
X211626540Y-63409851D01*
X211634056Y-63408223D01*
X211634059Y-63408221D01*
X211634064Y-63408221D01*
X211634070Y-63408218D01*
X211634077Y-63408217D01*
X211676070Y-63394259D01*
X211737004Y-63374006D01*
X211792344Y-63338441D01*
X211858037Y-63296222D01*
X211858037Y-63296221D01*
X211858043Y-63296218D01*
X211910847Y-63250463D01*
X212005067Y-63141729D01*
X212064838Y-63010852D01*
X212084523Y-62943813D01*
X212084524Y-62943809D01*
X212094468Y-62874644D01*
X212095585Y-62868122D01*
X212110110Y-62795099D01*
X212117164Y-62771841D01*
X212122520Y-62758910D01*
X212133970Y-62737487D01*
X212144935Y-62721077D01*
X212151463Y-62712193D01*
X212206705Y-62643645D01*
X212226654Y-62629795D01*
X212243827Y-62612623D01*
X212254838Y-62610227D01*
X212264098Y-62603799D01*
X212288370Y-62602933D01*
X212312100Y-62597771D01*
X212322660Y-62601709D01*
X212333923Y-62601308D01*
X212354807Y-62613700D01*
X212377564Y-62622188D01*
X212389896Y-62634520D01*
X212394011Y-62636962D01*
X212402521Y-62647145D01*
X212429754Y-62683524D01*
X212433589Y-62688942D01*
X212466021Y-62737479D01*
X212477479Y-62758916D01*
X212482831Y-62771836D01*
X212489888Y-62795100D01*
X212497787Y-62834811D01*
X212499465Y-62845797D01*
X212506462Y-62911127D01*
X212506463Y-62911134D01*
X212517584Y-62962461D01*
X212517585Y-62962463D01*
X212517586Y-62962470D01*
X212551457Y-63064653D01*
X212551461Y-63064661D01*
X212629041Y-63185814D01*
X212629050Y-63185827D01*
X212660983Y-63222801D01*
X212674719Y-63238705D01*
X212702288Y-63262673D01*
X212783300Y-63333103D01*
X212783305Y-63333106D01*
X212914072Y-63393083D01*
X212914071Y-63393083D01*
X212914077Y-63393084D01*
X212914082Y-63393087D01*
X212981089Y-63412881D01*
X213123470Y-63433590D01*
X218498330Y-63442388D01*
X218605799Y-63431012D01*
X218630126Y-63425761D01*
X218657312Y-63419895D01*
X218657321Y-63419892D01*
X218657328Y-63419891D01*
X218657335Y-63419888D01*
X218657341Y-63419887D01*
X218707477Y-63403290D01*
X218759922Y-63385931D01*
X218881090Y-63308343D01*
X218933969Y-63262675D01*
X219028368Y-63154094D01*
X219088353Y-63023315D01*
X219107553Y-62958320D01*
X219108028Y-62956809D01*
X219108144Y-62956319D01*
X219108148Y-62956308D01*
X219108149Y-62956305D01*
X219128859Y-62813923D01*
X219142148Y-54721769D01*
X219130909Y-54614932D01*
X219119919Y-54563691D01*
X219086356Y-54461639D01*
X219009077Y-54340273D01*
X218963544Y-54287277D01*
X218855204Y-54192600D01*
X218794858Y-54164734D01*
X218742247Y-54118757D01*
X218722845Y-54051635D01*
X218722845Y-54051618D01*
X218723199Y-53970257D01*
X218769997Y-43206734D01*
X218758682Y-43098155D01*
X218747478Y-43046108D01*
X218747477Y-43046103D01*
X218747476Y-43046100D01*
X218713118Y-42942498D01*
X218713116Y-42942494D01*
X218635332Y-42821462D01*
X218635329Y-42821457D01*
X218625982Y-42810670D01*
X218589580Y-42768659D01*
X218589576Y-42768656D01*
X218589574Y-42768653D01*
X218480840Y-42674433D01*
X218480837Y-42674431D01*
X218480835Y-42674430D01*
X218349969Y-42614664D01*
X218349964Y-42614662D01*
X218349963Y-42614662D01*
X218282924Y-42594977D01*
X218282926Y-42594977D01*
X218282921Y-42594976D01*
X218235448Y-42588150D01*
X218140504Y-42574500D01*
X218140502Y-42574500D01*
X179447777Y-42574500D01*
X179310701Y-42593440D01*
X179245965Y-42611678D01*
X179119175Y-42667073D01*
X179119172Y-42667075D01*
X179008385Y-42758886D01*
X178963647Y-42808278D01*
X178961762Y-42810253D01*
X178881051Y-42929972D01*
X177527665Y-45728945D01*
X177463912Y-45860794D01*
X177463912Y-45860795D01*
X167359034Y-66758945D01*
X167295281Y-66890794D01*
X167295281Y-66890795D01*
X163053150Y-75664047D01*
X163006245Y-75715832D01*
X163000942Y-75718900D01*
X162872021Y-75789296D01*
X162805990Y-75855324D01*
X162744666Y-75888807D01*
X162674974Y-75883821D01*
X162632897Y-75856592D01*
X162632628Y-75856899D01*
X162630540Y-75855067D01*
X162630083Y-75854771D01*
X162629301Y-75853979D01*
X162521160Y-75759074D01*
X162390661Y-75698480D01*
X162323738Y-75678370D01*
X162323465Y-75678330D01*
X162181463Y-75656999D01*
X161326446Y-75651609D01*
X161259532Y-75631502D01*
X161214111Y-75578410D01*
X161203251Y-75525239D01*
X161203461Y-75514225D01*
X161210500Y-75478842D01*
X161210500Y-75321158D01*
X161210500Y-75321155D01*
X161210499Y-75321153D01*
X161205753Y-75297299D01*
X161204419Y-75290588D01*
X161204419Y-75290587D01*
X161191993Y-75228120D01*
X161179737Y-75166503D01*
X161179734Y-75166495D01*
X161164170Y-75128920D01*
X161155442Y-75094726D01*
X161152630Y-75068576D01*
X161161358Y-75007865D01*
X161179737Y-74963497D01*
X161210500Y-74808842D01*
X161210500Y-74651158D01*
X161210500Y-74651155D01*
X161210500Y-74650971D01*
X161210064Y-74648966D01*
X161191513Y-74555704D01*
X161188267Y-74539385D01*
X161179737Y-74496503D01*
X161155434Y-74437829D01*
X161119397Y-74350827D01*
X161119390Y-74350814D01*
X161031789Y-74219711D01*
X161031786Y-74219707D01*
X161031781Y-74219701D01*
X160920297Y-74108217D01*
X160920291Y-74108212D01*
X160920290Y-74108211D01*
X160789191Y-74020613D01*
X160789190Y-74020612D01*
X160789185Y-74020609D01*
X160789172Y-74020602D01*
X160789165Y-74020598D01*
X160643502Y-73960264D01*
X160643471Y-73960257D01*
X160488847Y-73929500D01*
X160488845Y-73929500D01*
X160488842Y-73929500D01*
X160331158Y-73929500D01*
X160331155Y-73929500D01*
X160331153Y-73929500D01*
X160176527Y-73960257D01*
X160176496Y-73960264D01*
X160030833Y-74020598D01*
X160030824Y-74020603D01*
X160030807Y-74020613D01*
X159899708Y-74108211D01*
X159899707Y-74108212D01*
X159899701Y-74108217D01*
X159788217Y-74219701D01*
X159788212Y-74219707D01*
X159788211Y-74219708D01*
X159700613Y-74350807D01*
X159700603Y-74350824D01*
X159700598Y-74350833D01*
X159640264Y-74496496D01*
X159640257Y-74496527D01*
X159609500Y-74651150D01*
X159609500Y-74808850D01*
X159640259Y-74963486D01*
X159640260Y-74963488D01*
X159640262Y-74963493D01*
X159640263Y-74963497D01*
X159653538Y-74995545D01*
X159655829Y-75001077D01*
X159660033Y-75017549D01*
X159664556Y-75035272D01*
X159667368Y-75061426D01*
X159658641Y-75122133D01*
X159640266Y-75166495D01*
X159640260Y-75166509D01*
X159640258Y-75166516D01*
X159609500Y-75321148D01*
X159609500Y-75478852D01*
X159612085Y-75491849D01*
X159605855Y-75561440D01*
X159562990Y-75616615D01*
X159497099Y-75639858D01*
X159489686Y-75640033D01*
X158737967Y-75635296D01*
X158737966Y-75635296D01*
X158737965Y-75635296D01*
X158628871Y-75646505D01*
X158628868Y-75646505D01*
X158628858Y-75646507D01*
X158576578Y-75657709D01*
X158576569Y-75657712D01*
X158472502Y-75692168D01*
X158472491Y-75692173D01*
X158351468Y-75769950D01*
X158351451Y-75769963D01*
X158298659Y-75815707D01*
X158204433Y-75924448D01*
X158204430Y-75924452D01*
X158144664Y-76055318D01*
X158124976Y-76122366D01*
X158104500Y-76264785D01*
X156092482Y-76264785D01*
X156092483Y-76264784D01*
X156148655Y-76187470D01*
X156157840Y-76174827D01*
X156166437Y-76162994D01*
X156248652Y-76001639D01*
X156304612Y-75829409D01*
X156319206Y-75737259D01*
X156332941Y-75650551D01*
X156332941Y-75469448D01*
X156309453Y-75321158D01*
X156304612Y-75290591D01*
X156249613Y-75121320D01*
X156249125Y-75119659D01*
X156249124Y-75119333D01*
X156249096Y-75119232D01*
X156245640Y-75112450D01*
X156197285Y-75017549D01*
X156166437Y-74957006D01*
X156152837Y-74938287D01*
X156152836Y-74938284D01*
X156060011Y-74810522D01*
X156059999Y-74810505D01*
X156059995Y-74810500D01*
X156059992Y-74810497D01*
X156059989Y-74810493D01*
X155931948Y-74682452D01*
X155931939Y-74682444D01*
X155931915Y-74682426D01*
X155796046Y-74583712D01*
X155796032Y-74583703D01*
X155785438Y-74576006D01*
X155785437Y-74576005D01*
X155785435Y-74576004D01*
X155748549Y-74557209D01*
X155733742Y-74549664D01*
X155733741Y-74549664D01*
X155624080Y-74493788D01*
X155624077Y-74493787D01*
X155624074Y-74493786D01*
X155624072Y-74493785D01*
X155624053Y-74493778D01*
X155451854Y-74437829D01*
X155317706Y-74416582D01*
X155272992Y-74409500D01*
X155272991Y-74409500D01*
X155091891Y-74409500D01*
X155091890Y-74409500D01*
X155056118Y-74415165D01*
X154913026Y-74437829D01*
X154740827Y-74493778D01*
X154740804Y-74493786D01*
X154740800Y-74493788D01*
X154579446Y-74576004D01*
X154579443Y-74576005D01*
X154579443Y-74576006D01*
X154546781Y-74599736D01*
X154432940Y-74682445D01*
X154432932Y-74682452D01*
X154304893Y-74810491D01*
X154304886Y-74810499D01*
X154198445Y-74957005D01*
X154116229Y-75118359D01*
X154116227Y-75118363D01*
X154116219Y-75118386D01*
X154060270Y-75290585D01*
X154031941Y-75469448D01*
X154031941Y-75650550D01*
X154060270Y-75829413D01*
X154116219Y-76001612D01*
X154116227Y-76001635D01*
X154116229Y-76001639D01*
X154198447Y-76162997D01*
X154295218Y-76296192D01*
X154304886Y-76309499D01*
X154304893Y-76309507D01*
X154432934Y-76437548D01*
X154432938Y-76437551D01*
X154432941Y-76437554D01*
X154432946Y-76437558D01*
X154441619Y-76443859D01*
X154552115Y-76524139D01*
X154560728Y-76530396D01*
X154579447Y-76543996D01*
X154684925Y-76597740D01*
X154740801Y-76626211D01*
X154740804Y-76626212D01*
X154826917Y-76654191D01*
X154913032Y-76682171D01*
X154955174Y-76688845D01*
X154985919Y-76693715D01*
X154986018Y-76693730D01*
X154986080Y-76693740D01*
X155055512Y-76704738D01*
X155089228Y-76715163D01*
X155095512Y-76718142D01*
X155108815Y-76730007D01*
X155118644Y-76734667D01*
X155124395Y-76743903D01*
X155147654Y-76764649D01*
X155166376Y-76831964D01*
X155145733Y-76898714D01*
X155093907Y-76942978D01*
X155088519Y-76945439D01*
X155056399Y-76955121D01*
X154913026Y-76977829D01*
X154740827Y-77033778D01*
X154740804Y-77033786D01*
X154740800Y-77033788D01*
X154579446Y-77116004D01*
X154579443Y-77116005D01*
X154579443Y-77116006D01*
X154530610Y-77151484D01*
X154432940Y-77222445D01*
X154432932Y-77222452D01*
X154304893Y-77350491D01*
X154304886Y-77350499D01*
X154198445Y-77497005D01*
X154116229Y-77658359D01*
X154116227Y-77658363D01*
X154116219Y-77658386D01*
X154060270Y-77830585D01*
X154031941Y-78009448D01*
X154031941Y-78190550D01*
X154060270Y-78369413D01*
X154116219Y-78541612D01*
X154116227Y-78541635D01*
X154116229Y-78541639D01*
X154166766Y-78640821D01*
X154191166Y-78688709D01*
X154198447Y-78702997D01*
X154304882Y-78849494D01*
X154304886Y-78849499D01*
X154304893Y-78849507D01*
X154343382Y-78887996D01*
X154376867Y-78949319D01*
X154371883Y-79019011D01*
X154330011Y-79074944D01*
X154268565Y-79099008D01*
X154198117Y-79106356D01*
X154198115Y-79106356D01*
X154198108Y-79106357D01*
X154198100Y-79106358D01*
X154198098Y-79106359D01*
X154146078Y-79117561D01*
X154146076Y-79117561D01*
X154146074Y-79117562D01*
X154123464Y-79125061D01*
X154042495Y-79151915D01*
X154042488Y-79151919D01*
X153921462Y-79229698D01*
X153921451Y-79229707D01*
X153868659Y-79275451D01*
X153774433Y-79384192D01*
X153774430Y-79384196D01*
X153714664Y-79515062D01*
X153694976Y-79582110D01*
X153674500Y-79724529D01*
X153674500Y-82256979D01*
X153654815Y-82324018D01*
X153602011Y-82369773D01*
X153549809Y-82380977D01*
X148927523Y-82355202D01*
X148927508Y-82355203D01*
X148818607Y-82366451D01*
X148818600Y-82366452D01*
X148766410Y-82377654D01*
X148662500Y-82412078D01*
X148662496Y-82412079D01*
X148541462Y-82489864D01*
X148541451Y-82489872D01*
X148488659Y-82535616D01*
X148394433Y-82644357D01*
X148394430Y-82644361D01*
X148334664Y-82775227D01*
X148334662Y-82775234D01*
X148314977Y-82842273D01*
X148314976Y-82842277D01*
X148294500Y-82984693D01*
X143675500Y-82984693D01*
X143675500Y-75469448D01*
X148951941Y-75469448D01*
X148951941Y-75650550D01*
X148980270Y-75829413D01*
X149036219Y-76001612D01*
X149036227Y-76001635D01*
X149036229Y-76001639D01*
X149118447Y-76162997D01*
X149215218Y-76296192D01*
X149224886Y-76309499D01*
X149224893Y-76309507D01*
X149352934Y-76437548D01*
X149352938Y-76437551D01*
X149352941Y-76437554D01*
X149352946Y-76437558D01*
X149361619Y-76443859D01*
X149472115Y-76524139D01*
X149480728Y-76530396D01*
X149499447Y-76543996D01*
X149604925Y-76597740D01*
X149660801Y-76626211D01*
X149660804Y-76626212D01*
X149746917Y-76654191D01*
X149833032Y-76682171D01*
X149875174Y-76688845D01*
X149905919Y-76693715D01*
X149906018Y-76693730D01*
X149906080Y-76693740D01*
X149975512Y-76704738D01*
X150009228Y-76715163D01*
X150015512Y-76718142D01*
X150028815Y-76730007D01*
X150038644Y-76734667D01*
X150044395Y-76743903D01*
X150067654Y-76764649D01*
X150086376Y-76831964D01*
X150065733Y-76898714D01*
X150013907Y-76942978D01*
X150008519Y-76945439D01*
X149976399Y-76955121D01*
X149833026Y-76977829D01*
X149660827Y-77033778D01*
X149660804Y-77033786D01*
X149660800Y-77033788D01*
X149499446Y-77116004D01*
X149499443Y-77116005D01*
X149499443Y-77116006D01*
X149450610Y-77151484D01*
X149352940Y-77222445D01*
X149352932Y-77222452D01*
X149224893Y-77350491D01*
X149224886Y-77350499D01*
X149118445Y-77497005D01*
X149036229Y-77658359D01*
X149036227Y-77658363D01*
X149036219Y-77658386D01*
X148980270Y-77830585D01*
X148951941Y-78009448D01*
X148951941Y-78190550D01*
X148980270Y-78369413D01*
X149036219Y-78541612D01*
X149036227Y-78541635D01*
X149036229Y-78541639D01*
X149086766Y-78640821D01*
X149111166Y-78688709D01*
X149118447Y-78702997D01*
X149224882Y-78849494D01*
X149224886Y-78849499D01*
X149224893Y-78849507D01*
X149352932Y-78977546D01*
X149352940Y-78977553D01*
X149352941Y-78977554D01*
X149352946Y-78977558D01*
X149357646Y-78980973D01*
X149388129Y-79003119D01*
X149388131Y-79003121D01*
X149424743Y-79029721D01*
X149499447Y-79083996D01*
X149604925Y-79137740D01*
X149660801Y-79166211D01*
X149660804Y-79166212D01*
X149746917Y-79194191D01*
X149833032Y-79222171D01*
X149875174Y-79228845D01*
X149905919Y-79233715D01*
X149906018Y-79233730D01*
X149906080Y-79233740D01*
X149975512Y-79244738D01*
X150009228Y-79255163D01*
X150015512Y-79258142D01*
X150028815Y-79270007D01*
X150038644Y-79274667D01*
X150044395Y-79283903D01*
X150067654Y-79304649D01*
X150086376Y-79371964D01*
X150065733Y-79438714D01*
X150013907Y-79482978D01*
X150008519Y-79485439D01*
X149976399Y-79495121D01*
X149833026Y-79517829D01*
X149660827Y-79573778D01*
X149660804Y-79573786D01*
X149660800Y-79573788D01*
X149499446Y-79656004D01*
X149499443Y-79656005D01*
X149499443Y-79656006D01*
X149463958Y-79681787D01*
X149352940Y-79762445D01*
X149352932Y-79762452D01*
X149224893Y-79890491D01*
X149224886Y-79890499D01*
X149118445Y-80037005D01*
X149036229Y-80198359D01*
X149036227Y-80198363D01*
X149036219Y-80198386D01*
X148980270Y-80370585D01*
X148951941Y-80549448D01*
X148951941Y-80730550D01*
X148980270Y-80909413D01*
X149036219Y-81081612D01*
X149036227Y-81081635D01*
X149036229Y-81081639D01*
X149118447Y-81242997D01*
X149200319Y-81355685D01*
X149224886Y-81389499D01*
X149224893Y-81389507D01*
X149352932Y-81517546D01*
X149352941Y-81517554D01*
X149352965Y-81517572D01*
X149416990Y-81564089D01*
X149416998Y-81564094D01*
X149421312Y-81567228D01*
X149499447Y-81623996D01*
X149604925Y-81677740D01*
X149660801Y-81706211D01*
X149660804Y-81706212D01*
X149729075Y-81728394D01*
X149748779Y-81734796D01*
X149833025Y-81762169D01*
X149833026Y-81762169D01*
X149833032Y-81762171D01*
X149915870Y-81775291D01*
X150011890Y-81790500D01*
X150011895Y-81790500D01*
X150192989Y-81790500D01*
X150192992Y-81790500D01*
X150279700Y-81776765D01*
X150371850Y-81762171D01*
X150544080Y-81706211D01*
X150705435Y-81623996D01*
X150851942Y-81517553D01*
X150979994Y-81389501D01*
X151086437Y-81242994D01*
X151168652Y-81081639D01*
X151224612Y-80909409D01*
X151246122Y-80773602D01*
X151252941Y-80730551D01*
X151252941Y-80549448D01*
X151236460Y-80445397D01*
X151224612Y-80370591D01*
X151168652Y-80198361D01*
X151168652Y-80198360D01*
X151140181Y-80142484D01*
X151086437Y-80037006D01*
X151086436Y-80037004D01*
X151072838Y-80018289D01*
X151072836Y-80018285D01*
X151015280Y-79939066D01*
X150979999Y-79890505D01*
X150979995Y-79890500D01*
X150979992Y-79890497D01*
X150979989Y-79890493D01*
X150851948Y-79762452D01*
X150851939Y-79762444D01*
X150851915Y-79762426D01*
X150716046Y-79663712D01*
X150716032Y-79663703D01*
X150705438Y-79656006D01*
X150705437Y-79656005D01*
X150705435Y-79656004D01*
X150699312Y-79652884D01*
X150653742Y-79629664D01*
X150653741Y-79629664D01*
X150544080Y-79573788D01*
X150544077Y-79573787D01*
X150544074Y-79573786D01*
X150544072Y-79573785D01*
X150544053Y-79573778D01*
X150371853Y-79517829D01*
X150371854Y-79517829D01*
X150229372Y-79495262D01*
X150217086Y-79489438D01*
X150195648Y-79484834D01*
X150189368Y-79481857D01*
X150176065Y-79469992D01*
X150166237Y-79465333D01*
X150160485Y-79456095D01*
X150137226Y-79435350D01*
X150118504Y-79368035D01*
X150139147Y-79301285D01*
X150170023Y-79274917D01*
X150178804Y-79264373D01*
X150184457Y-79262591D01*
X150190990Y-79257013D01*
X150196378Y-79254553D01*
X150228473Y-79244879D01*
X150281866Y-79236422D01*
X150371850Y-79222171D01*
X150544080Y-79166211D01*
X150705435Y-79083996D01*
X150851942Y-78977553D01*
X150979994Y-78849501D01*
X151086437Y-78702994D01*
X151168652Y-78541639D01*
X151224612Y-78369409D01*
X151244920Y-78241190D01*
X151252941Y-78190551D01*
X151252941Y-78009448D01*
X151240219Y-77929130D01*
X151233771Y-77888418D01*
X151233770Y-77888417D01*
X151232621Y-77881158D01*
X151224612Y-77830591D01*
X151169409Y-77660693D01*
X151168873Y-77658794D01*
X151129143Y-77580821D01*
X151129142Y-77580820D01*
X151086436Y-77497005D01*
X151052075Y-77449711D01*
X151052074Y-77449709D01*
X150980007Y-77350516D01*
X150979995Y-77350500D01*
X150979987Y-77350491D01*
X150851948Y-77222452D01*
X150851939Y-77222444D01*
X150851915Y-77222426D01*
X150716046Y-77123712D01*
X150716032Y-77123703D01*
X150705438Y-77116006D01*
X150705437Y-77116005D01*
X150705435Y-77116004D01*
X150699312Y-77112884D01*
X150653742Y-77089664D01*
X150653741Y-77089664D01*
X150544080Y-77033788D01*
X150544077Y-77033787D01*
X150544074Y-77033786D01*
X150544072Y-77033785D01*
X150544053Y-77033778D01*
X150371853Y-76977829D01*
X150371854Y-76977829D01*
X150229372Y-76955262D01*
X150217086Y-76949438D01*
X150195648Y-76944834D01*
X150189368Y-76941857D01*
X150176065Y-76929992D01*
X150166237Y-76925333D01*
X150160485Y-76916095D01*
X150137226Y-76895350D01*
X150118504Y-76828035D01*
X150139147Y-76761285D01*
X150170023Y-76734917D01*
X150178804Y-76724373D01*
X150184457Y-76722591D01*
X150190990Y-76717013D01*
X150196378Y-76714553D01*
X150228473Y-76704879D01*
X150281866Y-76696422D01*
X150371850Y-76682171D01*
X150544080Y-76626211D01*
X150705435Y-76543996D01*
X150851942Y-76437553D01*
X150979994Y-76309501D01*
X151086437Y-76162994D01*
X151168652Y-76001639D01*
X151224612Y-75829409D01*
X151239206Y-75737259D01*
X151252941Y-75650551D01*
X151252941Y-75469448D01*
X151229453Y-75321158D01*
X151224612Y-75290591D01*
X151169613Y-75121320D01*
X151169125Y-75119659D01*
X151169124Y-75119333D01*
X151169096Y-75119232D01*
X151165640Y-75112450D01*
X151117285Y-75017549D01*
X151086437Y-74957006D01*
X151072837Y-74938287D01*
X151072836Y-74938284D01*
X150980011Y-74810522D01*
X150979999Y-74810505D01*
X150979995Y-74810500D01*
X150979992Y-74810497D01*
X150979989Y-74810493D01*
X150851948Y-74682452D01*
X150851939Y-74682444D01*
X150851915Y-74682426D01*
X150716046Y-74583712D01*
X150716032Y-74583703D01*
X150705438Y-74576006D01*
X150705437Y-74576005D01*
X150705435Y-74576004D01*
X150668549Y-74557209D01*
X150653742Y-74549664D01*
X150653741Y-74549664D01*
X150544080Y-74493788D01*
X150544077Y-74493787D01*
X150544074Y-74493786D01*
X150544072Y-74493785D01*
X150544053Y-74493778D01*
X150371854Y-74437829D01*
X150237706Y-74416582D01*
X150192992Y-74409500D01*
X150192991Y-74409500D01*
X150011891Y-74409500D01*
X150011890Y-74409500D01*
X149976118Y-74415165D01*
X149833026Y-74437829D01*
X149660827Y-74493778D01*
X149660804Y-74493786D01*
X149660800Y-74493788D01*
X149499446Y-74576004D01*
X149499443Y-74576005D01*
X149499443Y-74576006D01*
X149466781Y-74599736D01*
X149352940Y-74682445D01*
X149352932Y-74682452D01*
X149224893Y-74810491D01*
X149224886Y-74810499D01*
X149118445Y-74957005D01*
X149036229Y-75118359D01*
X149036227Y-75118363D01*
X149036219Y-75118386D01*
X148980270Y-75290585D01*
X148951941Y-75469448D01*
X143675500Y-75469448D01*
X143675500Y-71798848D01*
X145469499Y-71798848D01*
X145500257Y-71953471D01*
X145500264Y-71953502D01*
X145560598Y-72099165D01*
X145560603Y-72099174D01*
X145560613Y-72099191D01*
X145648211Y-72230290D01*
X145648212Y-72230291D01*
X145648217Y-72230297D01*
X145759701Y-72341781D01*
X145759707Y-72341786D01*
X145759711Y-72341789D01*
X145890814Y-72429390D01*
X145890827Y-72429397D01*
X146036498Y-72489735D01*
X146036503Y-72489737D01*
X146191153Y-72520499D01*
X146191156Y-72520500D01*
X146191158Y-72520500D01*
X146348844Y-72520500D01*
X146348845Y-72520499D01*
X146503497Y-72489737D01*
X146649179Y-72429394D01*
X146780289Y-72341789D01*
X146891789Y-72230289D01*
X146979394Y-72099179D01*
X147033621Y-71968260D01*
X147051625Y-71937919D01*
X147058726Y-71929107D01*
X147116120Y-71889263D01*
X147185946Y-71886772D01*
X147246027Y-71922422D01*
X147248173Y-71924726D01*
X147251253Y-71928034D01*
X147275059Y-71965078D01*
X147330596Y-72099158D01*
X147330604Y-72099176D01*
X147330613Y-72099191D01*
X147418211Y-72230290D01*
X147418212Y-72230291D01*
X147418217Y-72230297D01*
X147529701Y-72341781D01*
X147529707Y-72341786D01*
X147529711Y-72341789D01*
X147660814Y-72429390D01*
X147660827Y-72429397D01*
X147806498Y-72489735D01*
X147806503Y-72489737D01*
X147961153Y-72520499D01*
X147961156Y-72520500D01*
X147961158Y-72520500D01*
X148118844Y-72520500D01*
X148118845Y-72520499D01*
X148273497Y-72489737D01*
X148419179Y-72429394D01*
X148550289Y-72341789D01*
X148661789Y-72230289D01*
X148749394Y-72099179D01*
X148809737Y-71953497D01*
X148840499Y-71798848D01*
X149639499Y-71798848D01*
X149670257Y-71953471D01*
X149670264Y-71953502D01*
X149730598Y-72099165D01*
X149730603Y-72099174D01*
X149730613Y-72099191D01*
X149818211Y-72230290D01*
X149818212Y-72230291D01*
X149818217Y-72230297D01*
X149929701Y-72341781D01*
X149929707Y-72341786D01*
X149929711Y-72341789D01*
X150060814Y-72429390D01*
X150060827Y-72429397D01*
X150206498Y-72489735D01*
X150206503Y-72489737D01*
X150361153Y-72520499D01*
X150361156Y-72520500D01*
X150361158Y-72520500D01*
X150518844Y-72520500D01*
X150518845Y-72520499D01*
X150673497Y-72489737D01*
X150819179Y-72429394D01*
X150950289Y-72341789D01*
X151061789Y-72230289D01*
X151149394Y-72099179D01*
X151209737Y-71953497D01*
X151240500Y-71798842D01*
X151240500Y-71641158D01*
X151240500Y-71641155D01*
X151240500Y-71640971D01*
X151240064Y-71638966D01*
X151238301Y-71630106D01*
X151209737Y-71486503D01*
X151209735Y-71486498D01*
X151149397Y-71340827D01*
X151149390Y-71340814D01*
X151061789Y-71209711D01*
X151061786Y-71209707D01*
X151061781Y-71209701D01*
X150950297Y-71098217D01*
X150950291Y-71098212D01*
X150950290Y-71098211D01*
X150819191Y-71010613D01*
X150819190Y-71010612D01*
X150819185Y-71010609D01*
X150819172Y-71010602D01*
X150819165Y-71010598D01*
X150673502Y-70950264D01*
X150673471Y-70950257D01*
X150518847Y-70919500D01*
X150518845Y-70919500D01*
X150518842Y-70919500D01*
X150361158Y-70919500D01*
X150361155Y-70919500D01*
X150361153Y-70919500D01*
X150206527Y-70950257D01*
X150206496Y-70950264D01*
X150060833Y-71010598D01*
X150060824Y-71010603D01*
X150060807Y-71010613D01*
X149929708Y-71098211D01*
X149929707Y-71098212D01*
X149929701Y-71098217D01*
X149818217Y-71209701D01*
X149818212Y-71209707D01*
X149818211Y-71209708D01*
X149730613Y-71340807D01*
X149730603Y-71340824D01*
X149730598Y-71340833D01*
X149670264Y-71486496D01*
X149670257Y-71486527D01*
X149639500Y-71641150D01*
X149639500Y-71641153D01*
X149639500Y-71798846D01*
X149639500Y-71798848D01*
X149639499Y-71798848D01*
X148840499Y-71798848D01*
X148840500Y-71798842D01*
X148840500Y-71641158D01*
X148840500Y-71641155D01*
X148840499Y-71641153D01*
X148809737Y-71486503D01*
X148809735Y-71486498D01*
X148749397Y-71340827D01*
X148749390Y-71340814D01*
X148661789Y-71209711D01*
X148661786Y-71209707D01*
X148661781Y-71209701D01*
X148550297Y-71098217D01*
X148550291Y-71098212D01*
X148550290Y-71098211D01*
X148419191Y-71010613D01*
X148419190Y-71010612D01*
X148419185Y-71010609D01*
X148419172Y-71010602D01*
X148419165Y-71010598D01*
X148273502Y-70950264D01*
X148273471Y-70950257D01*
X148118847Y-70919500D01*
X148118845Y-70919500D01*
X148118842Y-70919500D01*
X147961158Y-70919500D01*
X147961155Y-70919500D01*
X147961153Y-70919500D01*
X147806527Y-70950257D01*
X147806496Y-70950264D01*
X147660833Y-71010598D01*
X147660824Y-71010603D01*
X147660807Y-71010613D01*
X147529708Y-71098211D01*
X147529707Y-71098212D01*
X147529701Y-71098217D01*
X147418217Y-71209701D01*
X147418212Y-71209707D01*
X147418211Y-71209708D01*
X147330613Y-71340807D01*
X147330604Y-71340822D01*
X147330596Y-71340840D01*
X147276382Y-71471726D01*
X147276380Y-71471729D01*
X147276380Y-71471731D01*
X147264365Y-71491980D01*
X147258370Y-71502083D01*
X147251274Y-71510888D01*
X147193880Y-71550735D01*
X147124055Y-71553226D01*
X147063972Y-71517576D01*
X147058743Y-71511961D01*
X147034940Y-71474922D01*
X146979397Y-71340827D01*
X146979390Y-71340814D01*
X146891789Y-71209711D01*
X146891786Y-71209707D01*
X146891781Y-71209701D01*
X146780297Y-71098217D01*
X146780291Y-71098212D01*
X146780290Y-71098211D01*
X146649191Y-71010613D01*
X146649190Y-71010612D01*
X146649185Y-71010609D01*
X146649172Y-71010602D01*
X146649165Y-71010598D01*
X146503502Y-70950264D01*
X146503471Y-70950257D01*
X146348847Y-70919500D01*
X146348845Y-70919500D01*
X146348842Y-70919500D01*
X146191158Y-70919500D01*
X146191155Y-70919500D01*
X146191153Y-70919500D01*
X146036527Y-70950257D01*
X146036496Y-70950264D01*
X145890833Y-71010598D01*
X145890824Y-71010603D01*
X145890807Y-71010613D01*
X145759708Y-71098211D01*
X145759707Y-71098212D01*
X145759701Y-71098217D01*
X145648217Y-71209701D01*
X145648212Y-71209707D01*
X145648211Y-71209708D01*
X145560613Y-71340807D01*
X145560603Y-71340824D01*
X145560598Y-71340833D01*
X145500264Y-71486496D01*
X145500257Y-71486527D01*
X145469500Y-71641150D01*
X145469500Y-71641153D01*
X145469500Y-71798846D01*
X145469500Y-71798848D01*
X145469499Y-71798848D01*
X143675500Y-71798848D01*
X143675500Y-70068848D01*
X152969499Y-70068848D01*
X153000257Y-70223471D01*
X153000264Y-70223502D01*
X153060598Y-70369165D01*
X153060603Y-70369174D01*
X153060613Y-70369191D01*
X153137752Y-70484637D01*
X153143482Y-70494100D01*
X153161275Y-70526685D01*
X153176127Y-70594957D01*
X153175998Y-70596761D01*
X153156628Y-70654958D01*
X153125306Y-70703694D01*
X153125273Y-70703673D01*
X153124127Y-70705752D01*
X153060610Y-70800812D01*
X153060603Y-70800824D01*
X153060598Y-70800833D01*
X153000264Y-70946496D01*
X153000257Y-70946527D01*
X152969500Y-71101150D01*
X152969500Y-71101153D01*
X152969500Y-71258846D01*
X152969500Y-71258848D01*
X152969499Y-71258848D01*
X153000257Y-71413471D01*
X153000264Y-71413502D01*
X153060598Y-71559165D01*
X153060603Y-71559174D01*
X153060613Y-71559191D01*
X153148211Y-71690290D01*
X153148212Y-71690291D01*
X153148217Y-71690297D01*
X153259701Y-71801781D01*
X153259707Y-71801786D01*
X153259711Y-71801789D01*
X153390814Y-71889390D01*
X153390827Y-71889397D01*
X153536498Y-71949735D01*
X153536503Y-71949737D01*
X153691153Y-71980499D01*
X153691156Y-71980500D01*
X153691158Y-71980500D01*
X153848844Y-71980500D01*
X153848845Y-71980499D01*
X154003497Y-71949737D01*
X154116166Y-71903067D01*
X154142634Y-71892104D01*
X154145425Y-71891131D01*
X154146868Y-71890464D01*
X154151528Y-71888421D01*
X154160787Y-71884585D01*
X154169671Y-71875701D01*
X154280289Y-71801789D01*
X154391789Y-71690289D01*
X154479394Y-71559179D01*
X154539737Y-71413497D01*
X154570500Y-71258842D01*
X154570500Y-71101158D01*
X154570500Y-71101155D01*
X154570500Y-71100971D01*
X154570064Y-71098966D01*
X154556398Y-71030263D01*
X154552489Y-71010613D01*
X154539737Y-70946503D01*
X154508256Y-70870500D01*
X154479397Y-70800827D01*
X154479390Y-70800814D01*
X154402327Y-70685482D01*
X154396619Y-70676058D01*
X154385087Y-70654958D01*
X154378743Y-70643350D01*
X154363867Y-70575085D01*
X154363996Y-70573274D01*
X154383366Y-70515064D01*
X154414699Y-70466309D01*
X154414730Y-70466329D01*
X154415871Y-70464247D01*
X154479394Y-70369179D01*
X154539737Y-70223497D01*
X154570500Y-70068842D01*
X154570500Y-69911158D01*
X154570500Y-69911155D01*
X154570500Y-69910973D01*
X154570065Y-69908972D01*
X154555829Y-69837403D01*
X154540395Y-69759816D01*
X154539994Y-69757467D01*
X154539738Y-69756508D01*
X154539737Y-69756506D01*
X154539737Y-69756503D01*
X154539735Y-69756498D01*
X154479397Y-69610827D01*
X154479390Y-69610814D01*
X154391789Y-69479711D01*
X154391786Y-69479707D01*
X154391781Y-69479701D01*
X154280297Y-69368217D01*
X154280291Y-69368212D01*
X154280290Y-69368211D01*
X154149191Y-69280613D01*
X154149190Y-69280612D01*
X154149185Y-69280609D01*
X154149172Y-69280602D01*
X154149165Y-69280598D01*
X154003502Y-69220264D01*
X154003471Y-69220257D01*
X153848847Y-69189500D01*
X153848845Y-69189500D01*
X153848842Y-69189500D01*
X153691158Y-69189500D01*
X153691155Y-69189500D01*
X153691153Y-69189500D01*
X153536527Y-69220257D01*
X153536496Y-69220264D01*
X153390833Y-69280598D01*
X153390824Y-69280603D01*
X153390807Y-69280613D01*
X153259708Y-69368211D01*
X153259707Y-69368212D01*
X153259701Y-69368217D01*
X153148217Y-69479701D01*
X153148212Y-69479707D01*
X153148211Y-69479708D01*
X153060613Y-69610807D01*
X153060603Y-69610824D01*
X153060598Y-69610833D01*
X153000264Y-69756496D01*
X153000257Y-69756527D01*
X152969500Y-69911150D01*
X152969500Y-69911153D01*
X152969500Y-70068846D01*
X152969500Y-70068848D01*
X152969499Y-70068848D01*
X143675500Y-70068848D01*
X143675500Y-59338848D01*
X146399499Y-59338848D01*
X146430257Y-59493471D01*
X146430264Y-59493502D01*
X146490598Y-59639165D01*
X146490603Y-59639174D01*
X146490613Y-59639191D01*
X146578211Y-59770290D01*
X146578212Y-59770291D01*
X146578217Y-59770297D01*
X146689701Y-59881781D01*
X146689707Y-59881786D01*
X146689711Y-59881789D01*
X146820814Y-59969390D01*
X146820827Y-59969397D01*
X146966498Y-60029735D01*
X146966503Y-60029737D01*
X147121153Y-60060499D01*
X147121156Y-60060500D01*
X147121158Y-60060500D01*
X147278844Y-60060500D01*
X147278845Y-60060499D01*
X147433497Y-60029737D01*
X147579179Y-59969394D01*
X147710289Y-59881789D01*
X147821789Y-59770289D01*
X147909394Y-59639179D01*
X147969737Y-59493497D01*
X147991591Y-59383629D01*
X163264100Y-59383629D01*
X163264100Y-59566370D01*
X163275633Y-59639185D01*
X163292685Y-59746845D01*
X163349152Y-59920631D01*
X163432109Y-60083444D01*
X163539515Y-60231276D01*
X163668724Y-60360485D01*
X163816556Y-60467891D01*
X163979369Y-60550848D01*
X164153155Y-60607315D01*
X164197212Y-60614293D01*
X164231595Y-60619739D01*
X164265306Y-60630163D01*
X164271590Y-60633142D01*
X164284893Y-60645007D01*
X164294722Y-60649667D01*
X164300473Y-60658903D01*
X164323732Y-60679649D01*
X164342454Y-60746964D01*
X164321811Y-60813714D01*
X164269985Y-60857978D01*
X164264597Y-60860439D01*
X164232477Y-60870121D01*
X164153161Y-60882683D01*
X163979363Y-60939154D01*
X163816554Y-61022109D01*
X163732209Y-61083389D01*
X163668721Y-61129517D01*
X163668719Y-61129519D01*
X163668718Y-61129519D01*
X163539519Y-61258718D01*
X163539519Y-61258719D01*
X163539517Y-61258721D01*
X163493389Y-61322209D01*
X163432109Y-61406554D01*
X163349154Y-61569363D01*
X163292683Y-61743161D01*
X163264100Y-61923629D01*
X163264100Y-62106369D01*
X163292682Y-62286831D01*
X163292682Y-62286835D01*
X163292686Y-62286851D01*
X163349153Y-62460635D01*
X163425229Y-62609941D01*
X163432109Y-62623444D01*
X163539515Y-62771276D01*
X163668724Y-62900485D01*
X163816556Y-63007891D01*
X163889387Y-63045000D01*
X163979364Y-63090846D01*
X163979366Y-63090846D01*
X163979369Y-63090848D01*
X164149733Y-63146203D01*
X164162178Y-63151326D01*
X164164521Y-63152082D01*
X164176746Y-63157876D01*
X164177589Y-63158628D01*
X164179063Y-63159371D01*
X164191869Y-63171360D01*
X164228895Y-63204375D01*
X164229516Y-63206607D01*
X164230068Y-63207124D01*
X164234022Y-63222801D01*
X164247627Y-63271687D01*
X164246926Y-63273953D01*
X164247158Y-63274871D01*
X164240704Y-63294083D01*
X164226993Y-63338441D01*
X164225333Y-63339841D01*
X164224909Y-63341104D01*
X164203632Y-63358151D01*
X164173784Y-63383337D01*
X164173395Y-63383509D01*
X164171480Y-63383913D01*
X164170383Y-63384793D01*
X164164300Y-63385429D01*
X164123250Y-63394100D01*
X163716723Y-63394100D01*
X163714792Y-63394259D01*
X163713145Y-63394485D01*
X163657116Y-63400508D01*
X163544836Y-63442386D01*
X163522266Y-63450804D01*
X163522265Y-63450805D01*
X163407056Y-63537050D01*
X163407050Y-63537056D01*
X163320805Y-63652265D01*
X163320803Y-63652268D01*
X163270508Y-63787116D01*
X163264100Y-63846725D01*
X163264100Y-65263272D01*
X163264259Y-65265206D01*
X163264485Y-65266854D01*
X163270507Y-65322882D01*
X163280318Y-65349185D01*
X163320802Y-65457728D01*
X163320806Y-65457735D01*
X163337696Y-65480297D01*
X163407050Y-65572942D01*
X163407052Y-65572944D01*
X163407055Y-65572947D01*
X163522264Y-65659193D01*
X163522271Y-65659197D01*
X163657117Y-65709491D01*
X163657116Y-65709491D01*
X163664044Y-65710235D01*
X163716727Y-65715900D01*
X165133272Y-65715899D01*
X165192883Y-65709491D01*
X165327731Y-65659196D01*
X165442946Y-65572946D01*
X165529196Y-65457731D01*
X165579491Y-65322883D01*
X165579491Y-65322882D01*
X165579492Y-65322880D01*
X165585900Y-65263272D01*
X165585900Y-65263269D01*
X165585899Y-64459711D01*
X165585899Y-63846729D01*
X165585899Y-63846722D01*
X165585739Y-63844797D01*
X165585512Y-63843138D01*
X165579491Y-63787117D01*
X165579491Y-63787116D01*
X165529196Y-63652269D01*
X165529195Y-63652268D01*
X165529193Y-63652264D01*
X165529182Y-63652249D01*
X165526792Y-63648529D01*
X165526791Y-63648528D01*
X165523889Y-63645179D01*
X165442947Y-63537055D01*
X165442944Y-63537052D01*
X165442942Y-63537050D01*
X165385016Y-63493686D01*
X165327735Y-63450806D01*
X165327732Y-63450804D01*
X165327730Y-63450803D01*
X165327728Y-63450802D01*
X165192882Y-63400508D01*
X165192883Y-63400508D01*
X165133283Y-63394101D01*
X165133281Y-63394100D01*
X165133273Y-63394100D01*
X165133265Y-63394100D01*
X165132241Y-63394100D01*
X164732102Y-63394100D01*
X164697172Y-63389078D01*
X164691310Y-63387357D01*
X164676318Y-63377723D01*
X164659215Y-63372704D01*
X164647533Y-63359225D01*
X164632530Y-63349585D01*
X164625125Y-63333373D01*
X164613453Y-63319906D01*
X164610912Y-63302254D01*
X164603503Y-63286031D01*
X164606038Y-63268389D01*
X164603500Y-63250749D01*
X164610906Y-63234524D01*
X164613444Y-63216872D01*
X164625115Y-63203399D01*
X164632516Y-63187189D01*
X164659186Y-63164073D01*
X164660672Y-63163118D01*
X164692438Y-63149566D01*
X164692198Y-63148825D01*
X164714052Y-63141724D01*
X164870631Y-63090848D01*
X165033444Y-63007891D01*
X165181276Y-62900485D01*
X165310485Y-62771276D01*
X165417891Y-62623444D01*
X165500848Y-62460631D01*
X165557315Y-62286845D01*
X165570019Y-62206631D01*
X165585900Y-62106370D01*
X165585900Y-61923629D01*
X165561073Y-61766881D01*
X165558842Y-61752797D01*
X165558841Y-61752791D01*
X165558841Y-61752792D01*
X165557315Y-61743158D01*
X165557315Y-61743155D01*
X165500848Y-61569369D01*
X165500846Y-61569366D01*
X165500846Y-61569364D01*
X165417890Y-61406555D01*
X165310485Y-61258724D01*
X165181276Y-61129515D01*
X165033444Y-61022109D01*
X164870635Y-60939153D01*
X164710371Y-60887079D01*
X164710360Y-60887076D01*
X164696845Y-60882685D01*
X164696843Y-60882684D01*
X164696841Y-60882684D01*
X164682444Y-60880403D01*
X164682437Y-60880402D01*
X164618412Y-60870262D01*
X164584688Y-60859834D01*
X164578408Y-60856857D01*
X164526266Y-60810350D01*
X164507544Y-60743035D01*
X164528187Y-60676285D01*
X164580013Y-60632021D01*
X164580885Y-60631622D01*
X164585403Y-60629559D01*
X164617516Y-60619879D01*
X164638101Y-60616619D01*
X164696845Y-60607315D01*
X164870631Y-60550848D01*
X165033444Y-60467891D01*
X165181276Y-60360485D01*
X165310485Y-60231276D01*
X165417891Y-60083444D01*
X165500848Y-59920631D01*
X165557315Y-59746845D01*
X165574367Y-59639185D01*
X165585900Y-59566370D01*
X165585900Y-59383629D01*
X165557315Y-59203158D01*
X165557315Y-59203155D01*
X165500848Y-59029369D01*
X165500846Y-59029366D01*
X165500846Y-59029364D01*
X165436289Y-58902664D01*
X165417891Y-58866556D01*
X165310485Y-58718724D01*
X165181276Y-58589515D01*
X165033444Y-58482109D01*
X165004368Y-58467294D01*
X164870635Y-58399153D01*
X164710371Y-58347079D01*
X164710360Y-58347076D01*
X164696845Y-58342685D01*
X164696843Y-58342684D01*
X164696841Y-58342684D01*
X164682444Y-58340403D01*
X164682437Y-58340402D01*
X164550404Y-58319490D01*
X164516370Y-58314100D01*
X164516369Y-58314100D01*
X164333631Y-58314100D01*
X164333630Y-58314100D01*
X164291794Y-58320726D01*
X164153161Y-58342683D01*
X163979363Y-58399154D01*
X163816554Y-58482109D01*
X163742915Y-58535612D01*
X163668721Y-58589517D01*
X163668719Y-58589519D01*
X163668718Y-58589519D01*
X163539519Y-58718718D01*
X163539519Y-58718719D01*
X163539517Y-58718721D01*
X163494786Y-58780288D01*
X163432109Y-58866554D01*
X163349154Y-59029363D01*
X163292683Y-59203161D01*
X163271193Y-59338846D01*
X163264100Y-59383629D01*
X147991591Y-59383629D01*
X148000500Y-59338842D01*
X148000500Y-59181158D01*
X148000500Y-59181155D01*
X148000499Y-59181153D01*
X147983785Y-59097125D01*
X147969739Y-59026510D01*
X147969735Y-59026498D01*
X147950224Y-58979394D01*
X147918445Y-58902671D01*
X147909397Y-58880827D01*
X147909390Y-58880814D01*
X147821789Y-58749711D01*
X147821786Y-58749707D01*
X147821781Y-58749701D01*
X147710297Y-58638217D01*
X147710291Y-58638212D01*
X147710284Y-58638207D01*
X147579191Y-58550613D01*
X147579190Y-58550612D01*
X147579185Y-58550609D01*
X147579172Y-58550602D01*
X147579165Y-58550598D01*
X147433502Y-58490264D01*
X147433471Y-58490257D01*
X147278847Y-58459500D01*
X147278845Y-58459500D01*
X147278842Y-58459500D01*
X147121158Y-58459500D01*
X147121155Y-58459500D01*
X147121153Y-58459500D01*
X146966527Y-58490257D01*
X146966496Y-58490264D01*
X146820833Y-58550598D01*
X146820824Y-58550603D01*
X146820807Y-58550613D01*
X146689715Y-58638207D01*
X146689707Y-58638212D01*
X146689701Y-58638217D01*
X146578217Y-58749701D01*
X146578212Y-58749707D01*
X146578211Y-58749708D01*
X146490613Y-58880807D01*
X146490603Y-58880824D01*
X146490598Y-58880833D01*
X146430264Y-59026496D01*
X146430257Y-59026527D01*
X146399500Y-59181150D01*
X146399500Y-59181153D01*
X146399500Y-59338846D01*
X146399500Y-59338848D01*
X146399499Y-59338848D01*
X143675500Y-59338848D01*
X143675500Y-45181987D01*
X146056610Y-45181987D01*
X146056610Y-45418011D01*
X146056613Y-45418040D01*
X146064882Y-45480854D01*
X146066603Y-45493920D01*
X146087417Y-45652014D01*
X146124140Y-45789064D01*
X146143397Y-45860935D01*
X146148505Y-45879995D01*
X146148507Y-45880002D01*
X146238825Y-46098048D01*
X146238834Y-46098065D01*
X146288725Y-46184478D01*
X146288758Y-46184535D01*
X146289023Y-46184993D01*
X146356837Y-46302450D01*
X146356839Y-46302453D01*
X146356840Y-46302454D01*
X146362676Y-46310059D01*
X146362678Y-46310063D01*
X146500509Y-46489689D01*
X146500514Y-46489695D01*
X146500516Y-46489697D01*
X146500522Y-46489704D01*
X146500530Y-46489712D01*
X146667391Y-46656574D01*
X146667403Y-46656585D01*
X146667405Y-46656587D01*
X146667411Y-46656592D01*
X146667415Y-46656595D01*
X146854658Y-46800272D01*
X146854660Y-46800273D01*
X146986028Y-46876118D01*
X147055626Y-46916301D01*
X147057365Y-46917382D01*
X147058770Y-46918162D01*
X147059048Y-46918277D01*
X147059053Y-46918280D01*
X147059058Y-46918282D01*
X147059061Y-46918284D01*
X147277117Y-47008606D01*
X147505096Y-47069693D01*
X147739099Y-47100500D01*
X147739106Y-47100500D01*
X147975114Y-47100500D01*
X147975121Y-47100500D01*
X148209124Y-47069693D01*
X148437103Y-47008606D01*
X148655159Y-46918284D01*
X148859560Y-46800273D01*
X149046809Y-46656592D01*
X149213702Y-46489699D01*
X149357383Y-46302450D01*
X149475394Y-46098049D01*
X149565716Y-45879993D01*
X149626803Y-45652014D01*
X149657610Y-45418011D01*
X149657610Y-45181989D01*
X149626803Y-44947986D01*
X149565716Y-44720007D01*
X149475394Y-44501951D01*
X149475392Y-44501948D01*
X149475390Y-44501943D01*
X149475386Y-44501937D01*
X149475273Y-44501663D01*
X149474486Y-44500245D01*
X149473404Y-44498503D01*
X149462976Y-44480442D01*
X149406266Y-44382218D01*
X149357383Y-44297550D01*
X149231402Y-44133368D01*
X149213703Y-44110302D01*
X149213697Y-44110295D01*
X149046814Y-43943412D01*
X149046807Y-43943406D01*
X149046804Y-43943403D01*
X149046799Y-43943399D01*
X148867018Y-43805449D01*
X148867014Y-43805446D01*
X148859564Y-43799730D01*
X148859563Y-43799729D01*
X148859560Y-43799727D01*
X148778067Y-43752677D01*
X148777392Y-43752287D01*
X148777373Y-43752276D01*
X148655175Y-43681724D01*
X148655158Y-43681715D01*
X148437107Y-43591395D01*
X148209116Y-43530305D01*
X147976999Y-43499747D01*
X147975318Y-43499500D01*
X147975127Y-43499500D01*
X147975121Y-43499500D01*
X147739099Y-43499500D01*
X147739093Y-43499500D01*
X147739091Y-43499500D01*
X147732971Y-43500253D01*
X147732065Y-43500425D01*
X147505102Y-43530305D01*
X147277111Y-43591395D01*
X147059060Y-43681715D01*
X147059052Y-43681719D01*
X146854655Y-43799730D01*
X146854646Y-43799736D01*
X146667419Y-43943399D01*
X146667404Y-43943413D01*
X146667396Y-43943420D01*
X146500530Y-44110286D01*
X146500524Y-44110293D01*
X146500509Y-44110309D01*
X146356846Y-44297536D01*
X146356840Y-44297545D01*
X146238829Y-44501942D01*
X146238825Y-44501950D01*
X146148505Y-44720001D01*
X146087415Y-44947992D01*
X146056613Y-45181963D01*
X146056610Y-45181987D01*
X143675500Y-45181987D01*
X143675500Y-41192329D01*
X143680523Y-41157393D01*
X143684927Y-41142395D01*
X143722672Y-41083644D01*
X143722700Y-41083619D01*
X143722699Y-41083619D01*
X143724041Y-41082456D01*
X143778920Y-41054977D01*
X143786479Y-41053333D01*
X143812832Y-41050500D01*
X255747670Y-41050500D01*
X255782606Y-41055523D01*
G37*
%TD.AperFunction*%
%TD*%
%TA.AperFunction,Conductor*%
%TO.N,+9V*%
G36*
X188866521Y-49449685D02*
G01*
X188912276Y-49502489D01*
X188922220Y-49571647D01*
X188918141Y-49590002D01*
X188916417Y-49595681D01*
X188889500Y-49731004D01*
X188889500Y-49731007D01*
X188889500Y-49868993D01*
X188889500Y-49868995D01*
X188889499Y-49868995D01*
X188916418Y-50004322D01*
X188916421Y-50004332D01*
X188969221Y-50131804D01*
X188969228Y-50131817D01*
X189045885Y-50246541D01*
X189045888Y-50246545D01*
X189143454Y-50344111D01*
X189143458Y-50344114D01*
X189258182Y-50420771D01*
X189258195Y-50420778D01*
X189385667Y-50473578D01*
X189385672Y-50473580D01*
X189385676Y-50473580D01*
X189385677Y-50473581D01*
X189521004Y-50500500D01*
X189521007Y-50500500D01*
X189658995Y-50500500D01*
X189750041Y-50482389D01*
X189794328Y-50473580D01*
X189921811Y-50420775D01*
X190036542Y-50344114D01*
X190134114Y-50246542D01*
X190210775Y-50131811D01*
X190223367Y-50101410D01*
X190267205Y-50047008D01*
X190333499Y-50024941D01*
X190401199Y-50042219D01*
X190448810Y-50093355D01*
X190452488Y-50101408D01*
X190469220Y-50141802D01*
X190469228Y-50141817D01*
X190545885Y-50256541D01*
X190545888Y-50256545D01*
X190643454Y-50354111D01*
X190643458Y-50354114D01*
X190758182Y-50430771D01*
X190758195Y-50430778D01*
X190861532Y-50473581D01*
X190885672Y-50483580D01*
X190885676Y-50483580D01*
X190885677Y-50483581D01*
X191021004Y-50510500D01*
X191021007Y-50510500D01*
X191158994Y-50510500D01*
X191209266Y-50500500D01*
X191279325Y-50486564D01*
X191348915Y-50492791D01*
X191404093Y-50535653D01*
X191427338Y-50601543D01*
X191427516Y-50608449D01*
X191409999Y-58709999D01*
X191410000Y-58709999D01*
X191410000Y-58710000D01*
X198598881Y-65803538D01*
X198913175Y-66113663D01*
X198947069Y-66174762D01*
X198950081Y-66201733D01*
X198959999Y-72519998D01*
X198717966Y-72204768D01*
X193701030Y-72195229D01*
X193708950Y-69775754D01*
X193715356Y-67818995D01*
X194899499Y-67818995D01*
X194926418Y-67954322D01*
X194926421Y-67954332D01*
X194979221Y-68081804D01*
X194979228Y-68081817D01*
X195055885Y-68196541D01*
X195055888Y-68196545D01*
X195153454Y-68294111D01*
X195153458Y-68294114D01*
X195268182Y-68370771D01*
X195268195Y-68370778D01*
X195371235Y-68413458D01*
X195395672Y-68423580D01*
X195395676Y-68423580D01*
X195395677Y-68423581D01*
X195531004Y-68450500D01*
X195531007Y-68450500D01*
X195668995Y-68450500D01*
X195760041Y-68432389D01*
X195804328Y-68423580D01*
X195931811Y-68370775D01*
X196046542Y-68294114D01*
X196144114Y-68196542D01*
X196220775Y-68081811D01*
X196273580Y-67954328D01*
X196300500Y-67818993D01*
X196300500Y-67681007D01*
X196300500Y-67681004D01*
X196273581Y-67545677D01*
X196273580Y-67545676D01*
X196273580Y-67545672D01*
X196273578Y-67545667D01*
X196220778Y-67418195D01*
X196220771Y-67418182D01*
X196144114Y-67303458D01*
X196144111Y-67303454D01*
X196046545Y-67205888D01*
X196046541Y-67205885D01*
X195931817Y-67129228D01*
X195931804Y-67129221D01*
X195804332Y-67076421D01*
X195804322Y-67076418D01*
X195668995Y-67049500D01*
X195668993Y-67049500D01*
X195531007Y-67049500D01*
X195531005Y-67049500D01*
X195395677Y-67076418D01*
X195395667Y-67076421D01*
X195268195Y-67129221D01*
X195268182Y-67129228D01*
X195153458Y-67205885D01*
X195153454Y-67205888D01*
X195055888Y-67303454D01*
X195055885Y-67303458D01*
X194979228Y-67418182D01*
X194979221Y-67418195D01*
X194926421Y-67545667D01*
X194926418Y-67545677D01*
X194899500Y-67681004D01*
X194899500Y-67681007D01*
X194899500Y-67818993D01*
X194899500Y-67818995D01*
X194899499Y-67818995D01*
X193715356Y-67818995D01*
X193715829Y-67674509D01*
X193720000Y-66400000D01*
X193167179Y-65858995D01*
X194879499Y-65858995D01*
X194906418Y-65994322D01*
X194906421Y-65994332D01*
X194959221Y-66121804D01*
X194959228Y-66121817D01*
X195035885Y-66236541D01*
X195035888Y-66236545D01*
X195133454Y-66334111D01*
X195133458Y-66334114D01*
X195248182Y-66410771D01*
X195248195Y-66410778D01*
X195375667Y-66463578D01*
X195375672Y-66463580D01*
X195375676Y-66463580D01*
X195375677Y-66463581D01*
X195511004Y-66490500D01*
X195511007Y-66490500D01*
X195648995Y-66490500D01*
X195740041Y-66472389D01*
X195784328Y-66463580D01*
X195911811Y-66410775D01*
X196026542Y-66334114D01*
X196124114Y-66236542D01*
X196200775Y-66121811D01*
X196253580Y-65994328D01*
X196280500Y-65858993D01*
X196280500Y-65721007D01*
X196280500Y-65721004D01*
X196253581Y-65585677D01*
X196253580Y-65585676D01*
X196253580Y-65585672D01*
X196253578Y-65585667D01*
X196200778Y-65458195D01*
X196200771Y-65458182D01*
X196124114Y-65343458D01*
X196124111Y-65343454D01*
X196026545Y-65245888D01*
X196026541Y-65245885D01*
X195911817Y-65169228D01*
X195911804Y-65169221D01*
X195784332Y-65116421D01*
X195784322Y-65116418D01*
X195648995Y-65089500D01*
X195648993Y-65089500D01*
X195511007Y-65089500D01*
X195511005Y-65089500D01*
X195375677Y-65116418D01*
X195375667Y-65116421D01*
X195248195Y-65169221D01*
X195248182Y-65169228D01*
X195133458Y-65245885D01*
X195133454Y-65245888D01*
X195035888Y-65343454D01*
X195035885Y-65343458D01*
X194959228Y-65458182D01*
X194959221Y-65458195D01*
X194906421Y-65585667D01*
X194906418Y-65585677D01*
X194879500Y-65721004D01*
X194879500Y-65721007D01*
X194879500Y-65858993D01*
X194879500Y-65858995D01*
X194879499Y-65858995D01*
X193167179Y-65858995D01*
X193110511Y-65803538D01*
X190561485Y-63308995D01*
X191649499Y-63308995D01*
X191676418Y-63444322D01*
X191676421Y-63444332D01*
X191729221Y-63571804D01*
X191729228Y-63571817D01*
X191805885Y-63686541D01*
X191805888Y-63686545D01*
X191903454Y-63784111D01*
X191903458Y-63784114D01*
X192018182Y-63860771D01*
X192018195Y-63860778D01*
X192145667Y-63913578D01*
X192145672Y-63913580D01*
X192145676Y-63913580D01*
X192145677Y-63913581D01*
X192281004Y-63940500D01*
X192281007Y-63940500D01*
X192418995Y-63940500D01*
X192510041Y-63922389D01*
X192554328Y-63913580D01*
X192681811Y-63860775D01*
X192796542Y-63784114D01*
X192894114Y-63686542D01*
X192970775Y-63571811D01*
X193023580Y-63444328D01*
X193050500Y-63308993D01*
X193050500Y-63171007D01*
X193050500Y-63171004D01*
X193023581Y-63035677D01*
X193023580Y-63035676D01*
X193023580Y-63035672D01*
X193023578Y-63035667D01*
X192970778Y-62908195D01*
X192970771Y-62908182D01*
X192894114Y-62793458D01*
X192894111Y-62793454D01*
X192796545Y-62695888D01*
X192796541Y-62695885D01*
X192681817Y-62619228D01*
X192681804Y-62619221D01*
X192554332Y-62566421D01*
X192554322Y-62566418D01*
X192418995Y-62539500D01*
X192418993Y-62539500D01*
X192281007Y-62539500D01*
X192281005Y-62539500D01*
X192145677Y-62566418D01*
X192145667Y-62566421D01*
X192018195Y-62619221D01*
X192018182Y-62619228D01*
X191903458Y-62695885D01*
X191903454Y-62695888D01*
X191805888Y-62793454D01*
X191805885Y-62793458D01*
X191729228Y-62908182D01*
X191729221Y-62908195D01*
X191676421Y-63035667D01*
X191676418Y-63035677D01*
X191649500Y-63171004D01*
X191649500Y-63171007D01*
X191649500Y-63308993D01*
X191649500Y-63308995D01*
X191649499Y-63308995D01*
X190561485Y-63308995D01*
X190504817Y-63253538D01*
X187207418Y-60026618D01*
X187173273Y-59965660D01*
X187170148Y-59937649D01*
X187196859Y-50535653D01*
X187199649Y-49553648D01*
X187219523Y-49486664D01*
X187272457Y-49441060D01*
X187323648Y-49430000D01*
X188799482Y-49430000D01*
X188866521Y-49449685D01*
G37*
%TD.AperFunction*%
%TD*%
%TA.AperFunction,Conductor*%
%TO.N,+9V_SW*%
G36*
X169233969Y-82135732D02*
G01*
X169248999Y-82140036D01*
X169264084Y-82149588D01*
X169281253Y-82154514D01*
X169307978Y-82177382D01*
X169308026Y-82177413D01*
X169309404Y-82178981D01*
X169309409Y-82178987D01*
X169337095Y-82233181D01*
X169338732Y-82240354D01*
X169341829Y-82266280D01*
X169358073Y-83476510D01*
X169353521Y-83511504D01*
X169349320Y-83526558D01*
X169339884Y-83541683D01*
X169335094Y-83558854D01*
X169312343Y-83585837D01*
X169311321Y-83586747D01*
X169256035Y-83615124D01*
X169247745Y-83616986D01*
X169220571Y-83620000D01*
X167840000Y-83620000D01*
X157460000Y-89569997D01*
X157457674Y-89587458D01*
X157461247Y-89606691D01*
X157470239Y-89641635D01*
X157479446Y-92007690D01*
X157475037Y-92039235D01*
X157474561Y-92042638D01*
X157470215Y-92057653D01*
X157432675Y-92116578D01*
X157432653Y-92116597D01*
X157431385Y-92117704D01*
X157376432Y-92145407D01*
X157368659Y-92147114D01*
X157342062Y-92150000D01*
X155049930Y-92150000D01*
X155049925Y-92149999D01*
X155049923Y-92150000D01*
X155014989Y-92144975D01*
X154999990Y-92140570D01*
X154941248Y-92102833D01*
X154940814Y-92102333D01*
X154939725Y-92101076D01*
X154912450Y-92047130D01*
X154910940Y-92040438D01*
X154907916Y-92015072D01*
X154870155Y-89570000D01*
X154849458Y-88229930D01*
X154853843Y-88195281D01*
X154853858Y-88195223D01*
X154858347Y-88179016D01*
X154860354Y-88171491D01*
X154860434Y-88171202D01*
X154878568Y-88141806D01*
X154896514Y-88112286D01*
X154955342Y-88058693D01*
X154965936Y-88050064D01*
X154976983Y-88042037D01*
X154988480Y-88034619D01*
X165277786Y-82174042D01*
X165307159Y-82161993D01*
X165337111Y-82153998D01*
X165368581Y-82149807D01*
X167850000Y-82140000D01*
X169199008Y-82130945D01*
X169233969Y-82135732D01*
G37*
%TD.AperFunction*%
%TD*%
%TA.AperFunction,Conductor*%
%TO.N,-5V_SW*%
G36*
X156406529Y-79609474D02*
G01*
X156473483Y-79629444D01*
X156519013Y-79682442D01*
X156530000Y-79733473D01*
X156530000Y-82389323D01*
X156515698Y-82447137D01*
X155394993Y-84573601D01*
X155346322Y-84623730D01*
X155284942Y-84639786D01*
X151849999Y-84629999D01*
X151859908Y-87870179D01*
X151860000Y-87900000D01*
X151860000Y-87900001D01*
X151860001Y-87900002D01*
X153393694Y-90601280D01*
X153409861Y-90663024D01*
X153400000Y-93009999D01*
X153400000Y-93010000D01*
X154668494Y-93000533D01*
X154735676Y-93019717D01*
X154736106Y-93020058D01*
X154740000Y-93019999D01*
X154740000Y-93020000D01*
X156616561Y-92991851D01*
X156683886Y-93010528D01*
X156730428Y-93062640D01*
X156742396Y-93113430D01*
X156797592Y-95956038D01*
X156779212Y-96023447D01*
X156727307Y-96070218D01*
X156676036Y-96082421D01*
X151806697Y-96177525D01*
X151739286Y-96159154D01*
X151692509Y-96107253D01*
X151680276Y-96053279D01*
X151680488Y-95956038D01*
X151690000Y-91590000D01*
X151266053Y-90601280D01*
X148810035Y-84873403D01*
X148800000Y-84824537D01*
X148800000Y-82984693D01*
X148819685Y-82917654D01*
X148872489Y-82871899D01*
X148924689Y-82860695D01*
X154085023Y-82889470D01*
X154179999Y-82890000D01*
X154180000Y-82890000D01*
X154180000Y-79724528D01*
X154199685Y-79657489D01*
X154252489Y-79611734D01*
X154304523Y-79600529D01*
X156406529Y-79609474D01*
G37*
%TD.AperFunction*%
%TD*%
%TA.AperFunction,Conductor*%
%TO.N,-5V_IN*%
G36*
X218207543Y-43099685D02*
G01*
X218253298Y-43152489D01*
X218264502Y-43204536D01*
X218214976Y-54595483D01*
X218513170Y-54596736D01*
X218580126Y-54616702D01*
X218625659Y-54669698D01*
X218636649Y-54720939D01*
X218623360Y-62813093D01*
X218603565Y-62880100D01*
X218550686Y-62925768D01*
X218499157Y-62936889D01*
X213124297Y-62928091D01*
X213057290Y-62908297D01*
X213011621Y-62855418D01*
X213000500Y-62804091D01*
X213000500Y-62771004D01*
X212973581Y-62635677D01*
X212973580Y-62635676D01*
X212973580Y-62635672D01*
X212973578Y-62635667D01*
X212920778Y-62508195D01*
X212920771Y-62508182D01*
X212844114Y-62393458D01*
X212844111Y-62393454D01*
X212818337Y-62367680D01*
X212784852Y-62306357D01*
X212789836Y-62236665D01*
X212818337Y-62192318D01*
X212854114Y-62156542D01*
X212930775Y-62041811D01*
X212983580Y-61914328D01*
X213010500Y-61778993D01*
X213010500Y-61641007D01*
X213010500Y-61641004D01*
X212983581Y-61505677D01*
X212983580Y-61505676D01*
X212983580Y-61505672D01*
X212952653Y-61431007D01*
X212930778Y-61378195D01*
X212930771Y-61378182D01*
X212854114Y-61263458D01*
X212854111Y-61263454D01*
X212756545Y-61165888D01*
X212756541Y-61165885D01*
X212641817Y-61089228D01*
X212641804Y-61089221D01*
X212514332Y-61036421D01*
X212514322Y-61036418D01*
X212378995Y-61009500D01*
X212378993Y-61009500D01*
X212241007Y-61009500D01*
X212241005Y-61009500D01*
X212105677Y-61036418D01*
X212105667Y-61036421D01*
X211978195Y-61089221D01*
X211978182Y-61089228D01*
X211863458Y-61165885D01*
X211863454Y-61165888D01*
X211765888Y-61263454D01*
X211765885Y-61263458D01*
X211689228Y-61378182D01*
X211689221Y-61378195D01*
X211636421Y-61505667D01*
X211636418Y-61505677D01*
X211609500Y-61641004D01*
X211609500Y-61641007D01*
X211609500Y-61778993D01*
X211609500Y-61778995D01*
X211609499Y-61778995D01*
X211636418Y-61914322D01*
X211636421Y-61914332D01*
X211689221Y-62041804D01*
X211689228Y-62041817D01*
X211765885Y-62156541D01*
X211765888Y-62156545D01*
X211791662Y-62182319D01*
X211825147Y-62243642D01*
X211820163Y-62313334D01*
X211791662Y-62357681D01*
X211755888Y-62393454D01*
X211755885Y-62393458D01*
X211679228Y-62508182D01*
X211679221Y-62508195D01*
X211626421Y-62635667D01*
X211626418Y-62635677D01*
X211599500Y-62771004D01*
X211599500Y-62801393D01*
X211579815Y-62868432D01*
X211527011Y-62914187D01*
X211475297Y-62925393D01*
X208804297Y-62921021D01*
X208737290Y-62901227D01*
X208691621Y-62848348D01*
X208680500Y-62797021D01*
X208680500Y-62771004D01*
X208653581Y-62635677D01*
X208653580Y-62635676D01*
X208653580Y-62635672D01*
X208653578Y-62635667D01*
X208600778Y-62508195D01*
X208600771Y-62508182D01*
X208524114Y-62393458D01*
X208524111Y-62393454D01*
X208498337Y-62367680D01*
X208464852Y-62306357D01*
X208469836Y-62236665D01*
X208498337Y-62192318D01*
X208534114Y-62156542D01*
X208610775Y-62041811D01*
X208663580Y-61914328D01*
X208690500Y-61778993D01*
X208690500Y-61641007D01*
X208690500Y-61641004D01*
X208663581Y-61505677D01*
X208663580Y-61505676D01*
X208663580Y-61505672D01*
X208632653Y-61431007D01*
X208610778Y-61378195D01*
X208610771Y-61378182D01*
X208534114Y-61263458D01*
X208534111Y-61263454D01*
X208436545Y-61165888D01*
X208436541Y-61165885D01*
X208321817Y-61089228D01*
X208321804Y-61089221D01*
X208194332Y-61036421D01*
X208194322Y-61036418D01*
X208058995Y-61009500D01*
X208058993Y-61009500D01*
X207921007Y-61009500D01*
X207921005Y-61009500D01*
X207785677Y-61036418D01*
X207785667Y-61036421D01*
X207658195Y-61089221D01*
X207658182Y-61089228D01*
X207543458Y-61165885D01*
X207543454Y-61165888D01*
X207445888Y-61263454D01*
X207445885Y-61263458D01*
X207369228Y-61378182D01*
X207369221Y-61378195D01*
X207316421Y-61505667D01*
X207316418Y-61505677D01*
X207289500Y-61641004D01*
X207289500Y-61641007D01*
X207289500Y-61778993D01*
X207289500Y-61778995D01*
X207289499Y-61778995D01*
X207316418Y-61914322D01*
X207316421Y-61914332D01*
X207369221Y-62041804D01*
X207369228Y-62041817D01*
X207445885Y-62156541D01*
X207445888Y-62156545D01*
X207471662Y-62182319D01*
X207475880Y-62190044D01*
X207482949Y-62195292D01*
X207492368Y-62220240D01*
X207505147Y-62243642D01*
X207504519Y-62252421D01*
X207507629Y-62260658D01*
X207502064Y-62286738D01*
X207500163Y-62313334D01*
X207494504Y-62322177D01*
X207493051Y-62328990D01*
X207472549Y-62356490D01*
X207472013Y-62357329D01*
X207471764Y-62357579D01*
X207435886Y-62393458D01*
X207435294Y-62394342D01*
X207430390Y-62399287D01*
X207404686Y-62413456D01*
X207380426Y-62429970D01*
X207374444Y-62430128D01*
X207369202Y-62433018D01*
X207339914Y-62431041D01*
X207310581Y-62431817D01*
X207305463Y-62428716D01*
X207299490Y-62428313D01*
X207275920Y-62410815D01*
X207250825Y-62395610D01*
X207244065Y-62387167D01*
X207243390Y-62386666D01*
X207243145Y-62386018D01*
X207240708Y-62382974D01*
X201222723Y-53768995D01*
X207089499Y-53768995D01*
X207116418Y-53904322D01*
X207116421Y-53904332D01*
X207169221Y-54031804D01*
X207169228Y-54031816D01*
X207225528Y-54116074D01*
X207246406Y-54182751D01*
X207227922Y-54250131D01*
X207225529Y-54253855D01*
X207189227Y-54308184D01*
X207189221Y-54308195D01*
X207136421Y-54435667D01*
X207136418Y-54435677D01*
X207109500Y-54571004D01*
X207109500Y-54571007D01*
X207109500Y-54708993D01*
X207109500Y-54708995D01*
X207109499Y-54708995D01*
X207136418Y-54844322D01*
X207136421Y-54844332D01*
X207189221Y-54971804D01*
X207189228Y-54971817D01*
X207248914Y-55061143D01*
X207269792Y-55127821D01*
X207251307Y-55195201D01*
X207248914Y-55198925D01*
X207169228Y-55318182D01*
X207169221Y-55318195D01*
X207116421Y-55445667D01*
X207116418Y-55445677D01*
X207089500Y-55581004D01*
X207089500Y-55581007D01*
X207089500Y-55718993D01*
X207089500Y-55718995D01*
X207089499Y-55718995D01*
X207116418Y-55854322D01*
X207116421Y-55854332D01*
X207169221Y-55981804D01*
X207169228Y-55981817D01*
X207212164Y-56046075D01*
X207233042Y-56112753D01*
X207214557Y-56180133D01*
X207212165Y-56183855D01*
X207189224Y-56218188D01*
X207189223Y-56218190D01*
X207136421Y-56345667D01*
X207136418Y-56345677D01*
X207109500Y-56481004D01*
X207109500Y-56481007D01*
X207109500Y-56618993D01*
X207109500Y-56618995D01*
X207109499Y-56618995D01*
X207136418Y-56754322D01*
X207136421Y-56754332D01*
X207189221Y-56881804D01*
X207189228Y-56881817D01*
X207265885Y-56996541D01*
X207265888Y-56996545D01*
X207363454Y-57094111D01*
X207363458Y-57094114D01*
X207478182Y-57170771D01*
X207478195Y-57170778D01*
X207592640Y-57218182D01*
X207605672Y-57223580D01*
X207605676Y-57223580D01*
X207605677Y-57223581D01*
X207741004Y-57250500D01*
X207741007Y-57250500D01*
X207878995Y-57250500D01*
X207970041Y-57232389D01*
X208014328Y-57223580D01*
X208141811Y-57170775D01*
X208256542Y-57094114D01*
X208354114Y-56996542D01*
X208430775Y-56881811D01*
X208483580Y-56754328D01*
X208498017Y-56681750D01*
X208510500Y-56618995D01*
X208510500Y-56481004D01*
X208483581Y-56345677D01*
X208483580Y-56345676D01*
X208483580Y-56345672D01*
X208483578Y-56345667D01*
X208430778Y-56218195D01*
X208430771Y-56218182D01*
X208387835Y-56153924D01*
X208366957Y-56087246D01*
X208385441Y-56019866D01*
X208387835Y-56016142D01*
X208410775Y-55981811D01*
X208463580Y-55854328D01*
X208490500Y-55718993D01*
X208490500Y-55581007D01*
X208490500Y-55581004D01*
X208463581Y-55445677D01*
X208463580Y-55445676D01*
X208463580Y-55445672D01*
X208458519Y-55433454D01*
X208410778Y-55318195D01*
X208410771Y-55318182D01*
X208351085Y-55228856D01*
X208330207Y-55162179D01*
X208348691Y-55094798D01*
X208351085Y-55091073D01*
X208354109Y-55086546D01*
X208354114Y-55086542D01*
X208430775Y-54971811D01*
X208483580Y-54844328D01*
X208510500Y-54708993D01*
X208510500Y-54571007D01*
X208510500Y-54571004D01*
X208483581Y-54435677D01*
X208483580Y-54435676D01*
X208483580Y-54435672D01*
X208483578Y-54435667D01*
X208430778Y-54308195D01*
X208430774Y-54308188D01*
X208374470Y-54223922D01*
X208353593Y-54157248D01*
X208372077Y-54089868D01*
X208374472Y-54086142D01*
X208410770Y-54031818D01*
X208410775Y-54031811D01*
X208463580Y-53904328D01*
X208472389Y-53860041D01*
X208490500Y-53768995D01*
X208490500Y-53631004D01*
X208463581Y-53495677D01*
X208463580Y-53495676D01*
X208463580Y-53495672D01*
X208463578Y-53495667D01*
X208410778Y-53368195D01*
X208410771Y-53368182D01*
X208334114Y-53253458D01*
X208334111Y-53253454D01*
X208236545Y-53155888D01*
X208236541Y-53155885D01*
X208121817Y-53079228D01*
X208121804Y-53079221D01*
X207994332Y-53026421D01*
X207994322Y-53026418D01*
X207858995Y-52999500D01*
X207858993Y-52999500D01*
X207721007Y-52999500D01*
X207721005Y-52999500D01*
X207585677Y-53026418D01*
X207585667Y-53026421D01*
X207458195Y-53079221D01*
X207458182Y-53079228D01*
X207343458Y-53155885D01*
X207343454Y-53155888D01*
X207245888Y-53253454D01*
X207245885Y-53253458D01*
X207169228Y-53368182D01*
X207169221Y-53368195D01*
X207116421Y-53495667D01*
X207116418Y-53495677D01*
X207089500Y-53631004D01*
X207089500Y-53631007D01*
X207089500Y-53768993D01*
X207089500Y-53768995D01*
X207089499Y-53768995D01*
X201222723Y-53768995D01*
X201171678Y-53695931D01*
X198987808Y-50570000D01*
X198862055Y-50390000D01*
X203489999Y-50390000D01*
X203759068Y-50391571D01*
X210216724Y-50429280D01*
X210283647Y-50449356D01*
X210329093Y-50502426D01*
X210340000Y-50553278D01*
X210340000Y-51740000D01*
X212038675Y-51740000D01*
X212105714Y-51759685D01*
X212126827Y-51776792D01*
X212130000Y-51779999D01*
X212130000Y-51780000D01*
X212130001Y-51780000D01*
X214150000Y-51780000D01*
X214150000Y-50570000D01*
X214149999Y-50569999D01*
X212293374Y-50560623D01*
X212285003Y-50558119D01*
X212276353Y-50559363D01*
X212252040Y-50548259D01*
X212226435Y-50540601D01*
X212220746Y-50533968D01*
X212212797Y-50530338D01*
X212198346Y-50507851D01*
X212180947Y-50487566D01*
X212178755Y-50477367D01*
X212175023Y-50471560D01*
X212170000Y-50436625D01*
X212170000Y-50410403D01*
X212170003Y-50409559D01*
X212174601Y-49733580D01*
X212178714Y-49128995D01*
X212669499Y-49128995D01*
X212696418Y-49264322D01*
X212696421Y-49264332D01*
X212749221Y-49391804D01*
X212749228Y-49391817D01*
X212825885Y-49506541D01*
X212825888Y-49506545D01*
X212923454Y-49604111D01*
X212923458Y-49604114D01*
X213038182Y-49680771D01*
X213038195Y-49680778D01*
X213159460Y-49731007D01*
X213165672Y-49733580D01*
X213165676Y-49733580D01*
X213165677Y-49733581D01*
X213301004Y-49760500D01*
X213301007Y-49760500D01*
X213438995Y-49760500D01*
X213536990Y-49741007D01*
X213574328Y-49733580D01*
X213701811Y-49680775D01*
X213816542Y-49604114D01*
X213914114Y-49506542D01*
X213990775Y-49391811D01*
X214043580Y-49264328D01*
X214070500Y-49128993D01*
X214070500Y-48991007D01*
X214070500Y-48991004D01*
X214043581Y-48855677D01*
X214043580Y-48855676D01*
X214043580Y-48855672D01*
X214043578Y-48855667D01*
X213990778Y-48728195D01*
X213990771Y-48728182D01*
X213914114Y-48613458D01*
X213914111Y-48613454D01*
X213816545Y-48515888D01*
X213816541Y-48515885D01*
X213701817Y-48439228D01*
X213701804Y-48439221D01*
X213574332Y-48386421D01*
X213574322Y-48386418D01*
X213438995Y-48359500D01*
X213438993Y-48359500D01*
X213301007Y-48359500D01*
X213301005Y-48359500D01*
X213165677Y-48386418D01*
X213165667Y-48386421D01*
X213038195Y-48439221D01*
X213038182Y-48439228D01*
X212923458Y-48515885D01*
X212923454Y-48515888D01*
X212825888Y-48613454D01*
X212825885Y-48613458D01*
X212749228Y-48728182D01*
X212749221Y-48728195D01*
X212696421Y-48855667D01*
X212696418Y-48855677D01*
X212669500Y-48991004D01*
X212669500Y-48991007D01*
X212669500Y-49128993D01*
X212669500Y-49128995D01*
X212669499Y-49128995D01*
X212178714Y-49128995D01*
X212180000Y-48940000D01*
X212180000Y-48935000D01*
X209974000Y-48935000D01*
X209906961Y-48915315D01*
X209861206Y-48862511D01*
X209850000Y-48811000D01*
X209850000Y-48580016D01*
X209849999Y-48580015D01*
X203494140Y-48559996D01*
X203489999Y-50390000D01*
X198862055Y-50390000D01*
X198402350Y-49731991D01*
X198380092Y-49665761D01*
X198380000Y-49660975D01*
X198380000Y-46200000D01*
X183840000Y-46200000D01*
X180084427Y-55459518D01*
X180040989Y-55514243D01*
X179974860Y-55536797D01*
X179907035Y-55520018D01*
X179866417Y-55481803D01*
X179834114Y-55433458D01*
X179834112Y-55433455D01*
X179736545Y-55335888D01*
X179736541Y-55335885D01*
X179621817Y-55259228D01*
X179621804Y-55259221D01*
X179494332Y-55206421D01*
X179494322Y-55206418D01*
X179358995Y-55179500D01*
X179358993Y-55179500D01*
X179221007Y-55179500D01*
X179221005Y-55179500D01*
X179085677Y-55206418D01*
X179085667Y-55206421D01*
X178958195Y-55259221D01*
X178958182Y-55259228D01*
X178843458Y-55335885D01*
X178843454Y-55335888D01*
X178745888Y-55433454D01*
X178745885Y-55433458D01*
X178669228Y-55548182D01*
X178669221Y-55548195D01*
X178616421Y-55675667D01*
X178616418Y-55675677D01*
X178589500Y-55811004D01*
X178589500Y-55811007D01*
X178589500Y-55948993D01*
X178589500Y-55948995D01*
X178589499Y-55948995D01*
X178616418Y-56084322D01*
X178616421Y-56084332D01*
X178669221Y-56211804D01*
X178669228Y-56211817D01*
X178745885Y-56326541D01*
X178745888Y-56326545D01*
X178843454Y-56424111D01*
X178843458Y-56424114D01*
X178958182Y-56500771D01*
X178958195Y-56500778D01*
X179054094Y-56540500D01*
X179085672Y-56553580D01*
X179085676Y-56553580D01*
X179085677Y-56553581D01*
X179221004Y-56580500D01*
X179221007Y-56580500D01*
X179358994Y-56580500D01*
X179377072Y-56576903D01*
X179428006Y-56566772D01*
X179437671Y-56567636D01*
X179446858Y-56564504D01*
X179471903Y-56570700D01*
X179497597Y-56572999D01*
X179505260Y-56578952D01*
X179514683Y-56581283D01*
X179532402Y-56600035D01*
X179552775Y-56615861D01*
X179556003Y-56625013D01*
X179562669Y-56632067D01*
X179567436Y-56657420D01*
X179576020Y-56681750D01*
X179574132Y-56693025D01*
X179575582Y-56700734D01*
X179567106Y-56734995D01*
X179519958Y-56851240D01*
X179476520Y-56905965D01*
X179410390Y-56928519D01*
X179357598Y-56919195D01*
X179254332Y-56876421D01*
X179254322Y-56876418D01*
X179118995Y-56849500D01*
X179118993Y-56849500D01*
X178981007Y-56849500D01*
X178981005Y-56849500D01*
X178845677Y-56876418D01*
X178845667Y-56876421D01*
X178718195Y-56929221D01*
X178718182Y-56929228D01*
X178603458Y-57005885D01*
X178603454Y-57005888D01*
X178505888Y-57103454D01*
X178505885Y-57103458D01*
X178429228Y-57218182D01*
X178429221Y-57218195D01*
X178376421Y-57345667D01*
X178376418Y-57345677D01*
X178349500Y-57481004D01*
X178349500Y-57481007D01*
X178349500Y-57618993D01*
X178349500Y-57618995D01*
X178349499Y-57618995D01*
X178376418Y-57754322D01*
X178376421Y-57754332D01*
X178429221Y-57881804D01*
X178429228Y-57881817D01*
X178505885Y-57996541D01*
X178505888Y-57996545D01*
X178603454Y-58094111D01*
X178603458Y-58094114D01*
X178718182Y-58170771D01*
X178718191Y-58170776D01*
X178832705Y-58218209D01*
X178887108Y-58262050D01*
X178909173Y-58328344D01*
X178900160Y-58379376D01*
X176730911Y-63727751D01*
X176729011Y-63732187D01*
X171203083Y-75966752D01*
X171157548Y-76019746D01*
X171090591Y-76039709D01*
X171089627Y-76039709D01*
X165630000Y-76019999D01*
X165611092Y-78147102D01*
X165590812Y-78213964D01*
X165537604Y-78259248D01*
X165487097Y-78270000D01*
X164411363Y-78270000D01*
X164361389Y-78255325D01*
X164349999Y-78259999D01*
X164340807Y-79657245D01*
X164320682Y-79724153D01*
X164267578Y-79769560D01*
X164217243Y-79780428D01*
X158734433Y-79799565D01*
X158667325Y-79780115D01*
X158621386Y-79727471D01*
X158610000Y-79675566D01*
X158610000Y-76264784D01*
X158629685Y-76197745D01*
X158682489Y-76151990D01*
X158734779Y-76140786D01*
X162178275Y-76162489D01*
X162245189Y-76182596D01*
X162290610Y-76235687D01*
X162300117Y-76304907D01*
X162270692Y-76368279D01*
X162265175Y-76374168D01*
X162165885Y-76473458D01*
X162089228Y-76588182D01*
X162089221Y-76588195D01*
X162036421Y-76715667D01*
X162036418Y-76715677D01*
X162009500Y-76851004D01*
X162009500Y-76851007D01*
X162009500Y-76988993D01*
X162009500Y-76988995D01*
X162009499Y-76988995D01*
X162036418Y-77124322D01*
X162036421Y-77124332D01*
X162089221Y-77251804D01*
X162089228Y-77251817D01*
X162165885Y-77366541D01*
X162165888Y-77366545D01*
X162263454Y-77464111D01*
X162263458Y-77464114D01*
X162378182Y-77540771D01*
X162378195Y-77540778D01*
X162505667Y-77593578D01*
X162505672Y-77593580D01*
X162505676Y-77593580D01*
X162505677Y-77593581D01*
X162641004Y-77620500D01*
X162641007Y-77620500D01*
X162778995Y-77620500D01*
X162870041Y-77602389D01*
X162914328Y-77593580D01*
X163041811Y-77540775D01*
X163156542Y-77464114D01*
X163254114Y-77366542D01*
X163330775Y-77251811D01*
X163383580Y-77124328D01*
X163410500Y-76988993D01*
X163410500Y-76851007D01*
X163410500Y-76851004D01*
X163383581Y-76715677D01*
X163383580Y-76715676D01*
X163383580Y-76715672D01*
X163378571Y-76703580D01*
X163330778Y-76588195D01*
X163330771Y-76588182D01*
X163254114Y-76473458D01*
X163254111Y-76473454D01*
X163161579Y-76380922D01*
X163128094Y-76319599D01*
X163133078Y-76249907D01*
X163174950Y-76193974D01*
X163240414Y-76169557D01*
X163250017Y-76169243D01*
X163370000Y-76170000D01*
X163370000Y-76169999D01*
X163373632Y-76162489D01*
X167532815Y-67560778D01*
X167814125Y-66978995D01*
X168719499Y-66978995D01*
X168746418Y-67114322D01*
X168746421Y-67114332D01*
X168799221Y-67241804D01*
X168799228Y-67241817D01*
X168875885Y-67356541D01*
X168875888Y-67356545D01*
X168973454Y-67454111D01*
X168973458Y-67454114D01*
X169088182Y-67530771D01*
X169088195Y-67530778D01*
X169215667Y-67583578D01*
X169215672Y-67583580D01*
X169215676Y-67583580D01*
X169215677Y-67583581D01*
X169351004Y-67610500D01*
X169351007Y-67610500D01*
X169488995Y-67610500D01*
X169580041Y-67592389D01*
X169624328Y-67583580D01*
X169751811Y-67530775D01*
X169866542Y-67454114D01*
X169902318Y-67418337D01*
X169963638Y-67384852D01*
X170033330Y-67389835D01*
X170077680Y-67418337D01*
X170143454Y-67484111D01*
X170143458Y-67484114D01*
X170258182Y-67560771D01*
X170258195Y-67560778D01*
X170378236Y-67610500D01*
X170385672Y-67613580D01*
X170385676Y-67613580D01*
X170385677Y-67613581D01*
X170521004Y-67640500D01*
X170521007Y-67640500D01*
X170658995Y-67640500D01*
X170750041Y-67622389D01*
X170794328Y-67613580D01*
X170921811Y-67560775D01*
X171036542Y-67484114D01*
X171134114Y-67386542D01*
X171210775Y-67271811D01*
X171263580Y-67144328D01*
X171272389Y-67100041D01*
X171290500Y-67008995D01*
X171290500Y-66871004D01*
X171263581Y-66735677D01*
X171263580Y-66735676D01*
X171263580Y-66735672D01*
X171240937Y-66681007D01*
X171210778Y-66608195D01*
X171210771Y-66608182D01*
X171134114Y-66493458D01*
X171134111Y-66493454D01*
X171036545Y-66395888D01*
X171036541Y-66395885D01*
X170921817Y-66319228D01*
X170921804Y-66319221D01*
X170794332Y-66266421D01*
X170794322Y-66266418D01*
X170658995Y-66239500D01*
X170658993Y-66239500D01*
X170521007Y-66239500D01*
X170521005Y-66239500D01*
X170385677Y-66266418D01*
X170385667Y-66266421D01*
X170258195Y-66319221D01*
X170258182Y-66319228D01*
X170143458Y-66395885D01*
X170143454Y-66395888D01*
X170107681Y-66431662D01*
X170046358Y-66465147D01*
X169976666Y-66460163D01*
X169932319Y-66431662D01*
X169866545Y-66365888D01*
X169866541Y-66365885D01*
X169751817Y-66289228D01*
X169751804Y-66289221D01*
X169624332Y-66236421D01*
X169624322Y-66236418D01*
X169488995Y-66209500D01*
X169488993Y-66209500D01*
X169351007Y-66209500D01*
X169351005Y-66209500D01*
X169215677Y-66236418D01*
X169215667Y-66236421D01*
X169088195Y-66289221D01*
X169088182Y-66289228D01*
X168973458Y-66365885D01*
X168973454Y-66365888D01*
X168875888Y-66463454D01*
X168875885Y-66463458D01*
X168799228Y-66578182D01*
X168799221Y-66578195D01*
X168746421Y-66705667D01*
X168746418Y-66705677D01*
X168719500Y-66841004D01*
X168719500Y-66841007D01*
X168719500Y-66978993D01*
X168719500Y-66978995D01*
X168719499Y-66978995D01*
X167814125Y-66978995D01*
X167909892Y-66780936D01*
X177982756Y-45948995D01*
X207249499Y-45948995D01*
X207276418Y-46084322D01*
X207276421Y-46084332D01*
X207329221Y-46211804D01*
X207329228Y-46211817D01*
X207405885Y-46326541D01*
X207405888Y-46326545D01*
X207503454Y-46424111D01*
X207503458Y-46424114D01*
X207618182Y-46500771D01*
X207618195Y-46500778D01*
X207721532Y-46543581D01*
X207745672Y-46553580D01*
X207745676Y-46553580D01*
X207745677Y-46553581D01*
X207881004Y-46580500D01*
X207881007Y-46580500D01*
X208018995Y-46580500D01*
X208110041Y-46562389D01*
X208154328Y-46553580D01*
X208281811Y-46500775D01*
X208396542Y-46424114D01*
X208494114Y-46326542D01*
X208565238Y-46220098D01*
X208618850Y-46175292D01*
X208688175Y-46166585D01*
X208751202Y-46196739D01*
X208771442Y-46220096D01*
X208835888Y-46316545D01*
X208933454Y-46414111D01*
X208933458Y-46414114D01*
X209048182Y-46490771D01*
X209048195Y-46490778D01*
X209175667Y-46543578D01*
X209175672Y-46543580D01*
X209175676Y-46543580D01*
X209175677Y-46543581D01*
X209311004Y-46570500D01*
X209311007Y-46570500D01*
X209448995Y-46570500D01*
X209540041Y-46552389D01*
X209584328Y-46543580D01*
X209711811Y-46490775D01*
X209826542Y-46414114D01*
X209924114Y-46316542D01*
X210000775Y-46201811D01*
X210053580Y-46074328D01*
X210062389Y-46030041D01*
X210080500Y-45938995D01*
X210080500Y-45801004D01*
X210053581Y-45665677D01*
X210053580Y-45665676D01*
X210053580Y-45665672D01*
X210019508Y-45583414D01*
X210000778Y-45538195D01*
X210000771Y-45538182D01*
X209924114Y-45423458D01*
X209924111Y-45423454D01*
X209826545Y-45325888D01*
X209826541Y-45325885D01*
X209711817Y-45249228D01*
X209711804Y-45249221D01*
X209584332Y-45196421D01*
X209584322Y-45196418D01*
X209448995Y-45169500D01*
X209448993Y-45169500D01*
X209311007Y-45169500D01*
X209311005Y-45169500D01*
X209175677Y-45196418D01*
X209175667Y-45196421D01*
X209048195Y-45249221D01*
X209048182Y-45249228D01*
X208933458Y-45325885D01*
X208933454Y-45325888D01*
X208835888Y-45423454D01*
X208835885Y-45423458D01*
X208764761Y-45529902D01*
X208711148Y-45574707D01*
X208641823Y-45583414D01*
X208578796Y-45553259D01*
X208558557Y-45529902D01*
X208494114Y-45433458D01*
X208494111Y-45433454D01*
X208396545Y-45335888D01*
X208396541Y-45335885D01*
X208281817Y-45259228D01*
X208281804Y-45259221D01*
X208154332Y-45206421D01*
X208154322Y-45206418D01*
X208018995Y-45179500D01*
X208018993Y-45179500D01*
X207881007Y-45179500D01*
X207881005Y-45179500D01*
X207745677Y-45206418D01*
X207745667Y-45206421D01*
X207618195Y-45259221D01*
X207618182Y-45259228D01*
X207503458Y-45335885D01*
X207503454Y-45335888D01*
X207405888Y-45433454D01*
X207405885Y-45433458D01*
X207329228Y-45548182D01*
X207329221Y-45548195D01*
X207276421Y-45675667D01*
X207276418Y-45675677D01*
X207249500Y-45811004D01*
X207249500Y-45811007D01*
X207249500Y-45948993D01*
X207249500Y-45948995D01*
X207249499Y-45948995D01*
X177982756Y-45948995D01*
X178078523Y-45750936D01*
X179336143Y-43150021D01*
X179383048Y-43098236D01*
X179447778Y-43080000D01*
X218140504Y-43080000D01*
X218207543Y-43099685D01*
G37*
%TD.AperFunction*%
%TD*%
M02*
