M48
; DRILL file KiCad 10.0.3 date 2026-08-08T18:04:02
; FORMAT={-:-/ absolute / metric / decimal}
; #@! TF.CreationDate,2026-08-08T18:04:02-05:00
; #@! TF.GenerationSoftware,Kicad,Pcbnew,10.0.3
; #@! TF.FileFunction,Plated,1,4,PTH
FMAT,2
METRIC
; #@! TA.AperFunction,Plated,PTH,ViaDrill
T1C0.300
; #@! TA.AperFunction,Plated,PTH,ComponentDrill
T2C0.800
; #@! TA.AperFunction,Plated,PTH,ComponentDrill
T3C0.813
; #@! TA.AperFunction,Plated,PTH,ComponentDrill
T4C0.914
; #@! TA.AperFunction,Plated,PTH,ComponentDrill
T5C1.016
; #@! TA.AperFunction,Plated,PTH,ComponentDrill
T6C1.020
; #@! TA.AperFunction,Plated,PTH,ComponentDrill
T7C1.295
; #@! TA.AperFunction,Plated,PTH,ComponentDrill
T8C1.300
; #@! TA.AperFunction,Plated,PTH,ComponentDrill
T9C1.400
; #@! TA.AperFunction,Plated,PTH,ComponentDrill
T10C1.499
; #@! TA.AperFunction,Plated,PTH,ComponentDrill
T11C1.600
%
G90
G05
T1
X145.35Y-69.27
X146.27Y-71.72
X146.6Y-55.6
X147.17Y-69.25
X147.2Y-59.26
X147.68Y-55.6
X148.04Y-71.72
X148.7Y-68.78
X148.73Y-55.6
X149.7Y-55.62
X149.79Y-68.79
X150.44Y-71.72
X152.82Y-67.42
X153.77Y-69.99
X153.77Y-71.18
X155.55Y-72.68
X156.21Y-93.35
X156.21Y-94.07
X156.21Y-94.87
X156.53Y-69.23
X158.97Y-77.96
X159.34Y-81.43
X159.73Y-77.96
X160.29Y-79.03
X160.41Y-74.73
X160.41Y-75.4
X160.73Y-56.97
X160.75Y-57.8
X161.23Y-81.46
X162.12Y-79.02
X162.71Y-76.92
X163.11Y-74.58
X163.21Y-72.59
X163.32Y-81.86
X164.925Y-89.55
X166.15Y-88.85
X167.35Y-89.55
X167.39Y-82.94
X167.41Y-81.42
X167.56Y-79.06
X169.42Y-66.91
X170.59Y-66.94
X178.41Y-76.15
X178.42Y-75.32
X179.05Y-57.55
X179.29Y-55.88
X179.45Y-76.14
X179.46Y-75.31
X180.21Y-66.75
X180.49Y-68.73
X181.22Y-66.75
X181.5Y-55.84
X182.21Y-68.69
X182.85Y-58.89
X183.89Y-76.03
X184.83Y-75.28
X186.03Y-71.39
X186.24Y-51.56
X186.28Y-52.53
X186.42Y-87.39
X186.57Y-76.42
X187.2Y-61.5
X187.74Y-68.86
X188.56Y-64.97
X188.59Y-76.42
X188.62Y-53.13
X189.55Y-73.83
X189.59Y-49.8
X190.61Y-76.44
X191.08Y-84.6
X191.09Y-49.81
X192.35Y-63.24
X193.72Y-47.48
X193.74Y-48.89
X194.02Y-92.55
X194.02Y-95.82
X195.12Y-58.27
X195.58Y-65.79
X195.6Y-67.75
X195.75Y-90.72
X196.65Y-58.29
X198.31Y-66.81
X198.31Y-71.8
X202.93Y-71.5
X202.93Y-73.46
X203.97Y-89.22
X204.58Y-96.57
X204.73Y-88.49
X205.31Y-97.33
X207.79Y-53.7
X207.79Y-55.65
X207.81Y-54.64
X207.81Y-56.55
X207.95Y-45.88
X207.97Y-63.91
X207.98Y-62.84
X207.99Y-61.71
X209.13Y-64.46
X209.38Y-45.87
X210.26Y-64.47
X211.33Y-64.48
X211.59Y-53.91
X211.59Y-54.71
X211.59Y-55.6
X211.59Y-56.4
X212.29Y-63.91
X212.29Y-84.44
X212.3Y-62.84
X212.31Y-61.71
X213.37Y-49.06
X213.51Y-79.29
X213.71Y-97.4
X214.39Y-88.52
X214.46Y-79.29
X214.47Y-96.67
X215.12Y-89.28
X215.188Y-50.59
X215.19Y-51.27
X215.19Y-51.99
X215.198Y-52.7
X215.45Y-79.26
X215.71Y-82.73
X216.08Y-50.59
X216.082Y-51.27
X216.082Y-51.99
X216.09Y-52.7
X216.32Y-79.26
X216.968Y-50.59
X216.97Y-51.27
X216.97Y-51.99
X216.978Y-52.7
X217.42Y-61.08
X220.21Y-49.89
X220.885Y-53.71
X221.12Y-51.175
X227.38Y-54.74
X230.87Y-45.02
X234.93Y-90.28
X234.93Y-93.84
X236.02Y-91.23
X236.02Y-92.11
X236.02Y-93.07
X236.44Y-85.94
X236.45Y-79.35
X237.05Y-61.3
X237.06Y-59.5
X237.07Y-58.64
X237.07Y-60.35
X237.39Y-85.96
X237.4Y-79.37
X237.98Y-58.13
X238.24Y-85.95
X238.25Y-79.36
X238.93Y-58.15
X239.1Y-85.96
X239.11Y-79.37
X239.78Y-58.14
X240.64Y-58.15
X241.57Y-70.07
X241.7Y-46.5
X241.71Y-44.7
X241.72Y-43.84
X241.72Y-45.55
X242.88Y-83.48
X246.28Y-53.16
X247.23Y-53.18
X248.08Y-53.17
X248.94Y-53.18
X250.01Y-84.91
X250.02Y-83.11
X250.03Y-82.25
X250.03Y-83.96
X250.04Y-72.99
X250.05Y-71.19
X250.06Y-70.33
X250.06Y-72.04
T2
X150.102Y-75.56
X150.102Y-78.1
X150.102Y-80.64
X155.182Y-75.56
X155.182Y-78.1
X155.182Y-80.64
T3
X164.425Y-59.475
X164.425Y-62.015
X164.425Y-64.555
T4
X233.256Y-45.03
X243.256Y-45.03
X246.52Y-71.55
X251.524Y-71.55
T5
X246.0Y-83.44
X251.512Y-83.44
T6
X191.485Y-94.18
X194.025Y-94.18
X196.565Y-94.18
T7
X209.565Y-92.475
T8
X156.035Y-90.875
X161.115Y-90.875
X166.195Y-90.875
X171.275Y-90.875
X224.995Y-82.725
X237.695Y-82.725
T9
X228.735Y-92.025
X233.815Y-92.025
X247.585Y-55.115
X247.585Y-60.195
T10
X206.39Y-89.3
X206.39Y-95.65
X212.74Y-89.3
X212.74Y-95.65
T11
X176.425Y-70.575
X176.425Y-75.655
X178.965Y-73.115
X181.505Y-70.575
X181.505Y-75.655
M30
